<?xml version="1.0" standalone="no"?>
<!DOCTYPE svg PUBLIC "-//W3C//DTD SVG 20010904//EN"
 "http://www.w3.org/TR/2001/REC-SVG-20010904/DTD/svg10.dtd">
<svg version="1.0" xmlns="http://www.w3.org/2000/svg"
 width="2364.000000pt" height="864.000000pt" viewBox="0 0 2364.000000 864.000000"
 preserveAspectRatio="xMidYMid meet">

<g transform="translate(0.000000,864.000000) scale(0.100000,-0.100000)"
fill="#000000" stroke="none">
<path d="M4829 8553 c-40 -112 -41 -113 -98 -113 -53 -1 -81 -18 -81 -49 0
-19 6 -21 49 -21 28 0 53 -5 56 -10 10 -16 -86 -292 -112 -321 -28 -30 -29
-49 -5 -79 23 -29 66 -21 77 12 16 46 17 -58 1 -120 -21 -78 -20 -89 4 -97 27
-9 46 8 54 48 l6 32 23 -29 c30 -37 83 -47 225 -39 105 6 114 8 132 31 39 49
18 120 -46 158 -36 21 -47 23 -65 14 -19 -11 -27 -7 -69 35 -76 75 -118 48
-60 -39 43 -64 71 -81 109 -68 24 9 32 7 45 -7 24 -27 19 -41 -14 -41 -16 0
-61 -5 -99 -12 -88 -15 -101 -7 -101 67 0 52 -19 85 -49 85 -6 0 -16 11 -21
25 -6 15 -17 25 -30 25 -11 0 -20 3 -20 6 0 8 61 226 70 249 4 11 11 34 16 50
9 28 13 30 59 33 49 2 51 1 75 -38 28 -47 161 -177 217 -214 80 -53 162 -40
135 19 -7 14 -18 25 -26 25 -9 0 -32 9 -52 21 -53 29 -235 190 -231 203 2 6
17 13 34 17 16 3 35 9 41 13 16 9 15 49 0 64 -14 14 -72 16 -96 3 -9 -5 -39
-12 -66 -16 l-49 -7 7 40 c3 22 3 48 0 56 -10 25 -34 19 -45 -11z"/>
<path d="M5825 8530 c-4 -6 4 -27 17 -48 13 -20 34 -58 48 -84 54 -101 164
-199 264 -234 73 -26 115 -10 102 39 -4 19 -17 26 -60 37 -78 19 -167 78 -218
146 -53 71 -128 154 -139 154 -4 0 -11 -5 -14 -10z"/>
<path d="M3082 8465 c-34 -36 -62 -70 -62 -75 0 -6 9 -19 20 -30 20 -20 20
-29 15 -193 -3 -95 -10 -208 -15 -252 -5 -44 -11 -114 -12 -155 l-3 -75 32 -3
31 -3 6 78 c4 43 11 125 18 183 6 59 9 182 6 280 l-5 175 34 40 c36 42 42 87
13 93 -9 1 -44 -27 -78 -63z"/>
<path d="M6572 8508 c-7 -7 -12 -20 -12 -30 0 -13 -8 -18 -27 -18 -32 0 -99
-22 -114 -37 -20 -20 19 -43 71 -43 l49 0 -60 -122 c-34 -67 -76 -146 -96
-175 -41 -62 -41 -96 -2 -101 20 -2 32 4 49 28 28 40 41 30 33 -25 -6 -49 7
-75 37 -75 30 0 42 27 47 102 5 81 15 98 59 101 28 2 29 1 33 -53 1 -30 -2
-102 -8 -160 -6 -58 -13 -173 -16 -256 -6 -143 -5 -152 13 -156 50 -13 66 41
80 272 7 124 7 125 32 128 67 8 103 40 150 132 45 87 48 140 11 189 -16 21
-26 24 -97 25 l-79 1 0 30 c-1 47 -14 75 -35 75 -20 0 -22 -5 -37 -90 -7 -38
-14 -48 -43 -62 -68 -33 -84 -14 -49 60 12 26 28 63 35 82 11 33 15 35 68 40
66 6 92 26 82 65 -7 26 -9 27 -64 23 -53 -3 -57 -1 -60 20 -4 28 -34 46 -50
30z m255 -354 c19 -5 20 -9 11 -32 -24 -62 -52 -113 -69 -128 -18 -16 -20 -16
-39 1 -18 16 -20 29 -18 84 l3 66 40 6 c22 3 42 7 45 7 3 1 15 -1 27 -4z"/>
<path d="M3287 8436 c7 -76 -5 -93 -79 -121 -92 -34 -90 -71 3 -61 43 4 59 2
60 -7 0 -6 3 -33 5 -58 l4 -46 -45 -13 c-59 -17 -95 -45 -95 -75 0 -35 14 -38
59 -15 56 28 73 26 69 -7 -3 -25 -8 -29 -53 -36 -56 -9 -79 -25 -69 -50 5 -13
19 -17 59 -17 58 0 79 -15 49 -36 -10 -7 -27 -20 -36 -29 -9 -9 -34 -23 -55
-30 -29 -10 -38 -18 -38 -37 0 -31 32 -34 127 -12 40 9 116 19 168 21 97 5
120 13 120 43 0 34 -29 45 -118 45 -97 0 -109 10 -63 51 38 33 39 48 6 70 -34
22 -31 38 8 55 45 20 45 58 -1 78 -18 8 -34 24 -37 35 -15 77 -14 84 6 89 11
3 35 3 54 0 25 -4 38 0 54 16 41 41 16 75 -54 73 l-45 -2 0 48 c0 53 -21 92
-49 92 -17 0 -18 -7 -14 -64z"/>
<path d="M5742 8464 c-12 -8 -22 -19 -22 -24 0 -5 -13 -37 -29 -72 -16 -35
-42 -97 -57 -138 -15 -41 -36 -84 -46 -96 -33 -37 -13 -79 33 -72 27 4 48 40
78 133 12 39 26 79 31 90 5 11 14 38 21 60 7 22 17 44 21 50 11 12 10 72 0 79
-5 3 -18 -2 -30 -10z"/>
<path d="M2820 8424 c0 -53 -20 -113 -52 -158 -31 -43 -26 -60 19 -77 33 -12
29 -32 -15 -71 -58 -53 -73 -77 -61 -101 11 -19 40 -20 81 -3 11 5 18 1 23
-13 7 -22 -11 -134 -27 -167 -16 -33 -6 -59 23 -62 33 -4 41 6 78 101 35 87
38 115 16 124 -9 3 -25 22 -35 43 -19 37 -19 39 -1 62 30 38 37 93 15 126 -14
21 -18 48 -18 127 -1 96 -2 100 -23 103 -20 3 -23 -1 -23 -34z"/>
<path d="M4045 8370 c-16 -4 -67 -8 -112 -9 -80 -1 -83 -2 -83 -25 0 -34 16
-43 93 -51 l68 -7 -7 -71 c-4 -40 -11 -82 -15 -95 -15 -40 -11 -139 7 -156 8
-9 19 -16 24 -16 19 0 40 33 40 63 0 18 4 37 8 42 14 19 52 35 86 35 28 0 34
4 38 24 7 37 -2 44 -57 48 -49 3 -50 4 -53 38 -2 23 6 52 23 83 28 53 31 77
13 95 -13 13 -28 14 -73 2z"/>
<path d="M874 8305 c-10 -25 4 -43 56 -72 107 -60 93 -94 -83 -208 -92 -59
-122 -91 -111 -119 8 -21 81 -22 167 -2 34 8 75 18 90 21 24 5 28 10 25 33 -2
16 -12 31 -25 37 -30 13 -29 15 12 45 73 52 94 123 55 185 -41 67 -170 122
-186 80z"/>
<path d="M5773 8257 c-42 -14 -44 -44 -5 -53 15 -4 30 -9 34 -11 16 -9 -170
-348 -201 -368 -18 -11 -12 -43 9 -50 33 -11 60 4 89 51 l27 45 25 -38 c21
-34 29 -38 69 -41 37 -2 50 1 67 20 28 31 53 107 63 199 5 41 12 87 15 102 11
42 -13 123 -41 141 -26 18 -101 19 -151 3z m117 -97 c0 -77 -43 -280 -59 -280
-5 0 -22 13 -39 28 -29 27 -29 29 -14 57 30 58 72 168 72 189 0 25 19 48 32
40 4 -3 8 -18 8 -34z"/>
<path d="M613 8238 c-6 -7 -19 -40 -28 -72 -28 -95 -8 -246 42 -322 26 -41 83
-75 105 -63 27 14 23 61 -8 90 -50 47 -58 74 -64 229 -4 122 -8 145 -21 148
-9 1 -21 -3 -26 -10z"/>
<path d="M4824 8235 c-28 -21 -9 -44 66 -82 78 -39 155 -45 165 -14 9 28 -5
51 -29 51 -23 0 -137 35 -167 51 -10 5 -23 3 -35 -6z"/>
<path d="M1137 8198 c-2 -7 4 -29 13 -48 42 -81 51 -176 29 -295 -9 -48 -8
-60 4 -72 22 -22 51 -8 70 32 50 105 -15 395 -88 395 -13 0 -25 -6 -28 -12z"/>
<path d="M1944 8196 c-10 -27 22 -64 62 -72 50 -9 203 2 220 17 18 15 18 43
-1 59 -11 9 -31 10 -68 5 -68 -10 -145 -10 -179 0 -21 5 -29 3 -34 -9z"/>
<path d="M3805 8088 c3 -46 2 -105 -2 -133 l-8 -50 -60 -10 c-67 -12 -85 -36
-42 -56 29 -13 397 3 440 20 16 6 84 11 153 11 120 0 125 1 133 23 5 13 4 31
-2 45 -10 22 -14 23 -71 16 -34 -4 -86 -7 -116 -5 -30 1 -93 -7 -140 -18 -47
-12 -115 -21 -152 -21 l-68 0 0 98 c0 79 -4 103 -20 130 -11 17 -27 32 -35 32
-14 0 -15 -12 -10 -82z"/>
<path d="M5170 8006 c0 -20 59 -130 74 -138 21 -12 56 3 56 23 0 29 -39 87
-74 109 -39 23 -56 25 -56 6z"/>
<path d="M2070 7989 c-198 -11 -300 -33 -300 -63 0 -27 32 -35 105 -26 39 5
145 9 236 10 154 0 167 1 188 21 20 19 21 23 8 42 -17 26 -37 28 -237 16z"/>
<path d="M22749 7354 c-9 -3 -21 -16 -28 -30 -10 -23 -9 -25 19 -30 63 -13 61
-57 -5 -88 -20 -10 -40 -28 -45 -42 -8 -20 -16 -24 -50 -24 -36 0 -40 -3 -40
-24 0 -18 8 -27 30 -34 18 -7 32 -20 35 -34 8 -30 0 -282 -10 -325 -6 -29 -5
-33 20 -39 60 -15 88 34 93 165 4 94 -11 205 -30 229 -15 18 -7 23 53 28 30 3
65 11 79 17 33 16 37 51 10 70 -18 12 -20 19 -11 35 37 69 -40 149 -120 126z"/>
<path d="M16688 7319 c-29 -16 -21 -36 22 -53 22 -9 40 -20 40 -25 0 -12 -53
-52 -97 -75 -40 -20 -51 -51 -26 -78 16 -18 26 -19 81 -14 110 11 152 44 121
95 -9 13 -9 27 -2 48 24 69 -73 141 -139 102z"/>
<path d="M18738 7303 c-8 -16 -21 -53 -28 -83 -7 -30 -14 -60 -15 -66 -7 -25
-235 -26 -235 -1 0 5 14 25 30 44 17 18 30 45 30 58 0 42 -38 31 -92 -26 -27
-29 -50 -50 -52 -48 -2 2 -15 28 -30 58 -31 62 -50 80 -87 81 -31 0 -52 -21
-74 -74 -15 -36 -17 -37 -34 -22 -25 23 -32 21 -77 -26 -55 -58 -100 -142
-115 -216 -24 -114 27 -228 97 -220 36 4 44 37 16 65 -10 10 -24 38 -31 62
-19 67 5 152 77 268 l27 42 21 -27 c18 -22 24 -24 37 -14 8 7 20 26 27 42 7
17 18 30 26 30 13 0 54 -113 54 -149 0 -9 -18 -38 -40 -65 -41 -50 -48 -74
-28 -94 19 -19 39 -14 69 14 22 21 29 23 38 12 58 -71 60 -72 106 -69 27 2 55
43 48 69 -3 13 -16 23 -34 27 -35 8 -59 39 -59 77 0 32 7 34 56 13 20 -8 69
-16 110 -17 40 -1 78 -4 84 -8 16 -10 -7 -56 -37 -75 -49 -33 -9 -69 46 -41
29 15 30 15 51 -13 28 -40 74 -49 109 -23 15 11 47 22 72 23 44 4 44 4 49 -31
4 -29 10 -36 32 -38 40 -5 65 37 48 79 -10 23 -10 36 -1 55 15 33 14 56 -2 79
-20 27 -67 13 -67 -19 0 -32 -10 -56 -22 -56 -7 0 -9 37 -4 111 8 116 2 139
-35 139 -26 0 -49 -39 -49 -85 -1 -41 -25 -124 -47 -160 -13 -20 -13 -20 -28
-1 -18 23 -20 102 -4 143 6 15 14 46 19 68 5 22 13 56 18 75 12 47 6 60 -27
60 -19 0 -31 -8 -43 -27z"/>
<path d="M19574 7274 c-11 -27 -15 -61 -12 -115 3 -67 7 -83 34 -121 20 -29
39 -45 59 -48 l30 -5 -3 -85 c-5 -114 -15 -134 -71 -138 -37 -3 -50 2 -83 28
-46 38 -68 34 -68 -13 0 -52 81 -117 144 -117 40 0 94 28 119 62 31 42 39 78
46 213 l6 110 45 3 c25 1 64 -1 88 -5 l44 -8 -26 -38 c-14 -21 -26 -44 -26
-52 0 -26 40 -16 71 18 29 30 31 31 42 13 21 -35 60 -66 82 -66 12 0 36 5 54
11 24 8 39 8 62 -1 27 -12 33 -11 51 8 20 19 20 24 9 60 -8 24 -11 57 -7 83
18 126 19 182 2 195 -21 15 -54 7 -65 -15 -5 -9 -14 -52 -21 -96 -19 -126 -51
-175 -90 -140 -24 22 -30 79 -13 140 7 28 13 69 13 93 0 40 -1 42 -30 42 -36
0 -45 -15 -61 -106 -7 -38 -14 -71 -15 -73 -2 -2 -15 4 -30 13 -26 18 -110 18
-161 1 -20 -6 -22 -4 -25 41 -3 47 -4 49 -32 49 -31 0 -38 -11 -51 -87 -7 -42
-29 -51 -40 -15 -4 12 -10 60 -14 107 -5 70 -9 85 -24 88 -12 3 -22 -8 -33
-34z"/>
<path d="M23271 7297 c-16 -16 -14 -25 10 -55 19 -24 20 -38 18 -199 -2 -152
0 -175 15 -192 27 -29 30 -124 11 -321 -9 -96 -21 -227 -25 -290 -10 -142 -15
-159 -49 -166 -37 -9 -51 -23 -51 -49 0 -27 17 -43 56 -51 35 -7 76 21 100 68
24 47 53 380 54 621 0 144 0 148 23 156 34 13 50 37 43 66 -6 24 -12 27 -66
29 l-25 1 -5 162 c-4 143 -7 165 -26 189 -23 31 -67 47 -83 31z"/>
<path d="M19413 7278 c-17 -24 -52 -113 -68 -173 -10 -38 -15 -89 -13 -139 3
-72 5 -81 30 -99 32 -24 87 -17 106 14 17 26 2 46 -36 51 -25 3 -27 6 -26 48
1 56 17 141 38 200 22 64 21 110 -3 110 -10 0 -23 -6 -28 -12z"/>
<path d="M20410 7273 c0 -9 12 -30 28 -46 26 -28 27 -31 30 -168 4 -134 3
-139 -16 -139 -11 0 -28 -3 -37 -6 -15 -6 -16 -1 -10 39 6 41 4 49 -18 71 -29
29 -54 33 -82 12 -19 -14 -19 -15 -2 -33 27 -31 20 -56 -28 -103 -37 -37 -45
-51 -43 -75 3 -29 4 -30 58 -30 30 0 73 4 96 8 l41 8 -5 -30 c-3 -22 1 -32 15
-40 51 -27 93 29 117 159 12 61 12 89 1 174 -16 117 -23 140 -60 184 -30 36
-85 46 -85 15z"/>
<path d="M12647 7249 c-43 -33 -51 -84 -27 -175 12 -43 24 -82 27 -87 10 -16
4 -156 -8 -178 -6 -12 -23 -32 -38 -45 l-26 -23 18 -33 c11 -18 25 -66 32
-106 12 -70 11 -77 -17 -180 -16 -59 -33 -121 -39 -138 -5 -17 -9 -64 -9 -105
0 -68 4 -80 40 -144 37 -66 74 -114 112 -143 20 -16 117 -52 139 -52 22 0 49
32 49 57 0 27 -15 38 -70 54 -61 17 -101 48 -140 108 -49 78 -52 107 -25 243
14 65 29 127 35 138 23 42 2 208 -31 244 -5 5 5 24 21 42 58 67 63 187 14 330
-13 39 -24 87 -24 107 0 30 5 39 30 52 33 17 36 25 18 43 -18 18 -52 14 -81
-9z"/>
<path d="M19121 7251 c-11 -7 -8 -21 15 -77 36 -89 46 -236 19 -278 -11 -17
-15 -35 -11 -52 6 -21 12 -25 38 -22 20 2 38 13 52 31 18 25 21 42 21 130 -1
97 -2 105 -37 173 -35 69 -62 104 -76 104 -4 0 -13 -4 -21 -9z"/>
<path d="M21757 7208 c-11 -9 -19 -43 -28 -120 -11 -96 -11 -109 5 -132 17
-27 68 -37 81 -16 3 6 13 10 21 10 10 0 14 -12 14 -40 0 -21 5 -73 11 -115 15
-100 8 -109 -79 -102 -35 3 -69 10 -75 16 -29 29 -87 -5 -87 -50 0 -38 32 -49
146 -49 91 0 114 3 142 20 30 18 32 23 31 72 0 29 -4 87 -8 128 -4 41 -6 80
-4 85 7 20 84 35 177 35 52 0 97 -4 100 -9 4 -5 -10 -39 -29 -76 -19 -37 -32
-71 -29 -76 7 -12 41 -11 66 2 14 8 23 8 31 0 6 -6 26 -11 43 -11 18 0 36 -4
39 -10 9 -14 48 -13 63 2 7 7 12 36 12 64 0 55 8 68 33 58 26 -10 28 -35 7
-71 -11 -19 -23 -52 -26 -75 -8 -47 10 -68 58 -68 82 0 197 113 153 150 -13
11 -22 10 -51 -3 -46 -22 -46 -22 -38 18 4 25 1 43 -10 60 -14 21 -24 25 -67
25 l-51 0 6 73 c4 39 12 91 18 115 10 39 9 45 -11 65 -18 18 -24 20 -41 9 -17
-10 -25 -9 -45 4 -13 9 -33 13 -44 9 -23 -7 -61 -83 -61 -122 0 -49 -8 -52
-140 -55 -69 -2 -133 -7 -142 -12 -16 -7 -18 -1 -18 61 0 119 -45 139 -92 43
l-27 -55 0 62 c-1 42 -6 67 -17 77 -19 19 -16 19 -37 4z m540 -280 c-3 -7 -5
-2 -5 12 0 14 2 19 5 13 2 -7 2 -19 0 -25z"/>
<path d="M2115 7153 c3 -16 9 -59 12 -96 l5 -68 -58 3 c-54 3 -58 5 -65 32
-16 58 -81 99 -96 60 -3 -9 1 -29 11 -44 22 -38 20 -49 -10 -76 -28 -27 -25
-40 13 -55 19 -7 24 -15 20 -29 -3 -11 3 -30 13 -43 26 -31 54 -13 58 37 l3
36 54 0 c49 0 53 -2 48 -20 -3 -12 -18 -27 -32 -35 -15 -7 -32 -24 -38 -38
-12 -26 -46 -37 -116 -37 -68 0 -159 -35 -165 -64 -3 -13 8 -16 65 -16 37 0
85 4 105 9 61 14 63 -5 10 -84 -52 -77 -138 -153 -184 -162 -35 -7 -45 -25
-30 -59 20 -43 67 -33 144 31 36 30 71 55 77 55 7 0 11 -22 11 -54 0 -49 -2
-55 -22 -58 -31 -4 -40 -58 -9 -58 11 0 29 -13 41 -30 30 -42 80 -36 80 10 0
30 90 55 105 30 11 -18 54 -11 65 10 8 15 21 20 49 20 38 0 71 23 71 50 0 19
-31 39 -62 40 l-28 0 0 93 c0 129 -18 144 -135 113 -27 -8 -53 -12 -57 -9 -20
11 26 65 77 90 60 30 74 52 52 86 -11 17 -12 29 -3 54 6 17 14 35 19 39 10 10
9 48 -2 76 -6 13 -13 48 -16 79 -4 39 -13 63 -31 82 -34 37 -59 36 -49 0z m68
-573 c11 -10 -12 -131 -27 -146 -6 -6 -30 -16 -54 -22 -37 -9 -44 -8 -52 9
-11 20 -31 159 -25 169 5 8 148 -1 158 -10z"/>
<path d="M9664 7145 c-3 -8 -4 -74 -2 -147 5 -141 18 -186 59 -209 46 -24 62
32 33 112 -9 24 -20 84 -25 133 -6 59 -14 95 -25 108 -21 22 -33 23 -40 3z"/>
<path d="M15518 7113 c-40 -45 -68 -98 -68 -132 0 -44 23 -40 58 12 75 108 97
102 107 -27 7 -95 7 -96 -23 -143 -29 -44 -30 -49 -15 -65 19 -21 36 -23 63
-6 16 10 23 9 44 -11 29 -28 52 -25 78 10 25 34 17 69 -17 69 -24 0 -35 17
-35 52 0 19 4 20 53 13 28 -4 79 -10 112 -14 l59 -6 -27 -18 c-55 -36 -15 -71
48 -42 l35 17 25 -30 c25 -30 27 -31 120 -30 61 1 95 5 96 12 0 6 2 52 5 101
8 152 8 169 1 198 -6 21 -13 27 -36 27 -24 0 -31 -6 -40 -31 -6 -18 -11 -56
-11 -86 0 -72 -33 -143 -66 -143 -22 0 -24 4 -24 53 0 33 11 81 30 132 38 102
38 115 1 115 -36 0 -44 -10 -71 -85 -45 -124 -26 -110 -148 -107 -59 2 -111 7
-115 11 -5 5 6 34 23 67 29 52 30 59 15 70 -24 18 -47 7 -73 -32 -25 -39 -42
-37 -42 4 0 51 -25 72 -84 72 -44 0 -56 -4 -78 -27z"/>
<path d="M16417 7108 c-2 -7 7 -28 20 -46 31 -41 39 -119 23 -212 -6 -36 -13
-80 -17 -97 -4 -28 -1 -34 21 -45 23 -10 29 -9 45 8 47 48 65 210 34 298 -27
73 -111 136 -126 94z"/>
<path d="M13918 7023 c-6 -15 -13 -87 -16 -159 -4 -143 9 -204 45 -204 44 1
46 9 38 178 -7 155 -16 201 -42 210 -7 2 -18 -9 -25 -25z"/>
<path d="M15335 7030 c-43 -48 -58 -197 -29 -293 25 -86 36 -102 72 -105 45
-5 48 13 16 108 -25 76 -26 90 -20 190 5 88 4 109 -8 113 -8 3 -22 -3 -31 -13z"/>
<path d="M21526 7021 c-51 -57 -75 -258 -42 -355 18 -54 39 -75 73 -76 33 0
35 28 8 108 -33 98 -32 162 7 285 10 32 9 40 -3 48 -20 12 -24 11 -43 -10z"/>
<path d="M5820 7015 c-14 -7 -37 -35 -50 -62 -21 -41 -25 -65 -28 -164 l-4
-116 -81 -7 c-91 -8 -97 -10 -97 -36 0 -23 20 -29 110 -32 l65 -3 -1 -160 c-1
-216 -10 -249 -79 -290 -27 -16 -3 -55 33 -55 81 0 135 155 125 358 -7 137 -3
150 48 158 72 12 130 67 100 97 -7 7 -24 5 -55 -7 -25 -10 -58 -16 -73 -14
l-28 3 3 100 c2 71 9 112 22 142 21 49 38 53 95 26 73 -35 66 25 -7 63 -34 17
-66 17 -98 -1z"/>
<path d="M23004 7020 c-26 -10 -38 -38 -23 -56 6 -7 32 -14 57 -16 l47 -3 0
-115 c0 -63 -4 -186 -9 -273 -7 -129 -12 -159 -25 -166 -9 -5 -53 -14 -99 -21
-96 -16 -121 -33 -96 -68 13 -19 24 -22 92 -22 82 0 136 14 179 46 26 20 27
23 35 178 5 87 7 240 6 340 l-3 181 -70 2 c-38 1 -79 -2 -91 -7z"/>
<path d="M4729 6991 c-36 -3 -73 -11 -81 -18 -12 -10 -15 -57 -17 -262 -2
-238 6 -331 28 -331 7 0 116 43 166 66 6 2 15 -6 20 -18 12 -27 40 -35 60 -18
12 10 15 47 15 189 0 223 -9 241 -107 211 -18 -5 -49 -15 -69 -21 -42 -13 -44
-11 -54 38 -5 21 -12 48 -15 61 -7 22 -6 22 79 22 73 0 89 3 106 20 24 24 25
34 4 54 -16 17 -24 17 -135 7z m121 -285 c0 -37 -12 -46 -60 -46 -16 0 -40 -4
-55 -10 -30 -11 -41 4 -31 43 6 25 49 43 109 46 36 1 37 0 37 -33z m-10 -135
c0 -12 -17 -30 -47 -48 -82 -48 -83 -48 -83 0 0 38 3 45 28 54 15 6 44 11 65
12 30 1 37 -3 37 -18z"/>
<path d="M4164 6976 c-3 -8 4 -28 16 -45 29 -38 44 -181 30 -279 -21 -142 -28
-180 -39 -200 -27 -51 2 -92 50 -69 73 37 103 399 44 534 -23 50 -47 73 -80
73 -8 0 -18 -6 -21 -14z"/>
<path d="M2830 6957 c-38 -30 -77 -118 -99 -225 -15 -74 -13 -237 4 -301 14
-56 57 -111 85 -111 40 0 54 54 21 84 -73 66 -42 447 42 516 39 32 -14 69 -53
37z"/>
<path d="M16286 6934 c-3 -9 -11 -58 -18 -110 -14 -114 -4 -147 40 -142 l27 3
3 119 c3 118 -4 146 -33 146 -7 0 -16 -7 -19 -16z"/>
<path d="M13758 6935 c-2 -3 -62 -6 -133 -7 -111 -3 -129 -5 -139 -21 -9 -15
-7 -22 13 -38 20 -16 39 -19 146 -19 143 0 175 8 175 45 0 18 -7 28 -26 35
-29 12 -29 12 -36 5z"/>
<path d="M3636 6917 c-18 -13 -18 -16 2 -78 11 -35 26 -84 33 -109 7 -25 24
-67 37 -93 25 -48 25 -51 20 -255 -3 -114 -3 -213 -1 -219 7 -19 28 -16 49 8
17 19 19 39 19 238 l0 216 63 93 c70 106 77 132 33 132 -22 0 -37 -12 -75 -60
-26 -33 -51 -60 -55 -60 -5 0 -23 37 -41 83 -39 100 -58 123 -84 104z"/>
<path d="M6803 6918 c-6 -7 -16 -38 -23 -68 -6 -30 -16 -72 -21 -93 -23 -88
40 -217 105 -217 24 0 26 -3 26 -47 0 -61 -6 -69 -55 -77 -51 -9 -109 -49
-134 -91 -41 -70 -35 -238 11 -309 42 -64 123 -56 161 18 50 96 75 230 88 471
4 83 11 185 14 227 8 85 1 97 -50 84 -23 -6 -25 -11 -26 -64 -1 -71 -11 -106
-30 -110 -29 -5 -42 61 -29 151 15 104 -4 167 -37 125z m54 -644 c-9 -91 -53
-214 -77 -214 -13 0 -30 77 -30 138 0 57 2 64 38 102 22 22 47 40 57 40 16 0
17 -7 12 -66z"/>
<path d="M5070 6918 c0 -2 -9 -27 -19 -55 -31 -85 -47 -189 -31 -208 17 -21
37 -19 50 4 14 27 32 133 34 201 1 45 -2 55 -16 58 -10 2 -18 2 -18 0z"/>
<path d="M14835 6906 c-15 -11 -19 -39 -26 -199 -4 -103 -12 -204 -18 -224
-38 -152 -43 -215 -19 -240 22 -21 94 -31 229 -32 94 -1 108 1 124 19 15 17
16 24 7 45 -11 25 -13 25 -141 25 -108 0 -132 3 -139 16 -8 15 -7 31 17 159 7
33 14 125 18 205 4 88 10 148 17 152 6 4 34 8 62 8 27 0 55 5 62 12 18 18 -4
47 -41 52 -89 14 -136 14 -152 2z"/>
<path d="M5208 6870 c-20 -4 -49 -15 -65 -26 l-28 -19 55 -3 c33 -2 59 -9 66
-17 12 -16 7 -164 -6 -178 -4 -4 -38 -12 -76 -18 -127 -17 -143 -25 -127 -65
5 -13 22 -15 99 -13 51 2 96 0 99 -3 4 -3 2 -21 -2 -39 -6 -23 -16 -35 -33
-39 -36 -9 -47 -33 -27 -64 39 -58 116 -10 136 85 6 27 11 56 11 63 0 8 7 19
15 26 17 14 20 56 5 65 -5 3 -10 33 -10 66 0 62 -16 145 -32 165 -13 17 -38
21 -80 14z"/>
<path d="M6266 6849 c-32 -38 -33 -54 -3 -45 43 14 51 11 68 -24 34 -70 34
-101 -5 -177 -19 -38 -31 -74 -28 -79 21 -32 75 -21 87 16 9 27 29 25 48 -4 9
-13 32 -33 51 -45 30 -19 38 -20 56 -9 41 26 34 88 -10 88 -20 0 -65 48 -75
79 -9 30 39 118 75 136 34 18 39 40 11 55 -24 12 -58 1 -85 -29 -26 -29 -43
-26 -61 8 -33 65 -89 78 -129 30z"/>
<path d="M3054 6847 c-3 -8 11 -62 31 -120 l36 -107 -22 -33 c-12 -17 -38 -48
-56 -68 -42 -44 -43 -82 -2 -87 20 -2 35 8 67 43 24 25 46 45 51 45 5 0 18
-16 30 -36 17 -29 26 -35 49 -32 40 4 41 43 1 106 -35 57 -35 60 5 166 29 76
27 109 -7 104 -14 -2 -29 -18 -42 -45 -24 -51 -47 -55 -63 -9 -14 39 -49 86
-63 86 -5 0 -12 -6 -15 -13z"/>
<path d="M11720 6838 c-49 -13 -77 -43 -100 -105 -22 -59 -26 -137 -9 -195 21
-77 124 -139 201 -123 52 12 56 85 4 85 -66 0 -126 31 -126 65 0 11 10 13 44
9 53 -8 131 17 164 53 46 50 18 150 -54 189 -52 28 -82 34 -124 22z m99 -91
c6 -8 14 -27 17 -43 7 -35 -13 -48 -87 -58 -62 -9 -75 2 -59 50 7 22 17 45 23
52 13 16 92 16 106 -1z"/>
<path d="M10987 6834 c-3 -4 -102 -10 -219 -15 -214 -9 -342 -18 -518 -40
-130 -15 -367 -27 -740 -36 -173 -5 -322 -12 -330 -18 -8 -5 -239 -10 -545
-13 -583 -3 -610 -4 -620 -13 -13 -14 39 -48 79 -53 86 -11 866 -15 981 -5 66
5 259 12 429 15 170 2 314 8 320 12 6 4 97 10 201 14 105 4 224 12 265 18 74
11 171 17 595 40 229 12 270 21 263 58 -2 9 -19 22 -38 29 -38 13 -113 17
-123 7z"/>
<path d="M12318 6832 c-23 -5 -26 -20 -33 -173 -7 -133 -15 -163 -37 -141 -6
6 -26 12 -43 12 -20 0 -39 8 -51 21 -18 20 -18 21 11 77 18 35 41 62 58 70 31
15 35 38 8 47 -29 9 -66 -4 -92 -31 -30 -33 -46 -30 -63 9 -7 19 -26 43 -41
55 -52 41 -112 19 -63 -23 58 -50 75 -133 38 -192 -18 -30 -50 -55 -67 -52
-22 4 -34 -3 -42 -23 -23 -62 45 -77 122 -28 56 36 61 36 97 10 34 -24 114
-38 124 -21 4 6 12 11 18 11 8 0 9 -44 4 -151 -7 -158 -3 -179 35 -179 42 0
49 24 49 162 l0 131 50 49 c54 53 100 140 100 189 0 64 -62 139 -114 139 -9 0
-19 6 -22 14 -7 17 -23 24 -46 18z m86 -128 c15 -38 -11 -133 -33 -120 -8 5
-4 96 4 124 6 17 22 15 29 -4z"/>
<path d="M7145 6810 c-3 -5 -3 -15 1 -21 30 -49 14 -223 -31 -334 -33 -84 -31
-110 10 -110 26 0 33 7 52 45 37 74 55 159 57 261 1 90 -1 98 -27 132 -28 37
-50 46 -62 27z"/>
<path d="M17705 6787 c-33 -33 -48 -85 -62 -224 l-6 -53 -38 0 c-21 0 -41 5
-44 10 -3 6 -2 10 3 10 11 0 29 39 37 83 13 70 -57 153 -123 145 -19 -2 -28
-10 -30 -25 -3 -18 5 -27 33 -40 85 -41 49 -125 -75 -173 -46 -17 -70 -39 -70
-61 0 -27 32 -33 175 -33 l130 -1 6 -145 c4 -82 13 -164 21 -189 17 -52 43
-70 66 -47 13 13 14 23 4 66 -7 29 -12 115 -12 193 l0 142 62 30 c132 64 167
211 73 310 -27 29 -39 35 -75 35 -34 0 -48 -6 -75 -33z m115 -127 c0 -28 -8
-46 -29 -69 -16 -17 -36 -31 -46 -31 -29 0 -4 150 29 172 18 13 46 -31 46 -72z"/>
<path d="M7523 6790 c-91 -7 -118 -12 -143 -30 -16 -12 -30 -26 -30 -31 0 -19
46 -31 81 -21 19 5 43 5 54 1 30 -11 163 -11 186 1 10 6 19 21 19 34 0 23 -29
57 -46 55 -5 -1 -59 -5 -121 -9z"/>
<path d="M6012 6758 c-13 -37 1 -282 17 -301 17 -21 45 -22 61 -2 10 12 10 35
1 113 -26 216 -24 207 -48 210 -17 2 -25 -3 -31 -20z"/>
<path d="M20896 6684 c-3 -9 -6 -29 -6 -45 l0 -29 -69 0 c-50 0 -74 -4 -85
-16 -19 -18 -19 -20 -6 -45 9 -16 22 -19 81 -19 l70 0 -5 -37 c-3 -21 -8 -57
-12 -80 -5 -35 -3 -43 14 -52 45 -24 72 17 72 109 0 62 6 69 40 48 27 -17 71
7 85 46 8 24 6 31 -15 48 -17 13 -33 18 -52 14 -38 -8 -58 2 -58 28 0 39 -41
63 -54 30z"/>
<path d="M14535 6650 c-33 -4 -121 -9 -195 -10 -74 0 -184 -6 -245 -11 -231
-21 -399 -30 -667 -37 -152 -4 -280 -11 -284 -15 -5 -4 -3 -16 2 -25 22 -34
311 -43 709 -23 110 6 308 15 440 20 290 12 396 20 413 33 19 16 14 45 -10 62
-24 17 -63 18 -163 6z"/>
<path d="M18140 6642 c-95 -3 -124 -12 -103 -33 8 -8 8 -19 0 -40 -9 -24 -8
-32 5 -45 21 -21 45 -12 58 21 l10 25 297 0 c164 0 388 -5 498 -10 177 -9 767
-21 1175 -24 138 -1 145 0 148 19 5 42 -12 50 -135 59 -65 5 -224 10 -353 11
-129 1 -442 5 -695 9 -581 10 -786 12 -905 8z"/>
<path d="M17179 6631 c-42 -3 -83 -12 -93 -20 -21 -17 -21 -47 0 -59 26 -15
206 -2 227 16 34 30 14 73 -32 70 -15 -1 -60 -4 -102 -7z"/>
<path d="M11397 6615 c-19 -19 -12 -42 15 -51 29 -9 57 20 42 44 -15 23 -38
26 -57 7z"/>
<path d="M16325 6618 c-44 -4 -118 -13 -165 -18 -47 -6 -287 -10 -534 -10
-304 0 -453 -3 -460 -10 -7 -7 -7 -16 0 -28 10 -15 41 -18 255 -25 275 -10
658 -10 1045 -2 243 6 263 7 283 26 27 25 27 44 -1 63 -18 13 -52 16 -183 14
-88 0 -196 -5 -240 -10z"/>
<path d="M6619 6593 c-6 -46 -4 -112 3 -126 6 -11 18 -17 31 -15 20 3 22 9 22
66 0 45 -5 66 -15 72 -18 12 -40 13 -41 3z"/>
<path d="M7338 6590 c-10 -6 -18 -20 -18 -32 0 -31 29 -47 82 -48 26 0 81 -5
123 -11 84 -11 110 -7 125 22 12 22 0 53 -26 63 -32 12 -268 17 -286 6z"/>
<path d="M21273 6584 c-11 -30 12 -49 68 -56 30 -4 81 -12 114 -18 157 -28
205 -33 585 -60 256 -18 803 -30 817 -18 19 16 15 56 -6 68 -11 6 -93 10 -193
10 -95 1 -219 5 -276 10 -57 5 -181 10 -275 11 -210 2 -494 26 -692 58 -95 15
-135 13 -142 -5z"/>
<path d="M3414 6527 c1 -33 -6 -68 -18 -95 -18 -39 -18 -44 -4 -58 60 -60 120
103 66 176 -33 45 -46 38 -44 -23z"/>
<path d="M10446 6523 c-17 -17 -500 -37 -528 -22 -38 21 -41 1 -39 -249 2
-198 0 -240 -12 -250 -20 -17 -46 -5 -53 24 -11 41 -67 43 -77 2 -8 -27 25
-91 57 -111 38 -25 98 -22 124 6 39 41 44 79 36 300 l-6 208 93 -6 c52 -4 207
-1 344 6 138 7 281 13 319 14 79 0 99 15 78 59 l-12 26 -158 0 c-87 0 -162 -3
-166 -7z"/>
<path d="M8315 6451 c-15 -47 6 -55 177 -67 80 -6 87 -5 97 14 27 51 -20 72
-165 72 -91 0 -103 -2 -109 -19z"/>
<path d="M13228 6459 c-14 -6 -29 -17 -32 -26 -9 -22 13 -45 36 -37 29 9 107
-16 119 -38 9 -16 4 -26 -28 -56 -22 -20 -69 -55 -106 -76 -76 -44 -81 -49
-72 -75 9 -29 27 -31 128 -20 169 18 176 20 182 39 10 31 -5 50 -39 50 -45 0
-49 8 -21 42 32 38 42 94 24 127 -26 48 -139 89 -191 70z"/>
<path d="M13602 6463 c-17 -7 -49 -71 -73 -145 -47 -149 0 -280 89 -247 38 14
39 39 4 68 -26 21 -32 33 -32 64 0 70 42 205 70 222 5 3 10 15 10 26 0 14 -7
19 -27 18 -16 0 -34 -3 -41 -6z"/>
<path d="M18893 6438 c-41 -20 -60 -126 -44 -243 12 -83 39 -115 98 -115 59 0
112 80 138 209 5 25 15 36 36 44 34 13 47 43 27 63 -16 17 -159 54 -202 53
-17 0 -41 -5 -53 -11z m125 -103 c3 -25 -50 -157 -65 -162 -23 -8 -44 127 -27
172 10 25 88 17 92 -10z"/>
<path d="M8001 6422 c-13 -24 3 -42 39 -42 42 0 90 -28 90 -52 0 -46 -126
-156 -208 -182 -25 -8 -35 -32 -22 -56 13 -25 100 -33 245 -23 105 8 110 9
113 31 6 40 -14 52 -89 52 -38 0 -69 3 -69 7 0 3 22 30 49 58 104 110 68 200
-86 220 -45 6 -53 4 -62 -13z"/>
<path d="M8935 6430 c-60 -4 -120 -8 -133 -9 -13 0 -35 -13 -49 -27 -26 -26
-26 -26 -19 -142 7 -116 12 -137 42 -166 19 -20 92 -21 119 -2 29 20 64 96 75
158 15 95 22 104 79 111 65 8 71 12 71 47 0 29 -16 41 -53 38 -12 -1 -71 -5
-132 -8z m-22 -96 c3 -4 0 -23 -7 -43 -8 -20 -19 -55 -26 -79 -8 -23 -19 -47
-27 -54 -25 -20 -36 8 -41 97 l-5 85 50 0 c27 0 52 -3 56 -6z"/>
<path d="M14316 6408 c-14 -20 -14 -23 -1 -31 22 -12 18 -38 -9 -72 l-25 -30
-16 38 c-38 91 -114 114 -176 56 -33 -30 -37 -32 -134 -34 -55 -1 -124 -6
-152 -10 l-53 -8 0 42 c0 29 -5 44 -16 48 -32 12 -42 -15 -79 -212 -8 -45 14
-80 50 -80 30 0 30 1 35 65 l5 65 115 0 c63 1 130 4 147 9 37 9 36 16 12 -99
-53 -254 -82 -467 -68 -502 10 -28 44 -30 58 -4 6 10 8 20 6 23 -5 5 28 222
47 306 9 40 15 52 30 52 47 0 128 61 155 118 14 30 18 32 70 32 60 0 87 11
103 40 8 15 6 23 -10 38 -17 16 -18 23 -9 56 18 65 -6 116 -55 116 -8 0 -22
-10 -30 -22z m-136 -107 c13 -26 13 -77 -1 -104 -18 -36 -51 -67 -70 -67 -14
0 -16 5 -9 33 4 17 13 54 20 82 17 73 39 94 60 56z"/>
<path d="M14492 6417 c-14 -17 -3 -32 29 -40 32 -8 49 -44 49 -106 0 -60 -14
-103 -57 -166 -39 -59 -41 -72 -9 -86 40 -18 80 11 116 85 56 113 52 219 -12
292 -24 27 -37 34 -68 34 -21 0 -42 -6 -48 -13z"/>
<path d="M9274 6401 c-59 -27 -70 -60 -56 -164 28 -196 31 -205 75 -228 70
-38 130 75 140 261 l2 45 75 3 c44 2 78 8 82 15 12 19 9 53 -4 65 -7 5 -71 13
-143 16 -114 5 -135 4 -171 -13z m78 -126 c-4 -72 -19 -135 -32 -135 -6 0 -10
9 -10 21 0 12 -7 48 -16 82 -15 60 -15 61 8 79 41 32 53 20 50 -47z"/>
<path d="M18249 6392 l-34 -30 3 -103 c2 -84 6 -110 25 -143 20 -37 27 -41 65
-44 26 -2 50 3 63 12 36 25 89 107 105 163 12 42 20 54 40 58 13 3 35 7 49 10
29 6 47 42 34 66 -7 13 -29 18 -96 23 -49 3 -118 9 -154 12 -64 5 -68 4 -100
-24z m128 -64 c44 -16 44 -49 1 -114 -56 -83 -78 -65 -78 61 0 70 10 77 77 53z"/>
<path d="M16043 6384 c-3 -8 -1 -20 6 -27 19 -19 13 -34 -40 -86 -46 -46 -49
-52 -38 -73 21 -39 41 -47 112 -48 87 0 127 19 127 60 0 29 -1 30 -48 30 -27
0 -51 2 -54 6 -3 3 3 23 13 44 19 40 17 62 -9 93 -19 21 -61 22 -69 1z"/>
<path d="M15594 6370 c-47 -23 -68 -62 -83 -150 -30 -176 166 -240 223 -73 9
26 19 71 23 100 l6 53 42 0 c28 0 47 6 58 18 40 44 14 58 -123 66 -94 6 -109
5 -146 -14z m100 -66 c16 -41 -16 -148 -51 -171 -31 -21 -63 8 -63 56 0 47 23
106 47 120 27 16 60 13 67 -5z"/>
<path d="M10553 6362 c-25 -20 -48 -72 -58 -131 l-7 -42 -25 16 c-20 14 -46
16 -139 13 l-114 -3 0 50 c0 94 -41 103 -58 13 -14 -70 -32 -216 -32 -254 0
-52 41 -72 73 -36 12 13 17 37 17 84 0 73 6 80 55 66 52 -14 171 -10 185 7 7
8 16 15 21 15 5 0 9 -75 9 -167 0 -279 26 -449 68 -441 12 3 17 13 16 38 -1
19 -2 118 -4 220 l-3 184 46 26 c65 35 96 68 123 125 28 58 30 100 9 152 -29
72 -128 108 -182 65z m93 -87 c24 -36 11 -90 -32 -133 -43 -43 -63 -33 -44 23
7 20 10 39 7 42 -6 6 12 63 26 81 14 18 25 15 43 -13z"/>
<path d="M21865 6361 c-89 -16 -117 -52 -114 -149 3 -90 24 -214 45 -254 73
-144 143 -90 224 172 46 151 43 145 80 150 29 4 36 10 38 31 5 43 -20 53 -132
56 -55 1 -119 -2 -141 -6z m110 -118 c-11 -60 -82 -228 -96 -228 -15 0 -23 27
-40 144 -12 83 -11 85 11 103 15 12 39 18 77 18 l55 0 -7 -37z"/>
<path d="M8372 6344 c-15 -28 -19 -241 -5 -255 6 -6 19 -9 29 -7 17 3 19 15
22 105 2 85 -1 109 -16 140 -18 34 -20 35 -30 17z"/>
<path d="M8513 6349 c-7 -7 -9 -31 -6 -63 3 -28 0 -93 -6 -144 -12 -96 -7
-124 24 -136 9 -3 26 -1 37 5 20 11 21 17 15 155 -4 110 -9 150 -21 169 -18
28 -27 30 -43 14z"/>
<path d="M10802 6328 c-18 -18 -15 -46 7 -57 32 -18 31 -38 -5 -79 -46 -54
-45 -85 3 -111 31 -16 90 -14 141 6 39 15 43 19 40 47 -3 28 -7 31 -41 34
l-38 3 7 50 c6 47 5 51 -30 84 -39 37 -64 43 -84 23z"/>
<path d="M22242 6328 c-19 -19 -14 -34 15 -47 l27 -12 -57 -56 c-59 -57 -70
-86 -39 -109 35 -27 189 -11 223 23 6 6 9 21 7 34 -2 19 -10 25 -35 27 -31 3
-45 24 -24 36 4 3 11 20 15 38 9 46 -23 78 -79 78 -22 0 -46 -5 -53 -12z"/>
<path d="M19235 6241 c-3 -5 -1 -12 5 -16 5 -3 10 -18 10 -33 0 -20 -17 -44
-60 -89 -61 -62 -72 -90 -45 -113 20 -16 111 -8 185 17 48 16 55 22 58 47 4
33 -10 46 -51 46 -24 0 -26 2 -17 19 5 11 10 38 10 60 0 30 -6 44 -22 55 -25
18 -64 21 -73 7z"/>
<path d="M9035 6215 c-3 -8 -8 -23 -11 -32 -14 -43 -29 -161 -24 -188 4 -23
11 -31 31 -33 43 -5 51 17 50 133 -1 58 -4 112 -7 120 -8 19 -33 19 -39 0z"/>
<path d="M18571 6163 c-13 -71 -17 -136 -7 -151 11 -19 54 -14 66 7 5 11 10
52 10 91 0 79 -11 110 -39 110 -14 0 -21 -12 -30 -57z"/>
<path d="M9533 6193 c-4 -11 0 -21 11 -27 46 -27 58 -43 52 -63 -6 -18 -80
-74 -119 -89 -20 -7 -30 -35 -21 -58 6 -14 21 -16 118 -14 106 3 111 4 114 25
2 15 -5 27 -25 39 -15 10 -30 19 -32 21 -2 2 3 11 11 20 20 24 28 70 17 103
-18 49 -111 82 -126 43z"/>
<path d="M15786 6138 c-10 -70 -24 -292 -19 -304 7 -18 25 -23 51 -13 21 8 22
12 22 152 0 170 -5 207 -30 207 -13 0 -19 -11 -24 -42z"/>
<path d="M1132 5198 c-19 -19 -14 -38 12 -48 28 -10 42 -55 25 -76 -19 -23
-72 -14 -84 14 -6 13 -19 22 -32 22 -25 0 -34 -18 -21 -43 7 -14 3 -19 -19
-28 -15 -6 -41 -13 -58 -16 -48 -9 -65 -22 -65 -49 0 -24 1 -25 53 -17 102 14
100 15 110 -47 6 -37 5 -70 -3 -106 -7 -29 -10 -59 -7 -68 7 -17 -52 -39 -138
-53 -45 -8 -50 -11 -53 -36 l-3 -29 73 5 c40 2 89 9 108 15 19 6 45 14 58 17
15 5 22 3 22 -7 0 -12 -33 -47 -143 -151 -39 -37 -41 -61 -7 -72 26 -8 68 15
134 76 l56 51 61 -41 c34 -23 67 -41 74 -41 19 0 37 27 33 51 -3 24 -12 30
-80 55 -27 9 -48 21 -48 27 0 6 18 32 40 58 21 26 47 63 57 83 16 34 16 38 0
65 -12 21 -17 52 -17 112 0 78 2 85 26 104 32 25 27 56 -11 73 -14 7 -30 24
-36 39 -23 62 -85 93 -117 61z m58 -227 c0 -27 -13 -33 -44 -21 -43 16 -31 32
32 39 6 0 12 -8 12 -18z"/>
<path d="M1650 4966 l0 -73 -53 -17 c-116 -37 -125 -72 -16 -62 l69 6 0 -29
c0 -21 -11 -38 -42 -65 -24 -19 -54 -45 -67 -57 -13 -11 -27 -17 -31 -12 -4 4
-18 37 -30 73 -33 95 -60 129 -87 112 -15 -10 20 -191 46 -240 14 -27 54 -29
73 -4 10 13 29 18 76 20 l62 2 0 -52 c-1 -29 -5 -151 -10 -271 -10 -236 -6
-267 36 -267 37 0 44 45 51 340 3 151 10 280 15 287 5 6 23 15 39 18 36 8 50
48 26 73 -15 14 -13 18 18 49 24 24 35 43 35 63 0 38 -23 50 -98 50 l-60 0 -6
38 c-14 81 -18 92 -32 92 -11 0 -14 -17 -14 -74z"/>
<path d="M7244 4953 c-83 -87 -105 -165 -124 -439 -11 -162 -3 -225 32 -232
19 -4 24 15 38 143 5 50 13 108 17 129 8 38 10 40 48 41 22 1 52 9 67 19 61
40 104 201 79 293 -12 45 -60 93 -92 93 -11 0 -40 -21 -65 -47z m73 -133 c-9
-85 -41 -140 -79 -140 -18 0 -19 5 -13 42 8 44 39 123 57 145 6 7 17 13 26 13
12 0 14 -10 9 -60z"/>
<path d="M2733 4956 c-29 -7 -54 -11 -57 -9 -2 2 -30 -2 -62 -10 -33 -9 -81
-18 -109 -22 -92 -13 -105 -32 -75 -112 11 -29 20 -71 20 -91 0 -46 32 -115
62 -136 37 -26 80 -20 114 17 36 38 54 94 61 193 5 56 10 75 22 78 9 2 40 10
69 16 42 10 53 17 58 36 7 28 -11 54 -35 53 -9 0 -40 -6 -68 -13z m-109 -115
c3 -4 1 -35 -5 -67 -26 -138 -64 -164 -87 -59 -7 33 -16 70 -19 82 -10 41 3
53 56 53 27 0 52 -4 55 -9z"/>
<path d="M13172 4948 c-13 -13 -8 -93 14 -215 9 -45 13 -87 10 -92 -3 -5 4
-21 15 -35 20 -25 20 -31 10 -119 -6 -50 -16 -119 -21 -152 -20 -129 -22 -201
-6 -214 34 -28 50 -9 63 69 24 159 33 250 33 347 l0 101 43 44 c23 24 59 57
80 72 40 29 44 51 15 70 -21 13 -70 -9 -122 -55 -20 -17 -39 -29 -43 -26 -3 4
-9 37 -12 74 -7 71 -35 143 -55 143 -7 0 -17 -5 -24 -12z"/>
<path d="M4474 4940 c-105 -8 -132 -16 -176 -58 -24 -22 -28 -33 -28 -81 0
-101 49 -196 116 -229 32 -15 36 -15 61 4 27 21 34 39 70 199 l18 80 55 10
c46 9 56 15 58 34 5 30 -15 51 -47 50 -14 -1 -71 -5 -127 -9z m-7 -102 c-2 -7
-15 -47 -27 -88 -13 -41 -27 -79 -31 -84 -12 -13 -48 53 -55 102 -9 58 12 82
74 82 31 0 43 -4 39 -12z"/>
<path d="M10107 4933 c-6 -10 -23 -91 -37 -167 -14 -82 -13 -219 2 -234 15
-15 55 -16 64 0 4 6 8 69 9 139 1 87 6 133 15 144 10 11 34 15 106 15 51 0 95
-3 98 -8 2 -4 0 -27 -5 -52 -5 -25 -12 -88 -15 -141 -5 -77 -3 -103 9 -128 15
-30 15 -31 -6 -31 -12 1 -35 12 -52 25 -26 21 -28 27 -18 44 7 11 15 42 19 71
8 62 -8 100 -43 100 -21 0 -23 -5 -23 -43 0 -43 -61 -212 -96 -265 -18 -28
-13 -46 16 -62 18 -10 25 -7 50 20 17 18 30 40 30 50 0 31 20 34 48 8 48 -43
77 -53 112 -38 17 7 35 21 40 31 13 24 13 62 -1 76 -13 13 -7 190 11 317 10
72 9 81 -7 97 -16 16 -28 17 -119 9 -56 -5 -113 -12 -127 -15 -22 -6 -27 -3
-33 19 -6 25 -37 37 -47 19z"/>
<path d="M11632 4871 c-47 -53 -62 -77 -62 -100 0 -47 34 -65 107 -55 32 5 71
7 86 6 34 -4 57 13 57 42 0 34 -19 46 -72 46 -26 0 -48 2 -48 5 0 2 10 24 21
49 12 24 19 51 16 60 -12 31 -44 15 -105 -53z"/>
<path d="M10780 4683 c0 -200 -4 -265 -19 -337 -17 -87 -17 -90 1 -108 14 -14
23 -16 38 -8 26 14 30 23 42 88 20 106 12 525 -11 585 -7 17 -18 27 -31 27
-20 0 -20 -6 -20 -247z"/>
<path d="M5598 4893 c-34 -21 -39 -33 -44 -108 -11 -146 -4 -177 48 -194 62
-20 154 34 198 116 40 74 14 138 -73 178 -61 29 -92 31 -129 8z m100 -99 c30
-21 28 -42 -10 -81 -51 -53 -63 -46 -58 32 3 63 25 79 68 49z"/>
<path d="M11178 4883 c-18 -23 2 -44 55 -60 l47 -14 0 -59 0 -60 -69 0 c-75 0
-104 -17 -85 -47 10 -16 90 -42 132 -43 28 0 28 -6 -6 -57 -112 -172 -118
-186 -77 -205 19 -9 29 -7 50 6 26 17 27 17 32 -3 6 -22 43 -37 68 -27 11 4
15 21 15 67 0 59 2 64 45 115 48 56 54 74 30 94 -14 12 -13 15 5 32 32 30 21
56 -31 67 -32 6 -34 10 -41 56 -4 28 -4 53 0 57 4 4 28 2 54 -4 56 -13 81 0
76 41 -4 38 -37 48 -170 54 -95 3 -120 2 -130 -10z"/>
<path d="M15398 4853 c-64 -71 -138 -206 -162 -300 -23 -87 -21 -190 4 -230
37 -61 90 -34 72 36 -12 50 2 202 23 244 8 17 15 36 15 43 0 7 16 46 35 87 19
41 35 79 35 85 0 5 7 15 15 22 18 15 20 40 2 40 -7 0 -25 -12 -39 -27z"/>
<path d="M3363 4848 c-58 -65 -72 -175 -29 -225 20 -24 31 -27 78 -27 63 0 99
19 128 67 39 64 21 125 -54 178 -48 36 -94 38 -123 7z m90 -96 c35 -30 11 -72
-42 -72 -18 0 -21 6 -21 44 0 58 18 66 63 28z"/>
<path d="M5070 4851 c-8 -16 -5 -23 19 -40 16 -12 33 -21 37 -21 16 0 124 -45
124 -52 0 -4 -11 -15 -25 -25 -81 -57 -125 -97 -125 -112 0 -21 30 -51 51 -51
35 0 193 135 211 180 20 52 -2 78 -87 100 -16 5 -56 15 -88 24 -76 21 -104 20
-117 -3z"/>
<path d="M7628 4826 c-18 -25 -61 -65 -95 -91 -55 -41 -63 -51 -63 -80 0 -57
72 -104 196 -127 48 -9 70 -9 89 0 58 26 6 92 -72 92 -45 0 -103 23 -103 40 0
5 13 16 29 25 30 15 88 80 110 123 16 30 -2 62 -34 62 -18 0 -34 -13 -57 -44z"/>
<path d="M8046 4854 c-14 -13 -16 -49 -16 -233 0 -229 5 -257 46 -250 10 2 27
20 37 39 19 36 19 93 1 340 -8 106 -31 141 -68 104z"/>
<path d="M13633 4863 c-18 -7 -16 -39 3 -68 33 -51 14 -249 -35 -359 -11 -27
-21 -57 -21 -67 0 -22 33 -34 58 -20 42 22 92 204 92 331 0 54 -28 141 -56
171 -18 20 -21 21 -41 12z"/>
<path d="M19614 4855 c-4 -9 8 -31 30 -55 20 -22 36 -46 36 -54 0 -28 -13 -48
-37 -57 -28 -10 -37 -30 -29 -63 9 -36 60 -50 112 -32 34 12 39 17 36 42 -3
35 -3 52 0 99 2 40 -22 79 -72 113 -38 26 -68 28 -76 7z"/>
<path d="M14766 4844 c-3 -9 -6 -29 -6 -44 0 -16 -4 -39 -9 -52 -6 -13 -24
-63 -41 -113 -56 -162 -73 -200 -98 -227 -24 -26 -24 -28 -8 -53 13 -19 24
-25 44 -23 20 2 32 16 57 63 17 33 36 76 42 95 13 39 31 93 45 129 15 40 28 6
28 -74 1 -38 7 -92 14 -120 13 -48 15 -50 51 -53 37 -3 75 18 75 43 0 6 47 83
105 171 58 87 105 167 105 177 0 23 -42 42 -65 30 -10 -6 -56 -68 -104 -138
-47 -71 -91 -130 -98 -132 -7 -3 -13 27 -18 94 -9 115 -37 218 -65 233 -27 14
-47 12 -54 -6z"/>
<path d="M12332 4837 c-53 -63 -99 -330 -73 -425 15 -57 46 -92 80 -92 60 1
84 60 34 83 -40 17 -43 24 -43 112 0 100 30 221 60 242 16 11 20 23 18 51 -3
33 -6 37 -34 40 -17 2 -36 -3 -42 -11z"/>
<path d="M2920 4821 c-13 -26 13 -44 90 -61 30 -7 73 -18 94 -24 l40 -12 -57
-54 c-57 -54 -67 -76 -45 -98 20 -20 43 -14 92 24 97 74 127 171 63 202 -26
12 -117 29 -204 37 -55 5 -63 4 -73 -14z"/>
<path d="M15774 4795 c-15 -20 -44 -85 -65 -147 -47 -137 -72 -175 -149 -230
-61 -42 -70 -62 -38 -81 12 -8 28 -5 62 13 26 13 51 29 57 37 9 10 18 7 47
-18 30 -26 40 -30 70 -24 38 7 74 29 106 64 26 28 33 27 41 -9 13 -57 85 -47
85 13 0 18 5 48 11 67 23 76 59 224 59 241 0 11 -11 25 -26 31 -24 11 -29 9
-50 -15 -13 -16 -24 -36 -24 -45 0 -26 -70 -134 -123 -191 -78 -83 -105 -87
-91 -14 7 37 18 67 62 163 38 84 52 141 41 161 -15 29 -45 23 -75 -16z"/>
<path d="M6585 4798 c-2 -7 -6 -35 -7 -63 l-3 -50 -132 0 c-144 0 -171 -8
-139 -44 22 -24 58 -32 169 -38 l87 -4 0 -102 c0 -105 13 -147 45 -147 30 0
35 39 33 247 -3 207 -3 208 -26 211 -12 2 -24 -3 -27 -10z"/>
<path d="M7050 4800 c-8 -4 -49 -18 -90 -30 -94 -26 -144 -51 -148 -72 -4 -23
35 -57 83 -70 22 -6 65 -19 96 -29 71 -24 86 -24 99 2 21 38 4 68 -45 80 -59
15 -63 24 -15 38 47 14 86 57 69 77 -13 16 -27 17 -49 4z"/>
<path d="M18442 4798 c3 -7 26 -23 51 -35 49 -24 60 -50 34 -83 -12 -16 -98
-60 -117 -60 -21 0 -60 -33 -60 -50 0 -10 12 -28 28 -41 26 -20 33 -21 158
-15 73 3 139 9 148 12 12 5 16 16 14 38 -3 31 -4 31 -65 34 -35 2 -63 5 -63 7
0 2 11 21 25 41 14 20 25 43 25 51 0 32 -30 83 -59 97 -37 20 -125 22 -119 4z"/>
<path d="M12596 4791 c-4 -5 0 -22 8 -38 15 -30 21 -45 56 -136 26 -65 22 -81
-28 -138 -59 -68 -64 -109 -13 -109 32 1 52 15 76 58 22 37 33 37 55 -4 19
-34 66 -40 84 -11 9 14 4 30 -23 81 -38 72 -37 81 20 198 5 10 9 31 9 48 0 25
-4 30 -23 30 -18 0 -29 -12 -50 -56 -15 -30 -33 -54 -39 -52 -7 3 -24 28 -39
58 -33 68 -76 100 -93 71z"/>
<path d="M10589 4783 c-6 -42 -4 -226 3 -254 10 -46 36 -58 60 -29 15 18 18
41 18 119 -1 109 -19 164 -58 169 -12 2 -23 0 -23 -5z"/>
<path d="M16862 4765 c-11 -14 -38 -69 -61 -122 -53 -125 -76 -168 -118 -219
-30 -37 -32 -43 -17 -55 14 -11 21 -10 46 4 29 17 32 17 64 -2 44 -26 89 -12
156 47 27 25 50 43 51 41 2 -2 8 -17 15 -32 14 -33 39 -45 56 -26 7 8 18 39
25 69 14 60 29 114 42 145 35 91 39 151 10 160 -32 10 -49 -5 -79 -69 -16 -34
-35 -68 -43 -76 -8 -8 -34 -40 -59 -70 -125 -152 -167 -146 -91 13 62 130 78
182 62 201 -19 23 -36 20 -59 -9z"/>
<path d="M9203 4763 c-11 -28 31 -86 83 -115 27 -15 55 -28 63 -28 24 0 111
-43 111 -54 -1 -12 -134 -116 -149 -116 -4 0 -6 10 -4 23 3 13 -1 28 -9 34 -8
7 -95 14 -224 19 -216 7 -254 2 -254 -31 0 -31 53 -42 230 -49 221 -9 220 -9
221 -20 1 -5 -23 -25 -52 -45 -44 -29 -55 -42 -57 -67 -3 -27 1 -33 23 -38 22
-6 43 4 119 55 117 80 223 164 236 189 15 28 12 72 -6 98 -20 28 -54 46 -148
76 -45 14 -90 36 -111 55 -40 35 -62 39 -72 14z"/>
<path d="M4661 4731 c-19 -12 -7 -39 24 -51 14 -5 25 -16 25 -23 0 -8 -27 -37
-60 -66 -33 -29 -60 -59 -60 -66 0 -8 10 -23 22 -35 19 -17 35 -20 115 -20 92
0 93 0 99 27 9 33 -6 57 -37 61 -50 6 -52 10 -25 43 18 22 26 42 26 70 0 36
-3 41 -35 55 -39 16 -73 18 -94 5z"/>
<path d="M18085 4709 c-6 -18 -12 -20 -43 -15 -111 18 -124 18 -148 5 -48 -25
-94 -132 -94 -219 0 -25 9 -64 19 -87 31 -67 74 -80 130 -38 45 32 136 141
158 187 21 44 27 47 105 55 39 4 73 15 103 34 51 32 58 60 22 83 -20 14 -29
13 -99 -11 -80 -27 -107 -26 -115 7 -7 26 -30 26 -38 -1z m-60 -101 c14 -6 25
-16 25 -22 0 -19 -130 -156 -147 -156 -13 0 -15 13 -11 83 2 45 8 88 12 95 9
15 87 16 121 0z"/>
<path d="M19330 4720 c-36 -4 -93 -8 -126 -9 -72 -1 -103 -21 -135 -83 -20
-39 -20 -41 -3 -174 15 -112 21 -139 40 -159 25 -27 70 -33 96 -12 19 15 82
114 91 142 3 11 17 52 31 90 14 39 26 78 26 87 0 21 29 38 64 38 14 0 37 5 51
12 21 9 25 18 23 42 -3 29 -5 31 -48 32 -25 1 -74 -2 -110 -6z m-61 -99 c12
-8 12 -16 -2 -53 -26 -66 -83 -172 -95 -176 -22 -7 -44 184 -24 215 4 6 28 13
52 16 25 2 47 4 50 5 3 1 11 -2 19 -7z"/>
<path d="M2736 4689 c-10 -28 -29 -135 -33 -186 -4 -44 -2 -53 16 -63 15 -8
27 -8 41 0 17 9 20 21 20 81 0 99 -29 211 -44 168z"/>
<path d="M20444 4690 c-46 -18 -123 -155 -124 -219 -1 -14 -8 -53 -16 -86 -25
-98 -38 -203 -38 -321 -1 -124 12 -167 48 -162 20 3 21 12 28 143 7 135 19
229 31 241 3 3 15 -4 27 -16 19 -19 30 -21 66 -16 129 17 214 124 214 268 0
72 -33 138 -80 163 -31 16 -122 19 -156 5z m117 -91 c25 -18 29 -27 29 -70 0
-27 -4 -57 -9 -67 -5 -9 -15 -30 -22 -46 -16 -33 -65 -58 -98 -49 -12 3 -33 0
-47 -7 -13 -8 -26 -11 -29 -9 -5 5 27 138 45 184 15 40 59 85 83 85 10 0 32
-9 48 -21z"/>
<path d="M20970 4612 c0 -149 -51 -325 -113 -385 -22 -23 -19 -65 6 -81 44
-28 115 61 148 185 36 139 19 359 -27 359 -11 0 -14 -18 -14 -78z"/>
<path d="M14025 4642 c-95 -47 -170 -159 -113 -170 9 -2 36 16 61 41 44 43
101 77 130 77 9 0 22 -21 33 -51 20 -55 63 -99 96 -99 55 0 172 119 166 169
-2 20 -9 27 -31 29 -24 3 -37 -6 -75 -47 -52 -56 -63 -56 -86 0 -33 79 -90 95
-181 51z"/>
<path d="M3815 4650 c-3 -5 -3 -26 1 -45 7 -39 -8 -70 -59 -116 -35 -32 -31
-59 8 -59 78 0 139 117 105 204 -10 26 -43 36 -55 16z"/>
<path d="M11670 4640 c0 -5 -12 -16 -27 -24 -16 -8 -53 -53 -83 -99 -30 -47
-63 -87 -73 -90 -14 -4 -18 -13 -15 -39 3 -30 6 -33 39 -36 30 -3 37 -8 48
-37 26 -73 114 -111 145 -62 23 36 36 121 36 230 0 84 -4 108 -20 135 -18 30
-50 44 -50 22z m6 -97 c-3 -16 -9 -61 -13 -101 -3 -40 -10 -75 -16 -79 -5 -3
-21 6 -36 21 l-26 26 29 58 c15 31 33 67 39 80 15 31 31 28 23 -5z"/>
<path d="M8841 4632 c-22 -15 3 -47 46 -59 117 -34 300 -44 340 -18 31 21 30
58 -2 75 -19 10 -35 11 -82 1 -57 -12 -212 -10 -263 3 -14 4 -31 2 -39 -2z"/>
<path d="M5987 4613 c-4 -3 -7 -16 -7 -28 0 -12 -13 -39 -30 -61 -34 -45 -37
-69 -13 -83 34 -19 103 39 118 100 10 40 -44 97 -68 72z"/>
<path d="M6780 4561 c-13 -26 -13 -27 11 -50 32 -29 104 -61 139 -61 27 0 30
3 30 34 0 29 -5 35 -32 46 -18 6 -52 20 -76 31 -53 24 -59 24 -72 0z"/>
<path d="M20020 4560 c-14 -27 -8 -36 50 -65 57 -29 85 -32 94 -9 14 36 5 54
-34 74 -51 26 -96 26 -110 0z"/>
<path d="M12936 4544 c-3 -8 -1 -24 5 -35 7 -14 7 -35 0 -67 -11 -53 -2 -72
35 -72 31 0 46 31 46 92 0 38 -5 55 -23 74 -26 27 -54 31 -63 8z"/>
<path d="M7500 4510 c-8 -16 -4 -26 22 -56 30 -34 120 -84 152 -84 17 0 46 33
46 53 0 21 -38 47 -71 47 -14 0 -46 13 -70 30 -52 35 -65 37 -79 10z"/>
<path d="M11774 4506 c-3 -8 8 -33 25 -57 17 -23 31 -47 31 -54 0 -18 47 -65
64 -65 21 0 46 28 46 53 0 13 -23 43 -62 79 -62 58 -94 71 -104 44z"/>
<path d="M16137 4478 c-61 -168 -67 -201 -32 -214 30 -12 62 34 80 112 21 94
17 138 -11 142 -17 2 -24 -6 -37 -40z"/>
<path d="M17157 4513 c-13 -12 -7 -37 15 -60 21 -22 21 -23 2 -44 -10 -12 -32
-28 -49 -36 -38 -19 -85 -63 -85 -79 0 -23 31 -44 65 -44 41 0 123 26 146 46
24 22 14 171 -14 202 -19 21 -66 30 -80 15z"/>
<path d="M18201 4472 c-5 -10 -15 -46 -20 -78 -6 -32 -17 -85 -25 -117 -13
-53 -13 -59 4 -80 15 -18 22 -20 37 -11 32 19 41 56 45 179 3 106 1 120 -14
123 -9 2 -21 -5 -27 -16z"/>
<path d="M16434 4418 c-5 -7 -19 -33 -32 -57 -23 -44 -43 -73 -94 -135 -33
-40 -35 -61 -9 -76 30 -16 67 6 105 64 75 113 91 169 60 200 -19 19 -21 19
-30 4z"/>
<path d="M19382 4418 c-17 -17 -15 -35 6 -47 15 -9 13 -14 -20 -48 -97 -99 9
-141 162 -65 64 32 75 41 78 66 4 31 13 30 -107 14 -20 -3 -24 2 -25 25 -3 47
-65 84 -94 55z"/>
<path d="M19960 4386 c0 -8 5 -27 11 -43 18 -48 3 -90 -41 -115 -48 -28 -56
-45 -34 -69 21 -24 24 -24 80 2 55 26 74 60 74 132 0 44 -5 59 -25 81 -26 28
-65 35 -65 12z"/>
<path d="M17459 4368 c0 -2 -2 -23 -4 -46 -2 -27 -14 -59 -32 -83 -15 -22 -32
-46 -37 -53 -14 -20 1 -46 25 -46 33 0 93 69 109 124 12 43 11 49 -7 74 -17
22 -52 42 -54 30z"/>
<path d="M18717 4318 c-3 -7 -2 -34 0 -59 6 -56 -13 -97 -62 -135 -45 -34 -45
-68 1 -72 86 -8 166 157 122 253 -12 27 -53 35 -61 13z"/>
<path d="M13853 3124 c-34 -36 -76 -93 -94 -127 -17 -34 -44 -84 -60 -112 -15
-27 -28 -55 -29 -62 0 -7 -13 -34 -28 -60 -16 -27 -32 -60 -35 -74 -6 -22 -44
-56 -137 -120 -11 -8 -12 -12 -2 -16 6 -2 12 -9 12 -15 0 -7 -5 -6 -14 1 -11
9 -27 3 -75 -26 -33 -21 -61 -43 -61 -48 0 -6 -15 -18 -33 -28 -18 -10 -51
-34 -73 -54 -21 -19 -57 -47 -79 -61 -22 -14 -42 -28 -45 -32 -3 -3 -32 -26
-64 -50 -54 -41 -57 -45 -35 -50 13 -3 19 -9 13 -12 -5 -4 -16 -3 -24 3 -8 5
-22 9 -30 9 -12 -1 -12 -3 2 -14 22 -17 12 -27 -18 -20 -17 4 -26 1 -30 -10
-3 -9 -10 -16 -15 -16 -6 0 -23 -10 -39 -22 -27 -20 -28 -22 -12 -34 21 -17
74 -18 90 -2 6 6 15 8 19 3 5 -4 2 -10 -4 -12 -38 -14 3 -29 102 -40 28 -3 54
-9 59 -14 6 -5 25 -9 42 -9 18 0 36 -4 39 -10 3 -5 44 -10 90 -10 46 0 86 -4
89 -9 5 -7 39 -15 111 -26 11 -1 27 -5 35 -8 24 -8 145 -27 174 -27 14 0 26
-4 26 -10 0 -5 15 -10 34 -10 19 0 38 -4 41 -10 3 -5 19 -10 36 -10 16 0 29
-4 29 -10 0 -5 11 -10 25 -10 14 0 33 -4 43 -9 9 -5 58 -15 107 -21 50 -6 98
-16 107 -21 10 -5 27 -9 38 -9 11 0 29 -5 40 -12 16 -10 23 -9 45 12 30 28 32
40 5 40 -11 0 -20 4 -20 8 0 17 13 21 32 11 14 -7 23 -8 30 -1 12 12 -55 47
-71 38 -13 -9 -42 4 -35 16 7 11 79 2 113 -15 21 -10 26 -8 47 18 l24 30 -26
7 c-14 4 -31 11 -37 16 -7 5 -24 12 -39 16 -16 3 -28 11 -28 16 0 6 -9 10 -21
10 -25 0 -119 41 -119 52 0 5 -7 8 -15 8 -20 0 -107 48 -127 71 -9 10 -25 19
-36 19 -10 0 -27 9 -37 20 -10 11 -27 20 -37 20 -24 0 -33 25 -20 54 6 14 7
28 1 37 -6 10 -9 7 -9 -12 0 -14 -8 -33 -19 -43 -15 -14 -20 -14 -30 -3 -20
25 -126 37 -190 22 -19 -4 -53 -9 -75 -11 -23 -2 -75 -10 -116 -19 -89 -19
-257 -28 -265 -14 -4 5 36 9 99 9 59 0 108 4 111 10 3 6 14 10 24 10 10 0 24
7 31 15 7 8 23 15 36 15 13 0 24 4 24 10 0 5 12 12 28 16 15 4 37 12 49 20 18
11 22 11 27 -3 5 -13 10 -11 27 11 11 14 30 25 42 25 12 0 32 2 45 6 25 8 29
-4 11 -37 -6 -11 -8 -23 -4 -26 10 -10 25 20 25 51 0 20 5 27 19 27 11 0 23
-4 26 -10 3 -5 17 -10 29 -10 13 0 35 -9 49 -20 14 -11 28 -20 32 -20 3 0 37
-25 73 -55 37 -31 78 -64 92 -75 59 -47 70 -58 70 -68 0 -7 12 -15 28 -18 15
-4 35 -15 45 -25 10 -11 27 -19 37 -19 11 0 20 -4 20 -8 0 -9 89 -52 108 -52
7 0 21 -6 32 -12 15 -10 22 -10 32 0 9 9 8 12 -9 12 -11 0 -26 7 -33 15 -7 8
-20 15 -29 15 -36 1 -251 130 -251 151 0 5 -18 20 -39 33 -22 14 -42 34 -46
45 -3 11 -12 18 -19 15 -7 -3 -24 9 -37 25 -13 17 -29 31 -35 31 -6 0 -17 7
-25 16 -29 35 -93 58 -167 60 -39 1 -75 -2 -78 -7 -3 -5 -16 -9 -29 -9 -13 0
-27 -4 -30 -10 -3 -5 -17 -10 -31 -10 -13 0 -24 -4 -24 -9 0 -10 -30 -24 -37
-17 -7 7 26 66 37 66 5 0 7 -7 4 -15 -13 -32 15 -13 40 28 24 39 26 40 32 20
9 -31 21 -20 34 28 13 47 30 42 30 -9 0 -45 16 -27 25 29 9 55 47 68 122 43
34 -11 58 -26 61 -36 2 -10 19 -26 38 -37 19 -11 34 -27 34 -34 0 -8 11 -19
25 -25 14 -7 30 -23 36 -36 6 -13 20 -26 30 -29 17 -5 17 -3 -1 30 -10 20 -29
41 -42 47 -14 7 -24 22 -26 39 -2 18 -9 27 -21 27 -20 0 -51 30 -51 48 0 7 -7
12 -15 12 -8 0 -23 5 -33 11 -17 11 -17 15 -4 55 8 26 11 51 6 61 -6 15 -9 12
-12 -12 -2 -16 -8 -34 -13 -39 -5 -6 -9 -19 -9 -29 0 -15 -5 -18 -22 -13 -13
3 -40 6 -62 6 -30 0 -37 3 -32 15 3 8 1 15 -4 15 -6 0 -10 -11 -10 -25 0 -18
-5 -25 -20 -25 -25 0 -25 6 1 66 21 47 22 48 31 24 10 -24 10 -24 18 -5 5 11
11 28 14 38 3 9 14 20 23 23 10 3 26 10 36 15 20 11 57 3 57 -12 0 -5 11 -9
25 -9 14 0 30 -9 37 -20 27 -43 49 -16 27 33 -8 18 -17 23 -34 20 -12 -3 -26
0 -29 6 -4 6 -18 11 -32 11 -13 0 -24 5 -24 10 0 6 -9 10 -19 10 -11 0 -23 -4
-26 -10 -23 -37 -26 56 -4 116 20 57 179 21 179 -40 0 -9 8 -16 20 -16 24 0
24 -1 4 38 -8 18 -23 32 -33 32 -10 0 -24 11 -31 25 -9 17 -22 25 -40 25 -37
0 -40 6 -23 41 8 16 12 37 8 46 -5 14 -9 12 -20 -11 -8 -16 -15 -39 -15 -52 0
-15 -6 -24 -15 -24 -8 0 -15 9 -15 20 0 31 32 90 50 90 9 0 21 5 27 11 19 19
95 -30 107 -68 5 -18 15 -33 22 -33 8 0 14 -4 14 -10 0 -5 4 -10 10 -10 5 0 1
14 -9 31 -10 17 -17 39 -14 49 4 15 1 18 -14 14 -15 -4 -23 2 -33 25 -8 21
-19 31 -34 31 -40 0 -48 13 -30 48 17 35 38 41 52 15 11 -19 44 -10 36 10 -3
8 3 17 13 21 15 6 15 8 3 16 -8 6 -28 10 -44 10 -24 0 -43 -14 -93 -66z m-137
-410 c-3 -8 -10 -14 -16 -14 -14 0 -13 27 2 53 l13 22 3 -23 c2 -13 1 -30 -2
-38z m-93 -178 c3 -8 -3 -24 -14 -37 -10 -12 -19 -17 -19 -11 0 6 5 14 10 17
6 3 10 15 10 26 0 22 6 25 13 5z m-173 -236 c0 -5 -8 -10 -17 -10 -15 0 -16 2
-3 10 19 12 20 12 20 0z m-250 -24 c0 -2 -7 -6 -15 -10 -8 -3 -15 -1 -15 4 0
6 7 10 15 10 8 0 15 -2 15 -4z m155 -16 c4 -6 -5 -10 -20 -10 -15 0 -24 4 -20
10 3 6 12 10 20 10 8 0 17 -4 20 -10z m-255 -20 c0 -5 -7 -10 -15 -10 -8 0
-15 5 -15 10 0 6 7 10 15 10 8 0 15 -4 15 -10z m55 0 c-3 -5 -13 -10 -21 -10
-8 0 -14 5 -14 10 0 6 9 10 21 10 11 0 17 -4 14 -10z m130 0 c-3 -5 -13 -10
-21 -10 -8 0 -14 5 -14 10 0 6 9 10 21 10 11 0 17 -4 14 -10z m-235 -20 c0 -5
-4 -10 -10 -10 -5 0 -10 5 -10 10 0 6 5 10 10 10 6 0 10 -4 10 -10z m637 -9
c8 8 22 7 50 -1 69 -22 176 -72 204 -96 8 -8 21 -14 28 -14 7 0 26 -11 43 -25
16 -14 35 -25 43 -25 7 0 18 -7 25 -15 7 -8 23 -15 35 -15 13 0 25 -7 29 -15
3 -8 16 -15 29 -15 13 0 32 -7 43 -15 10 -8 27 -15 37 -15 9 0 25 -4 35 -10 9
-5 31 -15 47 -22 28 -11 29 -12 7 -16 -13 -2 -29 2 -37 8 -7 6 -24 8 -38 5
-14 -4 -28 -2 -31 4 -4 6 -16 11 -27 11 -10 0 -48 14 -82 30 -35 17 -71 30
-79 30 -9 0 -21 7 -28 15 -7 8 -20 15 -29 15 -10 0 -26 7 -37 15 -10 8 -25 15
-33 15 -8 0 -39 12 -70 27 -31 15 -76 28 -99 30 -24 2 -52 8 -62 13 -10 6 -30
10 -44 10 -14 0 -27 4 -30 8 -3 5 -73 8 -156 7 -83 -1 -153 2 -156 7 -5 8 46
13 98 10 15 -1 30 3 33 8 3 6 17 10 30 10 13 0 27 5 30 11 4 6 32 9 64 8 31
-1 66 3 76 9 16 9 22 8 31 -3 8 -10 14 -11 21 -4z m-557 -11 c0 -5 -9 -10 -20
-10 -11 0 -20 5 -20 10 0 6 9 10 20 10 11 0 20 -4 20 -10z m-40 -36 c0 -2 -9
-4 -21 -4 -11 0 -18 4 -14 10 5 8 35 3 35 -6z m186 -2 c-6 -10 -153 -9 -163 1
-3 4 33 7 81 7 48 0 85 -4 82 -8z m-244 -24 c-9 -9 -15 -9 -24 0 -9 9 -7 12
12 12 19 0 21 -3 12 -12z m-94 -20 c-2 -6 -10 -14 -16 -16 -7 -2 -10 2 -6 12
7 18 28 22 22 4z m165 5 c-7 -2 -19 -2 -25 0 -7 3 -2 5 12 5 14 0 19 -2 13 -5z
m53 -20 c-10 -10 -19 5 -10 18 6 11 8 11 12 0 2 -7 1 -15 -2 -18z m74 18 c0
-12 -20 -25 -27 -18 -7 7 6 27 18 27 5 0 9 -4 9 -9z m-191 -12 c13 1 30 -4 37
-10 7 -6 22 -8 34 -4 11 4 20 2 20 -4 0 -7 -23 -11 -55 -11 -32 0 -55 4 -55
11 0 5 -8 9 -17 8 -32 -3 -44 1 -37 12 3 6 16 8 28 4 11 -4 32 -6 45 -6z m653
-7 c7 -7 24 -12 39 -12 15 0 31 -5 34 -11 4 -5 19 -7 35 -4 19 4 29 2 33 -8 3
-8 22 -17 41 -21 20 -4 36 -11 36 -16 0 -6 14 -10 30 -10 17 0 30 -4 30 -8 0
-4 17 -14 38 -21 20 -8 60 -24 87 -36 28 -13 60 -26 73 -30 12 -3 20 -11 17
-16 -9 -13 -42 -11 -57 5 -8 7 -36 16 -62 20 -27 4 -60 14 -72 23 -13 8 -32
12 -42 9 -11 -4 -24 0 -32 9 -8 9 -21 13 -32 9 -11 -3 -27 1 -36 9 -9 8 -42
20 -72 28 -30 7 -61 18 -69 23 -16 13 -44 16 -123 16 -31 0 -59 4 -63 10 -3 5
-35 10 -70 10 -35 0 -67 5 -70 10 -3 6 -33 10 -66 10 -32 0 -59 4 -59 10 0 15
417 7 432 -8z m-797 -12 c3 -5 -1 -10 -10 -10 -9 0 -13 5 -10 10 3 6 8 10 10
10 2 0 7 -4 10 -10z m295 -20 c0 -5 -7 -10 -15 -10 -8 0 -15 5 -15 10 0 6 7
10 15 10 8 0 15 -4 15 -10z m74 1 c7 -11 -22 -23 -35 -15 -5 3 -9 9 -9 15 0
12 37 12 44 0z m-244 -5 c0 -3 -4 -8 -10 -11 -5 -3 -10 -1 -10 4 0 6 5 11 10
11 6 0 10 -2 10 -4z m354 -2 c32 -12 15 -24 -33 -24 -47 0 -68 9 -54 24 8 8
66 8 87 0z m-279 -14 c4 -6 -5 -10 -20 -10 -15 0 -24 4 -20 10 3 6 12 10 20
10 8 0 17 -4 20 -10z m435 -7 c8 -3 38 -5 66 -4 29 2 55 -2 59 -8 3 -6 19 -11
35 -11 16 0 32 -4 35 -10 3 -5 17 -10 30 -10 13 0 27 -4 30 -10 3 -5 18 -10
33 -10 15 0 35 -7 46 -15 18 -13 17 -14 -5 -20 -13 -3 -49 1 -79 9 -30 8 -58
12 -63 9 -5 -3 -17 3 -27 12 -12 11 -26 14 -40 10 -11 -4 -27 -2 -34 4 -7 6
-37 12 -67 13 -30 2 -59 8 -66 14 -6 6 -23 9 -36 7 -27 -5 -47 15 -27 27 12 8
81 3 110 -7z m-376 1 c9 -3 13 -10 10 -15 -9 -14 -41 -10 -48 6 -6 16 10 20
38 9z m69 -18 c3 -8 -2 -16 -14 -19 -10 -3 -19 -4 -19 -2 0 2 -3 10 -6 19 -4
11 0 16 14 16 11 0 22 -6 25 -14z m57 -16 c0 -5 -6 -10 -14 -10 -8 0 -18 5
-21 10 -3 6 3 10 14 10 12 0 21 -4 21 -10z m70 0 c0 -5 -7 -10 -16 -10 -8 0
-12 5 -9 10 3 6 10 10 16 10 5 0 9 -4 9 -10z m74 -21 c-7 -12 -41 -12 -49 0
-9 15 28 31 42 19 7 -6 10 -14 7 -19z m61 1 c3 -5 22 -10 41 -10 24 0 34 -4
31 -12 -2 -7 -13 -11 -23 -9 -10 2 -32 4 -49 4 -30 2 -48 15 -39 29 7 11 32
10 39 -2z m134 -29 c9 -6 10 -10 2 -16 -16 -9 -44 2 -36 15 8 12 16 12 34 1z
m66 -11 c3 -5 22 -10 41 -10 19 0 34 -4 34 -10 0 -5 16 -10 36 -10 20 0 33 -4
29 -10 -7 -12 -97 -1 -106 13 -4 5 -21 6 -38 2 -23 -5 -31 -3 -31 8 0 25 23
36 35 17z m315 -25 l25 -14 -25 -9 c-15 -6 -29 -6 -34 -1 -6 5 -16 9 -22 9
-26 0 -65 20 -59 31 8 13 78 3 115 -16z m-101 -27 c6 -7 24 -13 39 -13 17 0
28 -6 30 -17 2 -13 -3 -18 -17 -18 -12 0 -21 5 -21 10 0 6 -15 10 -34 10 -36
0 -68 24 -44 33 22 9 33 8 47 -5z m230 -10 l26 -12 -24 -4 c-13 -2 -27 2 -31
8 -4 7 -16 9 -27 6 -25 -8 -55 3 -47 16 7 11 61 3 103 -14z m-94 -27 c3 -5 1
-13 -5 -16 -15 -9 -43 3 -35 15 8 13 32 13 40 1z m190 -1 c4 -6 -7 -10 -25
-10 -18 0 -29 4 -25 10 3 6 15 10 25 10 10 0 22 -4 25 -10z m-41 -42 c-7 -12
-44 -10 -44 2 0 6 -19 10 -42 10 -38 1 -41 2 -26 14 14 11 26 10 67 -2 27 -9
48 -19 45 -24z m66 -18 c0 -5 -9 -10 -21 -10 -11 0 -17 5 -14 10 3 6 13 10 21
10 8 0 14 -4 14 -10z"/>
<path d="M13860 2110 c0 -19 3 -21 12 -12 9 9 9 15 0 24 -9 9 -12 7 -12 -12z"/>
<path d="M14018 3091 c-25 -25 -8 -44 19 -21 17 14 20 20 10 28 -8 6 -17 4
-29 -7z"/>
<path d="M14070 3064 c0 -5 7 -18 15 -28 8 -11 15 -16 15 -10 0 5 -7 18 -15
28 -8 11 -15 16 -15 10z"/>
<path d="M13895 2980 c-8 -26 4 -48 16 -29 12 19 11 49 0 49 -5 0 -12 -9 -16
-20z"/>
<path d="M14095 2970 c-12 -13 -15 -25 -9 -37 7 -16 8 -15 12 5 3 17 8 21 23
17 22 -7 25 7 6 24 -11 8 -18 6 -32 -9z"/>
<path d="M13960 2910 c0 -19 3 -21 12 -12 9 9 9 15 0 24 -9 9 -12 7 -12 -12z"/>
<path d="M14046 2873 c7 -31 12 -38 18 -32 7 7 -6 59 -15 59 -5 0 -6 -12 -3
-27z"/>
<path d="M13797 2818 c-3 -24 -4 -45 -1 -47 9 -10 25 17 31 52 4 29 2 37 -9
37 -10 0 -17 -14 -21 -42z"/>
<path d="M13872 2841 c-9 -5 -12 -23 -10 -52 l4 -44 12 29 c16 38 12 79 -6 67z"/>
<path d="M14175 2821 c-3 -6 3 -15 14 -20 28 -16 33 -14 21 9 -12 22 -25 26
-35 11z"/>
<path d="M14140 2785 c0 -8 4 -15 9 -15 5 0 11 7 15 15 3 9 0 15 -9 15 -8 0
-15 -7 -15 -15z"/>
<path d="M13937 2784 c-10 -11 -9 -54 2 -54 14 0 22 30 13 46 -4 8 -11 11 -15
8z"/>
<path d="M14004 2758 c9 -12 16 -31 16 -41 0 -11 5 -17 13 -14 6 2 10 11 8 18
-2 8 -3 24 -3 37 0 17 -6 22 -25 22 -23 0 -23 -1 -9 -22z"/>
<path d="M14117 2724 c-8 -8 3 -34 14 -34 5 0 9 9 9 20 0 19 -11 26 -23 14z"/>
<path d="M14243 2675 c-18 -19 -16 -25 6 -25 10 0 25 -10 34 -22 23 -35 32
-14 11 23 -22 38 -34 43 -51 24z"/>
<path d="M13773 2673 c-15 -5 -18 -83 -3 -83 12 0 23 41 18 67 -2 11 -9 18
-15 16z"/>
<path d="M13993 2640 c-4 -15 -11 -19 -26 -14 -19 6 -19 5 2 -17 12 -13 19
-29 17 -35 -6 -16 14 -34 38 -34 19 0 19 0 1 14 -15 10 -18 24 -16 60 2 47 -7
62 -16 26z"/>
<path d="M14082 2633 c1 -10 -2 -28 -6 -40 -6 -18 -4 -22 8 -17 17 7 23 74 7
74 -6 0 -9 -8 -9 -17z"/>
<path d="M13897 2583 c-7 -39 -1 -57 14 -48 11 8 12 72 0 79 -5 3 -11 -11 -14
-31z"/>
<path d="M14180 2585 c0 -14 4 -25 9 -25 4 0 6 11 3 25 -2 14 -6 25 -8 25 -2
0 -4 -11 -4 -25z"/>
<path d="M14322 2565 c2 -12 -6 -29 -19 -41 -13 -12 -23 -28 -23 -35 1 -10 4
-9 14 4 20 26 43 21 84 -18 l36 -36 -34 -29 c-25 -21 -30 -30 -18 -30 9 0 20
5 23 10 10 17 67 11 84 -8 9 -11 23 -22 31 -26 9 -3 5 -4 -7 -2 -13 2 -23 0
-23 -4 0 -5 -3 -15 -6 -24 -4 -11 -1 -16 10 -16 24 0 66 -30 66 -46 0 -17 17
-18 23 -1 3 9 9 8 21 -4 19 -17 12 -49 -10 -49 -8 0 -14 -7 -14 -15 0 -8 -7
-15 -15 -15 -8 0 -15 -7 -15 -15 0 -21 1 -20 52 28 105 99 209 192 218 195 6
2 10 10 10 18 0 8 5 14 10 14 6 0 10 5 10 10 0 6 -9 10 -20 10 -11 0 -20 -4
-20 -10 0 -5 -5 -10 -12 -10 -9 0 -9 3 0 12 20 20 14 25 -45 32 -157 19 -222
30 -320 51 -13 3 -39 20 -59 37 -30 26 -36 29 -32 13z m348 -110 c0 -3 -9 -14
-20 -25 -11 -11 -22 -20 -25 -20 -12 0 -4 24 13 36 18 14 32 18 32 9z m-90
-15 c0 -5 -4 -10 -9 -10 -6 0 -13 5 -16 10 -3 6 1 10 9 10 9 0 16 -4 16 -10z
m130 -24 c0 -2 -7 -6 -15 -10 -8 -3 -15 -1 -15 4 0 6 7 10 15 10 8 0 15 -2 15
-4z m65 -26 c-3 -5 -12 -7 -20 -3 -21 7 -19 13 6 13 11 0 18 -4 14 -10z m-115
-14 c0 -3 -4 -8 -10 -11 -5 -3 -10 -1 -10 4 0 6 5 11 10 11 6 0 10 -2 10 -4z
m60 -20 c0 -11 -19 -15 -25 -6 -3 5 1 10 9 10 9 0 16 -2 16 -4z m-134 -37 c3
-6 1 -16 -5 -22 -12 -12 -64 10 -55 25 7 12 52 10 60 -3z m71 -24 c8 -23 -1
-27 -31 -14 -19 9 -23 15 -14 21 20 12 38 9 45 -7z"/>
<path d="M14047 2523 c-9 -14 5 -63 17 -63 8 0 11 11 8 30 -4 31 -17 47 -25
33z"/>
<path d="M13740 2494 c-6 -15 -10 -42 -8 -58 3 -27 5 -24 16 23 14 59 9 80 -8
35z"/>
<path d="M13967 2506 c-4 -10 -5 -21 -2 -24 9 -9 17 6 13 25 -3 17 -4 17 -11
-1z"/>
<path d="M14147 2514 c-9 -15 -2 -47 11 -52 13 -4 14 13 3 42 -4 11 -10 15
-14 10z"/>
<path d="M13800 2445 c0 -19 5 -35 10 -35 6 0 10 9 10 19 0 11 3 26 6 35 4 11
1 16 -10 16 -12 0 -16 -10 -16 -35z"/>
<path d="M14085 2430 c3 -5 8 -10 11 -10 2 0 4 5 4 10 0 6 -5 10 -11 10 -5 0
-7 -4 -4 -10z"/>
<path d="M13873 2423 c-15 -5 -18 -53 -4 -53 8 0 25 49 19 55 -2 1 -9 0 -15
-2z"/>
<path d="M14031 2414 c0 -11 3 -14 6 -6 3 7 2 16 -1 19 -3 4 -6 -2 -5 -13z"/>
<path d="M14116 2378 c-9 -35 -8 -38 14 -38 21 0 27 15 10 25 -5 3 -7 12 -3
20 3 8 1 15 -5 15 -5 0 -12 -10 -16 -22z"/>
<path d="M14221 2368 c-1 -30 3 -38 17 -38 11 0 13 3 5 8 -6 4 -13 21 -16 37
-4 27 -4 27 -6 -7z"/>
<path d="M13934 2359 c-3 -6 -1 -16 5 -22 8 -8 11 -5 11 11 0 24 -5 28 -16 11z"/>
<path d="M14338 2363 c-28 -7 -21 -21 7 -15 14 2 22 8 19 13 -3 5 -6 8 -7 8
-1 -1 -10 -3 -19 -6z"/>
<path d="M13770 2284 c0 -14 4 -23 10 -19 6 3 10 15 10 26 0 10 -4 19 -10 19
-5 0 -10 -12 -10 -26z"/>
<path d="M14180 2291 c0 -11 5 -23 10 -26 6 -3 10 3 10 14 0 11 -4 23 -10 26
-5 3 -10 -3 -10 -14z"/>
<path d="M14420 2300 c-12 -8 -9 -10 13 -10 16 0 26 4 22 10 -8 12 -16 12 -35
0z"/>
<path d="M14074 2256 c0 -24 4 -32 14 -29 20 8 62 -18 62 -39 0 -10 6 -18 14
-18 8 0 24 -11 37 -25 25 -25 49 -33 49 -15 0 6 -16 20 -35 31 -19 12 -35 27
-35 35 0 7 -14 21 -30 29 -17 9 -35 27 -40 40 -14 37 -36 31 -36 -9z"/>
<path d="M14281 2269 c0 -8 10 -25 24 -37 18 -16 25 -18 25 -8 0 8 -9 17 -19
21 -11 3 -22 14 -24 23 -4 14 -5 14 -6 1z"/>
<path d="M14398 2263 c-22 -5 -24 -43 -3 -43 8 0 15 7 15 15 0 8 5 15 10 15 6
0 10 5 10 10 0 10 -3 11 -32 3z"/>
<path d="M14490 2220 c-14 -11 -33 -20 -43 -20 -15 0 -16 -3 -7 -20 6 -11 20
-20 32 -20 17 0 18 2 8 15 -10 12 -10 15 3 15 8 0 18 7 21 16 4 10 12 14 22
10 10 -4 14 -1 12 6 -7 19 -21 19 -48 -2z"/>
<path d="M13900 2219 c0 -5 5 -7 10 -4 6 3 10 8 10 11 0 2 -4 4 -10 4 -5 0
-10 -5 -10 -11z"/>
<path d="M14250 2195 c0 -8 4 -15 9 -15 5 0 23 -14 40 -31 17 -17 39 -29 48
-27 14 3 8 11 -24 32 -23 15 -44 34 -47 42 -7 19 -26 18 -26 -1z"/>
<path d="M14346 2195 c4 -8 12 -15 20 -15 8 0 14 7 14 15 0 8 -9 15 -20 15
-13 0 -18 -5 -14 -15z"/>
<path d="M14410 2141 c0 -14 78 -51 95 -45 8 4 15 16 15 28 -1 18 -2 19 -10 4
-11 -18 -42 -14 -61 8 -13 16 -39 19 -39 5z"/>
<path d="M14266 2102 c6 -4 13 -15 17 -24 3 -10 17 -18 29 -18 13 0 29 -9 36
-20 7 -11 23 -20 36 -20 13 0 26 -5 28 -12 2 -6 10 -8 16 -4 9 5 1 15 -23 32
-20 13 -40 24 -46 24 -6 0 -27 11 -47 25 -20 14 -41 25 -47 25 -6 0 -6 -3 1
-8z"/>
<path d="M14376 2088 c26 -28 76 -48 92 -35 17 13 15 28 -3 21 -8 -4 -25 0
-38 8 -12 8 -33 17 -45 21 -23 5 -23 5 -6 -15z"/>
</g>
</svg>
