<?xml version="1.0" standalone="no"?>
<!DOCTYPE svg PUBLIC "-//W3C//DTD SVG 20010904//EN"
 "http://www.w3.org/TR/2001/REC-SVG-20010904/DTD/svg10.dtd">
<svg version="1.0" xmlns="http://www.w3.org/2000/svg"
 width="2394.000000pt" height="1332.000000pt" viewBox="0 0 2394.000000 1332.000000"
 preserveAspectRatio="xMidYMid meet">

<g transform="translate(0.000000,1332.000000) scale(0.100000,-0.100000)"
fill="#000000" stroke="none">
<path d="M2865 13180 c-4 -6 -4 -32 0 -59 7 -50 0 -62 -49 -86 -28 -14 -27
-37 3 -51 52 -27 49 -41 -34 -124 -71 -72 -75 -78 -60 -94 19 -18 38 -20 65
-6 28 15 42 -8 29 -53 -7 -25 -7 -43 1 -56 14 -28 15 -27 -39 -84 -62 -67 -69
-87 -38 -123 22 -25 31 -28 87 -29 60 0 63 1 96 39 l35 40 28 -17 c19 -11 51
-17 91 -17 52 0 68 5 107 31 l45 31 53 -52 c43 -42 58 -51 81 -48 22 2 30 9
32 26 3 18 -13 39 -67 91 l-71 67 0 79 c0 90 -13 124 -53 143 -36 18 -34 27
13 58 34 23 44 25 64 16 21 -9 28 -7 50 13 34 32 33 61 -3 79 -34 18 -84 6
-146 -35 -22 -15 -43 -25 -47 -23 -5 3 -8 23 -8 44 0 43 -10 54 -40 45 -12 -4
-24 -22 -31 -48 -16 -56 -23 -63 -53 -49 -18 8 -27 22 -32 49 -3 21 -12 45
-19 53 -7 8 -15 39 -17 68 -7 68 -51 118 -73 82z m312 -371 c-3 -11 1 -36 9
-56 9 -19 13 -41 10 -48 -6 -16 -43 -9 -68 12 -17 15 -38 10 -38 -8 0 -5 16
-29 35 -55 42 -54 43 -63 10 -94 -60 -56 -145 -5 -145 88 0 62 34 128 75 142
16 6 41 17 55 25 40 21 63 19 57 -6z m-287 -270 c0 -19 -35 -58 -52 -59 -16 0
-7 34 15 55 28 29 37 30 37 4z"/>
<path d="M4537 13168 c-9 -7 -17 -28 -19 -47 -3 -35 -15 -46 -60 -55 -51 -11
-44 -76 8 -76 12 0 25 -4 28 -9 3 -5 -12 -57 -34 -115 -22 -58 -40 -111 -40
-117 0 -6 10 -25 22 -42 14 -20 21 -43 20 -65 -3 -37 15 -102 27 -102 4 0 17
10 29 23 16 17 22 36 22 68 0 25 6 54 14 64 12 17 16 18 31 5 16 -14 17 -32
12 -207 -6 -208 -2 -228 44 -221 23 3 24 7 27 73 3 105 6 113 53 126 51 16 98
69 146 166 42 85 41 134 -2 169 -26 20 -28 20 -102 5 l-75 -16 -23 29 c-23 29
-24 29 -49 12 -14 -9 -26 -23 -26 -30 0 -7 -7 -19 -15 -26 -12 -10 -17 -7 -26
14 -14 30 0 105 29 166 14 29 25 36 64 45 26 5 55 18 65 27 16 16 16 18 -2 38
-11 12 -31 20 -49 20 -41 0 -51 8 -69 53 -17 40 -24 44 -50 25z m268 -448 c7
-11 -72 -150 -85 -150 -33 0 -40 14 -40 76 0 49 4 65 18 73 22 13 99 14 107 1z"/>
<path d="M1871 13121 c-6 -10 -10 -36 -9 -56 1 -32 -4 -43 -33 -66 l-34 -29
38 -31 c36 -30 37 -32 37 -100 0 -63 -3 -72 -26 -94 -15 -14 -30 -25 -34 -25
-10 0 -30 -49 -32 -80 -1 -14 2 -56 6 -95 11 -101 49 -155 97 -140 27 9 59
121 59 204 0 71 7 86 53 114 43 27 31 77 -19 77 -25 0 -34 17 -34 66 0 56 14
74 53 67 35 -5 67 15 67 41 0 23 -39 49 -72 48 -41 -1 -68 14 -68 37 0 26 -21
81 -31 81 -4 0 -13 -8 -18 -19z"/>
<path d="M2196 13103 c-33 -50 -53 -196 -35 -251 8 -25 10 -82 5 -193 -4 -98
-3 -166 4 -183 14 -38 51 -49 103 -31 39 14 44 13 69 -5 33 -24 51 -25 69 -3
21 25 19 266 -3 315 -21 46 -58 59 -101 35 -36 -21 -86 -22 -93 -2 -7 18 12
45 32 45 29 0 131 56 147 82 29 45 -32 64 -92 27 -44 -27 -77 -22 -73 10 3 34
20 51 50 51 30 0 102 20 120 33 6 5 12 22 12 38 0 36 -28 45 -74 24 -44 -21
-69 -16 -76 15 -9 39 -36 36 -64 -7z m107 -418 c-15 -21 -63 -36 -63 -20 0 21
29 45 53 45 28 0 28 0 10 -25z m17 -116 c0 -22 -43 -43 -71 -34 -27 9 -24 17
19 41 42 23 52 22 52 -7z"/>
<path d="M3867 13054 c-10 -11 6 -38 70 -114 77 -92 81 -111 20 -99 -48 9
-109 -1 -114 -18 -4 -12 20 -40 53 -59 17 -11 18 -14 4 -35 -8 -13 -38 -66
-67 -118 -58 -105 -58 -117 8 -127 25 -4 44 -15 54 -30 22 -34 58 -31 89 7 14
17 26 36 26 43 0 8 9 42 21 77 21 67 21 161 0 182 -6 6 -11 22 -11 37 1 24 1
24 15 5 30 -43 72 -75 113 -90 38 -13 48 -13 78 0 57 23 41 57 -31 68 -42 7
-63 26 -220 200 -63 70 -91 88 -108 71z m93 -417 c0 -20 -8 -42 -21 -56 -20
-22 -23 -22 -32 -6 -7 14 -5 22 11 34 11 9 23 26 27 39 9 31 15 27 15 -11z"/>
<path d="M870 13033 c-14 -3 -43 -20 -66 -38 -41 -34 -41 -35 -52 -127 -9 -80
-8 -95 5 -110 14 -16 18 -16 36 -3 30 21 53 19 71 -7 34 -48 11 -151 -38 -177
-23 -13 -34 -13 -69 -2 -82 25 -104 25 -112 1 -15 -47 78 -105 156 -98 115 11
189 128 159 252 -11 46 -21 63 -54 91 -82 69 -85 72 -79 94 10 38 31 46 132
46 l96 0 3 31 c2 20 -2 33 -11 37 -23 9 -149 16 -177 10z"/>
<path d="M3807 12962 c-15 -15 -27 -35 -27 -43 0 -8 -6 -23 -13 -34 -7 -11
-26 -56 -42 -100 -15 -44 -36 -97 -46 -117 -14 -28 -17 -43 -9 -62 11 -29 13
-30 41 -16 22 12 63 89 73 137 4 18 16 42 25 55 10 13 21 41 24 63 23 162 22
167 -26 117z"/>
<path d="M20067 12418 c-6 -20 11 -32 37 -26 12 2 10 8 -9 24 -23 20 -24 20
-28 2z"/>
<path d="M20440 12355 c-5 -14 -19 -35 -30 -47 -11 -12 -20 -28 -20 -36 0 -27
-25 -5 -35 32 -14 50 -25 35 -25 -33 0 -34 -8 -73 -20 -100 -11 -24 -20 -49
-20 -56 0 -7 -8 -23 -19 -36 -11 -14 -16 -31 -12 -42 6 -16 10 -14 39 14 17
17 32 35 32 40 0 21 18 7 25 -18 7 -32 42 -73 61 -73 24 0 25 20 5 46 -14 18
-21 41 -21 72 0 49 35 167 57 193 15 18 17 55 3 64 -6 3 -14 -5 -20 -20z"/>
<path d="M20089 12317 c-9 -12 -20 -33 -24 -47 -4 -14 -16 -39 -26 -56 -11
-17 -19 -39 -19 -48 0 -10 -8 -36 -19 -59 -28 -65 -33 -93 -16 -107 12 -10 17
-7 26 16 7 16 18 43 25 61 8 17 14 39 14 50 0 27 46 108 61 108 9 0 18 -21 24
-57 10 -58 41 -106 58 -89 6 6 3 22 -7 43 -10 18 -20 53 -23 78 -5 43 -40 130
-52 130 -3 0 -13 -11 -22 -23z"/>
<path d="M19107 12173 c-14 -13 -6 -43 13 -53 18 -9 20 -21 20 -101 0 -76 -4
-99 -25 -144 -14 -29 -32 -58 -40 -65 -8 -7 -15 -18 -15 -24 0 -6 -8 -19 -17
-27 -10 -9 -29 -30 -43 -48 -14 -17 -39 -38 -57 -46 -40 -19 -44 -45 -6 -45
19 0 39 14 72 49 62 67 69 76 84 108 17 38 59 74 72 62 6 -6 10 -56 10 -112 0
-84 3 -102 15 -102 13 0 15 27 11 200 -2 140 -7 204 -16 215 -7 8 -15 31 -18
51 -5 36 -48 94 -60 82z"/>
<path d="M19776 12171 c-11 -18 30 -49 87 -66 62 -19 72 -17 63 13 -7 20 -33
32 -72 32 -12 0 -27 7 -34 15 -14 17 -36 20 -44 6z"/>
<path d="M17062 12067 c-23 -25 -49 -88 -66 -162 -6 -27 -14 -55 -18 -61 -4
-6 -13 -45 -19 -85 -19 -132 -34 -193 -49 -211 -14 -18 -16 -18 -52 2 -21 11
-43 20 -49 20 -7 0 -31 10 -55 21 -26 13 -49 19 -61 15 -16 -7 -15 -10 12 -32
17 -13 47 -29 67 -34 20 -6 40 -15 43 -20 3 -5 25 -12 50 -15 24 -4 45 -12 47
-19 2 -6 1 -126 -2 -266 -5 -188 -11 -271 -23 -316 -42 -157 -110 -186 -168
-71 -13 25 -26 37 -40 37 -16 0 -19 -3 -12 -12 6 -7 13 -26 17 -42 8 -34 33
-68 72 -98 l26 -21 43 23 c45 25 68 62 100 160 14 43 20 107 26 300 4 135 5
249 2 253 -2 4 10 24 27 43 l31 36 -20 22 c-19 20 -19 26 -7 132 7 60 18 119
24 130 5 10 13 42 17 69 5 28 14 59 20 70 7 11 16 37 20 58 6 38 7 39 41 33
31 -6 34 -5 34 18 0 18 -8 27 -29 34 -25 9 -32 7 -49 -11z"/>
<path d="M18678 12068 c-27 -23 -66 -82 -76 -118 -6 -19 -18 -53 -26 -75 -8
-22 -15 -57 -16 -79 0 -21 -7 -59 -15 -85 -8 -25 -17 -63 -20 -84 -5 -32 -12
-41 -41 -53 -41 -17 -47 -56 -13 -75 22 -11 22 -13 17 -263 -3 -144 -10 -261
-16 -272 -9 -16 -30 -173 -49 -361 -5 -56 3 -65 31 -34 12 13 19 51 27 142 5
68 14 132 20 142 5 9 12 81 15 160 3 78 12 165 20 194 18 67 18 181 -1 226
-20 48 -19 78 4 129 32 72 50 140 57 213 3 39 10 75 14 80 5 6 14 31 20 56 7
27 29 67 51 94 31 37 37 51 28 61 -14 17 -12 17 -31 2z"/>
<path d="M13342 12005 c-22 -27 -28 -70 -37 -250 -8 -142 -12 -163 -38 -177
-14 -7 -73 -12 -157 -13 l-135 0 0 -29 c0 -26 4 -30 55 -43 76 -20 303 -6 467
28 56 12 65 11 98 -6 27 -15 39 -17 53 -9 26 17 27 66 1 90 -18 16 -33 18
-103 15 -44 -2 -97 -4 -116 -5 l-35 -1 -6 210 c-3 116 -6 211 -7 213 -7 8 -23
-1 -40 -23z"/>
<path d="M19513 12022 c-13 -2 -23 -7 -23 -12 0 -4 -10 -10 -22 -14 -29 -7
-62 -56 -83 -123 -16 -50 -16 -54 5 -116 15 -44 34 -76 58 -100 41 -38 86 -52
103 -31 8 10 3 16 -23 27 -44 18 -85 68 -94 112 -8 46 1 58 42 51 42 -8 99 21
125 64 24 39 24 51 -1 93 -22 37 -53 55 -87 49z m57 -94 c0 -31 -17 -54 -49
-67 -25 -11 -33 -10 -55 4 -44 29 -29 73 35 105 33 16 35 16 52 -3 9 -10 17
-28 17 -39z"/>
<path d="M21400 11912 c0 -12 6 -27 13 -34 7 -7 18 -44 25 -81 12 -75 5 -108
-29 -140 -11 -10 -17 -22 -14 -28 11 -17 41 -9 65 16 l23 24 38 -39 c45 -46
63 -49 102 -16 l29 23 -43 6 c-61 8 -72 27 -64 107 3 35 13 72 21 81 18 20 18
49 1 49 -15 0 -51 -45 -61 -78 -11 -35 -30 -21 -38 29 -11 64 -68 132 -68 81z"/>
<path d="M22313 11913 c-21 -8 -15 -31 16 -59 24 -21 28 -30 22 -52 -14 -51
-81 -32 -81 23 0 21 -32 55 -52 55 -12 0 -10 -48 2 -55 6 -3 10 -15 10 -26 0
-33 44 -69 85 -69 51 0 75 28 75 90 0 41 -5 53 -27 75 -29 26 -30 27 -50 18z"/>
<path d="M21900 11880 c0 -10 8 -23 18 -29 13 -7 17 -22 16 -58 0 -39 -8 -58
-38 -101 -49 -70 -60 -98 -40 -106 9 -3 17 -6 19 -6 9 0 80 119 94 159 16 43
16 49 0 91 -9 25 -24 46 -33 48 -9 2 -16 8 -16 13 0 5 -4 9 -10 9 -5 0 -10 -9
-10 -20z"/>
<path d="M9723 11868 c-4 -7 -9 -97 -10 -200 -1 -103 -4 -192 -8 -197 -3 -6
-55 -8 -138 -4 -141 6 -177 -1 -177 -36 0 -30 21 -38 98 -39 83 -1 142 -17
142 -38 0 -7 18 -23 40 -34 36 -19 53 -40 31 -40 -13 0 -53 -67 -85 -140 -15
-36 -34 -78 -41 -95 -23 -53 -25 -70 -9 -90 13 -18 17 -19 40 -5 26 15 38 40
95 189 14 37 34 70 48 79 22 15 24 14 38 -4 8 -10 34 -59 59 -109 61 -124 89
-154 129 -139 21 8 19 60 -3 92 -10 15 -31 51 -46 81 -33 63 -60 103 -99 146
-26 27 -52 74 -45 80 2 2 68 11 148 21 169 20 197 34 169 82 -13 24 -21 27
-64 26 -28 0 -85 -7 -129 -14 -72 -13 -79 -13 -91 4 -8 11 -15 72 -19 174 -9
210 -11 222 -41 222 -13 0 -27 -6 -32 -12z"/>
<path d="M17950 11705 c7 -8 19 -15 27 -15 13 0 14 -19 10 -127 -6 -140 -25
-210 -94 -345 -2 -5 5 -8 15 -8 23 0 66 66 77 120 4 19 12 41 17 47 9 11 31
149 29 178 -8 105 -35 165 -74 165 -16 0 -17 -3 -7 -15z"/>
<path d="M2087 11692 c-10 -11 -27 -73 -42 -155 -35 -188 -33 -247 6 -247 10
0 19 -6 19 -14 0 -22 -21 -76 -30 -76 -23 0 -14 -32 20 -66 21 -22 40 -48 42
-59 3 -17 -2 -20 -34 -19 -54 2 -62 -29 -19 -68 39 -34 58 -35 105 -3 20 14
40 25 45 25 4 0 32 -18 62 -41 122 -92 188 -103 201 -35 2 15 -11 26 -57 50
-142 74 -158 92 -130 152 23 49 30 127 15 164 -23 56 -67 64 -136 24 -56 -33
-59 -27 -49 112 7 101 18 134 46 134 20 0 49 -83 42 -122 -7 -47 9 -68 50 -68
39 0 120 80 115 113 -3 19 -11 22 -50 25 -39 2 -48 7 -48 21 0 28 -37 69 -82
92 -25 13 -43 31 -50 50 -12 34 -19 36 -41 11z m131 -474 c-5 -18 -12 -41 -15
-50 -8 -26 -39 -31 -72 -12 -37 22 -31 45 22 84 30 22 44 27 58 20 15 -8 16
-15 7 -42z"/>
<path d="M17265 11638 c-3 -24 -14 -59 -22 -78 -22 -47 -25 -325 -4 -325 11 0
14 29 17 138 3 102 8 144 19 160 8 12 15 38 15 59 0 20 4 48 10 62 8 22 7 26
-9 26 -15 0 -21 -10 -26 -42z"/>
<path d="M17611 11652 c-6 -11 -11 -30 -11 -41 0 -14 -11 -25 -34 -35 -33 -14
-34 -15 -38 -83 -4 -88 -37 -137 -98 -147 -49 -8 -57 -21 -26 -41 21 -14 28
-14 48 -3 36 20 78 60 78 75 0 27 27 12 58 -32 20 -28 39 -45 52 -45 27 0 25
14 -7 56 -24 32 -26 44 -25 110 0 42 5 81 10 87 15 18 23 90 13 106 -7 11 -11
10 -20 -7z"/>
<path d="M21014 11648 c-4 -13 -24 -45 -45 -72 -42 -53 -47 -66 -24 -66 23 0
91 79 95 111 7 48 -13 68 -26 27z"/>
<path d="M17455 11640 c-3 -5 1 -10 9 -10 9 0 21 -9 28 -20 17 -27 28 -25 28
4 0 16 -7 26 -22 30 -31 8 -36 8 -43 -4z"/>
<path d="M1912 11628 c-34 -34 17 -91 77 -86 30 2 35 7 33 23 -5 27 -20 41
-63 59 -27 11 -39 12 -47 4z"/>
<path d="M7482 11594 c-16 -11 -22 -24 -20 -42 3 -26 4 -26 88 -27 47 -1 97
-5 112 -9 22 -7 29 -4 44 18 16 26 16 28 -6 51 -21 23 -31 25 -110 25 -62 0
-92 -4 -108 -16z"/>
<path d="M6500 11581 c-6 -11 -10 -87 -10 -174 0 -127 3 -157 15 -167 27 -22
36 1 52 126 8 66 20 122 27 127 6 4 43 6 81 5 65 -3 70 -4 69 -25 0 -13 -1
-70 -2 -128 -2 -97 -3 -105 -22 -105 -11 0 -27 11 -36 25 -14 21 -15 31 -5 51
18 41 14 92 -9 99 -30 10 -37 0 -45 -58 -4 -28 -13 -65 -21 -81 -8 -16 -14
-39 -14 -51 0 -13 -9 -53 -21 -89 -24 -80 -19 -109 19 -104 20 2 29 11 36 33
21 68 42 115 52 115 5 0 23 -13 38 -29 75 -78 186 -54 126 27 -20 26 -22 43
-23 158 -2 108 1 135 16 163 21 38 17 71 -13 89 -17 10 -29 10 -68 -4 -82 -28
-146 -30 -187 -5 -44 26 -42 25 -55 2z"/>
<path d="M5038 11574 c-15 -15 -14 -20 12 -58 37 -54 72 -256 69 -399 -2 -108
4 -123 44 -108 42 16 53 95 34 250 -8 70 -20 145 -26 169 -18 69 -57 137 -86
150 -32 15 -28 15 -47 -4z"/>
<path d="M4055 11551 c-70 -32 -110 -120 -127 -280 -10 -91 -9 -114 5 -162 20
-67 65 -113 121 -123 109 -21 298 111 230 161 -23 17 -48 9 -103 -33 -34 -26
-54 -34 -87 -34 -58 0 -84 32 -84 104 0 28 4 56 8 61 4 6 32 10 62 10 102 0
200 73 200 149 0 47 -44 111 -96 140 -55 31 -75 32 -129 7z m116 -100 c16 -16
29 -34 29 -39 0 -24 -43 -60 -84 -72 -40 -11 -49 -10 -71 4 -30 20 -29 14 -6
69 32 73 82 88 132 38z"/>
<path d="M6997 11563 c-2 -5 1 -55 6 -113 5 -58 10 -181 10 -274 2 -165 2
-169 24 -177 19 -7 26 -3 40 18 36 55 14 419 -30 511 -19 38 -40 53 -50 35z"/>
<path d="M18076 11561 c-18 -7 -18 -8 5 -14 13 -4 42 -7 64 -7 22 0 52 -7 68
-14 26 -14 27 -14 27 9 0 12 -7 26 -16 29 -22 8 -125 6 -148 -3z"/>
<path d="M4463 11550 c-23 -9 -25 -14 -43 -108 -16 -80 -8 -263 13 -314 13
-32 21 -38 45 -38 24 0 31 5 36 25 4 14 4 31 0 36 -13 22 -34 147 -34 204 0
33 7 84 15 114 10 37 11 60 4 73 -5 10 -11 18 -12 17 -1 0 -12 -4 -24 -9z"/>
<path d="M7947 11531 c-32 -39 -40 -98 -36 -268 4 -135 13 -163 49 -163 36 0
42 23 29 117 -7 50 -9 138 -6 204 3 64 2 122 -3 128 -5 9 -15 3 -33 -18z"/>
<path d="M11372 11528 c-6 -8 -12 -98 -14 -220 -3 -233 -4 -231 69 -243 41 -6
44 -5 99 47 31 29 62 65 70 79 7 15 22 29 34 32 19 5 20 2 14 -43 -5 -42 -4
-49 17 -63 33 -23 46 -8 58 71 9 64 34 306 33 327 -1 6 -8 11 -16 13 -9 2 -23
-13 -36 -37 -22 -45 -54 -55 -65 -21 -4 11 -28 32 -55 45 -39 20 -64 25 -123
25 -48 0 -78 -5 -85 -12z m179 -93 c46 -30 50 -59 18 -120 -33 -62 -102 -144
-121 -145 -16 0 -18 13 -18 143 0 79 3 147 8 151 12 13 73 -2 113 -29z"/>
<path d="M8080 11519 c0 -22 36 -112 70 -174 l31 -57 -41 -75 c-42 -79 -49
-113 -25 -133 24 -20 52 -2 84 55 17 30 35 55 39 55 4 0 23 -15 41 -34 35 -36
69 -48 94 -35 24 14 8 60 -40 112 -34 37 -44 54 -39 70 3 12 6 27 6 34 0 6 16
33 36 58 19 26 33 53 30 61 -13 34 -97 -1 -111 -46 -12 -39 -43 -23 -86 45
-23 36 -46 65 -50 65 -4 0 -14 3 -23 6 -10 4 -16 1 -16 -7z"/>
<path d="M12094 11516 c-3 -9 2 -28 12 -44 47 -70 68 -194 44 -257 -6 -15 -17
-57 -24 -94 -12 -58 -12 -68 1 -83 15 -17 17 -16 42 1 19 14 32 39 49 98 36
129 25 245 -31 330 -19 27 -33 38 -79 61 -5 2 -11 -3 -14 -12z"/>
<path d="M8390 11506 c0 -8 12 -38 27 -68 23 -46 27 -65 26 -139 0 -58 -6 -95
-17 -117 -9 -17 -16 -43 -16 -57 0 -15 -5 -35 -10 -45 -11 -21 4 -66 26 -74
21 -8 52 25 69 74 57 155 36 374 -40 424 -30 20 -65 21 -65 2z"/>
<path d="M4673 11495 c-29 -20 -20 -43 21 -53 58 -15 68 -74 28 -163 -11 -24
-23 -55 -27 -69 -4 -14 -17 -36 -30 -50 -32 -36 -36 -56 -16 -74 43 -39 97 5
127 103 13 46 17 50 34 41 27 -14 31 -23 40 -93 13 -90 61 -125 96 -71 16 24
16 29 -6 92 -13 37 -38 97 -57 134 -18 37 -33 79 -33 93 0 16 -16 41 -45 71
-51 52 -96 65 -132 39z"/>
<path d="M7453 11498 c-6 -8 -6 -57 -2 -123 4 -60 5 -151 2 -200 -5 -77 -3
-93 11 -104 14 -12 21 -12 44 0 15 7 73 16 131 19 90 4 105 8 117 26 12 17 12
23 0 40 -13 17 -25 19 -110 16 -109 -3 -116 2 -116 81 0 65 14 72 108 59 43
-6 85 -14 94 -17 24 -9 42 28 28 55 -15 29 -53 41 -140 45 -41 2 -78 4 -82 4
-10 1 -48 76 -48 96 0 18 -24 20 -37 3z"/>
<path d="M12570 11501 c-90 -6 -95 -7 -110 -34 -13 -24 -13 -29 0 -37 19 -13
211 -13 244 0 59 22 53 82 -8 78 -17 -1 -74 -4 -126 -7z"/>
<path d="M2830 11480 c-9 -17 -6 -33 15 -87 44 -110 44 -121 -10 -214 -40 -70
-46 -85 -36 -105 22 -50 83 -13 106 64 12 40 50 23 91 -43 25 -40 33 -45 59
-43 24 2 31 8 33 31 3 20 -11 46 -52 103 -31 42 -56 83 -56 91 0 7 8 26 18 41
29 43 41 65 57 101 14 31 14 36 0 50 -13 13 -18 12 -45 -14 -16 -16 -32 -37
-36 -47 -9 -30 -53 -23 -64 10 -15 40 -24 54 -47 69 -19 13 -23 12 -33 -7z"/>
<path d="M11821 11491 c-11 -7 -11 -15 -2 -44 7 -19 18 -41 26 -47 38 -32 27
-101 -33 -203 -29 -50 -33 -65 -25 -86 6 -18 15 -25 28 -23 29 5 44 20 75 75
l27 48 27 -31 c14 -17 26 -36 26 -41 0 -4 14 -16 31 -25 30 -15 33 -15 51 4
19 19 19 20 -31 115 l-51 96 19 73 c10 40 16 79 14 85 -8 20 -51 16 -58 -6
-13 -41 -31 -44 -68 -11 -39 34 -37 33 -56 21z"/>
<path d="M8823 11460 c-24 -10 -29 -26 -13 -50 14 -23 191 -40 225 -23 27 15
34 50 13 71 -14 14 -191 16 -225 2z"/>
<path d="M13432 11424 c-30 -21 -14 -54 28 -54 20 0 31 -6 35 -21 7 -22 -1
-30 -63 -70 -35 -23 -52 -64 -33 -82 16 -15 212 -13 241 3 34 18 23 61 -20 75
-33 12 -35 14 -32 53 4 52 -11 80 -53 98 -44 18 -75 18 -103 -2z"/>
<path d="M6890 11394 c-6 -14 -10 -63 -10 -108 0 -94 12 -116 50 -96 19 10 20
18 18 112 -3 95 -4 101 -26 109 -19 7 -24 4 -32 -17z"/>
<path d="M13102 11412 c-9 -6 -3 -18 23 -44 l36 -36 -30 -54 c-16 -30 -43 -91
-61 -134 -17 -43 -47 -108 -66 -143 -41 -74 -41 -105 -3 -109 32 -4 55 25 100
125 17 37 37 82 44 98 8 17 17 43 20 58 11 54 58 44 70 -15 10 -43 60 -140 83
-162 24 -20 50 -18 65 6 8 12 3 31 -21 80 -17 34 -45 99 -62 143 -38 96 -65
142 -98 173 -25 22 -75 29 -100 14z"/>
<path d="M1846 11384 c-15 -14 -14 -18 10 -47 24 -29 26 -36 20 -92 -4 -33
-14 -86 -23 -118 -16 -58 -16 -59 8 -82 21 -21 27 -23 48 -12 55 27 93 153 65
209 -8 15 -14 39 -14 53 0 74 -73 131 -114 89z"/>
<path d="M3470 11383 c-73 -27 -128 -166 -74 -187 18 -7 44 10 44 28 0 6 12
29 27 50 l26 39 21 -26 c12 -14 29 -37 39 -52 11 -14 29 -31 42 -37 31 -14 85
13 120 58 45 59 14 89 -50 48 -25 -17 -62 -8 -70 16 -13 41 -46 70 -78 69 -18
0 -39 -3 -47 -6z"/>
<path d="M12583 11370 c-89 -6 -123 -19 -123 -45 0 -29 31 -37 161 -39 139 -2
159 4 159 44 0 38 -57 49 -197 40z"/>
<path d="M18216 11364 c-9 -8 -43 -20 -77 -27 -59 -10 -82 -28 -63 -47 10 -10
134 25 144 40 3 5 18 13 33 19 15 6 27 15 27 21 0 16 -47 12 -64 -6z"/>
<path d="M21175 11331 c-7 -12 12 -24 25 -16 12 7 317 -10 505 -29 77 -8 199
-17 270 -21 72 -3 193 -12 270 -20 88 -9 239 -13 405 -12 243 2 265 3 268 19
7 36 -39 40 -342 36 -159 -3 -306 -1 -325 4 -20 5 -131 13 -247 18 -117 5
-243 14 -280 20 -88 12 -541 13 -549 1z"/>
<path d="M8958 11304 c-4 -3 -45 -9 -93 -13 -101 -10 -126 -25 -107 -65 15
-34 64 -42 171 -27 47 7 101 14 119 16 47 6 65 23 57 54 -4 14 -12 29 -18 33
-14 9 -121 11 -129 2z"/>
<path d="M5745 11037 c-2 -6 -6 -32 -9 -56 -4 -24 -14 -57 -22 -73 -9 -16 -13
-36 -10 -44 8 -20 53 -17 65 4 24 45 39 111 33 137 -8 30 -50 54 -57 32z"/>
<path d="M10896 11024 c-3 -9 -6 -29 -6 -45 0 -16 -9 -48 -21 -70 -16 -32 -18
-44 -8 -55 17 -21 33 -17 56 14 26 35 38 108 24 145 -12 30 -35 36 -45 11z"/>
<path d="M7563 10903 c9 -2 17 -10 17 -17 0 -13 77 -76 93 -76 5 0 16 -8 23
-17 11 -16 26 -17 106 -14 120 4 255 4 559 0 200 -3 249 -7 264 -19 15 -12 68
-16 279 -21 144 -4 288 -12 321 -19 33 -6 92 -10 130 -7 73 5 167 -5 272 -29
78 -18 141 -17 218 1 33 8 109 15 168 15 64 0 117 5 130 12 12 6 46 17 76 23
60 12 74 27 41 45 -18 10 -38 7 -103 -13 -141 -43 -483 -55 -612 -22 -53 13
-91 16 -155 12 -47 -4 -114 -2 -150 4 -36 6 -176 12 -313 14 -194 4 -258 8
-295 21 -40 13 -100 15 -422 14 -206 -1 -400 -2 -431 -3 -44 -1 -62 4 -84 21
-15 12 -33 22 -40 22 -7 0 -15 7 -19 15 -3 8 -12 15 -20 15 -7 0 -16 7 -20 15
-3 8 -16 14 -28 14 -17 -1 -18 -2 -5 -6z"/>
<path d="M11300 10802 c0 -13 6 -22 15 -22 8 0 15 -5 15 -11 0 -7 12 -23 28
-38 26 -25 30 -26 165 -26 102 0 140 3 146 13 19 31 352 34 410 3 60 -33 397
-33 673 0 81 9 109 9 176 -5 43 -9 104 -16 134 -16 30 0 88 -9 129 -20 78 -21
261 -27 402 -13 62 5 68 8 65 27 -3 24 -17 25 -205 11 -88 -6 -131 -4 -200 8
-296 54 -441 63 -648 39 -60 -7 -180 -16 -265 -19 -143 -5 -159 -3 -210 17
-104 41 -415 38 -497 -5 -19 -10 -61 -15 -128 -15 -96 0 -102 1 -131 28 -80
72 -74 68 -74 44z"/>
<path d="M21437 10757 c-8 -57 1 -132 19 -169 19 -38 17 -72 -6 -118 -11 -22
-20 -46 -20 -54 0 -26 23 -31 38 -8 20 30 31 28 43 -8 8 -23 17 -30 36 -30 19
0 23 3 16 13 -17 20 -36 112 -30 139 4 13 18 38 32 54 30 34 34 40 58 76 21
34 21 38 -2 38 -11 0 -32 -20 -52 -50 -33 -48 -58 -60 -85 -42 -6 4 -15 43
-19 86 -10 108 -20 134 -28 73z"/>
<path d="M19334 10746 c-9 -35 2 -49 28 -35 18 10 25 8 40 -11 30 -37 18 -113
-25 -156 -36 -36 -98 -84 -109 -84 -5 0 -20 11 -33 25 -20 19 -25 34 -25 75 0
27 5 50 10 50 6 0 15 11 20 25 5 14 16 28 25 31 21 9 9 23 -15 17 -33 -9 -70
-84 -70 -143 0 -104 75 -144 158 -83 45 33 101 94 102 110 0 7 8 28 17 47 15
33 15 38 -2 75 -25 57 -51 81 -85 81 -23 0 -31 -5 -36 -24z"/>
<path d="M21907 10750 c-14 -11 -28 -20 -32 -20 -15 0 -75 -66 -75 -83 0 -36
186 -88 205 -57 10 17 -11 28 -66 36 -56 8 -66 13 -71 39 -2 13 6 24 27 34 17
8 32 18 35 22 3 4 18 13 33 18 16 6 25 15 22 21 -10 17 -51 11 -78 -10z"/>
<path d="M22367 10684 c-10 -10 4 -34 19 -34 25 0 74 -43 74 -64 -1 -24 -36
-68 -69 -86 -30 -15 -71 10 -71 44 0 13 -6 29 -14 35 -12 10 -15 6 -21 -18 -8
-37 0 -65 28 -97 20 -23 67 -34 67 -15 0 5 11 12 24 15 13 3 40 24 60 46 28
31 36 48 36 78 0 54 -43 102 -92 102 -19 0 -37 -3 -41 -6z"/>
<path d="M16565 10558 c-80 -37 -125 -70 -213 -159 -152 -153 -228 -300 -296
-574 -23 -92 -38 -371 -26 -484 8 -81 38 -190 59 -215 5 -6 19 -40 31 -76 12
-36 32 -85 46 -109 13 -24 24 -49 24 -57 0 -17 15 -25 32 -19 9 4 13 16 10 34
-5 35 13 49 28 21 6 -11 17 -20 26 -20 8 0 17 -7 20 -15 3 -8 16 -17 27 -21
12 -3 29 -12 37 -19 44 -36 219 -37 260 0 9 8 21 15 27 15 19 0 117 86 148
130 17 23 38 49 48 58 9 9 17 20 17 25 0 5 11 23 25 41 14 18 25 38 25 44 0 6
4 12 8 14 9 3 22 26 71 125 17 34 31 69 31 76 0 8 6 20 14 26 7 6 17 30 20 53
4 23 11 47 16 53 27 33 68 290 69 433 2 201 -31 328 -121 468 -27 42 -125 134
-143 134 -5 0 -23 8 -40 17 -21 11 -61 17 -130 20 -87 3 -106 0 -150 -19z
m255 -41 c92 -38 128 -67 185 -151 13 -19 26 -45 30 -57 4 -13 14 -33 21 -44
8 -11 14 -29 14 -40 0 -11 8 -33 17 -50 14 -25 16 -65 17 -246 1 -156 -2 -220
-11 -231 -7 -8 -15 -41 -19 -74 -4 -32 -15 -75 -26 -94 -10 -19 -18 -45 -18
-57 0 -13 -9 -40 -20 -60 -11 -21 -20 -45 -20 -54 0 -9 -6 -22 -14 -28 -8 -7
-18 -25 -21 -41 -3 -16 -13 -34 -21 -41 -8 -6 -14 -17 -14 -23 0 -6 -18 -37
-40 -69 -22 -31 -40 -60 -40 -63 0 -22 -173 -204 -193 -204 -6 0 -19 -8 -29
-17 -13 -12 -42 -18 -101 -21 -101 -5 -120 2 -222 82 -118 93 -154 154 -184
316 -6 30 -15 79 -21 108 -17 87 -13 277 6 315 9 18 22 35 28 40 7 5 5 11 -6
18 -27 15 -23 81 12 189 82 256 186 410 364 545 97 73 225 94 326 52z"/>
<path d="M16513 10148 c-7 -8 -12 -78 -13 -168 -3 -203 -5 -190 29 -190 37 0
39 13 32 210 -5 131 -8 155 -22 158 -9 1 -21 -3 -26 -10z"/>
<path d="M16880 9773 c-19 -2 -66 -10 -105 -18 -95 -19 -431 -47 -467 -40 -19
5 -37 1 -53 -9 -56 -36 -14 -55 124 -57 97 -1 100 -2 130 -33 16 -17 40 -39
52 -50 28 -24 22 -64 -31 -198 -22 -55 -40 -111 -40 -124 0 -27 25 -43 42 -26
10 10 47 106 75 195 8 26 18 47 23 47 16 0 50 -52 56 -89 8 -48 30 -81 53 -81
26 0 34 41 18 88 -21 62 -87 173 -124 209 -18 19 -33 40 -33 48 0 18 60 35
125 35 28 1 88 9 135 18 l85 17 0 35 c0 38 -5 40 -65 33z"/>
<path d="M20450 10571 c0 -5 7 -14 15 -21 8 -7 15 -25 15 -41 0 -26 -39 -112
-61 -133 -5 -6 -9 -21 -9 -33 0 -24 0 -24 25 -6 13 10 29 32 35 50 6 17 18 37
26 43 14 13 20 103 8 134 -6 17 -54 23 -54 7z"/>
<path d="M14934 10505 c-4 -9 1 -31 11 -49 24 -44 15 -66 -27 -66 -57 0 -65
-14 -24 -45 29 -22 36 -34 36 -61 0 -27 5 -37 25 -46 51 -23 26 -56 -67 -88
-87 -30 -97 -52 -28 -61 32 -5 50 -2 61 8 9 7 44 19 79 25 67 13 83 30 73 80
-3 15 4 43 17 68 21 41 21 90 0 90 -5 0 -16 13 -25 29 -8 16 -24 32 -35 36
-11 4 -27 22 -34 40 -18 41 -53 64 -62 40z m120 -163 c7 -12 -28 -107 -39
-105 -5 1 -16 19 -24 41 -12 34 -12 43 -2 56 14 17 56 22 65 8z"/>
<path d="M21821 10501 c-8 -14 -5 -23 13 -40 32 -30 95 -29 125 3 18 19 19 24
7 29 -8 3 -28 1 -45 -6 -26 -10 -34 -8 -60 11 -29 21 -31 21 -40 3z"/>
<path d="M14516 10501 c-3 -4 34 -48 82 -97 48 -49 98 -106 112 -127 18 -27
32 -37 52 -37 31 0 43 13 30 36 -19 34 -199 207 -229 220 -38 16 -40 17 -47 5z"/>
<path d="M15685 10448 c-3 -7 -8 -31 -13 -53 -6 -32 -14 -42 -38 -50 -38 -13
-84 -43 -84 -55 0 -5 21 -10 48 -12 39 -2 47 -6 47 -23 0 -17 -45 -56 -78 -68
-8 -3 -7 -10 6 -24 15 -18 22 -19 57 -9 29 7 43 7 51 -1 8 -8 -9 -32 -65 -90
-103 -107 -103 -155 2 -119 26 10 64 22 84 28 20 5 45 19 54 29 16 18 16 20
-6 44 l-23 25 30 37 c42 53 51 74 44 103 -5 19 -15 26 -41 30 -29 4 -35 9 -35
30 0 28 34 50 76 50 26 0 39 16 39 47 0 12 -11 14 -52 11 l-53 -3 -9 43 c-9
40 -31 56 -41 30z"/>
<path d="M14407 10406 c-12 -14 -49 -78 -81 -143 -33 -65 -66 -126 -74 -135
-19 -23 -8 -48 21 -48 21 0 33 18 90 128 36 70 73 141 83 158 17 31 14 64 -6
64 -6 0 -21 -11 -33 -24z"/>
<path d="M15434 10418 c-10 -16 33 -48 66 -48 34 0 48 35 20 50 -25 14 -77 13
-86 -2z"/>
<path d="M15268 10245 c6 -68 -5 -125 -22 -125 -17 0 -26 22 -26 63 0 50 -57
129 -61 85 -1 -7 -1 -60 0 -118 2 -123 -22 -350 -39 -360 -15 -9 -236 -30
-425 -40 -139 -7 -152 -6 -182 12 -32 19 -35 19 -125 2 -51 -9 -103 -23 -115
-30 -30 -18 -20 -48 25 -75 32 -18 41 -19 72 -9 72 23 447 47 911 58 253 6
279 9 298 26 20 18 20 20 4 39 -17 18 -27 19 -188 13 -106 -4 -176 -3 -185 3
-16 11 -18 65 -5 150 6 36 16 53 53 87 l46 42 4 89 c4 91 -7 143 -31 143 -10
0 -13 -13 -9 -55z"/>
<path d="M11390 10271 c-73 -15 -152 -86 -193 -173 -15 -31 -27 -66 -27 -78 0
-11 -8 -32 -17 -46 -25 -38 -24 -383 0 -431 10 -18 17 -47 17 -65 0 -18 9 -50
19 -69 18 -33 18 -38 4 -58 -16 -24 -6 -45 27 -56 10 -3 24 -22 31 -43 7 -20
18 -43 26 -50 7 -7 13 -19 13 -26 0 -7 8 -22 18 -34 9 -12 30 -39 45 -62 16
-22 32 -40 37 -40 19 0 18 32 -3 57 -27 34 -43 59 -63 98 -8 17 -22 41 -29 55
-21 36 -18 65 8 83 l22 16 -31 0 c-38 1 -47 11 -67 76 -60 188 -72 386 -33
537 29 112 53 163 98 204 57 55 105 74 183 74 65 0 75 -3 128 -38 36 -24 68
-55 85 -82 25 -43 26 -52 26 -175 -1 -113 -4 -135 -22 -170 -12 -22 -22 -47
-22 -56 0 -9 -6 -22 -14 -28 -8 -7 -18 -26 -21 -42 -5 -23 -12 -29 -28 -27
-18 3 -23 18 -44 121 -24 126 -47 173 -88 183 -25 6 -45 -1 -45 -16 0 -5 11
-22 25 -38 35 -42 32 -69 -13 -107 -21 -18 -50 -58 -65 -88 -15 -30 -40 -68
-56 -84 -15 -16 -31 -38 -35 -49 -8 -26 16 -48 43 -39 23 7 87 99 105 152 11
33 52 70 64 58 3 -2 10 -44 18 -92 15 -107 9 -124 -68 -173 -29 -19 -54 -37
-56 -41 -2 -5 -19 -13 -38 -19 -44 -15 -44 -30 1 -30 22 0 38 6 41 15 4 8 12
15 19 15 8 0 27 11 43 25 17 14 32 25 35 25 7 0 75 60 105 92 27 30 43 55 67
105 8 17 19 34 24 37 5 4 13 21 16 39 4 17 14 40 23 50 8 9 17 34 18 55 1 20
6 70 10 109 4 44 2 90 -4 115 -6 24 -13 54 -16 68 -6 31 -79 110 -128 139 -41
25 -154 36 -218 22z"/>
<path d="M14525 10246 c-24 -20 -27 -26 -17 -39 10 -12 21 -13 54 -5 64 14 64
-6 1 -69 -61 -61 -80 -98 -62 -119 6 -8 17 -14 24 -14 13 0 60 49 67 71 2 7
12 9 26 5 16 -5 19 -11 13 -24 -5 -9 -13 -30 -17 -47 -6 -19 -18 -31 -34 -35
-54 -13 -64 -104 -13 -116 22 -6 32 -1 57 27 29 32 39 57 81 196 21 71 19 142
-4 171 -16 19 -29 22 -83 22 -51 0 -68 -4 -93 -24z"/>
<path d="M9945 10181 c-14 -32 -28 -46 -57 -58 -37 -15 -56 -43 -43 -63 4 -6
14 -10 23 -8 29 5 42 -12 42 -55 0 -51 9 -66 40 -69 24 -3 25 0 30 66 3 42 10
71 17 73 7 3 23 13 35 23 l22 18 -34 39 c-19 22 -40 48 -45 58 -9 15 -13 13
-30 -24z"/>
<path d="M15437 10183 c-3 -4 -7 -62 -9 -128 -3 -113 -2 -120 16 -120 27 0 36
39 39 155 2 90 1 95 -20 98 -11 2 -23 0 -26 -5z"/>
<path d="M975 10151 c-27 -10 -64 -24 -81 -30 -17 -7 -36 -23 -42 -36 -10 -22
-9 -25 12 -31 14 -3 36 2 57 14 19 11 48 23 65 27 26 5 32 3 37 -14 3 -11 -1
-26 -10 -32 -24 -20 -37 -52 -35 -86 3 -39 -14 -52 -22 -18 -8 30 -53 62 -67
48 -5 -5 -9 -41 -7 -79 l3 -69 32 -3 c26 -3 34 -9 39 -29 11 -42 -7 -75 -56
-99 -56 -28 -70 -19 -70 45 0 58 -34 191 -52 202 -19 13 -57 11 -123 -6 -74
-20 -92 -15 -70 19 25 37 36 87 24 102 -11 13 -126 74 -139 74 -8 0 -65 -113
-75 -147 -3 -13 -2 -23 4 -23 5 0 15 -2 23 -5 8 -3 21 12 36 44 25 56 57 75
79 45 7 -10 13 -23 13 -30 0 -13 -89 -99 -109 -105 -30 -10 -44 -315 -17 -338
8 -7 17 -8 19 -4 3 5 9 64 13 131 7 120 8 123 36 147 31 26 53 31 63 15 12
-20 -8 -52 -41 -66 -34 -14 -41 -28 -25 -53 6 -9 18 -11 34 -7 19 4 26 1 30
-14 3 -13 -1 -24 -14 -30 -26 -15 -24 -38 6 -52 14 -6 34 -26 44 -44 13 -22
28 -34 47 -36 23 -2 32 -11 44 -46 32 -85 96 -94 130 -19 11 23 20 54 20 69 0
21 9 34 40 53 51 32 80 33 80 3 1 -42 9 -151 12 -153 2 -2 14 -5 28 -7 l25 -3
1 95 c0 53 3 103 6 112 4 8 20 18 37 21 26 6 31 11 31 36 0 27 -3 30 -37 33
l-37 3 -2 87 -2 88 44 56 c37 47 44 64 44 100 0 39 -3 46 -26 54 -34 13 -40
13 -99 -9z m-224 -281 c12 -43 10 -255 -2 -267 -8 -8 -19 -2 -40 22 -33 37
-36 53 -12 70 25 18 9 45 -26 45 -43 0 -47 17 -11 50 37 35 35 49 -10 71 l-34
16 30 11 c16 6 45 10 64 9 27 -2 36 -7 41 -27z"/>
<path d="M10125 10161 c-15 -6 -20 -18 -22 -57 -1 -27 -3 -70 -4 -95 -2 -28 2
-53 10 -63 22 -27 77 -20 121 15 l38 31 54 -18 c66 -20 108 -11 122 28 13 38
-1 96 -29 114 -23 15 -28 15 -68 -5 -57 -28 -72 -27 -116 8 -34 26 -76 52 -83
50 -2 0 -12 -4 -23 -8z m81 -122 c8 -13 -3 -24 -32 -33 -22 -7 -40 16 -28 35
7 13 51 11 60 -2z"/>
<path d="M12660 10157 c-26 -14 -68 -82 -57 -93 4 -4 13 -2 19 4 14 14 64 16
73 2 3 -5 9 -32 12 -59 4 -38 2 -57 -11 -75 -22 -35 -21 -40 22 -63 20 -12 50
-35 66 -52 36 -37 55 -39 85 -7 l23 24 -41 27 c-81 54 -68 97 65 214 25 21 26
24 10 33 -26 15 -80 1 -105 -26 -30 -31 -55 -24 -76 24 -21 46 -52 63 -85 47z"/>
<path d="M12445 10151 c-3 -5 0 -21 6 -35 10 -21 7 -32 -16 -73 -44 -78 -85
-206 -71 -225 10 -14 15 -14 38 -2 20 10 28 24 33 56 8 50 30 88 50 88 8 0 20
-20 29 -49 26 -90 47 -110 76 -76 14 16 6 56 -25 135 -7 19 -23 63 -36 98 -12
35 -28 70 -36 78 -16 16 -39 18 -48 5z"/>
<path d="M1352 10122 c-37 -18 -37 -34 -1 -42 18 -5 23 -12 21 -30 -1 -13 -8
-31 -15 -39 -8 -9 -21 -36 -30 -59 -12 -34 -14 -48 -5 -62 16 -25 -3 -59 -53
-96 -21 -16 -39 -35 -39 -41 0 -18 48 -28 65 -13 17 14 45 6 45 -13 0 -7 -16
-46 -36 -86 -29 -59 -33 -75 -23 -82 24 -15 39 -10 51 19 16 37 18 38 28 22 6
-8 10 -36 10 -62 0 -26 5 -50 11 -54 22 -13 34 18 34 94 l0 77 40 9 c64 14 65
14 65 41 0 23 -3 25 -49 25 -90 0 -73 57 25 86 35 10 55 22 59 34 9 30 -2 40
-46 40 -45 0 -51 16 -18 46 29 26 40 50 33 68 -9 24 -24 19 -61 -19 -19 -19
-38 -35 -43 -35 -20 0 -21 42 -1 74 27 43 28 92 2 106 -25 13 -29 12 -69 -8z"/>
<path d="M13384 10108 c-9 -18 -25 -74 -35 -123 -29 -152 -37 -175 -66 -186
-18 -7 -30 -6 -37 1 -17 17 -62 11 -89 -12 -35 -32 -63 -90 -82 -172 -18 -77
-14 -110 17 -143 34 -37 66 -29 120 27 49 51 64 56 124 44 42 -8 57 14 56 79
-5 174 -1 225 30 350 24 96 29 132 22 145 -19 29 -42 25 -60 -10z m-136 -401
c6 -49 -82 -178 -110 -161 -11 7 -10 61 1 68 5 3 12 21 15 40 14 76 87 117 94
53z"/>
<path d="M1710 10123 c-52 -18 -100 -47 -100 -60 0 -15 20 -15 115 -1 30 5 31
-34 1 -68 -21 -25 -27 -27 -43 -16 -29 20 -64 33 -74 26 -17 -10 -9 -26 27
-59 32 -30 35 -35 24 -57 -7 -12 -28 -37 -47 -53 l-35 -31 29 -49 c23 -40 37
-52 66 -59 64 -16 36 -59 -45 -70 -57 -9 -69 -23 -39 -47 17 -14 33 -17 69
-12 35 4 51 1 60 -9 6 -8 16 -81 22 -173 6 -88 15 -164 20 -169 5 -5 16 -6 26
-2 15 6 16 22 10 185 -7 169 -6 180 11 192 26 19 35 46 21 68 -18 30 -1 87 34
115 31 24 31 25 15 50 -10 14 -23 26 -30 26 -7 0 -27 13 -44 29 -35 32 -35 40
1 125 21 50 20 95 -1 112 -18 13 -65 17 -93 7z m15 -313 c4 -6 -1 -22 -10 -36
-13 -20 -19 -23 -31 -13 -17 14 -18 31 -2 47 15 15 35 15 43 2z"/>
<path d="M5494 10110 c-11 -4 -29 -25 -39 -46 -19 -40 -18 -107 5 -309 15
-137 -7 -346 -44 -428 -27 -58 -25 -72 10 -75 29 -3 33 1 53 48 12 29 29 98
38 153 15 102 14 159 -5 457 -5 63 -4 123 0 133 5 9 20 17 33 17 30 0 32 13 5
40 -22 22 -25 23 -56 10z"/>
<path d="M2635 10090 c-22 -11 -49 -33 -60 -50 -11 -16 -28 -33 -37 -36 -35
-11 -60 -71 -65 -158 -15 -225 89 -346 263 -307 96 22 182 119 209 234 13 58
13 73 0 138 -21 98 -54 148 -122 187 -34 18 -141 14 -188 -8z m166 -66 c44
-22 79 -102 79 -180 0 -76 -14 -117 -57 -171 -69 -86 -186 -103 -245 -36 -30
33 -58 131 -58 203 0 88 28 135 80 135 19 0 35 6 38 13 7 22 65 52 100 52 18
0 47 -7 63 -16z"/>
<path d="M2676 9943 c-3 -10 -10 -49 -16 -87 -18 -116 21 -299 48 -225 10 26
7 303 -3 319 -10 15 -23 12 -29 -7z"/>
<path d="M15809 10068 c-2 -24 -3 -80 -1 -125 3 -73 6 -82 25 -87 42 -11 49
10 42 119 -8 126 -11 135 -40 135 -20 0 -23 -6 -26 -42z"/>
<path d="M5783 10077 c-6 -6 -13 -19 -16 -29 -3 -9 -18 -22 -34 -30 -40 -19
-43 -48 -4 -48 37 0 43 -10 52 -79 5 -38 15 -62 32 -79 l25 -25 12 22 c8 17 9
31 1 53 -15 43 -14 83 3 97 20 17 70 10 73 -9 9 -75 16 -92 38 -102 21 -9 30
-7 60 16 32 25 39 26 70 16 40 -13 80 3 114 46 29 37 26 67 -10 108 -41 47
-64 53 -100 27 -35 -26 -51 -26 -74 -1 -10 11 -28 20 -40 20 -12 0 -32 -9 -45
-20 -13 -11 -29 -20 -36 -20 -7 0 -19 -3 -28 -6 -8 -3 -22 3 -33 16 -27 32
-49 42 -60 27z m365 -94 c-4 -22 -22 -20 -26 1 -2 10 3 16 13 16 10 0 15 -7
13 -17z"/>
<path d="M7032 10074 c-49 -34 -79 -149 -82 -312 0 -19 -11 -28 -50 -45 -40
-17 -50 -26 -48 -42 2 -16 11 -20 42 -21 47 -1 58 -17 52 -74 -3 -25 -10 -99
-16 -165 -7 -66 -21 -153 -32 -194 -17 -62 -18 -76 -6 -87 25 -25 55 8 68 74
18 96 20 100 36 116 21 22 31 20 60 -10 47 -46 112 -64 235 -64 112 0 149 9
149 35 0 21 -44 29 -81 16 -40 -14 -163 -14 -187 -1 -9 5 -30 14 -45 20 -56
20 -15 30 121 31 166 1 318 11 328 22 4 4 1 15 -8 23 -13 14 -26 14 -86 5 -74
-12 -439 -15 -466 -5 -13 5 -16 23 -15 98 1 110 8 137 38 152 46 23 47 32 8
68 -41 37 -41 38 -27 172 12 111 16 123 49 135 22 9 28 7 44 -15 18 -25 57
-36 57 -17 0 22 -32 81 -49 91 -28 15 -63 12 -89 -6z"/>
<path d="M15039 10054 c-10 -12 -28 -15 -78 -12 l-66 3 -3 -64 c-3 -70 5 -87
37 -76 16 5 20 12 15 31 -5 19 -2 24 13 24 11 0 25 -11 31 -25 20 -44 42 -30
83 55 32 67 33 80 6 80 -14 0 -30 -7 -38 -16z"/>
<path d="M9564 10018 c-45 -53 -53 -85 -60 -263 -9 -237 -20 -327 -44 -368
-12 -20 -25 -37 -30 -37 -15 0 -61 -50 -55 -61 4 -5 18 -14 31 -19 48 -19 121
54 145 144 6 22 14 150 17 285 7 234 8 248 30 278 13 18 33 33 48 35 42 5 31
23 -16 26 -37 2 -49 -1 -66 -20z"/>
<path d="M3626 10005 c-16 -12 -17 -17 -6 -30 7 -8 20 -15 29 -15 9 0 34 -7
56 -15 55 -20 104 -19 112 2 9 24 -28 49 -84 58 -26 3 -57 8 -68 11 -11 2 -29
-3 -39 -11z"/>
<path d="M8018 10009 c-14 -8 -18 -23 -18 -64 0 -72 -14 -108 -39 -100 -51 16
-94 -33 -124 -142 -42 -153 -30 -223 38 -223 32 0 55 17 89 65 12 17 18 18 52
7 20 -6 41 -9 45 -6 8 5 11 429 3 457 -6 19 -21 21 -46 6z m-63 -309 c-5 -30
-13 -44 -31 -52 -13 -6 -26 -9 -29 -6 -5 4 22 104 32 121 3 5 12 2 20 -6 11
-11 13 -26 8 -57z"/>
<path d="M12216 9979 c-76 -8 -91 -17 -82 -47 6 -19 13 -20 84 -16 120 8 142
13 142 32 0 10 -5 23 -12 30 -13 13 -29 13 -132 1z"/>
<path d="M4012 9933 c-37 -84 -19 -355 26 -389 44 -34 60 1 37 78 -9 29 -19
101 -22 159 -5 87 -3 113 11 139 22 44 20 50 -10 50 -19 0 -29 -8 -42 -37z"/>
<path d="M4485 9927 c-4 -8 8 -35 25 -60 40 -59 73 -177 67 -237 -4 -39 -20
-105 -42 -175 -3 -11 0 -29 9 -40 24 -32 48 -8 78 81 34 98 36 180 7 266 -20
62 -83 168 -99 168 -5 0 -15 3 -24 6 -9 4 -18 0 -21 -9z"/>
<path d="M11854 9901 c-34 -15 -72 -68 -79 -111 -4 -22 -11 -42 -16 -46 -15
-9 -10 -103 6 -139 9 -17 30 -45 46 -61 28 -27 36 -29 105 -29 79 0 97 10 92
50 -3 18 -11 20 -71 21 -76 1 -95 11 -78 42 7 12 29 24 61 32 57 14 105 53
116 95 9 35 -26 106 -64 131 -30 20 -89 27 -118 15z m90 -82 c42 -33 35 -64
-23 -93 -30 -15 -58 -22 -71 -19 -19 5 -22 11 -17 45 6 43 40 88 67 88 10 0
29 -9 44 -21z"/>
<path d="M3533 9888 c-8 -9 -8 -46 -2 -118 6 -58 12 -139 15 -180 7 -110 10
-120 39 -120 19 0 28 8 39 34 13 31 17 34 77 40 69 8 171 30 188 41 16 9 14
40 -4 55 -10 9 -23 9 -47 2 -18 -6 -71 -18 -118 -27 -84 -17 -85 -17 -102 5
-22 28 -23 69 -2 77 9 3 64 6 122 7 103 1 107 2 110 23 5 32 -31 43 -142 43
-107 0 -114 4 -124 77 -7 49 -28 67 -49 41z"/>
<path d="M4146 9881 c-5 -8 12 -54 34 -91 68 -114 68 -113 44 -177 -27 -71 -8
-86 71 -59 34 12 42 12 56 0 21 -19 58 -18 66 2 4 10 -12 33 -46 68 -53 54
-61 79 -36 112 8 10 15 26 15 35 0 9 8 27 19 40 23 30 17 49 -15 49 -17 0 -32
-12 -52 -40 -15 -21 -32 -39 -38 -40 -12 0 -51 50 -64 85 -9 25 -43 35 -54 16z"/>
<path d="M10615 9864 c-33 -36 -45 -112 -20 -131 16 -11 21 -10 37 4 17 15 20
15 28 3 14 -22 7 -35 -22 -38 -19 -2 -27 -10 -31 -31 -6 -28 -59 -115 -78
-126 -13 -9 -11 -28 5 -50 13 -18 15 -18 40 -2 14 10 38 35 52 57 30 45 47 42
58 -10 7 -37 48 -80 75 -80 66 0 96 49 44 73 -38 16 -41 22 -49 96 l-7 65 41
36 c33 29 39 39 31 57 -8 21 -10 22 -47 9 -42 -15 -62 -7 -62 24 0 16 -49 70
-64 70 -4 0 -18 -12 -31 -26z"/>
<path d="M13466 9844 c-4 -9 -2 -22 3 -28 5 -6 19 -53 31 -104 l22 -93 -27
-37 c-14 -20 -36 -49 -47 -64 -17 -22 -19 -30 -9 -42 20 -23 51 -30 64 -13 7
8 24 17 38 21 23 5 29 1 39 -24 18 -42 49 -58 67 -34 17 24 16 41 -7 93 -29
63 -25 92 20 163 41 64 48 92 29 104 -16 10 -55 -15 -68 -42 -14 -32 -59 -33
-65 -1 -14 70 -19 84 -33 100 -20 21 -49 22 -57 1z"/>
<path d="M4925 9843 c-12 -2 -34 -14 -49 -27 -25 -20 -27 -25 -17 -45 9 -16
17 -20 29 -15 9 4 44 10 76 12 48 3 67 0 99 -19 39 -21 41 -21 54 -4 17 25 17
55 -3 83 -14 20 -23 22 -92 21 -42 -1 -86 -4 -97 -6z"/>
<path d="M6448 9803 c-13 -16 -48 -80 -48 -90 0 -12 55 0 66 15 10 13 15 14
25 5 10 -10 9 -16 -4 -31 -24 -26 -67 -110 -67 -131 0 -52 51 -43 75 14 7 19
18 35 23 35 5 0 27 -16 48 -35 23 -21 47 -35 59 -33 27 4 33 47 8 67 -57 49
-72 92 -42 119 28 27 19 68 -12 51 -15 -8 -27 -6 -53 10 -41 26 -58 26 -78 4z"/>
<path d="M7147 9802 c-20 -22 -37 -104 -37 -179 0 -44 4 -58 25 -79 43 -43 44
-42 49 215 1 59 -11 72 -37 43z"/>
<path d="M7580 9800 c0 -6 7 -21 15 -34 23 -35 29 -133 11 -190 -16 -51 -9
-86 17 -86 21 0 57 86 57 136 0 49 -37 144 -56 144 -7 0 -14 9 -17 20 -5 21
-27 28 -27 10z"/>
<path d="M7426 9775 c-23 -12 -36 -13 -59 -5 -45 15 -56 12 -63 -16 -5 -18 0
-32 17 -50 l23 -24 -22 -45 c-12 -25 -22 -55 -22 -66 0 -23 27 -36 43 -20 18
18 64 13 80 -10 20 -28 61 -22 65 8 2 16 -8 32 -32 54 -49 42 -49 80 0 126 54
50 34 81 -30 48z"/>
<path d="M8903 9780 c-29 -12 -29 -24 -1 -50 14 -12 35 -20 59 -20 20 0 50 -3
67 -6 27 -5 32 -2 47 26 9 17 15 33 13 35 -30 25 -138 34 -185 15z"/>
<path d="M8148 9768 c-5 -13 16 -106 26 -115 2 -3 -11 -30 -29 -61 -39 -68
-46 -101 -24 -115 22 -14 47 -2 59 27 5 13 14 27 19 31 19 11 47 -4 60 -31 8
-18 18 -24 34 -22 32 4 34 42 3 89 -33 50 -33 62 6 110 27 33 30 42 18 49 -22
14 -43 12 -68 -6 -26 -18 -48 -9 -65 26 -14 28 -33 36 -39 18z"/>
<path d="M1997 9714 c-4 -4 -7 -16 -7 -26 0 -13 8 -18 31 -18 26 0 30 3 27 23
-3 22 -36 36 -51 21z"/>
<path d="M6706 9693 c-15 -15 -5 -54 17 -62 27 -11 40 -1 35 29 -3 22 -40 45
-52 33z"/>
<path d="M8947 9661 c-62 -5 -82 -10 -93 -26 -26 -35 -12 -40 122 -40 127 0
129 0 132 23 2 13 -2 30 -8 38 -13 14 -21 15 -153 5z"/>
<path d="M4890 9651 c-15 -4 -26 -15 -28 -29 -5 -32 30 -42 147 -41 84 0 100
3 106 17 4 11 -3 25 -20 39 -22 20 -37 23 -103 22 -42 -1 -88 -4 -102 -8z"/>
<path d="M10927 9643 c-14 -14 -6 -42 14 -48 27 -9 43 7 34 34 -6 20 -34 28
-48 14z"/>
<path d="M2030 9620 c-7 -4 -10 -15 -7 -25 8 -20 62 -17 62 4 0 17 -37 32 -55
21z"/>
<path d="M14815 9579 c-261 -6 -336 -12 -474 -39 -58 -11 -101 -33 -101 -52 0
-12 97 -6 185 12 36 7 1064 25 1171 20 16 0 25 41 12 57 -12 14 -282 15 -793
2z"/>
<path d="M5876 9541 c-15 -6 -19 -19 -21 -78 -2 -38 -10 -83 -18 -99 -16 -33
-9 -67 18 -78 21 -8 48 7 69 39 19 29 51 32 79 8 12 -11 34 -17 60 -17 57 2
91 42 82 98 -14 91 -56 125 -127 100 -39 -13 -44 -13 -68 4 -34 25 -52 30 -74
23z m198 -106 c5 -13 -1 -45 -9 -45 -17 0 -35 15 -35 29 0 32 33 44 44 16z"/>
<path d="M5623 9464 c-7 -3 -13 -16 -13 -28 0 -28 36 -46 105 -53 40 -4 55 -1
74 14 l24 20 -21 21 c-16 16 -34 22 -69 22 -27 0 -57 2 -68 5 -11 2 -26 2 -32
-1z"/>
<path d="M9770 9410 c-11 -11 -20 -26 -20 -32 0 -7 -13 -38 -30 -68 -55 -103
-34 -209 45 -224 58 -11 112 9 145 56 27 37 30 49 30 117 0 58 -5 83 -19 105
-41 62 -113 84 -151 46z m83 -75 c39 -39 25 -149 -23 -175 -22 -12 -60 -5 -72
14 -15 22 -7 73 18 124 27 55 49 65 77 37z"/>
<path d="M11027 9383 c-3 -5 -1 -18 3 -29 10 -25 50 -40 50 -18 0 8 -4 14 -9
14 -5 0 -11 9 -14 20 -5 20 -22 27 -30 13z"/>
<path d="M6305 9360 c-4 -11 -4 -24 -1 -28 8 -13 297 -22 319 -11 16 9 16 12
2 32 -14 20 -24 22 -164 24 -141 2 -150 1 -156 -17z"/>
<path d="M11105 9300 c3 -5 15 -10 25 -10 10 0 22 5 25 10 4 6 -7 10 -25 10
-18 0 -29 -4 -25 -10z"/>
<path d="M6016 8373 c-3 -3 -6 -20 -6 -38 0 -39 -16 -55 -54 -55 -40 0 -59
-13 -54 -36 2 -14 15 -20 51 -25 50 -5 67 -19 67 -55 0 -12 9 -32 19 -45 26
-32 44 -15 45 43 l1 43 40 0 c41 0 52 -11 75 -77 14 -40 70 -39 117 2 33 29
63 39 63 21 0 -5 13 -14 30 -21 95 -39 135 77 54 158 -32 32 -36 33 -88 27
-49 -6 -56 -5 -68 14 -7 12 -18 21 -25 21 -22 0 -108 -41 -116 -56 -10 -18
-86 -19 -91 -1 -3 6 -7 24 -10 39 -6 27 -38 53 -50 41z m268 -122 l28 -29 -28
-25 c-35 -33 -54 -21 -54 33 0 59 13 64 54 21z"/>
<path d="M5608 8338 c-21 -21 -21 -22 -12 -292 10 -336 8 -476 -10 -494 -12
-12 -18 -11 -41 4 -23 15 -28 15 -36 3 -16 -26 -9 -50 23 -80 40 -36 67 -37
99 -3 l24 26 -2 388 c-2 342 -1 389 13 394 15 6 68 -27 107 -66 19 -20 37 -16
37 7 0 35 -121 135 -164 135 -9 0 -26 -10 -38 -22z"/>
<path d="M6856 8352 c-10 -17 3 -36 40 -60 28 -18 34 -27 29 -45 -7 -24 -59
-73 -87 -82 -20 -7 -23 -22 -8 -45 11 -17 136 -31 163 -18 21 11 23 51 3 67
-10 8 -13 23 -9 46 3 19 3 45 -1 59 -11 44 -113 105 -130 78z"/>
<path d="M11366 8296 c-4 -16 -17 -28 -40 -36 -19 -6 -39 -17 -45 -24 -16 -19
11 -50 45 -51 l29 0 3 -92 c3 -102 14 -123 50 -97 19 13 22 24 22 93 0 57 4
82 15 91 24 20 35 2 35 -56 0 -45 5 -59 24 -79 32 -32 51 -25 123 41 32 29 61
54 65 54 4 0 30 -9 58 -20 44 -17 55 -18 78 -8 66 32 20 128 -61 128 -26 0
-58 12 -100 36 -77 45 -120 48 -150 11 -17 -21 -28 -25 -50 -20 -18 3 -32 15
-37 29 -13 33 -56 33 -64 0z m250 -90 c18 -14 18 -15 -11 -45 -33 -35 -47 -35
-56 0 -13 50 25 75 67 45z"/>
<path d="M4581 8289 l-20 -22 25 -19 c52 -42 51 -55 -10 -115 -54 -53 -55 -55
-40 -79 18 -27 48 -31 89 -12 22 10 32 9 61 -7 41 -22 55 -13 56 35 1 25 -6
39 -25 55 -22 17 -27 29 -27 65 0 48 -16 75 -62 103 -26 16 -28 16 -47 -4z"/>
<path d="M8149 8274 c-11 -13 -10 -24 4 -65 17 -46 17 -54 1 -141 -9 -51 -21
-102 -26 -114 -15 -32 -6 -69 18 -72 21 -3 44 31 44 68 0 10 3 26 6 35 6 14 8
14 26 -2 11 -10 26 -32 33 -50 17 -40 41 -51 62 -30 14 14 12 24 -21 104 -19
48 -42 109 -50 135 -7 26 -23 60 -35 76 -11 17 -21 34 -21 40 0 5 -6 15 -14
21 -10 9 -17 7 -27 -5z"/>
<path d="M2515 8274 c-142 -32 -145 -36 -145 -211 0 -274 68 -383 239 -383 83
0 123 21 169 90 76 116 61 318 -32 418 -54 58 -167 100 -231 86z m93 -88 c65
-23 97 -53 121 -112 19 -45 22 -68 19 -142 -3 -79 -6 -93 -32 -126 -69 -91
-200 -80 -242 20 -23 55 -19 68 18 60 46 -9 147 4 164 21 18 18 2 43 -28 43
-28 0 -32 23 -9 66 12 21 21 46 21 54 0 31 -30 58 -71 65 -41 7 -56 23 -45 50
7 19 32 19 84 1z m-133 -76 c3 -5 24 -14 45 -20 55 -15 53 -41 -10 -110 -48
-53 -51 -54 -65 -36 -17 23 -20 127 -5 157 12 21 25 25 35 9z"/>
<path d="M8420 8241 c-23 -43 -5 -81 37 -81 33 0 29 -21 -19 -116 -40 -77 -42
-85 -27 -100 22 -21 50 -7 77 41 23 37 21 37 94 0 31 -15 42 -16 63 -7 35 16
31 29 -20 60 -61 36 -73 71 -38 112 33 40 25 63 -20 55 -27 -5 -39 -1 -71 24
-45 36 -61 38 -76 12z"/>
<path d="M3805 8235 c-5 -2 -26 -6 -47 -9 -39 -7 -58 -34 -35 -51 11 -8 16
-54 21 -200 7 -198 17 -240 54 -233 14 3 17 16 17 75 0 39 5 76 10 81 6 5 29
15 53 22 55 17 71 35 49 57 -12 13 -23 14 -54 6 -76 -18 -86 -4 -81 112 l3 70
49 10 c46 10 72 35 59 58 -4 7 -78 9 -98 2z"/>
<path d="M4076 8207 c-28 -46 -35 -289 -12 -399 22 -108 33 -128 68 -128 23 0
28 4 28 25 0 14 -6 36 -14 48 -8 12 -21 76 -29 142 -17 132 -7 286 19 316 20
23 17 29 -13 29 -21 0 -33 -9 -47 -33z"/>
<path d="M14050 8207 c0 -12 6 -31 13 -42 25 -36 27 -80 7 -145 -10 -34 -24
-96 -31 -137 -10 -63 -10 -76 2 -84 26 -17 42 -4 55 42 8 26 21 52 29 59 13
11 17 6 31 -26 30 -72 62 -93 81 -52 7 17 3 39 -19 96 -15 40 -28 81 -28 90 0
10 -6 26 -14 37 -7 11 -17 36 -21 55 -4 19 -18 56 -31 83 -19 37 -30 47 -49
47 -19 0 -25 -5 -25 -23z"/>
<path d="M11007 8209 c-36 -21 -39 -54 -26 -290 9 -172 9 -245 0 -304 -12 -81
-40 -178 -62 -212 -17 -28 -5 -53 25 -53 34 0 59 45 86 160 21 88 22 108 15
280 -4 102 -8 228 -9 280 -1 93 0 95 23 98 13 2 39 -4 57 -14 18 -10 36 -15
40 -12 8 9 -32 61 -54 70 -26 10 -75 9 -95 -3z"/>
<path d="M14381 8182 c-26 -37 -35 -157 -11 -157 8 0 19 10 26 23 l11 22 26
-24 c15 -14 27 -32 27 -40 0 -13 -36 -84 -50 -96 -17 -16 -50 -72 -50 -85 0
-8 11 -21 25 -27 22 -10 29 -8 50 12 14 13 27 31 31 42 7 24 27 23 61 -6 38
-32 68 -40 92 -24 29 18 26 32 -13 61 -39 30 -61 76 -52 110 3 14 19 37 35 53
60 60 42 104 -26 64 -19 -11 -40 -20 -46 -20 -7 0 -25 24 -40 54 -37 74 -63
84 -96 38z"/>
<path d="M4835 8165 c4 -22 9 -150 11 -284 2 -194 6 -247 17 -258 47 -48 74
207 43 412 -15 99 -20 113 -48 140 l-31 30 8 -40z"/>
<path d="M4273 8174 c-8 -22 13 -85 64 -191 l44 -91 -15 -60 c-19 -72 -20 -94
-4 -110 17 -17 46 3 63 43 16 39 28 43 47 17 17 -24 56 -45 68 -37 22 13 8 62
-35 125 l-45 66 10 74 c6 41 13 90 16 107 5 25 2 34 -11 39 -24 10 -35 -6 -44
-65 -4 -28 -11 -54 -14 -58 -13 -12 -54 15 -60 40 -9 34 -57 117 -68 117 -5 0
-12 -7 -16 -16z"/>
<path d="M8978 8169 c-13 -7 -18 -23 -18 -59 0 -51 -16 -72 -49 -63 -26 7 -84
-39 -105 -82 -24 -48 -33 -173 -17 -232 13 -48 55 -93 87 -93 21 0 63 39 83
78 13 24 40 28 72 12 33 -18 39 23 18 130 -10 52 -18 140 -18 196 -1 116 -11
138 -53 113z m-48 -214 c10 -12 10 -24 2 -53 -6 -20 -14 -64 -19 -97 -7 -55
-10 -60 -35 -63 -33 -4 -43 23 -36 101 9 102 52 156 88 112z"/>
<path d="M13133 8162 c-20 -13 -32 -48 -38 -112 -10 -107 -12 -110 -46 -110
-17 0 -38 -4 -48 -10 -46 -24 -94 -234 -71 -304 14 -45 45 -66 83 -59 29 6 77
55 77 79 0 8 12 19 26 24 21 9 29 6 44 -12 15 -19 20 -20 34 -9 21 18 21 25
-10 117 -24 69 -26 89 -21 169 3 49 11 103 17 120 21 55 -12 130 -47 107z
m-61 -316 c12 -17 9 -35 -16 -110 -16 -50 -29 -72 -45 -78 -29 -10 -37 12 -22
61 6 21 11 47 11 57 0 11 5 36 11 57 9 33 13 37 32 31 12 -4 25 -12 29 -18z"/>
<path d="M7923 8130 c-35 -8 -77 -50 -64 -63 9 -9 19 -9 118 -1 52 5 77 11 89
25 37 41 -43 63 -143 39z"/>
<path d="M12407 8123 c-12 -12 -7 -23 23 -50 17 -14 30 -31 30 -37 -1 -15 -86
-106 -99 -106 -15 0 -81 -41 -81 -51 0 -5 -13 -15 -30 -24 -29 -15 -30 -15
-46 17 -24 49 -55 78 -80 78 -48 0 -103 -110 -74 -145 17 -20 36 -4 44 35 7
36 16 37 46 5 34 -36 39 -116 11 -178 -30 -66 -36 -101 -19 -115 20 -16 55 10
63 47 11 51 29 56 64 16 17 -20 31 -39 31 -44 0 -11 47 -31 75 -31 15 0 29 9
36 21 12 24 5 32 -43 51 -32 11 -88 102 -88 140 0 40 79 144 121 160 9 4 51 2
94 -3 84 -11 107 -3 98 32 -3 11 -18 26 -34 35 -24 12 -29 21 -29 53 0 51 -40
101 -79 101 -15 0 -31 -3 -34 -7z"/>
<path d="M5205 8099 c-4 -12 -3 -25 2 -29 4 -5 46 -10 93 -12 75 -3 85 -1 88
15 7 36 -16 47 -99 47 -70 0 -78 -2 -84 -21z"/>
<path d="M7390 8091 c-8 -16 -7 -22 9 -30 29 -16 36 -59 13 -85 -19 -21 -55
-122 -67 -186 -3 -19 -13 -52 -22 -72 -19 -45 -12 -68 21 -68 21 0 27 8 45 68
11 37 23 87 27 112 9 62 21 82 47 78 17 -2 25 -14 33 -49 7 -25 16 -55 22 -65
5 -10 13 -40 16 -66 4 -26 11 -50 15 -52 4 -3 24 -1 44 3 28 7 39 5 49 -6 20
-24 81 -60 115 -67 64 -14 153 44 153 101 0 40 -26 45 -56 12 -10 -12 -32 -28
-47 -36 -26 -13 -32 -12 -65 5 -20 10 -50 35 -66 56 -29 35 -31 43 -29 108 3
95 24 120 98 116 46 -3 50 -5 53 -29 3 -22 -2 -27 -29 -33 -17 -3 -42 -6 -56
-6 -29 0 -41 -26 -20 -47 13 -13 25 -14 86 -3 82 14 101 28 101 75 0 75 -85
125 -178 105 -63 -14 -74 -23 -111 -90 -16 -30 -33 -55 -37 -55 -4 0 -13 18
-21 40 -32 92 -71 154 -110 174 -19 9 -24 8 -33 -8z"/>
<path d="M6520 8028 c-25 -27 -29 -65 -15 -126 5 -20 8 -22 20 -12 8 7 15 20
15 29 0 9 5 23 10 31 8 13 11 12 24 -5 8 -11 22 -39 30 -63 15 -42 15 -44 -7
-65 -13 -12 -31 -27 -42 -33 -29 -16 -13 -64 22 -64 14 0 31 8 38 17 11 15 17
15 39 5 14 -6 31 -22 37 -35 15 -34 92 -69 123 -58 48 19 43 71 -8 71 -40 1
-68 24 -95 77 l-21 43 30 54 c17 30 42 66 57 80 33 33 26 60 -12 46 -27 -10
-85 -67 -85 -83 0 -17 -31 16 -44 48 -28 66 -77 84 -116 43z"/>
<path d="M13849 8010 c-53 -7 -109 -33 -109 -51 0 -18 42 -30 85 -25 25 3 66
9 91 12 34 4 47 11 53 27 17 45 -6 52 -120 37z"/>
<path d="M9150 7990 c0 -10 24 -54 53 -97 30 -43 56 -89 60 -102 4 -15 -7 -47
-33 -99 l-39 -77 22 -17 c21 -16 23 -16 44 4 12 11 27 33 33 49 17 41 35 36
66 -16 27 -47 52 -57 74 -30 10 12 4 29 -29 91 -23 41 -41 82 -41 89 0 8 14
42 31 76 28 54 30 63 16 76 -19 20 -51 3 -72 -37 -9 -17 -20 -30 -25 -30 -4 0
-39 31 -77 70 -37 38 -71 70 -75 70 -5 0 -8 -9 -8 -20z"/>
<path d="M13433 7936 c-36 -33 -37 -36 -43 -117 -7 -111 4 -185 35 -240 28
-51 58 -69 115 -69 30 0 48 7 72 29 29 26 31 31 20 55 -13 29 -28 33 -51 12
-35 -31 -58 -29 -86 8 -14 19 -27 47 -28 62 -2 25 5 31 54 55 98 48 120 101
68 167 -22 29 -86 72 -107 72 -7 0 -29 -15 -49 -34z m93 -69 c23 -20 25 -26
15 -46 -15 -27 -51 -43 -68 -29 -16 13 -17 52 -3 79 14 25 23 24 56 -4z"/>
<path d="M9955 7943 c-79 -5 -98 -14 -86 -46 7 -20 17 -23 92 -27 71 -4 87 -2
102 13 9 9 17 21 17 26 0 11 -41 42 -50 39 -3 -1 -36 -4 -75 -5z"/>
<path d="M5230 7921 c-76 -24 -100 -39 -100 -60 0 -28 7 -29 73 -15 34 7 94
13 133 14 78 0 98 11 92 52 -3 21 -8 23 -73 25 -45 2 -89 -4 -125 -16z"/>
<path d="M7047 7894 c-9 -10 -9 -52 1 -57 16 -10 52 13 52 33 0 11 -4 20 -9
20 -5 0 -16 2 -23 5 -8 3 -17 2 -21 -1z"/>
<path d="M10483 7853 c-18 -7 -16 -50 3 -57 9 -3 60 -6 114 -6 106 0 130 5
130 25 0 35 -29 45 -133 44 -56 0 -108 -3 -114 -6z"/>
<path d="M3902 7761 c-12 -11 -48 -25 -80 -31 -60 -13 -92 -26 -92 -38 0 -4 7
-15 15 -26 13 -18 17 -18 92 -1 90 20 146 55 141 88 -4 29 -46 33 -76 8z"/>
<path d="M9955 7753 c-77 -7 -87 -11 -83 -41 3 -27 4 -27 87 -30 62 -2 89 1
107 13 29 19 31 41 5 55 -19 10 -35 10 -116 3z"/>
<path d="M5924 7720 c-11 -5 -33 -22 -47 -40 -24 -28 -27 -40 -27 -109 0 -92
15 -121 63 -121 36 0 68 29 97 85 36 70 37 156 2 170 -42 17 -69 22 -88 15z
m38 -92 c2 -7 2 -26 -1 -43 -5 -24 -11 -30 -31 -30 -21 0 -25 4 -23 28 3 46
44 78 55 45z"/>
<path d="M4595 7514 c-38 -8 -106 -20 -150 -27 -44 -8 -111 -21 -150 -30 -257
-57 -418 -67 -570 -35 -44 9 -105 22 -135 28 -30 6 -65 13 -77 16 -19 5 -23 2
-23 -18 0 -24 5 -26 85 -37 46 -6 104 -19 127 -27 33 -12 86 -16 218 -17 178
0 202 3 451 58 37 8 77 15 90 15 13 0 60 9 104 20 44 11 99 20 122 20 48 0 65
17 38 37 -22 16 -39 15 -130 -3z"/>
<path d="M8237 7523 c-7 -6 -389 -26 -463 -24 -20 1 -34 -5 -38 -15 -10 -27 4
-37 48 -30 22 4 141 10 263 15 228 9 268 16 242 47 -12 15 -41 19 -52 7z"/>
<path d="M11203 7488 c-42 -45 -56 -167 -29 -233 14 -33 18 -35 60 -35 40 0
48 4 80 41 59 70 62 176 5 223 -39 33 -88 34 -116 4z m81 -84 c12 -30 6 -64
-14 -84 -36 -36 -50 -26 -50 33 0 30 3 57 7 60 12 13 51 7 57 -9z"/>
<path d="M14215 7504 c-5 -2 -57 -12 -115 -23 -58 -11 -127 -25 -155 -30 -117
-23 -212 -29 -325 -20 -120 10 -233 3 -195 -12 11 -4 42 -8 69 -8 26 -1 89 -8
139 -18 85 -15 99 -15 201 0 61 9 125 18 141 21 17 2 50 8 75 14 25 6 90 19
145 29 79 14 101 22 103 36 3 14 -4 17 -35 16 -21 0 -42 -2 -48 -5z"/>
<path d="M12745 7415 c-51 -59 -53 -61 -95 -117 -37 -50 -72 -67 -97 -46 -12
9 -14 31 -11 97 2 56 -1 86 -8 88 -15 5 -26 -95 -18 -157 8 -62 45 -105 75
-89 31 16 95 86 131 140 17 27 36 49 42 49 6 0 22 3 35 7 20 5 22 3 16 -16
-13 -43 5 -134 33 -168 19 -23 31 -30 41 -24 11 7 11 13 1 32 -7 13 -17 27
-22 30 -4 3 -15 45 -24 94 -25 142 -37 152 -99 80z"/>
<path d="M11792 7431 c-20 -12 31 -48 100 -72 85 -28 236 -42 394 -36 126 4
181 15 155 31 -6 4 -116 8 -244 9 -199 2 -236 5 -262 20 -16 9 -42 17 -56 17
-15 0 -37 9 -51 19 -13 11 -30 16 -36 12z"/>
<path d="M14021 7233 c-1 -45 3 -84 8 -87 4 -3 11 -23 15 -45 6 -39 52 -91 79
-91 31 1 105 76 154 155 45 74 63 110 59 121 -8 20 -47 4 -60 -25 -14 -32 -76
-124 -115 -171 -26 -31 -31 -33 -54 -23 -18 9 -27 22 -32 53 -4 22 -13 47 -21
54 -8 8 -14 34 -15 58 -1 85 -18 86 -18 1z"/>
<path d="M15550 7096 c-19 -6 -53 -23 -75 -37 -46 -30 -152 -141 -168 -176 -6
-14 -19 -23 -32 -23 -47 0 -100 -100 -107 -202 -3 -48 -1 -54 22 -65 29 -13
116 -1 165 24 16 9 50 21 75 28 35 9 46 16 48 35 4 21 1 22 -34 17 -20 -4 -60
-17 -88 -31 -66 -31 -90 -38 -110 -30 -25 10 -19 45 19 103 19 29 35 57 35 61
0 5 6 15 14 22 7 8 20 27 29 43 21 41 104 125 163 165 46 31 54 33 134 33 89
0 119 -12 175 -68 71 -72 104 -153 138 -347 7 -36 15 -69 19 -73 20 -21 19
153 -2 180 -4 6 -10 30 -14 54 -11 71 -84 192 -149 244 -66 55 -170 72 -257
43z"/>
<path d="M11230 7052 c-19 -1 -49 -9 -67 -17 -17 -8 -38 -15 -46 -15 -8 0 -26
-9 -40 -20 -14 -11 -28 -20 -32 -20 -15 0 -86 -59 -158 -133 -71 -73 -80 -79
-94 -64 -18 18 -11 82 11 90 19 7 27 57 10 57 -8 0 -14 -7 -14 -15 0 -8 -10
-25 -22 -37 -31 -31 -33 -132 -4 -153 35 -26 233 10 244 43 7 21 -25 24 -62 7
-40 -19 -56 -14 -56 18 1 25 107 122 179 163 65 37 182 64 276 64 99 0 158
-25 227 -94 51 -53 71 -106 62 -165 -4 -25 -3 -41 3 -41 6 0 13 18 17 39 3 22
12 41 18 44 10 3 10 7 2 18 -7 8 -15 28 -18 46 -4 17 -14 34 -22 37 -8 3 -14
12 -14 19 0 19 -66 78 -117 104 -33 17 -63 23 -145 25 -57 2 -119 2 -138 0z"/>
<path d="M11063 6718 c-21 -26 -34 -181 -40 -474 -3 -165 -3 -312 1 -327 9
-36 53 -39 60 -4 3 12 7 196 9 409 3 300 2 390 -8 398 -9 7 -15 6 -22 -2z"/>
<path d="M11298 6691 c-7 -10 -28 -26 -45 -35 -43 -22 -43 -50 -1 -62 23 -7
40 -23 58 -54 22 -37 31 -45 56 -45 31 0 33 5 20 63 -7 30 -5 33 24 43 26 9
31 16 28 38 -2 20 -9 27 -29 29 -15 2 -35 12 -45 23 -22 24 -49 24 -66 0z"/>
<path d="M11502 6681 c-39 -54 -23 -181 23 -181 8 0 30 9 50 21 35 21 36 21
61 3 51 -36 69 -44 107 -44 52 0 74 14 82 51 15 68 -38 122 -133 135 -29 4
-59 13 -67 20 -7 8 -24 14 -37 13 -13 0 -32 2 -43 6 -15 5 -26 -1 -43 -24z
m238 -99 c0 -14 -11 -21 -26 -15 -21 8 -17 23 6 23 11 0 20 -4 20 -8z"/>
<path d="M9645 6676 c-16 -12 -17 -16 -6 -30 7 -9 22 -16 32 -16 10 0 20 -4
23 -9 11 -17 -12 -58 -34 -64 -17 -4 -21 -12 -18 -34 3 -27 6 -28 87 -42 61
-10 90 -10 107 -2 33 15 30 37 -8 57 -40 20 -48 31 -48 65 0 26 -27 57 -67 78
-29 15 -45 14 -68 -3z"/>
<path d="M16223 6643 c-28 -5 -45 -26 -37 -46 4 -12 19 -16 53 -15 25 1 60 -5
76 -13 l30 -14 6 -145 c3 -80 11 -182 19 -226 13 -80 13 -83 -11 -130 -26 -52
-70 -82 -157 -105 -32 -9 -44 -17 -48 -36 -11 -40 8 -49 79 -36 101 18 152 45
187 100 l31 48 -4 120 c-3 66 -10 133 -16 148 -6 16 -11 90 -11 165 0 75 -4
144 -10 152 -14 23 -131 44 -187 33z"/>
<path d="M8973 6633 c-27 -3 -46 -10 -52 -21 -5 -9 -10 -166 -12 -348 -3 -272
-2 -334 10 -348 8 -9 48 -32 89 -52 85 -40 122 -40 122 1 0 21 -12 30 -75 60
-59 27 -76 40 -81 61 -4 15 -5 106 -2 203 2 97 2 216 -1 264 -3 49 -3 93 0 99
10 16 70 25 117 18 49 -8 67 5 47 33 -14 19 -67 38 -100 35 -11 -1 -39 -3 -62
-5z"/>
<path d="M10570 6607 c0 -14 7 -41 15 -61 14 -33 13 -92 -1 -117 -2 -4 -21 2
-41 13 -70 36 -200 11 -158 -31 19 -19 113 -33 137 -20 32 17 41 1 35 -67 -5
-46 -3 -65 8 -74 20 -17 52 7 60 46 8 47 29 60 44 28 9 -20 17 -25 38 -22 34
4 40 28 19 73 -9 18 -16 35 -16 38 0 3 -4 16 -10 29 -78 189 -75 183 -103 186
-23 3 -27 0 -27 -21z"/>
<path d="M13275 6566 c-15 -36 -31 -46 -75 -46 -30 0 -73 -35 -67 -55 2 -5 30
-12 62 -15 56 -5 60 -7 65 -35 10 -47 29 -75 51 -75 26 0 35 26 22 61 -12 31
-4 44 32 51 13 2 21 13 23 31 3 21 -2 29 -23 39 -14 6 -33 27 -40 45 -18 42
-32 42 -50 -1z"/>
<path d="M15502 6587 c-7 -8 -15 -73 -18 -148 -7 -145 -16 -174 -60 -185 -39
-10 -74 -91 -74 -172 0 -54 4 -66 25 -88 27 -27 26 -27 120 9 l60 23 0 60 c-1
32 -2 82 -3 109 -2 28 2 75 9 105 10 52 10 273 -1 283 -15 14 -48 16 -58 4z
m-44 -443 c3 -38 -13 -63 -29 -47 -15 15 -3 86 14 80 7 -2 13 -17 15 -33z"/>
<path d="M12840 6565 c-18 -20 -22 -34 -21 -80 0 -30 7 -70 15 -89 7 -18 17
-53 21 -77 4 -24 13 -69 21 -99 28 -107 8 -216 -49 -280 -26 -29 -30 -30 -46
-16 -10 9 -30 16 -44 16 -24 0 -27 -4 -27 -34 0 -47 22 -66 74 -66 52 0 86 24
120 83 61 107 59 244 -8 492 -17 63 -21 94 -14 103 17 20 57 14 85 -14 28 -28
45 -19 35 20 -15 62 -117 89 -162 41z"/>
<path d="M10721 6567 c-17 -17 -14 -24 34 -70 47 -46 52 -63 34 -116 -14 -40
2 -64 34 -52 11 4 38 4 59 -2 43 -11 88 -3 88 16 0 6 -16 25 -35 40 -27 22
-35 35 -35 61 0 22 7 38 19 47 27 20 11 59 -24 59 -14 0 -25 -4 -25 -9 0 -19
-33 -20 -60 -1 -42 30 -76 40 -89 27z"/>
<path d="M13508 6572 c-25 -5 -33 -116 -11 -161 16 -31 22 -36 48 -33 16 2 35
8 41 13 8 7 29 0 64 -22 29 -18 71 -34 95 -37 38 -4 47 -1 69 23 38 41 35 91
-7 147 -40 52 -79 61 -132 28 -30 -19 -40 -20 -69 -10 -19 6 -45 21 -58 33
-13 12 -31 21 -40 19z m247 -112 c23 -25 13 -50 -20 -50 -18 0 -28 7 -35 26
-6 14 -8 30 -4 35 9 15 40 10 59 -11z"/>
<path d="M14658 6563 c-15 -17 -15 -20 2 -53 54 -100 51 -105 -58 -101 -99 3
-134 -9 -130 -47 l3 -27 85 3 c107 4 125 -6 109 -61 -13 -49 -4 -77 26 -77 24
0 28 6 40 67 4 18 10 35 15 38 11 7 60 -34 60 -50 0 -7 11 -27 25 -44 l26 -30
45 17 c29 11 47 13 52 7 4 -6 20 -19 36 -29 28 -18 29 -18 48 1 19 20 19 20
-7 59 -24 35 -26 45 -20 99 3 33 7 78 8 100 l2 40 -42 -3 c-35 -3 -44 0 -58
22 -18 27 -58 35 -71 15 -3 -6 3 -23 15 -37 33 -42 52 -94 49 -132 -3 -30 -7
-35 -30 -38 -22 -3 -30 3 -43 29 -10 18 -30 50 -46 72 -16 22 -29 47 -29 56 0
9 -22 40 -48 69 -45 51 -48 53 -64 35z"/>
<path d="M9394 6469 c-15 -17 -19 -36 -19 -97 0 -83 17 -108 38 -53 15 39 22
39 37 -1 6 -18 18 -45 26 -60 17 -32 20 -69 10 -118 -9 -45 11 -78 39 -62 15
8 27 4 58 -15 37 -23 40 -24 58 -7 25 22 25 25 -13 63 -28 29 -33 41 -32 81 0
27 7 59 15 72 28 43 62 149 51 160 -17 17 -50 -1 -60 -32 -6 -16 -22 -46 -36
-66 l-25 -37 -10 24 c-5 13 -17 46 -27 74 -18 51 -53 95 -77 95 -8 0 -22 -9
-33 -21z"/>
<path d="M15970 6465 c-16 -20 -6 -43 25 -55 29 -11 31 -20 10 -60 -14 -27
-20 -30 -65 -30 -40 0 -51 -4 -60 -21 -8 -14 -19 -19 -38 -17 -23 3 -29 10
-39 53 -13 50 -33 75 -62 75 -34 0 -45 -19 -49 -80 -5 -74 8 -95 37 -59 l19
24 11 -28 c21 -54 14 -106 -19 -139 -34 -33 -36 -44 -15 -72 14 -18 16 -18 33
-3 31 28 61 21 102 -25 35 -40 39 -42 64 -30 36 16 33 39 -10 76 -52 46 -56
95 -13 160 l33 49 23 -28 c27 -31 96 -45 130 -26 28 15 35 46 13 66 -15 13
-16 23 -9 57 10 43 8 47 -40 101 -27 30 -62 35 -81 12z"/>
<path d="M10134 6397 c-27 -24 -29 -31 -32 -109 -6 -132 23 -204 103 -260 51
-35 95 -44 131 -26 43 21 53 44 28 68 -18 19 -24 20 -48 9 -23 -11 -32 -10
-59 6 -44 25 -76 65 -77 96 0 26 2 27 83 34 92 7 127 28 127 74 0 52 -89 114
-181 127 -39 5 -49 3 -75 -19z m134 -68 c48 -18 18 -59 -45 -59 -37 0 -43 3
-49 25 -12 50 19 61 94 34z"/>
<path d="M7734 6316 c-15 -40 -1 -51 80 -59 92 -10 126 0 126 37 0 30 -20 36
-123 36 -58 0 -79 -4 -83 -14z"/>
<path d="M12159 6285 c-19 -11 -19 -12 6 -35 24 -23 36 -25 141 -29 140 -4
164 1 164 34 0 13 -6 27 -12 32 -19 12 -276 10 -299 -2z"/>
<path d="M14124 6277 c-53 -45 -80 -170 -50 -241 22 -53 70 -76 159 -76 77 0
107 13 107 45 0 23 -21 29 -90 27 -55 -2 -71 1 -93 18 -15 12 -27 30 -27 40 0
16 12 18 98 22 82 3 103 7 130 26 35 26 40 46 17 79 -22 32 -112 74 -170 80
-44 5 -55 2 -81 -20z m142 -68 c23 -19 3 -31 -51 -31 -56 0 -75 13 -54 38 15
18 79 15 105 -7z"/>
<path d="M8407 6247 c-16 -11 -16 -14 -2 -34 12 -17 29 -23 92 -28 43 -4 90
-13 104 -21 24 -12 28 -11 48 10 l21 22 -24 23 c-19 18 -43 25 -103 32 -107
11 -117 11 -136 -4z"/>
<path d="M9884 6195 c-8 -20 13 -45 37 -45 14 0 19 7 19 30 0 25 -4 30 -25 30
-14 0 -28 -7 -31 -15z"/>
<path d="M7753 6140 c-28 -11 -29 -24 -3 -50 18 -18 33 -20 128 -20 71 0 112
4 120 12 18 18 14 46 -7 58 -24 12 -207 12 -238 0z"/>
<path d="M11285 6129 c-11 -6 -32 -32 -47 -59 -23 -41 -28 -62 -28 -120 0 -62
3 -74 25 -96 22 -22 33 -25 78 -22 l52 3 0 -56 c0 -39 -5 -61 -18 -73 -9 -10
-17 -21 -17 -25 0 -23 -122 -121 -150 -121 -7 0 -21 -6 -29 -14 -27 -22 -193
-56 -279 -56 -44 0 -115 7 -158 15 -44 8 -124 17 -179 21 -55 3 -118 12 -140
20 -22 7 -60 14 -85 14 -25 0 -63 9 -85 20 -22 11 -48 19 -58 20 -20 0 -91 29
-149 60 -20 11 -42 20 -48 20 -25 0 -140 95 -140 116 0 6 -9 22 -19 36 -27 33
-13 53 30 44 58 -12 82 -11 86 1 3 7 -8 18 -24 24 -50 20 -96 44 -110 57 -7 8
-13 35 -13 63 0 45 -2 49 -24 49 -18 0 -27 -8 -34 -29 -6 -16 -36 -55 -68 -87
-74 -77 -84 -88 -84 -102 0 -6 -9 -30 -21 -52 -26 -50 -20 -90 15 -90 26 0
100 88 111 133 4 14 19 37 35 52 28 27 28 27 39 7 6 -12 11 -27 11 -35 0 -51
77 -156 140 -192 130 -73 317 -145 376 -145 17 0 49 -6 71 -14 22 -8 75 -17
119 -21 43 -3 129 -13 189 -21 204 -28 462 -6 513 43 7 7 21 13 30 13 38 0
162 107 162 141 0 7 7 20 16 30 11 12 16 36 16 71 0 29 6 102 14 161 12 92 12
112 0 141 -24 57 -72 79 -121 55z m63 -119 c3 -43 -30 -102 -53 -94 -10 4 -15
20 -15 51 0 57 15 85 43 81 17 -2 23 -11 25 -38z m-1718 -155 c0 -8 -4 -15
-10 -15 -5 0 -10 7 -10 15 0 8 5 15 10 15 6 0 10 -7 10 -15z"/>
<path d="M13084 5968 c-50 -79 -57 -146 -19 -183 38 -39 80 -34 127 15 30 32
38 49 38 78 0 41 -22 80 -62 111 -38 30 -54 26 -84 -21z m71 -94 c0 -30 -20
-42 -51 -30 -12 5 -13 10 -3 28 24 47 54 48 54 2z"/>
<path d="M15275 5942 c-9 -23 6 -32 61 -36 27 -3 78 -12 114 -21 46 -12 129
-18 285 -22 222 -5 290 1 290 28 0 12 -47 15 -288 19 -271 5 -290 6 -303 24
-19 26 -149 33 -159 8z"/>
<path d="M9569 4831 c-6 -17 -19 -33 -29 -36 -55 -17 -64 -85 -10 -85 28 0 40
-18 40 -66 0 -15 8 -23 25 -27 29 -5 45 15 45 57 0 16 10 32 29 45 33 24 32
54 -3 73 -11 6 -27 19 -34 30 -7 10 -22 23 -33 28 -17 10 -21 7 -30 -19z"/>
<path d="M9335 4836 c-23 -10 -34 -25 -49 -69 -17 -51 -18 -81 -14 -365 5
-345 0 -421 -31 -463 -22 -30 -28 -74 -11 -84 17 -11 49 15 77 63 l28 47 0
390 c0 425 0 422 57 446 31 13 34 19 16 37 -15 15 -35 15 -73 -2z"/>
<path d="M9801 4827 c-7 -7 -11 -50 -11 -109 0 -94 1 -99 24 -109 28 -13 68
-6 90 16 10 10 35 15 78 15 98 0 131 35 92 96 -10 14 -30 32 -46 40 -25 13
-32 13 -62 -1 -19 -9 -49 -15 -68 -13 -26 2 -36 10 -47 35 -16 36 -33 47 -50
30z"/>
<path d="M11674 4797 c-5 -14 0 -26 14 -37 28 -23 32 -50 12 -85 -22 -38 -44
-156 -35 -185 11 -34 38 -20 63 33 12 26 27 47 32 47 5 0 14 -19 21 -42 14
-54 25 -68 56 -68 36 0 39 25 10 114 -15 45 -27 94 -27 108 0 17 -16 43 -47
76 -55 58 -89 71 -99 39z"/>
<path d="M11940 4755 c-13 -15 -8 -25 28 -64 14 -14 12 -117 -3 -172 -9 -34
17 -61 50 -53 17 4 26 0 35 -16 6 -12 19 -20 28 -18 15 3 17 19 17 118 0 84 5
126 17 155 10 26 13 44 7 51 -12 14 -47 7 -71 -14 -15 -13 -21 -12 -51 7 -41
25 -41 25 -57 6z"/>
<path d="M11362 4659 c-51 -19 -36 -48 30 -60 24 -4 59 -10 78 -14 28 -5 40
-2 58 15 12 11 22 25 22 31 0 5 -10 13 -22 18 -33 12 -142 19 -166 10z"/>
<path d="M12579 4613 c-6 -16 -13 -55 -16 -88 -7 -80 -15 -91 -64 -98 -23 -3
-46 -10 -51 -15 -30 -30 -34 -220 -5 -249 9 -9 35 -19 59 -22 37 -5 43 -10 50
-38 7 -26 14 -33 33 -33 13 0 26 4 29 9 3 5 8 73 10 152 3 79 8 192 12 250 4
59 4 118 0 133 -9 36 -43 35 -57 -1z m-74 -303 c-5 -8 -11 -8 -17 -2 -6 6 -7
16 -3 22 5 8 11 8 17 2 6 -6 7 -16 3 -22z"/>
<path d="M7853 4611 c-62 -8 -83 -23 -67 -49 9 -13 28 -18 87 -20 72 -3 77 -2
93 23 16 24 16 26 -2 40 -20 15 -29 16 -111 6z"/>
<path d="M8664 4590 c-26 -10 -39 -41 -22 -52 7 -4 26 -8 41 -8 16 0 30 -7 34
-16 7 -19 -20 -49 -92 -100 -60 -43 -69 -57 -55 -83 9 -18 114 -51 159 -51 30
0 38 40 12 61 -30 24 -26 50 14 89 59 57 56 123 -8 153 -39 19 -52 20 -83 7z"/>
<path d="M11103 4555 c-17 -7 -44 -33 -60 -56 -25 -37 -28 -51 -28 -123 0 -92
14 -120 83 -163 58 -35 165 -30 178 9 9 29 -7 40 -73 47 -42 4 -58 10 -58 21
0 8 11 17 25 18 45 7 129 51 146 77 12 19 15 39 12 77 -6 53 -24 77 -76 98
-33 14 -112 12 -149 -5z m121 -65 c20 -7 26 -16 26 -40 0 -25 -6 -32 -36 -45
-50 -21 -80 -19 -105 6 -18 18 -19 23 -6 42 27 41 73 56 121 37z"/>
<path d="M10302 4527 c-13 -15 -31 -91 -32 -128 0 -18 6 -28 19 -32 15 -4 23
4 35 34 20 48 31 49 46 3 15 -45 8 -73 -37 -135 -28 -40 -34 -55 -26 -68 16
-26 41 -25 74 3 39 33 45 33 65 -6 29 -56 77 -76 104 -43 10 12 9 19 -4 37
-56 78 -68 103 -68 141 1 44 16 65 79 108 29 21 40 34 36 45 -8 21 -92 13
-108 -10 -20 -27 -54 -19 -76 18 -25 44 -84 62 -107 33z"/>
<path d="M12931 4494 c-16 -36 -36 -168 -28 -188 4 -10 15 -16 24 -15 40 4 43
-1 22 -36 -12 -19 -24 -35 -28 -35 -15 0 -29 -46 -19 -63 12 -23 44 -21 75 3
34 27 45 25 76 -10 30 -33 72 -48 96 -33 23 15 15 40 -25 79 -37 38 -45 84
-20 113 17 21 37 81 30 92 -8 13 -48 11 -62 -3 -9 -9 -15 -2 -28 28 -39 93
-88 122 -113 68z"/>
<path d="M7800 4388 l-21 -23 22 -17 c15 -13 39 -18 79 -18 65 0 86 15 76 55
-6 23 -10 25 -71 25 -54 0 -68 -4 -85 -22z"/>
<path d="M10715 4299 c-9 -26 12 -41 37 -28 23 13 23 26 -1 39 -27 14 -29 13
-36 -11z"/>
<path d="M9492 3992 c-17 -11 -38 -68 -52 -144 -29 -149 48 -236 130 -147 69
76 64 193 -11 257 -44 37 -53 42 -67 34z m38 -127 c18 -21 16 -60 -5 -91 -19
-30 -31 -21 -35 26 -6 76 10 102 40 65z"/>
<path d="M8956 3051 c-3 -115 -3 -216 0 -225 7 -19 24 -21 47 -3 15 10 17 36
18 197 2 210 -3 240 -36 240 -22 0 -22 -1 -29 -209z"/>
<path d="M9957 3253 c-4 -3 -7 -24 -7 -45 0 -35 -3 -40 -35 -54 -30 -12 -34
-17 -26 -33 6 -10 21 -26 35 -35 22 -14 25 -24 28 -83 l3 -68 30 0 c30 0 30 0
35 69 5 66 7 70 32 77 26 7 28 5 34 -29 4 -21 11 -42 16 -48 13 -18 46 -5 69
27 25 36 45 36 89 4 43 -32 85 -33 101 -2 25 44 1 134 -40 157 -11 5 -38 10
-60 10 -22 0 -43 5 -46 10 -3 6 -25 10 -49 10 -51 0 -76 -22 -76 -68 0 -17 -4
-34 -10 -37 -5 -3 -10 1 -10 9 0 9 -6 16 -14 16 -23 0 -46 29 -46 59 0 15 -8
35 -18 44 -20 19 -26 20 -35 10z"/>
<path d="M15873 3184 c-24 -10 7 -51 48 -63 29 -9 40 -18 45 -38 8 -32 -7 -45
-89 -75 -69 -25 -89 -53 -64 -91 21 -32 78 -47 181 -47 80 0 172 14 187 29 4
3 3 16 -2 29 -8 20 -15 22 -89 22 -91 0 -98 8 -55 64 14 18 25 44 25 57 -1 64
-124 138 -187 113z"/>
<path d="M9674 3156 c-53 -23 -60 -73 -40 -279 19 -200 19 -249 3 -297 -10
-28 -17 -34 -35 -32 -33 5 -52 -15 -52 -53 0 -53 19 -94 47 -101 45 -12 67 8
90 82 29 92 36 194 24 334 -27 281 -27 259 0 269 20 7 28 4 45 -16 19 -24 21
-24 37 -9 9 10 17 22 17 27 0 24 -32 68 -52 74 -48 14 -54 14 -84 1z"/>
<path d="M11788 3070 c-12 -8 -15 -19 -11 -50 4 -26 0 -52 -12 -76 -12 -25
-19 -73 -22 -155 -5 -106 -4 -119 11 -125 28 -11 37 9 47 96 15 130 36 151 63
60 17 -57 32 -88 56 -115 10 -11 20 -33 22 -50 3 -27 6 -30 33 -27 17 2 36 8
44 12 9 5 20 2 29 -6 16 -17 58 -19 67 -3 4 5 -1 19 -12 31 -14 16 -18 35 -16
94 1 42 8 87 16 104 42 84 26 120 -37 81 l-34 -21 -22 34 c-21 35 -51 53 -70
41 -16 -10 -12 -30 11 -59 22 -27 29 -100 12 -117 -11 -11 -63 85 -63 114 0 9
-5 19 -10 22 -6 4 -19 23 -30 43 -33 62 -53 82 -72 72z"/>
<path d="M12708 2919 c-16 -9 -35 -70 -40 -124 -2 -23 -11 -34 -36 -47 -52
-26 -68 -45 -93 -111 -20 -52 -23 -82 -24 -184 0 -115 1 -123 24 -147 14 -14
34 -26 46 -26 20 0 71 41 90 73 16 28 51 10 68 -35 14 -34 20 -39 43 -36 20 2
30 11 36 30 10 28 9 29 -36 109 -22 39 -26 136 -12 314 5 64 5 124 -1 144 -9
36 -39 55 -65 40z m-38 -330 c0 -31 -38 -151 -57 -183 -3 -5 -12 -1 -20 9 -28
39 -7 182 33 227 17 18 19 18 31 2 7 -10 13 -34 13 -55z"/>
<path d="M10755 2880 c-4 -6 9 -25 28 -43 33 -30 77 -103 77 -127 0 -6 -18
-48 -40 -94 -44 -93 -46 -99 -26 -115 22 -18 47 -1 67 46 19 44 19 44 44 27
16 -11 29 -32 37 -61 6 -27 20 -50 35 -60 26 -17 25 -17 40 11 15 27 1 71 -63
203 -30 62 -54 116 -54 121 0 5 -19 30 -43 56 -43 45 -87 61 -102 36z"/>
<path d="M8498 2855 c-37 -25 -40 -40 -15 -72 13 -18 46 -16 53 2 9 23 24 18
24 -9 0 -16 -24 -50 -71 -100 -65 -70 -71 -79 -61 -101 21 -46 181 -68 213
-29 21 26 2 61 -36 68 -19 4 -35 11 -35 17 0 6 16 31 35 56 28 37 35 55 35 92
0 51 -4 60 -40 84 -34 23 -59 21 -102 -8z"/>
<path d="M11530 2860 c-16 -30 -1 -43 68 -63 69 -20 111 -9 112 29 0 16 -63
42 -118 50 -45 6 -51 4 -62 -16z"/>
<path d="M7762 2847 c-17 -8 -22 -17 -20 -36 l3 -26 119 -3 c122 -3 146 3 146
38 0 10 -8 21 -17 25 -31 11 -207 13 -231 2z"/>
<path d="M11262 2833 c-80 -40 -116 -153 -76 -239 26 -54 98 -121 144 -135 52
-16 113 5 118 40 5 31 -14 41 -64 34 -37 -5 -45 -2 -77 28 -20 19 -39 45 -42
58 -7 22 -5 23 26 17 109 -21 125 -20 153 10 32 35 33 63 4 113 -39 67 -128
103 -186 74z m105 -85 c30 -28 29 -46 -2 -54 -49 -12 -110 34 -89 68 10 16 68
8 91 -14z"/>
<path d="M10314 2810 c-34 -14 -57 -58 -50 -98 10 -62 58 -71 66 -12 7 48 36
53 54 9 12 -29 11 -36 -6 -66 -11 -18 -24 -33 -30 -33 -5 0 -8 -12 -6 -27 2
-21 10 -29 35 -35 18 -5 43 -23 58 -42 28 -37 57 -39 76 -4 8 14 5 25 -10 45
-16 19 -21 40 -21 83 0 52 3 60 35 93 l35 37 -20 20 c-22 22 -36 25 -45 10
-10 -16 -38 -11 -65 10 -26 20 -70 25 -106 10z"/>
<path d="M9010 2765 c-41 -8 -94 -14 -118 -14 -23 -1 -58 -7 -77 -15 -30 -13
-34 -18 -26 -38 14 -38 113 -36 339 8 25 5 31 41 10 62 -14 14 -30 14 -128 -3z"/>
<path d="M14531 2711 c-34 -9 -50 -37 -31 -55 11 -10 54 -15 162 -18 129 -4
149 -3 163 12 20 22 19 37 -2 48 -22 11 -259 22 -292 13z"/>
<path d="M13155 2700 c-11 -4 -35 -27 -54 -50 l-34 -42 -31 35 c-39 42 -71 60
-96 52 -30 -10 -24 -27 25 -75 54 -53 70 -107 50 -178 -14 -52 -40 -108 -62
-134 -19 -21 -9 -55 19 -64 15 -4 27 -1 38 12 36 43 43 45 95 19 48 -25 115
-34 115 -16 0 5 3 16 6 24 3 10 -5 18 -27 26 -18 6 -43 21 -56 33 -43 40 -28
193 27 278 30 45 34 61 19 74 -9 9 -21 11 -34 6z"/>
<path d="M15498 2673 c-19 -20 -24 -43 -10 -44 4 0 71 -2 150 -4 147 -5 188
-14 177 -42 -3 -9 4 -26 16 -39 21 -22 21 -25 5 -46 -54 -75 -70 -103 -103
-179 -38 -89 -52 -153 -34 -163 16 -10 51 16 58 44 3 14 27 71 53 126 63 135
99 148 134 51 16 -46 51 -165 60 -209 5 -21 12 -28 31 -28 43 0 42 38 -5 177
-40 120 -58 155 -122 231 -46 54 -39 62 50 61 42 0 95 -4 117 -7 35 -6 40 -11
42 -35 1 -16 14 -40 29 -54 l27 -25 -37 -35 c-45 -44 -49 -84 -9 -110 28 -19
127 -45 178 -47 27 -1 30 2 30 28 0 26 -5 30 -56 46 -83 25 -84 26 -49 73 34
47 38 80 12 99 -10 7 -21 23 -24 35 -6 22 -5 22 65 17 81 -6 120 8 125 44 2
15 -3 25 -20 31 -13 5 -214 12 -448 16 -413 7 -426 7 -442 -12z"/>
<path d="M7770 2659 c-20 -37 25 -66 117 -74 80 -8 100 -4 110 21 13 34 -11
49 -88 55 -41 4 -86 10 -101 14 -21 6 -29 3 -38 -16z"/>
<path d="M10590 2654 c-11 -12 -10 -18 3 -32 16 -15 18 -15 34 0 13 14 14 20
3 32 -7 9 -16 16 -20 16 -4 0 -13 -7 -20 -16z"/>
<path d="M8934 2576 c-3 -8 -4 -23 -2 -33 2 -10 -7 -36 -20 -57 -14 -22 -30
-63 -38 -90 -7 -28 -20 -79 -28 -114 -9 -35 -23 -76 -31 -92 -17 -33 -20 -86
-5 -95 32 -20 74 59 108 201 23 94 39 131 54 116 15 -15 48 -152 48 -203 0
-25 6 -53 13 -63 13 -18 14 -18 32 0 34 35 4 210 -68 392 -21 52 -51 70 -63
38z"/>
<path d="M14462 2537 c-28 -33 61 -58 258 -72 47 -3 106 -8 131 -12 57 -7 85
14 68 51 -10 22 -18 23 -132 30 -67 3 -165 9 -217 12 -80 6 -98 4 -108 -9z"/>
<path d="M13990 2460 c-18 -18 -20 -33 -20 -142 0 -68 -4 -129 -8 -136 -5 -7
-33 -14 -65 -16 -65 -3 -91 -19 -77 -46 5 -10 23 -23 40 -28 22 -8 30 -17 30
-35 0 -13 9 -36 20 -50 11 -14 20 -31 20 -39 0 -25 -51 -213 -62 -225 -5 -6
-8 -24 -6 -40 2 -20 9 -29 26 -31 18 -3 26 5 43 45 12 26 27 70 33 97 6 27 16
51 23 53 6 2 38 -23 71 -56 78 -78 142 -95 142 -38 0 17 -13 32 -51 56 -27 18
-61 50 -73 70 -13 20 -46 65 -74 101 -64 82 -59 90 54 90 82 0 85 1 94 26 13
34 6 44 -33 44 -18 0 -43 7 -55 16 -21 14 -22 22 -22 144 0 165 -7 183 -50
140z"/>
<path d="M9850 2424 c-55 -63 -63 -110 -31 -181 35 -77 100 -87 142 -21 17 28
20 45 16 103 -8 131 -62 173 -127 99z m50 -100 c8 -19 7 -31 -2 -41 -10 -12
-13 -12 -21 2 -8 16 -2 65 8 65 3 0 10 -12 15 -26z"/>
<path d="M9487 2153 c-13 -3 -16 -10 -12 -21 4 -10 11 -69 15 -132 12 -173 46
-219 107 -148 103 119 102 118 157 118 49 0 53 -2 101 -55 63 -68 92 -72 163
-20 59 42 129 74 161 75 13 0 46 -18 74 -40 27 -22 61 -43 74 -47 32 -8 99 13
138 43 78 59 140 65 232 23 62 -28 162 -27 234 2 48 19 66 21 158 15 57 -3
109 -10 115 -15 6 -5 48 -19 93 -31 80 -21 84 -21 145 -4 35 9 81 26 103 37
33 17 52 19 120 13 44 -3 105 -15 135 -27 45 -18 72 -21 145 -18 155 5 317 3
385 -5 56 -7 76 -5 145 17 44 14 122 30 172 37 90 11 94 11 146 -14 53 -25 56
-25 313 -24 244 0 264 2 354 25 52 14 109 26 125 27 50 2 43 -31 -20 -97 -45
-46 -56 -63 -53 -85 2 -21 9 -28 32 -30 23 -3 36 5 70 43 22 26 58 66 78 89
31 33 38 49 38 83 0 57 -31 79 -125 87 -39 4 -91 9 -117 12 -44 5 -48 4 -62
-24 -21 -40 -59 -53 -152 -51 -104 2 -166 2 -303 0 -97 -1 -119 1 -157 20 -25
11 -61 21 -82 22 -71 1 -197 -16 -252 -33 -48 -16 -93 -18 -355 -16 -270 1
-303 3 -334 20 -46 25 -234 29 -271 5 -14 -8 -53 -23 -87 -34 -59 -17 -65 -17
-120 -1 -32 10 -73 24 -91 32 -53 23 -269 21 -319 -3 -50 -24 -146 -23 -191 1
-74 39 -183 37 -244 -6 -14 -10 -30 -18 -36 -18 -5 0 -15 -6 -21 -14 -27 -32
-60 -28 -124 14 -97 63 -127 59 -316 -40 l-43 -23 -24 31 c-41 52 -84 72 -153
72 -61 0 -63 -1 -116 -51 l-53 -50 -16 23 c-9 12 -16 41 -16 64 0 35 -32 137
-42 133 -2 -1 -11 -3 -21 -6z"/>
<path d="M8390 1337 c0 -16 23 -37 61 -56 15 -7 32 -25 38 -38 16 -36 -3 -62
-75 -99 -40 -21 -60 -38 -62 -53 -5 -33 35 -42 167 -38 110 4 117 5 128 28 15
30 1 49 -37 49 -52 0 -58 7 -52 57 6 58 -16 102 -69 138 -42 27 -99 34 -99 12z"/>
<path d="M9684 1319 c-16 -20 -35 -218 -33 -332 1 -63 -3 -103 -10 -110 -7 -7
-44 -12 -90 -12 -85 0 -114 -13 -109 -49 3 -18 10 -21 49 -21 54 0 71 -12 98
-69 25 -51 26 -74 6 -146 -9 -30 -22 -80 -29 -110 -8 -30 -19 -70 -26 -88 -17
-45 -6 -84 23 -80 13 2 24 13 29 28 30 105 55 174 64 177 5 2 23 -29 38 -69
31 -81 51 -108 76 -108 28 0 30 38 6 94 -13 28 -38 96 -56 151 -36 108 -53
150 -72 177 -26 36 0 40 168 31 175 -9 201 -4 196 37 -2 14 -6 27 -9 30 -2 3
-63 5 -133 5 -88 0 -133 4 -141 12 -15 15 -18 182 -6 324 7 85 6 98 -10 118
-15 19 -21 21 -29 10z"/>
<path d="M11029 1313 c-1 -5 -1 -78 1 -164 1 -102 -2 -164 -9 -178 -11 -19
-20 -21 -114 -21 -114 0 -153 -13 -128 -44 10 -12 31 -16 85 -16 39 0 98 -5
131 -10 33 -6 120 -15 192 -20 73 -5 148 -12 166 -15 24 -5 39 -1 56 12 23 18
23 19 4 42 -18 22 -30 24 -157 32 -75 5 -140 11 -145 13 -4 3 -11 83 -14 178
-5 148 -9 175 -24 185 -19 14 -42 17 -44 6z"/>
<path d="M6887 1248 c-4 -15 1 -30 14 -44 26 -28 20 -45 -34 -106 l-42 -46
-55 10 c-121 21 -180 25 -192 11 -7 -9 -7 -17 2 -27 19 -24 21 -390 2 -439
-20 -52 -8 -60 87 -53 41 3 112 6 158 6 l84 0 -3 28 -3 27 -112 5 c-62 3 -117
10 -123 16 -6 6 -10 35 -8 65 3 54 3 54 33 50 17 -1 37 -7 45 -11 8 -4 34 -11
57 -15 37 -6 42 -4 48 15 10 30 -6 42 -92 69 -45 13 -78 30 -88 44 -17 24 -20
93 -6 130 9 24 12 24 56 15 57 -12 107 -4 130 22 10 11 23 17 28 13 6 -4 27
-9 47 -13 l35 -5 1 -190 c1 -204 10 -259 46 -271 11 -3 24 -1 28 5 3 6 0 60
-7 119 -24 185 -15 317 25 364 20 24 9 46 -30 56 -33 9 -33 9 -30 64 3 51 1
57 -28 81 -39 33 -66 35 -73 5z"/>
<path d="M5627 1233 c-4 -3 -7 -17 -7 -31 0 -13 -9 -35 -20 -49 -26 -33 -25
-45 5 -73 21 -20 38 -24 109 -28 92 -5 130 7 119 36 -10 26 -23 32 -73 32 -58
0 -74 11 -66 43 9 39 -9 77 -37 77 -13 0 -27 -3 -30 -7z"/>
<path d="M3293 1153 c-7 -3 -13 -14 -13 -26 0 -12 -11 -30 -25 -42 l-25 -20
10 -130 c5 -71 10 -174 10 -228 l0 -98 44 -47 45 -47 37 20 c45 24 78 54 126
115 57 74 79 127 85 207 5 66 4 76 -20 112 -31 47 -83 90 -152 126 -27 15 -63
35 -80 45 -16 9 -36 15 -42 13z m113 -124 c91 -60 114 -92 114 -156 0 -57 -35
-130 -99 -204 -45 -52 -85 -65 -95 -31 -2 9 -7 78 -11 152 -3 74 -11 165 -17
202 -19 113 -11 115 108 37z"/>
<path d="M3660 1120 c-22 -22 -25 -35 -29 -109 -2 -57 2 -103 13 -140 8 -31
21 -89 27 -130 13 -86 40 -125 67 -97 14 14 14 22 -2 93 -39 172 -47 229 -42
308 2 45 2 85 -2 91 -4 5 -18 -1 -32 -16z"/>
<path d="M5337 1133 c-29 -33 -55 -118 -67 -223 -22 -200 -23 -219 -9 -280 14
-64 20 -73 56 -84 29 -9 39 23 19 63 -11 21 -16 59 -16 123 0 98 32 324 48
340 17 17 46 4 53 -22 29 -102 53 -180 65 -210 14 -33 13 -41 -11 -117 -21
-65 -24 -86 -15 -102 16 -30 35 -26 60 14 26 43 45 44 65 5 16 -32 49 -55 65
-45 16 10 12 58 -7 84 -63 90 -78 165 -48 238 16 37 20 109 7 117 -12 7 -38
-16 -56 -52 -9 -18 -21 -30 -25 -28 -5 3 -23 43 -41 89 -28 73 -37 85 -64 95
-44 16 -60 15 -79 -5z"/>
<path d="M4967 1122 c-18 -20 -18 -21 0 -30 10 -6 36 -13 58 -17 22 -4 57 -16
79 -27 38 -20 39 -20 58 0 17 17 18 22 6 41 -14 23 -51 36 -133 46 -43 6 -53
4 -68 -13z"/>
<path d="M4130 1093 c0 -15 9 -50 19 -78 27 -68 51 -181 51 -234 0 -25 -7 -82
-16 -128 -16 -89 -11 -113 26 -113 24 0 37 35 51 134 13 91 5 175 -27 281 -36
122 -104 212 -104 138z"/>
<path d="M4887 1054 c-5 -30 2 -418 9 -451 5 -28 27 -29 69 -3 21 13 59 22
109 27 81 6 91 12 81 42 -8 26 -41 32 -111 21 -71 -12 -79 -6 -87 68 -6 49 -4
54 18 64 17 8 36 8 69 -1 87 -22 124 -12 111 28 -7 22 -86 45 -146 43 -61 -3
-73 15 -77 107 -4 70 -7 81 -22 81 -11 0 -19 -10 -23 -26z"/>
<path d="M5930 1070 c-12 -7 -12 -20 4 -82 28 -116 32 -233 11 -321 -10 -42
-15 -83 -11 -93 6 -15 10 -14 35 10 38 37 65 126 58 197 -7 74 -34 197 -52
236 -8 17 -15 36 -15 41 0 16 -14 22 -30 12z"/>
<path d="M3856 1047 c-16 -12 -17 -18 -6 -58 6 -24 20 -67 32 -95 19 -48 20
-52 3 -83 -9 -18 -19 -58 -22 -88 l-6 -55 28 4 c21 2 31 11 38 33 15 46 29 48
72 6 46 -44 68 -54 84 -38 19 19 13 34 -43 98 -58 66 -71 98 -51 126 7 10 18
35 25 57 10 32 10 40 -3 53 -13 13 -17 12 -38 -10 -44 -44 -69 -40 -69 12 0 9
-6 25 -13 34 -10 15 -15 16 -31 4z"/>
<path d="M7390 1010 c0 -12 8 -33 17 -47 25 -38 26 -351 1 -403 -31 -64 -27
-92 9 -88 39 4 60 54 74 174 21 180 -26 384 -88 384 -7 0 -13 -9 -13 -20z"/>
<path d="M7111 1006 c-17 -20 -5 -95 25 -168 13 -32 24 -64 24 -71 0 -8 -16
-57 -36 -108 -50 -131 -51 -137 -23 -148 33 -12 45 2 73 83 13 37 26 70 30 73
9 9 36 -18 63 -62 35 -56 51 -67 77 -53 11 6 22 12 24 13 2 2 -24 45 -58 96
-57 87 -61 97 -56 137 3 23 15 60 26 82 22 43 26 75 9 85 -14 9 -44 -20 -59
-56 -23 -54 -58 -24 -80 69 -11 45 -20 51 -39 28z"/>
<path d="M4472 974 c-22 -15 -22 -17 -7 -34 11 -13 37 -20 88 -24 40 -3 93 -9
119 -12 45 -6 48 -5 58 22 14 36 6 42 -66 54 -90 15 -166 12 -192 -6z"/>
<path d="M2397 963 c-25 -24 37 -93 84 -93 25 0 29 4 29 28 0 42 -87 92 -113
65z"/>
<path d="M8202 921 c-8 -4 -12 -19 -10 -32 3 -24 4 -24 173 -31 191 -8 283
-17 269 -26 -5 -4 -19 -22 -32 -40 l-23 -33 35 -14 c43 -18 48 -51 14 -82 -13
-11 -28 -28 -33 -38 -16 -27 -50 -4 -66 42 -17 54 -40 94 -72 128 l-28 30 -20
-24 c-24 -30 -24 -48 1 -61 21 -11 19 -22 -14 -95 -8 -16 -23 -61 -34 -100
-12 -38 -30 -100 -42 -136 -18 -60 -19 -99 -1 -99 24 0 49 34 55 75 4 25 13
60 21 78 7 18 16 53 20 78 8 51 45 107 63 95 7 -4 12 -15 12 -24 0 -9 6 -29
14 -44 12 -23 38 -109 63 -208 7 -27 14 -34 29 -32 37 7 39 20 15 110 -12 48
-25 103 -28 124 l-5 36 39 -13 c102 -37 229 9 144 52 -30 15 -44 38 -36 62 9
29 -11 69 -45 86 -16 8 -30 22 -30 31 0 13 16 15 96 13 84 -2 98 0 110 16 16
22 17 25 6 43 -6 9 -55 14 -178 17 -93 3 -198 9 -234 15 -80 12 -230 13 -248
1z"/>
<path d="M7717 904 c-26 -14 -34 -38 -19 -60 4 -7 39 -12 84 -12 43 -1 87 -6
98 -12 14 -8 25 -7 40 2 25 16 25 21 -2 53 -20 22 -33 27 -90 30 -37 2 -71 6
-75 8 -5 3 -20 -1 -36 -9z"/>
<path d="M6188 899 c-10 -5 -18 -14 -18 -20 0 -18 62 -47 116 -54 29 -3 56
-11 59 -16 11 -16 61 -10 79 10 32 35 4 52 -124 77 -88 16 -90 17 -112 3z"/>
<path d="M10316 865 c-9 -13 -16 -27 -16 -30 0 -12 46 -22 66 -15 13 5 44 0
89 -16 38 -13 84 -24 102 -24 32 0 34 2 31 28 -3 24 -11 30 -83 54 -105 36
-167 37 -189 3z"/>
<path d="M4519 811 c-76 -7 -118 -33 -97 -59 10 -12 31 -14 113 -9 60 4 115 2
137 -5 29 -8 41 -8 53 2 26 21 17 37 -34 59 -51 22 -59 22 -172 12z"/>
<path d="M9034 812 c-18 -12 -35 -50 -25 -56 17 -11 270 -15 276 -5 13 21 -7
49 -43 59 -42 11 -192 13 -208 2z"/>
<path d="M11006 777 c-17 -12 -17 -15 4 -50 23 -38 22 -76 -3 -105 -6 -8 -32
-66 -57 -129 -45 -112 -53 -163 -26 -163 25 0 44 28 80 122 21 53 46 104 57
114 18 16 19 15 35 -22 8 -21 22 -53 30 -71 8 -17 14 -36 14 -43 0 -6 7 -24
15 -40 17 -33 52 -40 62 -15 6 17 -13 88 -45 170 -11 28 -28 70 -38 95 -10 25
-24 52 -31 61 -7 8 -13 20 -13 26 0 13 -46 63 -58 63 -4 0 -16 -6 -26 -13z"/>
<path d="M11205 777 c-21 -16 -10 -26 39 -36 24 -5 32 -13 34 -33 3 -21 -3
-30 -27 -43 -33 -16 -56 -49 -46 -65 15 -24 67 -39 144 -41 85 -2 105 6 99 37
-2 13 -14 20 -38 22 -50 5 -60 17 -54 65 3 32 0 47 -15 64 -35 41 -101 55
-136 30z"/>
<path d="M7811 752 c-76 -2 -120 -7 -133 -16 -20 -14 -20 -14 2 -36 13 -13 30
-20 40 -17 10 3 37 1 60 -3 50 -9 190 13 201 32 10 15 -7 34 -36 40 -11 2 -71
2 -134 0z"/>
<path d="M9844 729 c-3 -6 2 -28 11 -49 l17 -38 -36 -34 c-65 -60 -40 -99 62
-97 82 2 107 11 110 40 3 22 -2 26 -35 35 l-38 9 3 48 c3 40 0 53 -19 73 -23
25 -63 32 -75 13z"/>
<path d="M10347 726 c-52 -19 -65 -32 -59 -61 5 -28 27 -32 56 -10 23 17 169
21 209 6 18 -7 31 -5 47 6 27 19 20 26 -50 52 -63 24 -147 27 -203 7z"/>
<path d="M2574 665 c-3 -8 4 -26 15 -41 12 -15 21 -32 21 -38 0 -6 9 -22 20
-36 l19 -25 22 21 c26 26 20 51 -23 100 -31 36 -65 44 -74 19z"/>
<path d="M2260 656 c-15 -19 -15 -87 0 -115 13 -25 48 -28 57 -4 8 20 -13 103
-31 121 -10 11 -15 10 -26 -2z"/>
</g>
</svg>
