<?xml version="1.0" standalone="no"?>
<!DOCTYPE svg PUBLIC "-//W3C//DTD SVG 20010904//EN"
 "http://www.w3.org/TR/2001/REC-SVG-20010904/DTD/svg10.dtd">
<svg version="1.0" xmlns="http://www.w3.org/2000/svg"
 width="2368.000000pt" height="618.000000pt" viewBox="0 0 2368.000000 618.000000"
 preserveAspectRatio="xMidYMid meet">

<g transform="translate(0.000000,618.000000) scale(0.100000,-0.100000)"
fill="#000000" stroke="none">
<path d="M16235 6058 c-141 -46 -260 -155 -335 -305 -17 -35 -35 -63 -40 -63
-5 0 -20 5 -34 11 -14 7 -33 9 -42 5 -14 -6 -9 -11 26 -29 48 -24 60 -50 40
-87 -8 -15 -19 -20 -38 -18 -23 3 -27 8 -30 41 -4 42 -22 41 -22 -2 0 -15 -6
-36 -14 -46 -12 -17 -11 -24 5 -54 10 -20 19 -43 19 -52 0 -9 7 -22 15 -29 20
-17 10 -30 -25 -30 -36 0 -47 -17 -26 -38 14 -15 20 -15 63 1 64 23 78 22 91
-8 23 -51 125 -145 157 -145 16 0 0 24 -44 65 -65 62 -101 127 -83 155 17 27
15 38 -5 36 -16 -1 -18 9 -16 97 2 92 4 104 40 175 49 100 163 218 249 257 53
24 71 27 169 27 96 1 117 -3 165 -24 59 -26 108 -74 140 -137 59 -117 64 -195
20 -323 -40 -117 -88 -196 -159 -260 -88 -79 -147 -106 -286 -127 -27 -4 -58
-12 -68 -16 -35 -15 -193 30 -249 71 -37 28 -50 24 -22 -7 91 -101 365 -105
554 -9 62 32 180 153 212 220 57 115 78 190 78 278 0 74 -4 92 -34 157 -54
117 -123 179 -237 214 -43 13 -192 13 -234 -1z m-390 -550 c3 -7 6 -29 7 -48
2 -26 -1 -35 -15 -38 -12 -2 -22 8 -36 40 -10 24 -17 46 -14 51 7 12 53 8 58
-5z"/>
<path d="M5524 5989 c-28 -10 -61 -30 -74 -44 -22 -24 -23 -26 -7 -42 15 -15
21 -16 50 -4 63 26 91 29 119 13 25 -15 29 -14 48 3 32 29 26 63 -15 81 -44
18 -59 17 -121 -7z"/>
<path d="M3133 5934 c-3 -8 5 -38 18 -66 17 -36 20 -53 12 -55 -7 -3 -27 -14
-45 -26 -29 -20 -32 -27 -30 -63 2 -28 -3 -47 -18 -66 -17 -23 -19 -30 -8 -47
11 -17 9 -24 -12 -46 -23 -25 -23 -27 -7 -54 9 -15 13 -31 10 -35 -4 -4 -10
-30 -14 -59 -8 -57 -34 -181 -51 -237 -5 -20 -8 -49 -6 -65 2 -24 8 -30 27
-30 26 0 30 8 54 110 12 47 14 50 52 58 47 9 164 27 220 33 64 8 85 23 85 59
0 30 -3 33 -40 39 -38 6 -39 7 -28 30 16 36 2 93 -28 113 -24 15 -28 15 -87
-15 -34 -17 -75 -34 -90 -37 -27 -7 -28 -6 -25 26 3 30 8 35 53 52 96 36 100
40 98 80 -1 20 2 37 8 37 6 0 9 12 7 28 -3 23 -8 28 -37 30 -18 2 -38 -1 -44
-7 -13 -13 -77 -15 -77 -3 0 15 50 32 93 32 24 0 48 5 55 12 15 15 16 54 2 63
-7 4 -5 14 5 28 19 27 19 71 0 87 -17 15 -33 6 -45 -26 -9 -22 -30 -34 -30
-16 0 14 -40 52 -56 52 -8 0 -17 -7 -21 -16z m127 -502 c0 -15 -75 -81 -103
-91 -53 -20 -65 -15 -58 26 6 35 8 37 63 48 32 6 61 14 64 18 10 10 34 9 34
-1z"/>
<path d="M13854 5931 c-61 -28 -115 -81 -173 -169 -50 -76 -51 -80 -51 -153 0
-88 28 -183 82 -279 46 -80 67 -105 140 -164 l58 -45 -39 -11 c-44 -12 -92 -4
-138 22 -18 10 -49 27 -68 38 -20 11 -38 20 -42 20 -14 0 55 -51 97 -72 80
-39 88 -41 127 -33 21 3 63 7 93 8 l55 2 5 -45 c6 -57 24 -54 28 5 3 40 6 45
28 45 15 0 24 6 24 15 0 8 -9 15 -19 15 -37 0 -33 21 12 60 75 66 85 104 88
322 1 112 -2 192 -8 200 -5 7 -18 36 -28 63 -12 32 -39 71 -74 108 -50 52 -61
58 -106 63 -37 3 -61 0 -91 -15z m141 -51 c56 -35 115 -138 115 -202 0 -27
-12 -45 -76 -109 l-75 -76 15 -150 c19 -183 19 -180 1 -187 -45 -17 -189 111
-243 215 -42 83 -42 109 -2 109 26 0 30 3 25 23 -4 16 7 39 40 86 27 36 43 67
38 72 -9 9 -56 -31 -86 -75 -24 -35 -34 -33 -52 10 -21 50 -19 80 7 123 91
153 205 215 293 161z m133 -422 c-3 -116 -6 -139 -27 -181 -22 -45 -65 -86
-77 -74 -3 3 -10 67 -15 143 l-9 138 52 53 c78 79 80 76 76 -79z"/>
<path d="M13877 5733 c-7 -12 9 -142 22 -176 10 -26 21 -33 33 -21 3 3 1 22
-4 42 -5 20 -14 62 -19 92 -10 55 -22 79 -32 63z"/>
<path d="M2119 5933 c-1 -5 0 -33 1 -64 l2 -55 -56 -43 c-59 -44 -66 -59 -40
-85 19 -20 28 -20 44 -1 21 25 30 17 30 -27 -1 -95 -40 -239 -74 -277 -10 -11
-16 -30 -14 -43 2 -18 10 -24 34 -26 28 -3 34 1 50 37 11 22 22 41 26 41 4 0
15 -13 24 -29 20 -34 53 -55 80 -49 27 5 61 62 75 126 18 83 18 404 0 425 -17
21 -59 21 -85 2 -25 -19 -36 -19 -36 0 0 26 -30 75 -45 75 -8 0 -16 -3 -16 -7z
m125 -295 c-6 -136 -14 -188 -31 -188 -5 0 -19 28 -32 63 -23 59 -23 66 -12
151 12 91 25 115 64 116 16 0 17 -10 11 -142z"/>
<path d="M15265 5903 c-48 -25 -84 -63 -141 -150 l-54 -82 -66 31 -66 31 -36
-18 c-30 -15 -33 -19 -17 -22 150 -27 205 -71 136 -110 -28 -16 -28 -17 -9
-33 18 -14 19 -19 6 -70 -8 -29 -19 -55 -25 -57 -10 -4 -13 11 -32 144 -8 63
-18 75 -27 38 -6 -24 8 -121 32 -219 8 -31 -6 -46 -43 -46 -14 0 -23 -6 -23
-15 0 -11 12 -15 50 -15 l51 0 20 -47 c15 -35 23 -43 31 -35 9 9 9 24 0 59
-10 45 -10 49 11 63 83 57 115 117 39 74 -55 -31 -61 -24 -48 49 l11 62 43 3
c50 4 52 22 4 34 -18 5 -32 11 -32 14 0 29 120 218 158 249 81 65 170 60 255
-15 58 -51 80 -116 85 -256 6 -177 -7 -217 -106 -315 -91 -90 -128 -102 -220
-73 -66 21 -126 75 -117 105 4 13 2 19 -9 19 -20 0 -21 -32 -1 -71 23 -44 122
-89 195 -89 45 0 65 6 101 28 59 38 136 117 160 164 11 21 24 38 29 38 16 0
33 43 47 119 11 68 11 78 -7 118 -10 23 -23 43 -29 43 -6 0 -15 19 -22 43 -29
110 -72 167 -153 205 -55 26 -137 28 -181 5z m365 -315 c0 -16 -3 -19 -11 -11
-6 6 -8 16 -5 22 11 17 16 13 16 -11z"/>
<path d="M2653 5895 c-3 -9 3 -25 12 -35 16 -18 17 -25 5 -63 -7 -23 -14 -46
-15 -52 -1 -5 -24 -16 -51 -23 -85 -23 -98 -38 -65 -71 19 -19 22 -19 73 -4
64 18 118 27 118 19 0 -8 -111 -180 -124 -191 -30 -27 -37 -44 -26 -64 6 -12
19 -21 29 -21 24 0 80 62 116 128 16 29 31 52 36 52 13 0 16 -84 5 -120 -11
-32 -14 -35 -48 -32 -40 3 -49 -9 -41 -52 7 -33 54 -61 81 -47 48 26 92 104
92 164 0 18 -11 66 -25 106 -13 39 -22 78 -18 86 3 8 0 15 -6 15 -24 0 -9 29
20 39 25 9 30 15 27 38 -3 27 -5 28 -53 27 l-50 -1 3 37 c3 31 -1 41 -23 59
-32 25 -63 27 -72 6z"/>
<path d="M4965 5889 c-5 -6 -7 -40 -6 -75 2 -57 -1 -65 -26 -88 -42 -40 -53
-34 -53 28 0 56 -17 83 -45 72 -10 -3 -15 -19 -15 -48 0 -53 -14 -78 -32 -60
-6 6 -27 12 -45 12 l-33 0 0 66 c0 62 -1 65 -22 62 -20 -3 -24 -12 -35 -83 -6
-44 -12 -81 -12 -82 -1 -2 -11 -3 -22 -3 -20 0 -21 4 -16 41 7 53 0 69 -28 69
-26 0 -45 -40 -45 -96 0 -19 -5 -54 -12 -79 -14 -54 -4 -80 32 -80 15 0 29 10
40 29 27 50 40 44 40 -19 0 -31 -4 -64 -9 -73 -5 -10 -11 -42 -13 -72 -3 -53
-2 -55 23 -58 32 -4 49 16 55 64 2 20 6 40 9 43 2 4 4 40 6 81 2 87 11 110 42
110 13 0 28 5 34 11 8 8 19 3 39 -20 20 -23 36 -31 60 -31 18 0 34 5 36 11 2
6 13 9 23 7 20 -5 20 -5 0 -13 -44 -18 -75 -47 -75 -70 0 -28 30 -41 60 -25
21 11 24 6 20 -35 -2 -31 -29 -45 -86 -45 -29 0 -56 -4 -59 -10 -3 -5 -15 -10
-25 -10 -11 0 -24 -9 -30 -19 -13 -25 -13 -27 4 -44 12 -12 26 -12 103 0 48 8
126 18 173 21 l85 7 3 32 c3 27 -2 34 -27 47 -16 9 -39 16 -51 16 -30 0 -27
50 5 80 28 26 32 61 10 80 -32 27 -15 68 39 95 12 6 22 22 24 38 3 28 1 30
-52 31 -23 1 -31 7 -40 33 -15 43 -41 70 -51 52z"/>
<path d="M5589 5824 c-22 -49 -63 -94 -85 -94 -9 0 -14 11 -14 30 0 49 -26
100 -50 100 -20 0 -21 -3 -15 -97 5 -93 2 -125 -34 -353 -5 -30 -30 -116 -55
-192 -53 -156 -55 -171 -25 -166 33 5 58 45 94 151 30 91 33 94 48 76 9 -10
23 -19 31 -19 25 0 64 40 82 85 11 25 24 45 30 45 6 0 37 -33 67 -74 74 -98
114 -128 164 -124 35 3 38 6 41 35 3 27 -1 34 -30 48 -33 17 -178 153 -178
167 0 5 17 23 38 42 38 35 72 108 72 156 0 30 -35 90 -52 90 -6 0 -2 9 10 20
40 37 23 76 -29 66 -71 -14 -74 -13 -71 16 6 46 -17 42 -39 -8z m-69 -177 c0
-13 -5 -28 -11 -34 -12 -12 14 -43 38 -43 12 0 14 -7 9 -35 -10 -52 -76 -193
-94 -200 -16 -6 -15 6 13 160 8 44 15 101 15 128 0 35 4 47 15 47 9 0 15 -9
15 -23z m167 12 c19 -19 -30 -119 -59 -119 -4 0 -8 15 -8 33 0 18 -5 38 -11
44 -9 9 -3 17 22 32 39 24 41 25 56 10z"/>
<path d="M1726 5848 c-3 -7 -7 -42 -10 -78 -3 -35 -11 -69 -17 -75 -5 -5 -34
-10 -64 -10 -65 0 -94 -20 -76 -53 11 -20 36 -28 106 -34 29 -3 30 -4 27 -48
-2 -25 -5 -56 -8 -70 -2 -14 -7 -53 -11 -87 l-6 -63 31 0 c26 0 33 5 38 28 3
15 10 37 15 50 5 13 9 55 10 95 1 91 10 121 34 125 26 4 66 22 88 41 42 35 1
81 -55 62 -47 -16 -48 -15 -48 43 0 30 -3 61 -6 70 -7 19 -43 21 -48 4z"/>
<path d="M3755 5821 c-37 -22 -115 -113 -115 -133 0 -8 8 -22 18 -31 15 -14
16 -27 10 -104 -3 -48 -13 -117 -21 -153 -20 -86 -10 -99 60 -80 26 7 54 17
60 23 19 14 41 1 45 -25 2 -18 10 -24 35 -26 30 -3 31 -1 42 48 6 28 11 77 12
108 0 31 3 75 8 97 9 53 -6 111 -34 129 -18 12 -28 13 -58 2 -20 -7 -40 -15
-43 -19 -4 -4 -15 -7 -25 -7 -19 0 -35 30 -20 39 21 14 91 107 91 122 0 9 -7
20 -16 23 -20 8 -14 9 -49 -13z m83 -247 c-2 -20 -12 -29 -43 -40 -52 -18 -55
-18 -55 4 0 30 41 59 83 61 14 1 18 -5 15 -25z m-18 -124 c0 -5 -4 -10 -10
-10 -5 0 -10 5 -10 10 0 6 5 10 10 10 6 0 10 -4 10 -10z"/>
<path d="M16052 5773 c-26 -60 -23 -243 5 -305 20 -45 32 -56 45 -42 3 3 -4
24 -15 47 -18 36 -20 59 -19 171 1 74 6 134 12 140 13 13 13 26 -1 26 -5 0
-18 -17 -27 -37z"/>
<path d="M4018 5778 c-22 -35 -78 -190 -78 -217 0 -7 14 -17 31 -23 26 -9 29
-12 15 -20 -19 -11 -21 -54 -3 -61 25 -9 148 9 158 24 23 37 -8 59 -82 59 -46
0 -58 3 -52 13 4 6 17 39 28 72 l20 60 58 3 c44 2 59 0 63 -12 9 -24 -12 -270
-25 -294 l-12 -23 -29 21 c-33 24 -53 25 -70 5 -17 -20 -5 -49 36 -84 27 -24
44 -31 78 -31 24 0 48 6 54 13 21 25 42 180 42 309 0 125 -1 130 -26 154 -26
27 -29 27 -126 8 -25 -5 -28 -3 -28 20 0 33 -32 35 -52 4z"/>
<path d="M13009 5765 c91 -38 121 -43 121 -21 0 19 -108 56 -161 56 l-44 -1
84 -34z"/>
<path d="M13563 5788 c-23 -27 -61 -177 -67 -258 -7 -104 2 -163 27 -168 15
-3 17 1 10 25 -12 44 -9 195 6 244 7 24 21 67 31 96 17 52 13 87 -7 61z"/>
<path d="M16336 5785 c4 -8 10 -15 15 -15 5 0 17 -17 27 -37 37 -74 45 -127
40 -268 -3 -118 -2 -135 12 -133 12 3 15 27 18 141 3 154 -16 247 -61 300 -26
29 -60 38 -51 12z"/>
<path d="M14340 5655 c0 -49 -8 -120 -20 -170 -11 -47 -20 -92 -20 -100 0 -26
27 -16 34 13 21 84 29 138 33 235 4 92 2 107 -11 107 -13 0 -16 -15 -16 -85z"/>
<path d="M12964 5705 c-12 -48 3 -317 19 -357 16 -38 46 -52 43 -21 -1 12 9
19 34 24 68 12 210 77 210 95 0 19 -20 17 -75 -6 -26 -11 -75 -29 -108 -40
-73 -24 -87 -17 -90 51 l-2 44 109 3 c101 2 143 13 131 32 -2 4 -55 10 -116
14 -61 3 -116 9 -120 12 -5 3 -9 43 -9 90 0 82 -13 111 -26 59z"/>
<path d="M15279 5703 c-11 -12 -14 -51 -13 -152 0 -120 3 -141 22 -178 23 -44
39 -52 60 -31 17 17 15 23 -12 36 -40 18 -57 194 -30 315 7 30 -6 36 -27 10z"/>
<path d="M721 5696 c-18 -22 2 -47 71 -90 51 -31 58 -40 52 -59 -11 -36 -49
-81 -134 -158 -81 -74 -93 -96 -64 -120 13 -10 28 -10 87 4 40 10 99 18 131
20 44 1 62 6 70 20 16 26 -34 70 -70 61 -18 -5 -24 -2 -24 9 0 9 5 19 11 23 6
3 24 27 40 52 54 85 36 160 -48 202 -15 8 -40 22 -55 32 -32 22 -52 23 -67 4z"/>
<path d="M16135 5678 c-3 -18 -5 -80 -3 -138 1 -58 1 -130 0 -160 -4 -74 10
-176 23 -170 6 3 10 43 11 90 2 238 -1 218 51 268 l46 45 -34 -5 c-19 -3 -41
-7 -49 -9 -12 -3 -16 8 -18 54 -3 62 -18 76 -27 25z"/>
<path d="M11970 5685 c0 -8 7 -33 16 -56 22 -53 14 -203 -16 -308 -13 -47 -17
-78 -11 -84 26 -26 69 150 70 288 1 86 -23 175 -46 175 -7 0 -13 -7 -13 -15z"/>
<path d="M11587 5655 c16 -113 18 -120 43 -132 13 -7 28 -20 31 -30 11 -26 9
-209 -2 -273 -18 -107 -22 -208 -9 -240 19 -47 30 -36 29 33 0 34 2 163 6 287
8 243 9 247 66 270 16 7 29 19 29 26 0 27 -53 12 -97 -29 -31 -28 -49 -16 -57
37 -4 25 -16 55 -26 68 l-19 23 6 -40z"/>
<path d="M12375 5660 c-12 -19 8 -30 71 -41 32 -5 74 -13 92 -16 25 -4 32 -2
32 10 0 17 -41 32 -110 41 -25 3 -53 8 -62 11 -9 4 -19 1 -23 -5z"/>
<path d="M10796 5620 c-57 -221 -46 -389 28 -398 18 -2 26 1 26 12 0 9 -6 16
-13 16 -49 0 -61 92 -34 246 9 49 12 95 7 115 -7 33 -7 33 -14 9z"/>
<path d="M15415 5630 c-3 -5 1 -38 11 -72 19 -72 20 -83 9 -120 -8 -31 -1 -34
39 -18 22 8 25 14 20 38 -4 19 1 40 15 63 29 47 28 69 -2 41 -13 -12 -27 -22
-33 -22 -11 0 -34 48 -34 71 0 21 -16 33 -25 19z"/>
<path d="M9813 5602 c-54 -55 -78 -119 -110 -295 -6 -32 12 -82 40 -114 46
-51 110 -33 184 53 48 57 63 64 83 39 21 -26 91 -19 129 13 31 25 61 86 61
124 0 22 97 91 117 84 12 -5 14 -15 9 -44 -16 -90 -19 -201 -6 -217 42 -50
149 30 211 159 42 86 47 117 24 136 -27 23 -46 5 -39 -38 5 -31 0 -50 -22 -91
-32 -62 -108 -141 -135 -141 -22 0 -22 -3 -7 127 18 156 -6 186 -99 122 l-45
-31 -38 21 c-47 26 -86 27 -127 1 -66 -40 -31 -90 62 -90 l58 0 -7 -32 c-8
-40 -23 -58 -64 -75 -29 -12 -37 -12 -57 1 -17 11 -21 21 -18 40 4 21 1 26
-16 26 -11 0 -21 -4 -21 -9 0 -5 -24 -40 -54 -78 -89 -113 -148 -128 -182 -47
-15 36 -11 146 6 169 4 6 11 21 15 35 22 76 65 140 95 140 8 0 26 -7 38 -16
34 -23 37 -11 7 25 -33 38 -55 39 -92 3z m337 -132 c0 -5 -20 -10 -45 -10 -25
0 -45 5 -45 10 0 6 20 10 45 10 25 0 45 -4 45 -10z"/>
<path d="M11065 5585 c3 -14 8 -37 11 -52 20 -94 23 -147 8 -175 -9 -17 -13
-33 -9 -36 3 -3 29 -7 57 -9 l51 -3 -21 23 c-12 13 -22 32 -22 42 0 22 65 103
127 158 49 44 53 57 19 57 -17 0 -43 -21 -90 -72 -44 -48 -69 -69 -76 -62 -5
5 -12 32 -16 59 -6 53 -22 95 -36 95 -5 0 -6 -11 -3 -25z"/>
<path d="M14500 5570 c-22 -7 -22 -8 -4 -9 11 -1 39 -10 62 -21 22 -11 60 -20
83 -20 36 0 40 2 29 15 -7 8 -20 15 -29 15 -9 0 -34 7 -56 15 -45 16 -50 16
-85 5z"/>
<path d="M2340 5558 c0 -28 36 -110 52 -119 47 -25 62 24 28 91 -17 33 -26 40
-50 40 -17 0 -30 -5 -30 -12z"/>
<path d="M1895 5541 c-3 -6 -9 -41 -12 -79 -6 -72 6 -97 44 -90 16 3 18 14 18
88 0 79 -1 85 -22 88 -11 2 -24 -2 -28 -7z"/>
<path d="M12585 5494 c-16 -12 -46 -15 -140 -13 -76 1 -120 -2 -123 -9 -7 -22
45 -35 138 -36 79 -1 101 2 130 20 35 20 53 54 28 54 -7 0 -22 -7 -33 -16z"/>
<path d="M6052 5428 c-20 -20 -15 -56 9 -63 30 -10 68 28 53 53 -14 21 -45 27
-62 10z"/>
<path d="M11324 5345 c3 -22 6 -55 6 -72 0 -37 24 -46 33 -13 7 27 -11 91 -30
110 -14 13 -15 11 -9 -25z"/>
<path d="M6073 5328 c-28 -13 -39 -44 -23 -63 7 -9 30 -15 51 -15 32 0 42 5
51 25 9 21 8 28 -7 45 -20 22 -39 24 -72 8z"/>
<path d="M1031 5292 c-14 -27 8 -55 40 -50 19 2 24 9 24 33 0 25 -4 31 -27 33
-18 2 -30 -3 -37 -16z"/>
<path d="M13600 5221 c0 -6 5 -13 10 -16 6 -3 10 1 10 9 0 9 -4 16 -10 16 -5
0 -10 -4 -10 -9z"/>
<path d="M13173 5057 c-43 -25 -80 -54 -155 -119 -91 -79 -131 -106 -253 -167
-87 -44 -93 -45 -180 -45 -65 0 -98 5 -120 17 -33 19 -55 22 -55 8 0 -5 20
-18 45 -30 35 -16 64 -21 132 -21 80 0 96 4 173 38 104 46 178 93 278 176 43
34 98 77 125 95 26 17 47 36 47 41 0 16 -16 19 -37 7z"/>
<path d="M13382 5028 c-26 -60 -64 -101 -141 -155 -36 -26 -120 -87 -186 -137
-117 -87 -173 -118 -265 -146 -87 -26 -93 -55 -8 -35 103 25 146 46 263 131
50 36 128 91 175 123 124 85 210 183 210 241 0 35 -28 22 -48 -22z"/>
<path d="M11156 5001 c-8 -12 50 -138 77 -168 11 -13 30 -23 42 -23 22 0 22
-2 29 -272 7 -287 15 -375 31 -370 6 1 9 28 8 60 -1 31 -5 187 -9 347 l-6 289
53 48 c51 45 53 47 27 48 -33 0 -108 -67 -108 -98 0 -26 -17 -37 -34 -22 -15
12 -66 111 -66 127 0 16 -37 45 -44 34z"/>
<path d="M9934 4913 c-33 -44 -45 -71 -65 -144 -28 -101 -26 -170 7 -208 45
-54 131 -38 190 36 21 27 24 27 56 14 80 -32 102 -35 132 -16 39 26 66 85 66
144 0 44 -4 52 -36 81 -27 23 -43 30 -60 26 -42 -11 -70 -24 -82 -39 -33 -40
40 -72 97 -42 41 20 51 13 51 -36 0 -37 -21 -84 -45 -101 -20 -15 -62 -8 -96
15 -29 19 -33 28 -31 55 2 23 -1 32 -12 32 -18 0 -36 -30 -36 -60 0 -11 -20
-41 -45 -65 -35 -36 -52 -45 -78 -45 -48 0 -67 25 -67 88 0 115 51 236 113
265 20 9 37 19 37 22 0 3 -17 5 -38 5 -30 0 -43 -6 -58 -27z"/>
<path d="M10941 4914 c-7 -15 -19 -66 -27 -112 -13 -77 -13 -92 1 -149 23 -91
43 -123 79 -123 l30 0 -35 33 c-45 42 -69 136 -51 204 7 24 12 57 12 73 0 16
5 41 12 55 8 17 8 29 1 36 -6 6 -14 1 -22 -17z"/>
<path d="M12094 4896 c-3 -7 5 -30 17 -51 17 -29 24 -59 27 -121 4 -75 2 -87
-22 -130 -28 -51 -32 -64 -16 -64 23 0 59 50 75 106 15 50 15 67 5 114 -19 85
-31 120 -41 120 -5 0 -9 6 -9 14 0 19 -29 29 -36 12z"/>
<path d="M10656 4868 c-2 -7 -7 -40 -10 -72 -4 -33 -13 -73 -20 -90 -7 -17
-22 -51 -32 -74 -19 -48 -69 -92 -101 -92 -39 0 -46 24 -51 180 -3 83 -9 150
-13 150 -5 0 -9 -64 -9 -143 0 -152 8 -187 47 -208 85 -46 206 123 215 300 2
36 -1 55 -9 58 -7 3 -15 -1 -17 -9z"/>
<path d="M11750 4870 c0 -5 9 -29 19 -52 42 -95 53 -128 59 -179 7 -49 9 -54
40 -63 43 -12 47 -5 23 36 -18 30 -19 41 -11 92 5 32 12 66 15 77 10 29 -24
24 -35 -6 -5 -14 -13 -25 -18 -25 -9 0 -32 44 -32 61 0 15 -40 69 -51 69 -5 0
-9 -4 -9 -10z"/>
<path d="M11510 4595 c0 -34 25 -105 37 -105 16 0 17 29 1 80 -12 39 -38 56
-38 25z"/>
<path d="M1655 4378 c-20 -24 -25 -38 -20 -57 3 -14 8 -53 10 -86 3 -52 8 -64
35 -87 16 -16 40 -28 52 -28 36 0 95 48 112 91 20 49 20 77 1 122 -22 52 -59
77 -115 77 -42 0 -52 -4 -75 -32z m121 -94 c9 -33 -14 -84 -37 -84 -24 0 -42
34 -33 63 17 56 58 68 70 21z"/>
<path d="M4597 4383 c-10 -10 -8 -109 4 -183 7 -47 16 -70 32 -82 19 -15 22
-25 19 -85 -4 -98 -23 -205 -40 -225 -21 -25 -8 -50 25 -46 48 5 58 42 59 217
l2 154 60 77 c38 49 57 82 52 90 -12 19 -45 3 -84 -40 -20 -22 -40 -40 -45
-40 -4 0 -13 32 -20 72 -6 40 -17 78 -23 85 -11 14 -31 17 -41 6z"/>
<path d="M7482 4347 c-36 -38 -51 -92 -63 -219 -20 -219 -15 -252 40 -246 l25
3 3 176 c4 175 7 193 48 292 11 26 -27 22 -53 -6z"/>
<path d="M8956 4344 c-3 -9 -6 -93 -6 -187 -1 -123 -5 -189 -16 -232 -30 -112
-29 -123 0 -131 45 -11 70 23 88 121 24 126 21 211 -14 370 -15 69 -38 96 -52
59z"/>
<path d="M3923 4279 c3 -30 13 -78 23 -107 l18 -54 -37 -73 c-20 -40 -50 -89
-66 -108 -34 -38 -38 -58 -16 -77 28 -23 62 -3 106 65 23 36 46 65 50 65 5 0
15 -15 23 -34 17 -40 29 -49 55 -41 32 10 31 31 -6 111 -32 71 -34 81 -24 115
6 21 23 52 37 68 50 60 10 93 -49 41 l-35 -31 -29 53 c-40 73 -58 76 -50 7z"/>
<path d="M6995 4318 c-8 -21 -27 -188 -32 -286 -5 -99 2 -122 39 -122 31 0 72
50 102 125 15 39 41 99 58 135 37 82 35 115 -7 115 -26 0 -31 -6 -53 -60 -13
-33 -30 -73 -38 -88 -8 -16 -14 -35 -14 -42 0 -8 -4 -16 -9 -20 -6 -3 -8 34
-4 98 3 58 3 116 -1 131 -7 27 -33 36 -41 14z"/>
<path d="M7707 4324 c-23 -24 7 -209 40 -246 16 -18 16 -25 -1 -121 -29 -164
-30 -181 -12 -196 19 -16 66 -7 66 14 0 29 19 23 66 -20 27 -24 66 -52 87 -61
39 -18 72 -15 167 15 14 5 43 14 65 20 60 18 121 51 146 77 37 40 0 39 -67 -1
-32 -20 -70 -38 -84 -41 -14 -3 -47 -14 -75 -23 -110 -39 -110 -39 -146 -22
-43 21 -126 101 -138 134 -6 16 -6 51 1 98 5 41 7 99 4 130 l-5 56 65 71 c65
72 77 103 41 110 -10 2 -42 -21 -82 -58 -72 -70 -71 -70 -91 25 -8 37 -30 55
-47 39z"/>
<path d="M8446 4258 c3 -40 11 -81 15 -90 25 -48 -3 -115 -73 -178 -44 -39
-44 -66 -2 -76 18 -5 35 3 68 30 48 39 56 35 56 -24 0 -32 28 -54 54 -44 20 8
22 92 2 156 -13 45 -12 48 18 104 18 33 38 69 46 81 11 18 12 24 1 37 -19 23
-30 20 -67 -20 -36 -38 -54 -37 -54 1 0 39 -31 95 -52 95 -18 0 -19 -6 -12
-72z"/>
<path d="M6385 4291 c-16 -10 -37 -27 -46 -37 -42 -49 -88 -190 -89 -269 0
-52 4 -66 28 -95 25 -30 35 -34 89 -38 72 -5 122 17 183 80 30 31 44 40 54 33
59 -43 66 -47 96 -40 37 8 84 53 111 108 40 77 5 166 -74 189 -23 6 -49 10
-57 9 -24 -3 -50 -41 -50 -70 0 -66 -136 -208 -220 -231 -29 -8 -46 -8 -61 1
-20 10 -21 17 -17 83 10 141 67 243 131 233 36 -5 47 16 22 43 -23 25 -61 25
-100 1z m361 -177 c9 -34 -18 -90 -46 -99 -12 -4 -24 -5 -26 -2 -5 5 20 99 31
117 12 19 35 10 41 -16z"/>
<path d="M2625 4278 c-39 -21 -68 -53 -86 -97 -29 -65 -49 -176 -49 -267 0
-104 19 -134 84 -134 47 0 94 28 156 93 40 43 60 47 60 13 0 -35 46 -86 77
-86 65 0 133 104 133 204 0 70 -15 103 -54 116 -44 14 -76 1 -121 -49 -55 -61
-167 -168 -205 -196 -18 -13 -38 -21 -46 -18 -27 10 -12 204 24 293 5 14 22
38 38 53 26 26 32 27 81 21 44 -5 53 -4 53 9 0 43 -95 73 -145 45z m303 -276
c5 -30 -26 -109 -46 -117 -33 -12 -40 50 -13 118 14 36 54 35 59 -1z"/>
<path d="M3562 4270 c-20 -33 -39 -100 -52 -187 -12 -81 -11 -96 16 -240 3
-18 11 -23 34 -23 42 0 58 35 36 78 -32 63 -15 299 25 348 6 8 9 21 5 29 -8
22 -49 18 -64 -5z"/>
<path d="M4968 4258 c-2 -6 2 -34 9 -62 16 -62 17 -200 2 -319 -11 -79 -10
-90 5 -105 20 -21 45 -8 65 33 32 66 23 317 -15 406 -17 38 -59 68 -66 47z"/>
<path d="M1526 4251 c-3 -5 -11 -120 -16 -256 -11 -263 -9 -279 34 -273 20 3
21 10 28 237 4 129 4 248 0 265 -8 31 -34 46 -46 27z"/>
<path d="M3084 4225 c-4 -9 -2 -40 4 -68 6 -29 14 -77 17 -107 3 -30 13 -88
23 -129 15 -59 23 -76 41 -83 44 -16 86 28 144 152 81 172 94 250 43 250 -30
0 -39 -11 -66 -90 -33 -94 -78 -190 -90 -190 -5 0 -10 3 -11 8 0 4 -13 66 -27
137 -24 118 -29 130 -50 133 -13 2 -25 -3 -28 -13z"/>
<path d="M5828 4175 c-3 -3 -47 -10 -99 -15 -177 -20 -193 -23 -197 -44 -2
-10 2 -23 10 -27 7 -5 84 -8 172 -7 169 2 186 7 186 52 0 12 -5 27 -12 34 -12
12 -50 16 -60 7z"/>
<path d="M4280 3982 c0 -15 -13 -49 -30 -75 -33 -53 -38 -82 -14 -91 27 -10
33 -7 59 33 30 48 41 110 26 140 -17 31 -41 27 -41 -7z"/>
<path d="M5678 4005 c-3 -3 -37 -9 -75 -14 -92 -12 -128 -29 -128 -61 0 -22 4
-25 35 -23 19 1 100 5 180 9 153 7 180 14 180 43 0 36 -32 51 -112 51 -41 0
-77 -2 -80 -5z"/>
<path d="M8027 3953 c-3 -5 -12 -27 -20 -49 -8 -21 -24 -64 -36 -94 -22 -58
-18 -74 20 -68 49 7 102 207 57 216 -9 2 -19 -1 -21 -5z"/>
<path d="M4034 3813 c4 -21 7 -49 7 -63 0 -42 51 -133 88 -157 38 -26 98 -30
165 -12 95 26 224 88 232 112 8 26 -3 34 -29 17 -155 -100 -323 -135 -381 -81
-26 25 -66 139 -66 189 0 18 -5 32 -11 32 -7 0 -9 -13 -5 -37z"/>
<path d="M3308 3404 c-3 -3 -57 -12 -119 -20 -152 -19 -320 -61 -381 -94 -10
-6 -25 -10 -33 -10 -8 0 -23 -4 -33 -9 -9 -6 -52 -27 -94 -47 -43 -20 -104
-58 -137 -85 -83 -66 -207 -160 -242 -183 -16 -10 -36 -31 -45 -47 -13 -27
-33 -37 -46 -24 -8 8 58 138 81 159 11 10 18 22 16 27 -8 11 35 81 64 106 25
21 25 22 5 23 -26 0 -51 -28 -98 -110 -20 -36 -41 -72 -46 -80 -41 -69 -56
-195 -26 -226 34 -33 150 -13 266 45 253 128 310 161 281 161 -17 0 -60 -14
-97 -30 -36 -17 -74 -28 -84 -25 -12 4 -36 -10 -74 -43 -44 -37 -70 -51 -116
-61 -59 -13 -90 -10 -90 8 0 16 79 92 150 146 36 27 92 74 126 105 60 55 169
116 279 155 28 9 59 21 70 26 90 38 165 49 333 49 180 0 276 -16 362 -60 78
-40 210 -210 210 -270 0 -18 -6 -20 -55 -20 -51 0 -55 -2 -61 -27 -3 -16 -12
-47 -20 -71 -17 -53 -18 -75 -1 -69 6 2 13 17 13 33 1 16 6 41 12 57 10 24 16
27 60 27 71 0 98 -24 118 -105 6 -23 4 -24 -28 -19 -39 7 -91 -24 -124 -74
-29 -43 -74 -188 -74 -239 0 -50 31 -93 67 -93 24 0 83 28 83 40 0 12 41 50
49 45 5 -2 11 -18 14 -35 16 -77 -86 -230 -152 -230 -34 0 -75 47 -65 74 8 21
-5 72 -15 60 -4 -5 -5 -35 -3 -66 4 -53 7 -60 52 -102 27 -26 55 -46 63 -46 8
0 31 14 52 30 21 17 44 30 52 30 8 0 48 -16 89 -35 75 -35 108 -43 118 -26 3
4 24 11 46 14 43 6 73 23 64 38 -7 12 -58 11 -70 -1 -6 -6 -31 -11 -56 -12
-42 -2 -57 3 -161 54 -10 5 -32 6 -48 3 -34 -8 -37 4 -8 31 22 20 59 89 59
110 0 7 14 17 30 23 26 9 30 15 30 48 0 22 -5 44 -11 50 -7 7 -7 28 2 73 20
104 -18 315 -66 360 -16 15 -25 34 -25 53 0 17 -18 68 -40 113 -32 63 -57 97
-109 146 -37 35 -80 69 -97 75 -67 24 -102 33 -127 33 -26 0 -38 15 -17 22 20
6 306 -11 355 -22 28 -6 70 -15 95 -19 232 -43 439 -137 718 -323 83 -56 102
-73 102 -93 0 -16 6 -25 16 -25 14 0 16 -8 10 -47 -13 -99 -25 -251 -26 -329
0 -76 1 -82 30 -109 43 -42 75 -36 153 25 79 64 111 116 103 168 -18 124 -24
151 -38 183 -9 19 -30 52 -48 73 -27 30 -39 36 -63 34 -42 -4 -44 -21 -5 -39
34 -15 82 -70 93 -106 6 -21 4 -22 -62 -18 -37 3 -71 5 -75 5 -5 0 -8 29 -8
64 0 36 -6 76 -14 92 -20 38 1 75 49 87 14 3 12 5 -9 6 -18 1 -39 -8 -53 -21
l-23 -21 -21 27 c-12 15 -36 37 -53 49 -230 157 -302 200 -436 260 -118 53
-342 108 -551 136 -87 11 -351 15 -361 5z m-1065 -611 c-7 -2 -21 -2 -30 0
-10 3 -4 5 12 5 17 0 24 -2 18 -5z m1573 -120 c-7 -53 -73 -173 -94 -173 -9 0
-12 7 -9 18 3 9 13 44 23 77 17 61 56 125 76 125 7 0 9 -16 4 -47z m1092 -56
c12 -24 11 -31 -7 -60 -22 -36 -65 -71 -98 -79 -22 -6 -23 -4 -23 76 0 46 3
86 7 90 4 4 30 6 58 4 43 -3 52 -7 63 -31z m-1158 -432 c0 -16 -35 -21 -45 -6
-4 8 9 15 38 20 4 0 7 -6 7 -14z"/>
<path d="M5123 2945 c-16 -12 -18 -28 -17 -147 0 -109 4 -139 17 -158 23 -33
21 -71 -8 -217 -27 -132 -25 -153 16 -153 32 0 49 49 71 200 13 88 14 119 4
180 l-8 45 56 44 c68 53 74 81 19 81 -21 0 -47 -7 -57 -15 -29 -22 -36 -19
-36 19 0 61 -12 125 -25 130 -7 2 -21 -1 -32 -9z"/>
<path d="M9330 2905 c-23 -28 -6 -176 30 -252 16 -36 30 -79 30 -97 0 -39 -28
-173 -40 -197 -16 -30 -1 -50 34 -47 29 3 33 8 54 73 20 59 23 85 19 165 -4
89 -3 97 22 134 69 103 72 112 45 123 -10 4 -31 -9 -59 -37 -24 -23 -48 -40
-53 -36 -6 3 -14 37 -17 74 -7 64 -26 112 -44 112 -5 0 -14 -7 -21 -15z"/>
<path d="M1780 2879 c-13 -24 0 -46 37 -60 30 -11 29 -40 -3 -78 -37 -45 -54
-41 -54 13 0 53 -10 62 -40 38 -30 -24 -38 -90 -14 -119 19 -22 35 -26 86 -24
67 3 140 123 117 190 -20 57 -106 84 -129 40z"/>
<path d="M8375 2867 c-37 -37 -51 -85 -91 -311 -31 -177 -20 -224 47 -208 13
3 18 20 22 80 7 97 22 203 45 309 13 62 25 90 46 112 54 56 -13 74 -69 18z"/>
<path d="M9720 2898 c0 -2 -2 -89 -4 -194 -3 -130 -8 -198 -17 -211 -16 -26
-6 -50 27 -65 23 -11 28 -10 44 9 31 39 44 134 31 226 -6 45 -11 95 -11 110 0
38 -39 127 -56 127 -8 0 -14 -1 -14 -2z"/>
<path d="M6945 2843 c-4 -21 -11 -51 -15 -68 -5 -16 -14 -68 -20 -115 -6 -47
-16 -111 -22 -142 -12 -63 -2 -102 33 -134 18 -16 21 -16 61 2 52 22 147 84
169 110 63 73 1 191 -116 222 l-48 13 6 59 c8 69 2 90 -24 90 -13 0 -20 -10
-24 -37z m114 -219 c46 -38 41 -65 -17 -103 -27 -17 -52 -31 -57 -31 -9 0 -1
132 9 149 11 18 32 13 65 -15z"/>
<path d="M2638 2863 c-36 -6 -82 -53 -108 -110 -28 -63 -60 -202 -60 -259 0
-66 27 -141 60 -164 51 -36 96 -24 172 48 l37 35 40 -27 c45 -31 63 -30 123
13 72 49 102 145 78 246 -11 49 -32 65 -85 65 -74 0 -155 -84 -155 -161 0 -23
-83 -115 -128 -141 -45 -27 -56 -7 -55 106 1 148 59 286 119 286 13 0 26 -4
29 -10 3 -5 15 -10 26 -10 13 0 19 7 19 23 0 43 -50 70 -112 60z m270 -321 c2
-15 -8 -34 -32 -58 -30 -30 -39 -34 -51 -24 -20 17 -19 33 8 74 26 43 70 47
75 8z"/>
<path d="M3516 2830 c-27 -33 -42 -75 -56 -160 -5 -30 -14 -86 -21 -125 -13
-79 -7 -221 10 -253 13 -24 65 -31 74 -9 2 6 0 38 -6 71 -16 89 16 390 48 444
35 58 -5 84 -49 32z"/>
<path d="M5393 2815 c-3 -9 -2 -33 3 -53 11 -52 10 -199 -2 -252 -6 -25 -19
-62 -28 -82 -28 -58 -6 -109 39 -92 31 12 85 173 85 252 0 54 -26 175 -45 212
-17 32 -42 39 -52 15z"/>
<path d="M8680 2722 l0 -99 -55 -60 c-55 -61 -66 -88 -43 -111 19 -19 34 -15
72 19 l35 30 16 -30 c35 -68 92 -57 81 15 -20 136 -24 124 65 236 23 27 20 58
-4 58 -8 0 -31 -11 -50 -25 -41 -27 -46 -23 -61 38 -5 20 -12 27 -31 27 -25 0
-25 0 -25 -98z"/>
<path d="M4085 2800 c-8 -14 1 -72 25 -152 19 -61 19 -62 0 -92 -10 -17 -37
-49 -59 -71 -42 -40 -50 -62 -29 -83 21 -21 47 -13 92 28 24 22 46 40 50 40 4
0 11 -12 16 -26 8 -21 15 -25 42 -22 42 4 47 29 18 96 l-21 49 24 49 c13 27
32 64 43 82 17 28 17 34 4 42 -25 16 -41 12 -70 -20 -15 -16 -32 -30 -37 -30
-5 0 -18 26 -29 58 -14 43 -24 58 -41 60 -11 2 -24 -2 -28 -8z"/>
<path d="M3080 2602 c0 -188 1 -200 21 -218 20 -18 21 -18 57 1 29 16 45 37
77 100 102 205 114 250 70 261 -38 10 -45 3 -71 -71 -31 -90 -65 -165 -76
-165 -4 0 -9 12 -9 28 -1 15 -4 79 -8 142 l-6 115 -27 3 -28 3 0 -199z"/>
<path d="M8103 2788 c-6 -7 -13 -21 -17 -32 -3 -10 -25 -47 -47 -82 -43 -65
-65 -75 -54 -23 4 17 4 52 0 79 -6 47 -9 50 -36 50 -35 0 -36 -3 -43 -181 -6
-147 -3 -159 45 -159 18 0 36 10 54 33 39 47 154 233 161 261 12 48 -36 88
-63 54z"/>
<path d="M7496 2769 c-50 -40 -116 -204 -116 -290 0 -40 4 -51 28 -69 34 -27
95 -23 140 9 34 24 54 26 81 10 59 -37 200 89 201 179 0 76 -52 122 -138 122
-70 0 -120 -47 -93 -88 16 -25 -23 -105 -65 -134 -50 -35 -78 -37 -71 -5 38
159 66 215 110 224 36 7 46 31 22 49 -27 20 -68 17 -99 -7z m248 -141 c14 -23
-15 -80 -50 -98 -32 -18 -41 -6 -25 33 7 18 16 45 18 60 4 21 10 27 26 25 11
-2 25 -11 31 -20z"/>
<path d="M3626 2758 c-9 -34 -7 -68 4 -68 13 0 24 70 13 81 -7 7 -12 2 -17
-13z"/>
<path d="M6552 2743 c-7 -3 -27 -33 -44 -66 -28 -55 -31 -72 -32 -150 -1 -85
0 -90 27 -113 36 -31 58 -30 95 1 31 26 52 31 68 16 10 -10 35 -14 71 -12 43
2 40 66 -3 77 -31 8 -37 35 -25 109 7 48 6 65 -5 83 -8 12 -19 22 -25 22 -6 0
-22 9 -36 20 -24 19 -63 25 -91 13z m66 -90 c15 -26 -38 -156 -56 -138 -18 18
15 155 38 155 5 0 13 -8 18 -17z"/>
<path d="M5886 2716 c-28 -7 -55 -20 -62 -32 -12 -17 -10 -23 10 -49 21 -27
26 -28 47 -17 13 7 54 14 91 15 37 2 74 9 82 17 19 15 21 51 4 68 -15 15 -106
14 -172 -2z"/>
<path d="M1503 2674 c-9 -25 10 -48 47 -55 18 -4 39 -14 47 -22 13 -13 13 -18
-2 -40 -9 -14 -38 -43 -63 -63 -79 -63 -132 -117 -132 -136 0 -9 15 -28 33
-42 30 -23 44 -26 113 -26 85 0 104 8 104 46 0 27 -21 36 -70 28 -74 -12 -75
6 -6 66 85 75 99 95 100 147 1 39 -4 49 -36 79 -31 28 -45 34 -83 34 -33 0
-47 -5 -52 -16z"/>
<path d="M3610 2603 c0 -35 3 -44 10 -33 13 20 13 67 0 75 -6 4 -10 -12 -10
-42z"/>
<path d="M4455 2523 c-9 -21 -28 -64 -42 -96 -21 -45 -25 -62 -17 -75 21 -34
47 -25 78 25 24 39 29 60 30 113 1 54 -2 65 -17 68 -12 3 -22 -7 -32 -35z"/>
<path d="M9013 2553 c-7 -3 -13 -18 -13 -34 0 -16 -7 -46 -15 -66 -20 -47 -19
-82 2 -90 36 -14 84 82 70 139 -8 32 -30 57 -44 51z"/>
<path d="M5770 2493 c-78 -29 -101 -45 -98 -66 3 -25 50 -36 73 -17 8 7 55 10
128 8 127 -2 150 6 145 51 l-3 26 -115 2 c-63 1 -122 -1 -130 -4z"/>
<path d="M7085 2310 c-11 -5 -63 -9 -115 -9 -53 -1 -123 -8 -155 -17 -46 -12
-97 -14 -226 -11 -126 3 -172 1 -190 -9 -32 -18 -79 -17 -103 1 -24 18 -36 19
-36 3 0 -16 60 -58 81 -58 8 0 33 9 56 19 37 19 50 19 196 10 120 -7 162 -7
180 2 13 7 68 13 132 14 159 3 255 22 255 52 0 15 -44 16 -75 3z"/>
<path d="M4646 2198 c16 -25 59 -53 99 -63 35 -10 48 -7 110 19 l70 29 105
-22 c137 -28 230 -28 255 -1 10 11 15 26 11 36 -6 15 -9 15 -31 -6 -22 -21
-31 -22 -87 -16 -35 3 -88 11 -118 17 -127 24 -147 23 -217 -11 -72 -34 -90
-32 -155 12 -30 21 -53 24 -42 6z"/>
<path d="M7639 2090 c-72 -25 -319 -189 -384 -255 -27 -28 -59 -70 -70 -93
-27 -57 -49 -57 -40 0 7 39 31 116 50 161 5 12 3 17 -8 17 -15 0 -39 -52 -51
-112 -5 -21 -12 -28 -30 -28 -35 0 -44 -18 -61 -115 -9 -48 -18 -91 -20 -96
-12 -19 14 -52 51 -65 50 -18 99 -17 149 1 54 19 62 18 68 -5 3 -13 14 -20 30
-20 31 0 35 -10 26 -74 -13 -86 -22 -321 -15 -351 l7 -28 82 7 c45 4 96 7 112
7 46 -1 61 12 49 46 -9 26 -13 28 -64 26 -30 -1 -71 -3 -90 -5 l-35 -3 0 55 0
55 57 -3 c48 -3 58 0 67 17 17 31 -11 51 -69 51 -27 0 -50 4 -52 10 -1 5 -2
48 0 94 l3 85 72 3 72 3 0 30 0 30 -77 3 c-43 2 -78 6 -78 10 0 4 15 13 33 21
93 38 177 90 177 109 0 19 -15 15 -62 -16 -44 -29 -140 -71 -213 -93 -22 -6
-50 -16 -62 -22 -13 -6 -26 -7 -30 -4 -8 8 19 30 62 51 17 8 48 32 70 52 59
56 23 56 -56 1 -107 -75 -170 -108 -190 -102 -16 5 -14 10 19 38 46 39 51 46
59 76 16 61 135 196 203 231 19 10 71 30 115 45 89 30 119 29 220 -7 126 -44
175 -93 229 -228 49 -123 54 -205 14 -245 -59 -58 -97 -189 -83 -283 11 -77
82 -110 123 -57 22 28 52 33 52 10 0 -20 46 -31 65 -15 11 9 22 9 45 1 28 -9
33 -7 57 19 37 42 55 38 81 -16 19 -39 26 -45 50 -42 25 3 27 7 30 51 3 44 1
49 -28 65 -46 26 -48 53 -7 114 19 29 49 66 67 82 28 25 30 30 18 43 -23 22
-61 7 -109 -44 -39 -42 -43 -44 -56 -27 -7 10 -13 24 -13 31 0 28 -31 73 -50
73 -23 0 -23 0 -10 -35 5 -14 12 -45 15 -68 3 -23 8 -56 11 -72 4 -23 -1 -39
-23 -67 -34 -45 -59 -56 -81 -34 -14 14 -45 136 -59 233 -4 30 -13 47 -30 58
-14 10 -21 21 -16 28 15 24 2 137 -24 199 -58 145 -102 201 -185 237 -104 46
-155 61 -206 61 -50 0 -54 13 -9 30 17 7 41 16 52 20 32 12 138 30 181 30 35
0 103 -12 209 -39 67 -17 261 -120 368 -196 115 -82 223 -190 256 -257 20 -42
21 -51 11 -139 -34 -312 -29 -388 26 -389 23 0 180 127 198 161 36 66 -10 139
-99 160 -27 7 -56 13 -62 15 -9 2 -13 24 -13 66 0 134 -68 237 -257 391 -45
37 -85 67 -89 67 -4 0 -15 6 -23 14 -28 25 -228 126 -293 148 -93 32 -348 37
-429 8z m-524 -382 c-3 -13 -10 -54 -15 -93 -6 -38 -13 -71 -15 -73 -2 -3 -12
-2 -21 2 -12 4 -14 12 -9 29 4 12 10 47 15 79 9 64 15 78 36 78 10 0 13 -7 9
-22z m896 -393 c-4 -57 -22 -114 -36 -114 -13 0 -9 105 6 141 18 44 35 29 30
-27z m820 -14 c22 -17 22 -21 10 -45 -16 -28 -82 -76 -107 -76 -14 0 -15 9 -9
63 4 34 9 65 12 70 8 14 71 7 94 -12z"/>
<path d="M10530 1836 c0 -8 19 -24 42 -36 78 -40 152 -120 200 -214 17 -34 18
-44 8 -85 -6 -25 -17 -53 -24 -61 -28 -32 -50 -125 -50 -213 -1 -82 1 -90 23
-108 36 -29 66 -24 114 21 l43 39 27 -30 c31 -36 55 -35 77 4 14 27 14 29 -13
53 -28 24 -29 29 -29 110 0 69 -3 86 -17 93 -10 6 -23 6 -32 0 -22 -14 -27
-11 -44 20 -8 16 -24 32 -35 36 -16 5 -18 10 -10 25 6 10 10 34 10 52 0 48
-77 175 -141 232 -71 64 -149 96 -149 62z m312 -468 c25 -26 28 -37 23 -65 -6
-33 -60 -113 -81 -120 -22 -7 -24 30 -8 116 22 118 21 117 66 69z"/>
<path d="M1984 1802 c-13 -9 -41 -84 -50 -135 -11 -67 37 -88 54 -23 7 28 12
31 50 34 54 4 64 -16 28 -59 -28 -33 -33 -55 -13 -62 20 -7 -12 -37 -40 -37
-16 0 -27 7 -30 20 -21 81 -53 -75 -53 -259 l0 -101 25 0 c22 0 25 4 25 33 0
38 6 48 25 41 9 -4 13 -25 13 -66 0 -74 15 -95 56 -77 20 10 29 10 38 1 20
-20 76 -15 88 7 6 12 10 96 10 205 0 229 -10 263 -74 250 -30 -6 -30 1 0 36
47 55 10 120 -69 120 -52 0 -58 5 -47 35 12 31 -11 55 -36 37z m166 -338 c0
-38 -8 -41 -51 -18 -34 17 -34 33 1 51 33 17 50 6 50 -33z m-115 -14 c0 -8
-10 -16 -22 -18 -22 -3 -32 16 -16 32 12 11 38 2 38 -14z m-9 -95 c7 -18 -12
-45 -32 -45 -14 0 -20 41 -7 53 11 12 33 7 39 -8z m122 -99 c3 -32 0 -37 -15
-34 -25 5 -42 56 -23 68 24 15 35 6 38 -34z"/>
<path d="M4980 1780 c0 -5 5 -10 10 -10 6 0 10 5 10 10 0 6 -4 10 -10 10 -5 0
-10 -4 -10 -10z"/>
<path d="M4971 1733 c-1 -20 -7 -23 -39 -23 -35 0 -62 -14 -62 -32 0 -4 15
-15 32 -24 23 -12 62 -18 133 -19 125 -2 197 -17 246 -50 74 -48 99 -146 59
-225 -33 -65 -45 -55 -111 98 -17 39 -49 58 -49 30 0 -21 62 -201 77 -225 13
-19 9 -30 -42 -120 -58 -105 -65 -130 -39 -140 33 -12 66 10 79 52 13 45 43
95 56 95 5 0 15 -13 23 -28 13 -25 12 -34 -5 -88 l-19 -60 -73 -18 c-95 -25
-200 -31 -240 -15 -87 35 -100 60 -76 155 10 38 15 45 34 42 12 -1 34 4 49 11
22 12 30 12 52 1 19 -11 30 -11 42 -3 19 12 19 17 -1 93 -8 30 -18 72 -21 93
-9 47 -42 114 -63 126 -9 5 -24 6 -34 4 -19 -5 -22 -1 -35 52 l-7 30 -7 -25
c-5 -14 -8 -44 -9 -66 -1 -23 -8 -58 -16 -77 -19 -45 -19 -129 0 -181 8 -22
12 -43 9 -48 -3 -4 -7 -22 -10 -40 -21 -121 -14 -148 46 -178 47 -23 143 -32
210 -19 30 5 71 12 90 15 75 11 81 14 100 59 16 37 24 44 51 47 53 5 58 28 18
89 -32 51 -34 57 -31 134 2 69 7 87 33 129 30 49 28 65 -8 66 -7 0 -15 12 -19
28 -13 62 -39 104 -82 134 -48 33 -80 43 -187 58 -116 16 -143 27 -148 58 -3
22 -4 23 -6 5z m29 -403 c0 -58 -15 -103 -33 -97 -18 6 -20 34 -6 97 16 72 39
72 39 0z"/>
<path d="M5662 1700 c-2 -3 -5 -70 -8 -150 -4 -104 -2 -142 6 -134 7 7 10 59
7 150 -1 76 -4 137 -5 134z"/>
<path d="M5740 1676 c0 -25 61 -36 204 -36 198 0 251 -23 244 -105 -2 -24 -8
-31 -29 -33 -15 -2 -39 -16 -55 -33 -38 -40 -59 -37 -77 10 -17 41 -44 60 -53
36 -3 -8 1 -46 10 -84 9 -38 16 -81 16 -96 0 -14 5 -33 10 -43 7 -12 5 -76 -7
-207 l-18 -190 -45 1 c-49 2 -201 20 -265 32 -39 7 -40 9 -45 52 l-5 45 -7
-54 c-4 -30 -5 -57 -3 -61 3 -4 51 -13 107 -20 57 -7 137 -18 178 -24 74 -12
75 -12 78 -45 2 -18 10 -35 18 -38 20 -7 44 15 44 41 0 32 19 46 62 46 50 0
64 24 72 125 3 44 10 125 16 180 6 55 15 143 20 195 5 52 13 116 16 141 10 72
-9 116 -59 138 -73 32 -133 41 -282 41 -118 0 -145 -3 -145 -14z m420 -387
c-15 -223 -32 -373 -44 -381 -6 -4 -24 -8 -40 -8 l-29 0 8 113 c4 61 8 159 10
216 l2 104 48 54 c26 30 49 52 51 50 2 -2 0 -69 -6 -148z"/>
<path d="M2410 1661 c-40 -13 -90 -41 -90 -51 0 -6 20 -10 45 -10 25 0 45 -2
45 -5 0 -3 -13 -18 -30 -33 -16 -15 -41 -49 -55 -76 -30 -59 -22 -76 36 -76
49 0 59 -17 27 -44 -14 -12 -35 -29 -47 -38 -42 -35 -9 -63 39 -34 30 17 60
21 60 8 0 -17 -39 -43 -105 -71 -71 -30 -89 -48 -75 -70 7 -12 17 -12 62 -2
29 7 68 14 86 14 l33 2 2 -145 c2 -138 3 -145 22 -145 19 0 20 7 22 135 4 171
6 180 42 180 15 0 36 9 47 21 25 28 8 53 -38 57 l-35 3 11 41 c9 32 8 42 -1
45 -9 3 -13 26 -13 67 0 57 3 65 31 92 31 29 59 74 59 94 0 5 -9 19 -20 30
-16 16 -33 20 -77 19 -32 0 -69 -4 -83 -8z m80 -69 c0 -14 -23 -32 -42 -32
-10 0 -18 2 -18 4 0 2 -3 11 -6 20 -5 13 1 16 30 16 20 0 36 -4 36 -8z m-57
-106 c6 -16 -10 -26 -30 -18 -7 2 -13 10 -13 18 0 18 36 18 43 0z"/>
<path d="M18571 1608 c-26 -66 -61 -308 -61 -424 0 -71 17 -114 45 -114 19 0
23 22 24 125 1 87 14 273 27 383 6 44 4 52 -10 52 -9 0 -20 -10 -25 -22z"/>
<path d="M2807 1606 c-65 -20 -75 -70 -14 -64 43 4 41 -11 -11 -68 -36 -38
-43 -52 -38 -74 4 -21 -1 -33 -20 -50 -43 -42 -28 -60 52 -60 26 0 44 -5 44
-11 0 -6 -23 -43 -51 -81 -50 -70 -58 -100 -27 -106 11 -2 29 13 48 40 17 24
37 43 43 43 8 0 14 -28 19 -74 7 -77 16 -98 43 -87 13 5 15 20 13 93 -3 83 -2
88 18 91 12 2 32 14 45 28 19 21 21 28 11 44 -17 28 6 39 27 12 10 -14 30 -22
56 -24 28 -2 41 -8 43 -20 2 -13 -9 -19 -51 -28 -66 -13 -93 -31 -84 -54 6
-15 18 -17 69 -14 l63 3 1 -150 c1 -82 2 -156 3 -162 1 -7 10 -13 21 -13 23 0
21 -14 23 195 l2 140 35 3 c41 4 60 18 60 43 0 23 -34 42 -60 34 -36 -12 -44
6 -14 31 l29 24 -29 25 c-15 15 -27 28 -25 30 3 2 30 -5 62 -16 64 -22 97 -18
97 11 0 22 -17 32 -86 56 -27 9 -53 20 -58 24 -5 5 3 32 20 64 40 77 31 90
-66 94 -40 2 -78 -2 -83 -7 -15 -15 9 -39 46 -49 37 -9 44 -24 22 -46 -13 -12
-21 -14 -36 -5 -29 15 -137 18 -157 3 -10 -7 -24 -9 -31 -5 -9 6 -2 20 24 51
25 30 35 51 33 69 -3 23 -8 26 -48 28 -25 1 -62 -4 -83 -11z m211 -176 c17
-11 32 -23 32 -28 0 -17 -48 -54 -55 -43 -3 6 -28 11 -56 11 -27 0 -49 2 -49
5 0 9 75 74 85 75 6 0 25 -9 43 -20z m-73 -150 c-3 -5 -15 -10 -25 -10 -10 0
-22 5 -25 10 -4 6 7 10 25 10 18 0 29 -4 25 -10z"/>
<path d="M4948 1595 c-4 -16 -3 -34 1 -38 12 -12 19 14 11 43 -6 25 -6 25 -12
-5z"/>
<path d="M20567 1613 c-3 -5 -8 -46 -11 -93 -4 -47 -11 -105 -16 -130 -16 -85
-32 -250 -26 -274 5 -20 14 -25 53 -30 85 -12 102 -9 166 22 86 43 102 62 102
124 0 48 -2 52 -56 102 -49 46 -71 58 -157 82 -10 3 -13 27 -11 93 1 49 -2 94
-5 100 -8 13 -33 15 -39 4z m128 -291 c43 -30 80 -85 69 -103 -12 -19 -113
-59 -150 -59 l-36 0 7 53 c17 144 15 137 44 137 14 -1 44 -13 66 -28z"/>
<path d="M12334 1566 c-8 -22 1 -155 15 -206 14 -53 27 -70 52 -70 12 0 21
-10 25 -26 9 -37 -3 -199 -19 -259 -13 -48 -15 -50 -58 -59 -56 -12 -785 -14
-821 -2 -40 12 -36 -9 5 -25 24 -10 138 -14 447 -16 490 -4 611 -3 622 3 4 3
8 14 8 25 0 19 -4 20 -42 14 -24 -3 -50 -8 -59 -11 -31 -9 -37 17 -25 101 11
78 7 235 -8 286 -6 22 0 33 48 82 61 61 72 97 32 97 -14 0 -44 -18 -74 -45
-27 -25 -56 -45 -64 -45 -16 0 -38 66 -38 113 0 46 -33 77 -46 43z"/>
<path d="M22010 1543 c-85 -104 -145 -284 -138 -418 3 -65 7 -78 30 -101 40
-41 61 -27 51 33 -18 117 -3 218 51 337 14 31 26 59 26 62 0 3 14 26 31 50 51
75 8 107 -51 37z"/>
<path d="M22954 1565 c-3 -8 1 -34 9 -57 9 -24 18 -59 22 -79 3 -21 15 -49 27
-64 18 -23 20 -35 14 -93 -11 -116 -22 -186 -35 -216 -17 -42 -6 -66 30 -66
48 0 61 45 68 232 l6 157 43 43 c23 24 42 51 42 61 0 27 -41 20 -83 -14 -41
-34 -52 -32 -60 9 -8 41 -46 102 -63 102 -8 0 -17 -7 -20 -15z"/>
<path d="M12076 1538 c-36 -192 -61 -405 -49 -420 6 -7 13 -25 17 -40 15 -66
126 -9 197 101 16 25 29 55 29 66 0 52 -76 123 -132 124 -15 1 -29 5 -32 9 -3
5 0 41 6 80 8 56 8 75 -2 87 -18 21 -29 19 -34 -7z m98 -249 c36 -28 33 -45
-18 -95 -61 -61 -68 -58 -65 29 1 39 4 75 6 80 8 14 51 7 77 -14z"/>
<path d="M14603 1541 c-38 -24 -41 -41 -13 -66 20 -18 21 -28 18 -204 -2 -102
-6 -193 -10 -201 -5 -9 2 -26 17 -45 24 -29 25 -30 54 -12 19 11 50 17 90 17
56 0 61 2 67 24 9 39 -2 46 -75 46 -76 0 -81 5 -81 77 0 40 13 44 78 20 42
-15 56 -16 67 -7 37 31 5 68 -76 89 l-64 16 -8 80 c-5 50 -14 84 -23 91 -13
10 -13 12 1 18 14 5 53 -3 143 -30 27 -8 52 11 52 41 0 33 -30 44 -165 61 -29
4 -49 -1 -72 -15z"/>
<path d="M15280 1548 c0 -21 68 -196 85 -220 24 -36 18 -194 -13 -345 -17 -80
31 -99 68 -27 11 22 15 78 18 221 l4 192 69 66 c38 36 69 69 69 74 0 36 -77 5
-137 -55 -38 -38 -55 -31 -87 41 -24 53 -33 65 -52 65 -13 0 -24 -6 -24 -12z"/>
<path d="M21092 1537 c-21 -23 -63 -110 -87 -182 -20 -60 -37 -192 -30 -226
10 -42 61 -67 104 -50 33 14 87 84 76 100 -9 16 -41 13 -55 -4 -12 -14 -41
-20 -52 -10 -6 7 10 108 29 175 21 73 49 127 73 142 35 22 20 78 -20 78 -9 0
-26 -10 -38 -23z"/>
<path d="M23330 1553 c-1 -254 -17 -354 -71 -449 -36 -64 -38 -94 -5 -94 41 0
94 71 125 169 6 19 11 97 11 175 0 123 -3 145 -20 174 -18 29 -40 43 -40 25z"/>
<path d="M14935 1495 c-48 -103 -50 -317 -3 -384 9 -13 27 -25 40 -27 13 -2
35 -7 51 -10 33 -8 57 10 57 42 0 36 27 29 40 -11 10 -29 16 -35 41 -35 24 0
29 4 29 24 0 25 -15 77 -32 113 -9 18 -4 33 36 92 59 90 69 116 52 130 -10 9
-23 -2 -56 -45 -40 -53 -44 -56 -56 -39 -8 11 -14 35 -14 56 0 45 -32 91 -51
72 -10 -10 -10 -36 0 -126 l13 -113 -36 -58 c-21 -31 -41 -54 -47 -51 -5 4
-17 21 -26 38 -25 45 -25 252 0 320 21 58 21 67 3 67 -8 0 -26 -25 -41 -55z"/>
<path d="M4740 1527 c-36 -18 -61 -59 -76 -123 -36 -153 0 -319 76 -359 24
-13 30 -13 40 0 9 11 5 26 -24 72 -36 58 -36 60 -36 168 0 121 20 187 59 200
26 8 27 31 3 44 -12 7 -26 6 -42 -2z"/>
<path d="M18691 1526 c-8 -10 -8 -21 -1 -40 5 -15 10 -55 11 -89 1 -34 4 -73
8 -87 8 -29 -23 -209 -69 -398 -9 -37 8 -62 40 -62 31 0 51 54 65 179 8 64 16
130 19 146 2 17 8 57 12 90 8 65 16 75 108 131 65 39 71 71 12 66 -21 -2 -56
-15 -78 -29 -43 -27 -57 -21 -58 22 0 23 -36 85 -49 85 -5 0 -14 -6 -20 -14z"/>
<path d="M19077 1523 c-2 -4 0 -46 5 -93 12 -109 -12 -296 -50 -382 -23 -54
-24 -61 -9 -75 97 -97 177 351 93 526 -12 26 -31 38 -39 24z"/>
<path d="M8935 1511 c-5 -9 15 -140 31 -208 4 -15 15 -39 26 -52 21 -28 25
-148 7 -228 l-12 -49 -121 -18 c-66 -10 -148 -22 -181 -27 -86 -14 -345 -32
-450 -32 -49 0 -112 6 -140 13 -62 15 -145 18 -145 5 -1 -5 59 -22 132 -37
120 -25 142 -27 218 -18 47 5 139 12 205 15 66 3 140 10 165 16 25 5 86 14
135 19 50 5 109 13 133 16 l44 6 -7 -46 c-6 -38 -4 -47 10 -52 28 -11 50 10
55 52 5 37 7 39 45 44 35 4 40 9 43 33 4 33 -24 49 -43 24 -21 -29 -37 -21
-30 15 4 18 7 92 7 165 l0 132 49 63 c51 66 60 92 33 102 -9 4 -32 -10 -63
-39 -26 -25 -51 -45 -54 -45 -3 0 -11 19 -17 43 -19 72 -31 97 -51 97 -10 0
-20 -4 -24 -9z"/>
<path d="M10602 1482 c-15 -49 -52 -265 -52 -302 0 -16 5 -51 12 -79 10 -43
15 -51 34 -51 29 0 32 12 21 79 -7 37 -6 81 3 140 21 144 28 224 23 238 -10
25 -30 13 -41 -25z"/>
<path d="M11580 1505 c-16 -19 -5 -45 21 -52 19 -5 21 -11 15 -52 -14 -110
-19 -300 -7 -314 9 -11 32 -13 104 -9 50 2 100 9 109 14 14 7 19 3 24 -19 4
-16 14 -36 22 -45 33 -38 92 -9 92 45 0 23 -4 27 -26 27 l-27 0 6 113 c7 120
24 198 55 251 25 43 15 66 -20 47 -28 -14 -49 -53 -76 -134 -22 -67 -27 -74
-45 -59 -7 6 -44 12 -82 14 l-70 3 0 55 c0 53 1 55 25 53 47 -4 70 6 70 30 0
38 -19 47 -101 47 -56 0 -80 -4 -89 -15z m264 -308 c-4 -34 -9 -64 -11 -67 -2
-2 -13 1 -23 8 -11 7 -39 12 -63 12 -53 0 -76 16 -79 55 -3 50 5 55 98 54 l85
-1 -7 -61z"/>
<path d="M14216 1498 c-3 -13 -13 -106 -22 -208 -9 -102 -18 -188 -20 -192 -3
-4 3 -13 11 -20 9 -7 25 -21 36 -30 29 -27 78 -22 139 15 66 39 100 86 100
138 0 82 -33 111 -132 113 l-63 1 -3 103 c-2 93 -4 102 -22 102 -12 0 -21 -9
-24 -22z m155 -248 c21 -12 24 -28 9 -62 -14 -30 -73 -68 -105 -68 -24 0 -25
2 -24 56 2 43 7 58 23 70 24 16 69 18 97 4z"/>
<path d="M16747 1483 c-19 -117 -38 -385 -30 -424 7 -39 12 -44 37 -47 30 -4
44 1 135 47 61 30 89 61 100 113 11 46 -7 88 -50 119 -28 20 -45 23 -97 22
l-63 -2 7 105 c7 100 6 104 -13 104 -16 0 -22 -9 -26 -37z m154 -244 c11 -11
19 -30 17 -41 -4 -27 -64 -74 -105 -83 l-33 -7 0 70 c0 38 3 72 7 75 3 4 26 7
50 7 30 0 49 -6 64 -21z"/>
<path d="M18135 1509 c-50 -30 -39 -55 26 -63 27 -3 71 -9 99 -12 42 -5 51 -3
57 11 10 28 -11 49 -58 58 -92 16 -105 17 -124 6z"/>
<path d="M21581 1506 c-7 -8 -14 -85 -18 -199 -7 -201 -4 -217 44 -217 40 0
58 16 119 106 33 47 76 111 97 142 20 30 37 63 37 72 0 42 -63 53 -84 15 -38
-68 -121 -185 -132 -185 -11 0 -13 27 -11 130 2 107 -1 132 -13 140 -20 13
-26 12 -39 -4z"/>
<path d="M3942 1480 c-70 -43 -95 -86 -107 -182 -12 -99 33 -187 104 -203 36
-8 101 23 125 59 20 31 30 32 63 6 44 -34 95 -25 118 21 48 91 -29 229 -128
229 -44 0 -56 -18 -49 -76 5 -46 -16 -91 -66 -146 -32 -35 -52 -35 -83 -2 -20
21 -24 35 -23 82 1 88 18 128 68 157 24 14 52 25 64 25 27 0 29 26 3 40 -29
15 -52 12 -89 -10z m246 -234 c-4 -39 -27 -41 -47 -4 -13 22 -13 31 -2 55 l13
28 19 -24 c13 -15 19 -36 17 -55z"/>
<path d="M4381 1486 c-15 -18 -16 -85 -2 -166 7 -36 16 -92 22 -125 23 -137
98 -120 129 30 5 28 15 74 21 103 5 29 9 74 7 100 -3 45 -4 47 -33 47 l-30 0
-11 -95 c-14 -111 -11 -100 -24 -100 -18 0 -30 48 -31 123 -2 88 -19 118 -48
83z"/>
<path d="M7738 1478 c-27 -42 -46 -112 -58 -213 -10 -83 -10 -113 3 -177 21
-110 59 -161 94 -126 13 14 13 19 0 44 -22 43 -37 126 -37 201 0 58 4 91 26
211 3 12 13 30 24 40 29 24 25 42 -9 42 -19 0 -34 -8 -43 -22z"/>
<path d="M10202 1488 c-18 -18 -15 -34 12 -55 22 -17 23 -21 15 -98 -4 -44 -8
-125 -8 -181 -1 -95 0 -101 22 -110 17 -7 177 -10 229 -5 4 1 12 10 18 20 8
15 6 24 -7 36 -14 14 -33 16 -107 14 l-91 -4 0 65 0 65 80 1 c109 2 105 1 105
28 0 36 -19 45 -105 48 -80 3 -80 3 -83 32 -2 15 -1 39 2 53 6 22 10 23 56 17
56 -7 100 12 100 44 0 35 -21 42 -125 42 -65 0 -105 -4 -113 -12z"/>
<path d="M20153 1468 c-46 -47 -100 -170 -114 -257 -12 -72 -12 -75 10 -93 38
-30 67 -23 117 30 43 44 47 46 58 28 36 -62 81 -73 116 -29 30 38 23 67 -17
71 -18 2 -33 4 -34 5 0 1 -4 36 -9 77 -14 124 -26 170 -46 185 -29 22 -47 18
-81 -17z m43 -132 c-21 -54 -56 -108 -75 -114 -19 -6 -5 49 32 125 27 55 33
61 46 49 12 -13 12 -21 -3 -60z"/>
<path d="M22277 1485 c-4 -8 0 -45 8 -82 8 -37 15 -77 15 -87 0 -10 -24 -46
-53 -80 -80 -90 -92 -124 -50 -140 21 -8 36 2 75 54 44 58 68 64 68 17 0 -56
63 -101 114 -81 20 8 21 42 2 63 -21 24 -66 114 -66 131 1 8 23 44 50 80 28
36 49 72 47 80 -5 29 -42 22 -75 -15 -18 -19 -36 -35 -41 -35 -4 0 -16 25 -26
55 -14 46 -21 55 -40 55 -13 0 -25 -7 -28 -15z"/>
<path d="M15696 1481 c-3 -5 -1 -23 5 -41 7 -19 10 -76 7 -148 -4 -104 -8
-126 -37 -194 -38 -91 -38 -122 2 -126 24 -3 30 2 48 45 29 66 59 180 59 227
0 47 -28 204 -41 229 -10 18 -34 23 -43 8z"/>
<path d="M17161 1478 c-60 -32 -30 -51 105 -68 92 -12 114 -6 114 31 0 25 -28
35 -120 43 -53 4 -82 3 -99 -6z"/>
<path d="M17562 1453 c-19 -38 -41 -115 -48 -164 -2 -15 -8 -46 -13 -70 -6
-24 -11 -72 -11 -106 0 -53 3 -64 21 -74 15 -8 24 -8 32 0 6 6 26 11 44 11 28
0 35 5 47 34 21 50 33 51 61 6 20 -31 32 -40 48 -38 26 4 35 40 18 72 -6 12
-17 40 -25 62 -14 41 -14 43 18 90 60 89 53 122 -15 73 -31 -22 -49 -18 -49
10 0 22 -38 63 -53 58 -13 -4 -13 -9 5 -104 11 -61 10 -63 -22 -112 -56 -89
-69 -64 -45 87 25 155 29 202 16 202 -6 0 -19 -17 -29 -37z"/>
<path d="M5692 1343 c-13 -149 -16 -272 -6 -297 11 -29 51 -17 105 31 152 138
144 216 -28 268 -17 4 -23 14 -23 33 0 50 -13 102 -24 102 -8 0 -16 -46 -24
-137z m111 -75 c15 -8 27 -21 27 -32 0 -23 -66 -90 -80 -81 -11 7 -14 108 -3
118 10 10 26 9 56 -5z"/>
<path d="M11033 1458 c3 -13 19 -60 35 -106 l30 -82 -44 -86 c-36 -70 -42 -89
-33 -105 18 -34 51 -20 76 34 26 54 48 61 58 17 8 -37 37 -55 65 -40 29 15 25
53 -11 120 l-31 59 31 45 c34 50 38 68 16 86 -16 13 -33 6 -53 -22 -20 -28
-41 -21 -59 20 -21 46 -52 82 -71 82 -10 0 -13 -7 -9 -22z"/>
<path d="M11330 1472 c0 -6 7 -39 16 -74 22 -83 15 -217 -16 -320 -24 -83 -22
-108 9 -108 29 0 47 34 67 127 15 71 16 97 6 184 -7 68 -18 116 -34 147 -21
43 -48 67 -48 44z"/>
<path d="M12698 1379 c3 -55 -1 -148 -7 -207 -6 -59 -14 -127 -17 -152 -6 -56
5 -75 39 -66 40 10 47 50 47 255 0 162 -3 191 -20 229 -10 23 -25 42 -33 42
-11 0 -13 -19 -9 -101z"/>
<path d="M9300 1450 c0 -6 7 -25 16 -41 12 -25 15 -58 12 -172 -3 -145 -9
-168 -55 -240 -14 -21 -15 -31 -7 -45 17 -26 38 -25 72 3 46 39 62 99 62 239
0 130 -9 180 -43 232 -21 32 -57 47 -57 24z"/>
<path d="M21340 1435 c-14 -8 -39 -22 -57 -31 -38 -20 -52 -49 -59 -123 -11
-96 28 -140 108 -124 59 12 138 131 138 207 0 36 -5 48 -26 65 -31 24 -69 27
-104 6z m49 -103 c-13 -37 -67 -102 -85 -102 -10 0 -14 13 -14 50 0 50 0 50
33 50 22 0 36 7 45 20 18 29 33 16 21 -18z"/>
<path d="M6279 1428 c-1 -7 0 -17 1 -23 1 -5 1 -71 1 -146 -1 -113 -4 -146
-21 -189 -11 -28 -20 -62 -20 -75 0 -21 5 -25 28 -25 24 0 32 7 50 48 19 41
22 66 22 163 -1 104 -16 219 -34 247 -9 16 -26 15 -27 0z"/>
<path d="M19574 1433 c-12 -2 -29 -12 -38 -22 -13 -14 -14 -20 -3 -35 10 -14
32 -19 102 -22 50 -3 104 -9 121 -15 44 -14 84 3 84 35 0 45 -23 56 -118 56
-48 0 -96 2 -107 4 -11 2 -30 2 -41 -1z"/>
<path d="M17858 1425 c-3 -4 -1 -25 4 -48 13 -55 3 -221 -16 -255 -31 -59 -39
-91 -26 -107 38 -46 88 25 110 154 19 112 -12 261 -54 261 -7 0 -15 -2 -18 -5z"/>
<path d="M18146 1408 c-17 -54 -27 -123 -33 -212 l-6 -104 104 5 c114 6 162
23 167 61 3 20 -1 21 -95 24 l-98 3 -3 43 c-4 54 11 60 88 37 67 -20 90 -16
90 18 0 30 -66 65 -130 69 -41 3 -45 6 -54 36 -9 33 -24 42 -30 20z"/>
<path d="M13884 1390 c-48 -31 -97 -139 -102 -226 -4 -65 -2 -73 23 -102 34
-40 77 -43 130 -7 35 24 39 25 55 10 23 -21 64 -16 68 8 2 10 -3 33 -12 52
-10 21 -16 60 -16 109 0 143 -62 209 -146 156z m68 -110 c-4 -82 -36 -158 -70
-167 -33 -8 -44 12 -37 65 12 85 63 176 94 170 13 -3 15 -16 13 -68z"/>
<path d="M17185 1388 c-2 -7 -9 -71 -15 -142 -6 -72 -16 -138 -21 -148 -12
-23 -2 -83 17 -99 19 -16 42 -4 54 26 8 21 16 25 50 25 23 0 61 -5 86 -11 49
-13 74 -2 74 31 0 32 -43 52 -148 68 -23 4 -43 10 -42 15 0 4 0 21 0 37 0 28
2 30 39 30 22 0 42 -4 45 -9 10 -16 57 -19 71 -4 28 27 -20 83 -73 83 -37 0
-97 28 -100 47 -7 46 -13 63 -23 63 -5 0 -11 -6 -14 -12z"/>
<path d="M16436 1369 c-38 -30 -73 -96 -87 -165 -11 -55 -10 -64 7 -100 16
-32 25 -40 53 -42 27 -3 40 3 66 28 34 33 55 33 55 1 0 -39 51 -56 69 -23 6
12 6 33 1 58 -5 21 -10 72 -10 112 0 60 -4 80 -22 105 -12 18 -27 35 -33 39
-20 15 -73 8 -99 -13z m80 -42 c5 -14 -59 -151 -76 -162 -7 -4 -17 -2 -23 4
-8 8 -6 26 7 67 24 76 77 129 92 91z"/>
<path d="M6734 1348 c-11 -36 27 -58 100 -58 33 0 77 -4 96 -10 42 -12 80 8
80 43 0 42 -17 47 -146 47 -117 0 -123 -1 -130 -22z"/>
<path d="M13242 1334 c-34 -28 -20 -50 36 -58 26 -3 70 -10 97 -16 104 -21
125 -23 140 -10 22 18 18 47 -7 62 -13 6 -50 15 -83 19 -33 4 -83 11 -110 14
-41 6 -54 4 -73 -11z"/>
<path d="M5636 1288 c-9 -79 -7 -148 4 -148 6 0 10 40 10 100 0 55 -2 100 -4
100 -2 0 -6 -24 -10 -52z"/>
<path d="M16030 1315 c-32 -39 37 -73 159 -77 62 -3 66 -2 69 20 5 35 -13 49
-76 55 -31 4 -75 9 -97 13 -32 5 -44 2 -55 -11z"/>
<path d="M8487 1274 c-4 -4 -7 -18 -7 -31 0 -19 5 -23 31 -23 27 0 30 3 27 28
-3 26 -34 43 -51 26z"/>
<path d="M9673 1232 c-10 -24 12 -46 53 -56 54 -12 181 -19 210 -12 31 8 48
40 34 65 -9 18 -22 19 -151 19 -116 -1 -142 -3 -146 -16z"/>
<path d="M19518 1240 c-19 -12 -24 -55 -8 -65 13 -8 351 -24 367 -18 17 7 17
58 0 71 -18 16 -337 26 -359 12z"/>
<path d="M22597 1186 c-4 -39 -15 -69 -41 -108 -39 -58 -40 -88 -2 -88 33 0
89 92 94 156 8 95 -41 134 -51 40z"/>
<path d="M3323 1214 c-18 -8 -16 -41 3 -52 29 -16 55 -2 52 27 -3 26 -27 37
-55 25z"/>
<path d="M6723 1183 c-7 -3 -13 -13 -13 -23 0 -27 18 -37 102 -54 90 -19 132
-20 159 -6 21 12 26 52 7 68 -13 10 -232 23 -255 15z"/>
<path d="M5527 1143 c-3 -5 -6 -48 -8 -98 -4 -80 -2 -90 14 -93 10 -2 24 2 32
8 21 18 20 133 -1 165 -17 25 -29 31 -37 18z"/>
<path d="M13218 1133 c-14 -18 4 -39 45 -52 18 -5 84 -12 148 -15 100 -6 119
-4 133 9 19 20 20 26 4 47 -18 22 -313 32 -330 11z"/>
<path d="M3300 1051 c-12 -23 14 -56 37 -47 8 3 17 6 19 6 12 0 2 49 -12 54
-25 10 -33 7 -44 -13z"/>
<path d="M10528 964 c24 -17 39 -14 27 5 -3 6 -16 11 -28 11 l-21 0 22 -16z"/>
<path d="M11136 941 c-3 -4 -54 -11 -113 -14 -60 -3 -155 -11 -213 -18 -108
-13 -154 -13 -347 -4 -77 4 -115 11 -123 20 -13 16 -40 9 -40 -9 0 -33 98 -46
355 -48 129 0 384 10 394 17 5 3 33 7 62 10 58 6 75 15 66 39 -7 17 -32 22
-41 7z"/>
</g>
</svg>
