<?xml version="1.0" standalone="no"?>
<!DOCTYPE svg PUBLIC "-//W3C//DTD SVG 20010904//EN"
 "http://www.w3.org/TR/2001/REC-SVG-20010904/DTD/svg10.dtd">
<svg version="1.0" xmlns="http://www.w3.org/2000/svg"
 width="2324.000000pt" height="768.000000pt" viewBox="0 0 2324.000000 768.000000"
 preserveAspectRatio="xMidYMid meet">

<g transform="translate(0.000000,768.000000) scale(0.100000,-0.100000)"
fill="#000000" stroke="none">
<path d="M4016 7625 c-5 -26 -13 -36 -32 -41 -39 -10 -47 -44 -18 -69 l24 -20
-31 -88 c-17 -49 -44 -111 -60 -139 -16 -27 -27 -54 -24 -59 4 -5 20 -16 36
-25 19 -10 32 -25 36 -45 7 -36 37 -56 59 -38 10 8 14 33 14 85 0 77 10 94 57
94 10 0 31 7 47 15 74 39 84 8 67 -210 -6 -82 -12 -193 -14 -245 l-2 -95 30 0
c47 0 58 36 63 195 2 74 8 140 13 146 5 7 22 14 38 17 20 4 33 17 48 49 65
135 86 224 64 267 -14 25 -56 28 -107 6 -36 -15 -37 -14 -65 16 -32 34 -59 33
-59 -1 0 -39 -20 -59 -72 -75 -93 -27 -122 -14 -93 42 7 16 17 46 22 68 8 40
16 46 83 59 14 3 33 11 44 19 16 12 17 17 6 36 -10 20 -17 22 -52 17 -37 -6
-40 -5 -51 24 -9 23 -18 30 -38 30 -23 0 -28 -5 -33 -35z m334 -292 c0 -24
-42 -123 -51 -123 -14 0 -29 37 -29 69 0 18 9 40 20 51 25 25 60 27 60 3z"/>
<path d="M3395 7619 c-5 -8 2 -20 21 -33 16 -11 63 -53 104 -92 42 -39 84 -76
95 -82 11 -5 58 -16 103 -23 79 -12 84 -12 103 7 20 20 20 21 1 43 -15 19 -32
25 -95 31 -70 7 -81 11 -132 51 -124 99 -182 127 -200 98z"/>
<path d="M1855 7590 c-8 -16 -15 -45 -15 -65 0 -20 -5 -56 -11 -81 -9 -33 -9
-52 -1 -70 11 -23 42 -34 42 -14 0 5 15 30 33 56 45 65 132 106 153 72 20 -32
5 -258 -17 -258 -5 0 -9 9 -9 19 0 11 -5 23 -11 26 -6 4 -9 21 -7 37 5 45 -16
54 -92 38 -66 -14 -107 -41 -112 -75 -2 -16 3 -21 30 -23 18 -2 32 1 32 7 0 6
12 11 28 11 l27 -1 -40 -34 c-103 -89 -126 -116 -123 -143 4 -38 41 -42 64 -8
9 14 20 26 25 26 5 0 26 -24 48 -53 66 -90 92 -106 145 -93 65 16 85 88 93
329 7 212 3 248 -33 272 -26 17 -29 17 -147 -13 -35 -9 -37 -9 -43 17 -3 14
-7 32 -10 39 -6 22 -33 13 -49 -18z m198 -391 c3 -12 1 -46 -5 -75 -8 -40 -16
-55 -31 -60 -13 -4 -23 -2 -25 5 -2 6 -15 25 -29 41 -33 40 -27 61 27 87 56
28 56 28 63 2z"/>
<path d="M2623 7592 c-40 -30 -73 -85 -73 -118 0 -42 18 -48 52 -17 21 20 40
26 89 29 34 3 65 7 70 9 15 10 19 -32 19 -196 0 -193 -3 -200 -68 -155 -51 35
-69 34 -74 -5 -4 -26 2 -38 36 -71 49 -47 79 -61 118 -53 52 12 61 52 66 296
4 216 4 216 -20 244 l-24 27 -47 -16 c-66 -22 -77 -20 -90 14 -13 34 -23 37
-54 12z"/>
<path d="M1564 7505 c-3 -14 -3 -32 0 -41 4 -11 -4 -19 -29 -30 -19 -7 -42
-14 -52 -14 -10 0 -29 -9 -43 -19 -24 -19 -24 -20 -6 -40 14 -16 31 -21 66
-21 58 0 60 -3 60 -119 0 -92 8 -111 46 -111 29 0 74 55 114 138 36 74 35 96
-1 100 -19 2 -31 -4 -43 -23 -19 -29 -36 -25 -36 10 0 27 33 55 65 55 32 0 85
37 85 60 0 31 -39 41 -94 25 l-46 -14 -26 35 c-31 40 -51 43 -60 9z"/>
<path d="M3281 7430 l-52 -80 -45 0 c-43 0 -44 -1 -44 -33 0 -40 25 -67 63
-67 18 0 38 15 72 53 25 28 48 62 51 75 6 23 44 32 44 10 0 -7 14 -21 31 -31
29 -16 30 -19 17 -35 -8 -9 -18 -24 -21 -32 -4 -8 -18 -33 -32 -55 -27 -43
-65 -122 -65 -134 0 -4 9 -16 20 -26 19 -17 21 -17 41 1 18 16 23 16 27 5 9
-25 50 -61 71 -61 31 0 82 49 107 105 19 39 24 67 24 128 0 83 -7 106 -48 149
-32 35 -98 47 -141 25 -34 -17 -34 -17 -35 43 -2 61 -28 49 -85 -40z m229
-181 c0 -33 -5 -69 -10 -80 -13 -24 -42 -25 -63 -1 -14 15 -13 20 4 52 10 19
25 50 34 68 22 46 35 31 35 -39z"/>
<path d="M638 7482 c-22 -9 -188 -245 -188 -268 0 -5 6 -19 14 -30 12 -16 27
-19 94 -20 43 0 84 -4 90 -8 8 -5 12 -44 12 -115 0 -114 10 -146 45 -140 26 5
33 37 34 156 1 93 3 103 23 117 12 9 30 16 39 16 25 0 51 34 42 56 -10 27 -22
33 -59 27 -39 -6 -49 8 -57 83 -3 30 -16 67 -33 92 -29 44 -29 45 -56 34z m32
-131 c0 -51 -12 -92 -31 -102 -20 -10 -69 -2 -69 12 0 19 76 116 93 118 4 1 7
-12 7 -28z"/>
<path d="M2567 7351 c-80 -21 -107 -42 -87 -66 9 -11 22 -14 42 -10 16 4 47 4
69 0 l41 -7 -69 -35 c-84 -43 -123 -77 -116 -104 3 -10 13 -19 22 -19 19 0
217 96 225 109 3 5 -3 16 -14 26 -25 22 -25 40 -2 57 28 20 35 37 22 53 -16
19 -48 18 -133 -4z"/>
<path d="M11640 7154 c0 -47 -4 -93 -9 -102 -6 -12 -5 -24 4 -36 12 -15 23
-18 65 -14 58 6 84 23 60 39 -8 5 -31 7 -51 3 -24 -3 -40 -1 -44 6 -4 7 -7 52
-6 101 1 57 -2 89 -8 89 -7 0 -11 -32 -11 -86z"/>
<path d="M11257 7006 c-6 -65 -15 -75 -67 -77 -19 0 -46 -4 -60 -8 -20 -6 -13
-9 35 -15 88 -11 85 -8 85 -80 0 -59 -3 -66 -27 -86 -111 -86 -143 -87 -143
-7 0 83 -19 42 -25 -53 -3 -59 -1 -94 9 -115 l13 -30 13 44 c8 23 21 45 29 48
9 2 30 11 47 20 17 8 42 13 55 11 l24 -3 0 -220 c0 -146 4 -226 11 -239 11
-19 12 -19 22 0 21 40 25 120 7 155 -15 28 -17 55 -13 180 4 158 10 176 56
181 23 3 28 9 32 43 5 31 18 53 62 99 45 48 55 63 49 80 -7 17 -18 22 -57 24
-30 1 -44 -1 -36 -6 7 -5 15 -24 18 -43 5 -31 2 -37 -43 -71 -43 -34 -49 -36
-60 -21 -7 9 -13 29 -13 44 0 29 14 45 44 50 28 6 32 29 5 29 -26 0 -48 26
-49 60 -1 14 -5 34 -9 45 -6 14 -9 3 -14 -39z"/>
<path d="M897 7008 c-14 -11 -15 -17 -4 -38 18 -37 54 -38 68 -3 8 23 7 30 -7
40 -22 16 -36 16 -57 1z"/>
<path d="M11695 6893 c-27 -2 -54 -10 -60 -17 -18 -24 -65 -25 -86 -3 -19 21
-19 20 -19 -86 0 -59 4 -107 9 -107 5 0 13 -15 16 -32 12 -53 19 -56 31 -13
11 38 13 40 48 37 26 -3 38 1 42 12 7 18 24 12 24 -9 0 -23 -161 -205 -181
-205 -15 0 -10 -28 6 -33 14 -6 75 46 75 63 0 5 15 10 33 12 28 3 32 7 35 35
2 21 16 47 40 72 49 51 95 110 103 130 4 9 -1 24 -9 34 -13 15 -14 22 -4 37
20 32 14 60 -14 70 -14 6 -28 9 -32 8 -4 -1 -29 -3 -57 -5z m49 -36 c26 -19
12 -42 -67 -111 -71 -62 -102 -70 -117 -30 -22 56 -1 114 41 114 10 0 22 6 26
14 4 8 26 16 48 19 22 2 43 4 46 5 3 1 13 -4 23 -11z"/>
<path d="M11030 6850 c0 -16 5 -30 10 -30 6 0 10 14 10 30 0 17 -4 30 -10 30
-5 0 -10 -13 -10 -30z"/>
<path d="M20790 6818 c-9 -19 -10 -69 -4 -194 9 -168 9 -169 33 -172 21 -3 23
-1 17 25 -3 15 -9 98 -12 183 -7 168 -14 202 -34 158z"/>
<path d="M10698 6616 c-14 -8 -42 -19 -61 -25 -40 -14 -66 -55 -40 -65 9 -4
25 2 37 12 12 10 53 28 92 41 55 17 76 20 97 12 22 -9 29 -8 33 4 3 8 3 19 -1
25 -9 15 -126 12 -157 -4z"/>
<path d="M10824 6538 c-10 -10 -35 -21 -56 -25 -22 -3 -45 -12 -52 -19 -8 -7
-25 -16 -40 -20 -14 -3 -30 -12 -34 -18 -4 -7 -15 -15 -24 -19 -19 -7 -24 -32
-9 -41 5 -3 21 6 35 19 15 14 32 25 39 25 7 0 27 9 45 20 18 11 40 20 48 20
26 0 114 44 114 56 0 21 -48 22 -66 2z"/>
<path d="M11757 6553 c-8 -8 -9 -57 -1 -65 3 -3 14 -4 24 -1 16 4 17 9 7 31
-14 35 -22 44 -30 35z"/>
<path d="M11985 6530 c3 -5 8 -10 11 -10 2 0 4 5 4 10 0 6 -5 10 -11 10 -5 0
-7 -4 -4 -10z"/>
<path d="M15329 6521 l-24 -19 24 -19 c35 -29 21 -56 -53 -97 -58 -32 -76 -51
-76 -76 0 -5 20 -21 43 -35 54 -31 101 -31 182 -2 52 19 60 26 63 50 2 19 -2
29 -15 33 -60 19 -62 21 -51 52 17 44 3 95 -31 115 -36 21 -34 21 -62 -2z"/>
<path d="M12005 6510 c-7 -12 12 -40 27 -40 16 0 21 32 7 41 -18 12 -26 11
-34 -1z"/>
<path d="M11667 6479 c-3 -12 0 -22 9 -26 20 -8 27 2 19 26 -8 27 -21 27 -28
0z"/>
<path d="M13975 6457 c-2 -12 -9 -130 -14 -262 -12 -287 -14 -280 78 -257 44
11 71 25 104 56 53 50 87 104 87 140 0 67 -80 146 -148 146 -39 0 -53 18 -46
61 8 57 -8 121 -33 130 -19 7 -24 4 -28 -14z m149 -269 c26 -37 20 -74 -20
-113 -23 -24 -43 -35 -57 -33 -21 3 -22 7 -18 78 2 41 5 78 8 83 2 4 19 7 38
7 24 0 39 -7 49 -22z"/>
<path d="M19027 6473 c-10 -10 -8 -73 2 -73 12 0 29 51 24 68 -5 13 -16 16
-26 5z"/>
<path d="M13762 6385 c-30 -22 -55 -114 -54 -201 0 -59 6 -83 33 -138 33 -68
72 -116 94 -116 7 0 18 7 25 15 10 12 4 32 -34 108 -43 88 -46 99 -46 174 0
53 5 91 16 112 15 30 14 61 -3 61 -5 0 -18 -7 -31 -15z"/>
<path d="M18996 6384 c-3 -9 -6 -129 -6 -268 0 -198 -3 -256 -14 -271 -13 -18
-15 -18 -30 -2 -10 9 -25 17 -34 17 -9 1 -35 9 -57 20 -26 13 -62 19 -103 20
-55 0 -66 -3 -90 -27 -19 -19 -23 -28 -13 -31 8 -3 18 3 23 12 13 22 144 23
168 1 10 -9 34 -19 55 -22 20 -3 51 -19 68 -34 l30 -28 -6 -213 c-4 -149 -10
-224 -20 -248 -8 -19 -18 -57 -22 -85 -4 -27 -11 -53 -16 -56 -5 -3 -12 -23
-15 -45 -3 -21 -13 -57 -24 -79 -10 -22 -23 -51 -29 -65 -38 -82 -69 -108
-108 -91 -32 15 -39 8 -25 -24 17 -37 62 -37 102 0 37 35 110 186 110 226 0
14 7 34 15 47 9 12 18 45 22 74 3 29 12 64 20 77 12 19 17 72 21 242 l5 218
28 6 c16 4 29 9 29 12 0 2 -13 18 -30 35 l-30 30 0 278 c0 251 -6 321 -24 274z"/>
<path d="M20400 6391 c-20 -14 -4 -18 100 -25 47 -4 112 -11 145 -16 116 -19
424 -34 451 -22 25 12 30 27 15 50 -7 11 -14 11 -42 -3 -29 -16 -52 -17 -188
-11 -85 4 -164 12 -175 19 -27 14 -286 22 -306 8z"/>
<path d="M22320 6384 c0 -3 5 -15 12 -27 13 -22 38 -87 38 -98 0 -3 -29 -36
-65 -73 -36 -37 -65 -73 -65 -81 0 -32 21 -22 74 36 57 62 89 73 106 39 5 -8
14 -28 21 -44 26 -54 34 -66 46 -66 16 0 17 46 2 56 -6 3 -17 21 -25 38 -8 17
-20 39 -27 49 -10 16 -6 23 32 57 27 23 39 40 32 44 -14 9 -51 -2 -51 -15 0
-5 -13 -9 -29 -9 -23 0 -31 6 -40 30 -5 17 -17 30 -25 30 -9 0 -16 9 -16 20 0
11 -4 20 -10 20 -5 0 -10 -3 -10 -6z"/>
<path d="M23147 6383 c-10 -18 -20 -75 -32 -183 -7 -63 -19 -129 -26 -147 -9
-23 -10 -38 -2 -55 l10 -23 19 31 c19 31 21 31 47 18 15 -8 27 -18 27 -22 0
-7 -33 -36 -75 -66 -15 -11 -17 -17 -8 -27 25 -25 104 24 116 73 5 18 1 33
-13 51 -11 14 -20 30 -20 36 0 6 -9 15 -20 21 -18 10 -20 21 -20 118 0 80 4
113 15 128 19 25 19 54 1 54 -8 0 -17 -3 -19 -7z"/>
<path d="M14764 6370 c-42 -17 -94 -112 -119 -216 -16 -63 -16 -73 -2 -106 8
-20 27 -44 41 -53 24 -16 28 -16 71 6 l45 23 29 -28 c30 -29 57 -30 81 -1 9
10 6 25 -11 62 l-22 48 22 60 c33 94 24 159 -28 203 -17 14 -75 15 -107 2z
m60 -88 c-7 -15 -14 -49 -14 -75 0 -58 -38 -117 -75 -117 -32 0 -35 16 -13 80
28 84 60 139 83 143 31 5 35 -1 19 -31z"/>
<path d="M9743 6363 c-33 -6 -91 -80 -108 -138 -49 -163 -38 -252 37 -291 35
-18 87 -5 118 28 l19 21 30 -32 c34 -36 38 -37 70 -12 22 17 23 21 12 51 -15
43 -14 90 2 95 6 2 29 6 50 10 l37 6 0 -53 c1 -31 7 -61 16 -73 14 -18 17 -19
42 -5 24 14 27 21 27 70 l0 55 52 3 c42 2 56 8 73 29 19 24 19 27 4 45 -12 13
-31 18 -66 18 -42 0 -50 3 -60 25 -16 35 -63 35 -72 0 -4 -15 -18 -31 -34 -37
-15 -7 -37 -21 -49 -31 -36 -32 -50 -11 -43 63 5 50 2 66 -13 88 -37 52 -90
76 -144 65z m60 -75 c16 -12 16 -19 2 -91 -8 -42 -26 -100 -40 -128 -23 -44
-29 -50 -53 -47 -25 3 -27 7 -30 52 -6 90 50 226 93 226 6 0 19 -6 28 -12z"/>
<path d="M15041 6356 c-10 -12 -10 -26 -2 -66 19 -89 15 -218 -8 -287 -12 -34
-21 -74 -21 -88 0 -14 -6 -28 -12 -30 -24 -8 -993 -12 -1158 -5 -158 6 -166 6
-183 -13 -18 -20 -18 -21 7 -34 57 -30 251 -36 1211 -40 528 -2 987 -5 1020
-6 57 -2 60 -1 69 26 8 21 6 31 -5 43 -27 27 -194 37 -541 35 -270 -3 -328 -1
-328 11 1 7 9 38 20 68 14 39 19 82 20 151 0 106 -17 178 -53 223 -20 25 -24
26 -36 12z"/>
<path d="M10315 6348 c-8 -26 -25 -271 -25 -363 0 -64 -4 -96 -12 -102 -7 -4
-98 -8 -203 -9 -104 0 -244 -4 -310 -9 -66 -5 -145 -9 -175 -9 -60 -1 -76 -19
-45 -50 14 -14 46 -16 220 -16 112 0 210 -3 219 -6 22 -8 20 -24 -3 -24 -26 0
-44 -25 -36 -50 6 -19 12 -21 41 -15 31 5 34 4 34 -18 0 -16 -13 -33 -45 -55
-25 -18 -51 -43 -57 -57 -10 -22 -8 -29 17 -55 27 -29 33 -30 111 -30 78 0 84
2 104 27 18 23 19 28 6 41 -8 8 -30 18 -50 21 l-35 6 44 53 c25 30 45 63 45
73 0 27 -35 59 -65 59 -14 0 -25 4 -25 9 0 13 66 21 191 21 66 0 155 7 205 17
103 19 152 20 287 9 86 -8 99 -7 117 9 17 16 18 20 5 44 -13 26 -19 28 -133
40 -68 8 -144 11 -175 7 -31 -4 -61 -5 -66 -2 -5 4 3 21 19 38 16 18 36 52 45
77 14 41 14 47 -3 80 -21 44 -62 68 -133 78 l-54 8 -8 70 c-9 85 -12 95 -32
95 -9 0 -17 -6 -20 -12z m146 -248 c29 -16 23 -48 -15 -86 -34 -34 -59 -43
-71 -25 -3 5 4 35 16 65 21 57 33 65 70 46z"/>
<path d="M20163 6325 c-11 -8 -24 -27 -28 -42 -3 -16 -12 -35 -19 -43 -8 -9
-16 -59 -20 -129 -4 -74 -12 -121 -21 -134 -8 -12 -15 -37 -15 -57 -1 -37 -35
-116 -63 -144 -18 -18 -20 -44 -7 -86 l7 -25 12 30 c6 17 16 37 21 45 6 8 13
22 16 30 3 8 14 32 24 52 11 20 20 50 20 65 0 16 7 38 15 50 9 13 17 59 21
134 6 115 34 209 60 209 6 0 17 6 23 13 8 11 7 18 -7 30 -16 15 -21 15 -39 2z"/>
<path d="M20487 6210 c-4 -36 -9 -132 -13 -215 -3 -82 -10 -157 -15 -167 -17
-31 -10 -83 14 -105 31 -30 69 -20 115 30 20 22 45 48 55 59 18 19 62 24 72 8
8 -13 55 -13 55 0 0 15 -35 30 -70 30 -24 0 -33 6 -41 28 -6 15 -15 34 -20 42
-5 8 -12 23 -15 33 -7 20 -63 24 -82 5 -23 -23 -32 13 -33 142 -1 151 -13 208
-22 110z m122 -295 c21 -23 22 -27 9 -43 -8 -9 -28 -41 -44 -69 -28 -51 -45
-62 -70 -45 -18 11 2 119 29 153 27 35 45 36 76 4z"/>
<path d="M21733 6252 c-28 -4 -73 -56 -73 -85 0 -12 -7 -31 -15 -41 -8 -11
-15 -39 -15 -63 0 -36 4 -45 23 -52 26 -10 59 15 77 60 15 35 35 37 51 7 13
-24 38 -47 52 -48 12 0 7 34 -8 54 -8 11 -15 37 -15 58 0 25 -7 45 -21 59 -11
11 -23 28 -27 37 -4 10 -16 16 -29 14z m4 -50 c19 -12 0 -74 -31 -105 -15 -15
-28 -27 -30 -27 -11 0 -11 50 0 54 6 2 15 20 19 38 11 50 17 56 42 40z"/>
<path d="M14395 6233 c-32 -5 -65 -29 -65 -48 0 -7 8 -18 18 -26 24 -21 234
-11 257 12 20 20 10 48 -22 60 -24 9 -130 10 -188 2z"/>
<path d="M21960 6203 c-8 -3 -22 -11 -30 -18 -8 -7 -27 -15 -42 -19 -41 -10
-35 -37 17 -74 46 -32 116 -44 130 -22 7 12 -36 30 -71 30 -21 0 -24 5 -24 34
0 30 4 34 31 40 17 3 56 6 86 6 39 0 54 4 51 13 -5 13 -120 21 -148 10z"/>
<path d="M22740 6202 c-40 -18 -73 -49 -91 -84 -18 -35 -18 -40 -3 -63 27 -42
62 -53 118 -39 26 7 51 15 54 19 13 13 -24 24 -65 18 -75 -10 -96 33 -43 87
23 24 42 32 80 37 28 3 50 9 50 13 0 18 -68 26 -100 12z"/>
<path d="M1929 6123 c-9 -2 -21 -14 -27 -26 -15 -28 -32 -137 -32 -202 0 -59
-18 -98 -45 -103 -11 -2 -28 -11 -38 -20 -21 -19 -23 -17 -34 38 -15 76 -59
83 -145 23 -36 -24 -55 -72 -25 -60 105 39 114 36 97 -37 -15 -70 -16 -162 -1
-180 35 -42 83 -5 130 96 l37 80 37 -58 c40 -63 38 -72 -15 -100 -32 -17 -35
-34 -10 -57 24 -22 53 -21 91 1 29 16 32 16 58 0 108 -67 196 -85 233 -48 11
11 20 24 20 29 0 18 -33 35 -73 37 -56 3 -118 29 -140 59 -17 23 -17 26 0 51
12 18 18 53 21 113 4 78 2 88 -17 105 -12 11 -21 25 -21 32 0 8 -16 14 -42 16
l-43 3 -3 58 c-3 66 8 87 45 87 24 0 24 -2 19 -52 -8 -65 15 -102 55 -90 42
12 129 75 129 92 0 29 -27 45 -54 32 -22 -10 -26 -6 -56 39 -31 49 -32 49 -83
48 -29 -1 -59 -3 -68 -6z m61 -308 c15 -18 8 -88 -11 -111 -10 -13 -14 -12
-30 2 -21 19 -24 59 -9 98 11 29 31 33 50 11z"/>
<path d="M1675 6100 c-23 -26 -13 -37 52 -62 52 -20 98 -23 107 -9 15 24 -14
59 -60 75 -62 21 -77 20 -99 -4z"/>
<path d="M8000 6113 c-75 -5 -94 -16 -86 -53 3 -19 -1 -32 -15 -43 -23 -20
-24 -59 -4 -142 8 -33 14 -104 15 -157 0 -53 4 -108 10 -122 12 -31 45 -34 74
-7 12 10 47 26 79 35 53 16 58 19 55 43 -5 39 -29 50 -80 36 -37 -10 -45 -10
-55 4 -20 26 -15 61 10 78 13 8 56 19 96 24 80 10 101 22 101 57 0 35 -24 42
-93 27 -72 -15 -124 -19 -134 -10 -3 4 -10 28 -15 54 -17 94 -22 88 63 91 65
2 80 6 98 26 l22 24 -22 21 c-13 12 -30 20 -38 19 -9 -1 -45 -3 -81 -5z"/>
<path d="M4386 6080 c-15 -18 -27 -48 -31 -78 -4 -26 -11 -60 -16 -76 -14 -43
-11 -142 6 -225 24 -111 49 -151 90 -143 27 5 34 37 15 71 -17 33 -40 165 -40
233 0 79 16 162 39 201 14 25 14 29 1 37 -24 16 -37 12 -64 -20z"/>
<path d="M6970 6080 c-41 -15 -79 -35 -85 -45 -5 -10 -18 -27 -27 -37 -15 -15
-18 -37 -18 -128 0 -75 4 -112 13 -120 6 -5 23 -19 37 -29 21 -16 23 -22 13
-42 -6 -13 -18 -44 -26 -69 -8 -25 -17 -53 -21 -62 -9 -19 36 -54 54 -43 20
12 50 84 58 137 l7 53 77 0 c65 0 80 3 100 22 19 18 27 20 36 11 7 -7 12 -17
12 -22 1 -23 39 -56 64 -56 20 0 30 9 46 41 24 46 20 70 -16 98 -17 14 -26 32
-30 67 -8 77 -12 89 -35 118 -28 35 -49 19 -49 -38 0 -25 -8 -51 -20 -66 -11
-14 -20 -31 -20 -38 0 -7 -7 -15 -16 -19 -9 -3 -20 -15 -24 -27 -8 -20 -9 -19
-9 5 -1 14 2 29 7 33 4 4 7 31 8 59 0 29 4 82 9 118 14 116 -10 129 -145 79z
m66 -75 c3 -8 0 -38 -6 -67 -11 -45 -14 -49 -21 -30 -19 51 -63 36 -72 -26 -7
-52 -26 -97 -36 -86 -5 5 -12 48 -15 96 -7 84 -6 87 16 99 52 28 126 36 134
14z m-19 -167 c-3 -8 -6 -5 -6 6 -1 11 2 17 5 13 3 -3 4 -12 1 -19z"/>
<path d="M7353 6095 c-5 -8 -5 -45 -1 -82 31 -288 32 -398 6 -507 -12 -46 -11
-49 11 -67 27 -22 42 -15 69 35 24 43 23 375 -1 451 -8 28 -19 77 -24 109 -6
48 -12 60 -30 67 -16 6 -25 4 -30 -6z"/>
<path d="M8290 6064 c-35 -55 -46 -170 -33 -330 9 -110 15 -139 33 -164 17
-24 27 -29 43 -24 32 9 38 17 44 63 5 34 1 48 -18 74 -22 29 -24 43 -27 166
-3 104 0 144 13 184 13 41 14 51 3 58 -23 15 -36 10 -58 -27z"/>
<path d="M12402 6087 c-22 -27 -42 -172 -42 -306 0 -133 1 -138 25 -161 20
-19 27 -21 39 -11 9 7 18 21 21 32 4 13 16 19 35 19 21 0 37 10 60 38 l31 37
32 -36 c39 -44 70 -54 92 -29 14 15 15 22 4 42 -6 13 -15 25 -18 28 -17 13
-51 70 -51 84 0 22 26 63 68 108 20 21 32 43 29 51 -8 22 -53 9 -87 -25 -17
-16 -34 -26 -40 -23 -6 4 -22 29 -35 56 -26 51 -39 60 -49 33 -10 -26 -7 -65
10 -125 l16 -57 -43 -66 c-29 -43 -47 -62 -54 -55 -10 10 -10 199 1 301 5 49
3 58 -14 67 -15 8 -23 7 -30 -2z"/>
<path d="M12814 6086 c-4 -9 1 -44 9 -79 9 -34 14 -78 13 -97 -5 -60 -26 -169
-42 -216 -20 -60 -16 -98 13 -102 82 -12 133 356 65 472 -20 35 -49 46 -58 22z"/>
<path d="M5425 6078 c-3 -12 -8 -78 -22 -323 l-6 -111 32 -27 c62 -52 104 -46
187 27 48 41 62 87 44 141 -14 42 -85 105 -117 105 -53 0 -63 15 -63 91 0 39
-5 79 -10 90 -12 21 -39 26 -45 7z m138 -296 c25 -22 21 -44 -12 -76 -44 -42
-65 -30 -56 32 11 73 24 82 68 44z"/>
<path d="M5787 6084 c-3 -4 -2 -15 4 -26 15 -28 6 -281 -13 -353 -9 -33 -25
-85 -37 -115 -25 -66 -27 -96 -5 -108 44 -24 78 25 124 178 19 61 23 100 24
210 0 126 -1 138 -24 177 -23 40 -54 55 -73 37z"/>
<path d="M12054 6047 l-42 -42 9 -90 c5 -49 8 -134 7 -187 -2 -116 5 -128 72
-128 69 0 115 39 166 138 51 100 50 172 -1 242 -28 38 -130 110 -155 110 -8 0
-34 -19 -56 -43z m137 -95 c40 -45 45 -75 23 -125 -28 -65 -63 -117 -78 -117
-18 0 -39 27 -31 40 3 5 1 62 -5 126 -14 142 -12 152 31 127 17 -10 44 -33 60
-51z"/>
<path d="M8726 6052 c-4 -11 0 -35 9 -55 11 -27 15 -74 15 -180 0 -79 -3 -146
-6 -149 -14 -15 -43 9 -86 73 -27 40 -48 81 -48 96 0 15 14 50 30 80 36 63 37
79 8 89 -17 5 -28 -1 -52 -28 -17 -19 -36 -42 -41 -52 -9 -16 -16 -13 -60 33
-47 48 -77 62 -89 42 -8 -12 6 -44 44 -101 63 -96 61 -88 33 -171 -37 -107
-43 -147 -26 -164 26 -26 56 -3 78 60 20 58 53 93 62 67 3 -7 16 -26 30 -43
21 -25 31 -29 54 -24 46 10 47 -17 5 -99 -42 -84 -44 -94 -13 -105 30 -12 62
18 94 89 63 139 77 277 44 420 -27 112 -69 173 -85 122z"/>
<path d="M4646 6024 c-45 -31 -85 -112 -93 -191 -7 -61 8 -105 45 -133 28 -23
87 -27 99 -7 4 8 20 22 35 31 l27 18 15 -36 c19 -47 54 -62 78 -35 15 18 16
24 2 67 -29 90 -36 127 -30 174 7 66 -8 101 -50 121 -49 24 -83 21 -128 -9z
m81 -71 c-3 -10 -13 -42 -21 -72 -16 -58 -47 -98 -65 -87 -15 10 -14 34 5 92
17 51 45 84 71 84 10 0 13 -6 10 -17z"/>
<path d="M13235 6039 c-100 -17 -110 -23 -113 -57 -2 -18 0 -32 5 -33 4 0 57
-1 118 -2 l110 -1 9 26 c7 20 5 33 -8 52 -18 28 -34 30 -121 15z"/>
<path d="M2618 6023 c-4 -22 15 -97 43 -172 12 -32 22 -82 23 -116 1 -58 2
-60 29 -63 15 -2 42 -19 61 -38 35 -36 54 -42 74 -22 19 19 15 35 -23 91 -38
57 -42 73 -21 102 30 44 86 159 86 177 0 15 -5 18 -22 13 -26 -7 -88 -72 -88
-91 0 -13 -30 -34 -48 -34 -5 0 -17 24 -27 53 -27 84 -46 117 -65 117 -10 0
-20 -8 -22 -17z"/>
<path d="M20940 6008 c-7 -18 -19 -47 -26 -65 -32 -73 0 -162 54 -148 14 3 31
12 36 20 6 7 24 15 40 17 33 3 39 -9 51 -94 4 -34 12 -51 27 -59 34 -18 42 3
20 52 -11 24 -20 59 -20 77 -1 40 -32 96 -55 100 -9 2 -30 -11 -46 -28 -31
-34 -57 -37 -75 -8 -8 13 -8 23 1 36 6 11 14 40 18 66 4 26 14 50 24 56 13 8
11 9 -10 10 -21 0 -29 -7 -39 -32z"/>
<path d="M3819 5994 c-10 -12 -12 -50 -10 -147 2 -118 5 -138 28 -185 16 -34
34 -57 50 -63 82 -31 155 15 209 131 46 100 45 221 -3 243 -36 16 -53 -11 -53
-85 0 -126 -83 -250 -130 -193 -7 8 -19 72 -27 142 -18 167 -31 197 -64 157z"/>
<path d="M19567 6003 c-13 -12 -7 -52 10 -69 15 -15 17 -35 14 -153 -1 -75 -6
-140 -11 -146 -12 -16 -22 -103 -12 -109 5 -3 17 3 26 13 10 10 37 22 61 25
24 4 48 13 55 21 6 7 22 16 35 19 19 5 25 13 25 34 0 15 -4 22 -8 16 -12 -17
-100 -56 -119 -52 -16 3 -18 14 -15 88 1 46 7 89 12 95 13 15 60 7 67 -11 3
-8 19 -14 37 -14 l31 1 -39 34 c-22 19 -50 35 -62 35 -28 0 -54 35 -54 72 0
18 -5 28 -15 28 -10 0 -15 10 -15 28 0 31 -13 56 -23 45z"/>
<path d="M3221 5924 c-44 -40 -52 -51 -49 -78 4 -43 31 -45 67 -6 23 26 32 30
48 22 10 -6 25 -22 32 -36 17 -32 63 -51 114 -47 10 0 40 22 68 48 42 39 50
52 47 77 -5 47 -43 47 -88 1 -18 -19 -41 -35 -50 -35 -18 0 -50 30 -50 46 0
14 -55 54 -74 54 -7 0 -37 -21 -65 -46z"/>
<path d="M19183 5953 c-12 -30 -9 -401 3 -413 6 -6 18 -8 27 -5 14 6 14 10 0
48 -12 34 -14 73 -9 209 4 106 2 169 -4 173 -6 4 -13 -2 -17 -12z"/>
<path d="M9110 5918 c-11 -12 -20 -25 -20 -29 0 -19 36 -29 127 -35 96 -7 101
-6 112 15 10 18 8 25 -13 46 -23 22 -33 25 -105 25 -70 0 -83 -3 -101 -22z"/>
<path d="M19444 5876 c-6 -26 -43 -56 -68 -56 -8 0 -16 10 -18 22 -2 12 -9 23
-15 26 -19 6 -16 -35 3 -46 25 -14 22 -77 -4 -105 -19 -20 -20 -26 -8 -42 13
-18 14 -17 30 8 17 26 18 26 52 10 36 -18 58 -11 31 10 -9 6 -17 26 -18 42 -2
35 16 85 31 85 5 0 10 6 10 14 0 7 7 19 15 26 22 18 18 30 -10 30 -18 0 -26
-7 -31 -24z"/>
<path d="M13233 5870 c-160 -21 -192 -40 -143 -85 16 -14 30 -16 77 -11 32 3
97 10 144 15 92 9 123 20 133 47 9 24 -22 54 -53 53 -14 -1 -86 -9 -158 -19z"/>
<path d="M19300 5880 c0 -5 5 -10 10 -10 6 0 10 5 10 10 0 6 -4 10 -10 10 -5
0 -10 -4 -10 -10z"/>
<path d="M20778 5843 c7 -3 16 -2 19 1 4 3 -2 6 -13 5 -11 0 -14 -3 -6 -6z"/>
<path d="M9089 5762 c-25 -22 -30 -33 -24 -51 5 -18 11 -21 28 -15 12 4 64 8
116 10 52 2 101 6 108 8 7 3 13 18 13 35 0 36 -15 41 -127 41 -77 0 -85 -2
-114 -28z"/>
<path d="M4970 5724 c-6 -14 -8 -35 -4 -48 3 -12 -2 -42 -10 -67 -9 -24 -16
-54 -16 -67 0 -20 4 -23 27 -20 22 2 33 13 50 48 27 55 29 102 6 141 -23 39
-42 44 -53 13z"/>
<path d="M21450 5675 c0 -51 3 -65 15 -65 8 0 15 8 15 18 1 9 3 38 5 65 4 42
2 47 -15 47 -18 0 -20 -7 -20 -65z"/>
<path d="M14420 5712 c-58 -18 -22 -62 50 -62 17 0 33 -7 39 -17 7 -14 0 -28
-40 -70 -27 -28 -49 -59 -49 -67 0 -23 37 -56 63 -56 12 -1 57 -3 100 -6 88
-6 137 7 137 37 0 28 -39 49 -92 49 -56 0 -64 9 -43 49 21 42 19 81 -8 115
-20 25 -32 30 -78 32 -30 2 -65 0 -79 -4z"/>
<path d="M20020 5628 c1 -18 0 -296 -2 -617 -2 -419 0 -585 8 -588 7 -2 13 24
18 73 8 99 8 1057 0 1118 -8 53 -24 62 -24 14z"/>
<path d="M14148 5634 c-13 -13 -14 -22 -5 -47 7 -22 7 -56 -2 -120 -11 -81
-10 -92 5 -108 9 -11 23 -19 29 -19 21 0 48 81 53 162 4 67 2 81 -18 112 -24
40 -38 44 -62 20z"/>
<path d="M6517 5634 c-4 -4 -7 -19 -7 -34 0 -15 -11 -48 -25 -74 -27 -51 -31
-71 -15 -81 19 -12 59 24 80 72 26 60 24 117 -5 121 -12 2 -24 0 -28 -4z"/>
<path d="M11437 5593 c-3 -5 -5 -27 -4 -50 0 -31 -8 -51 -30 -80 -24 -30 -29
-43 -22 -60 17 -45 60 -21 107 60 27 47 28 91 2 117 -20 20 -45 26 -53 13z"/>
<path d="M4600 5392 c0 -13 24 -22 59 -22 15 0 36 -7 47 -15 14 -11 51 -14
154 -15 74 0 187 -5 249 -11 137 -13 266 1 306 33 14 11 23 24 20 29 -10 15
-49 10 -75 -8 -22 -16 -57 -18 -333 -18 -250 0 -310 3 -316 14 -11 16 -111 28
-111 13z"/>
<path d="M13400 5316 c0 -14 48 -28 63 -19 12 7 -3 19 -35 27 -21 5 -28 3 -28
-8z"/>
<path d="M7844 5297 c-4 -13 2 -27 23 -47 l29 -28 205 -4 c162 -2 210 -6 223
-18 14 -10 62 -16 195 -20 97 -4 189 -12 204 -18 19 -8 105 -12 250 -12 122 0
256 -6 297 -12 90 -13 86 -13 325 1 105 7 285 16 400 21 451 21 575 36 575 70
0 15 -30 19 -87 10 -156 -24 -224 -30 -423 -35 -118 -4 -273 -11 -345 -16
-273 -20 -394 -22 -468 -8 -50 10 -130 13 -262 11 -109 -1 -213 2 -245 8 -30
6 -120 13 -199 16 -80 3 -169 12 -200 20 -39 10 -112 14 -247 14 l-193 0 -25
32 c-22 28 -26 30 -32 15z"/>
<path d="M13480 5280 c0 -9 21 -16 67 -22 29 -4 30 15 1 24 -36 10 -68 9 -68
-2z"/>
<path d="M15278 5285 c-3 -3 -106 -10 -229 -15 -123 -5 -323 -16 -444 -25
-154 -11 -315 -15 -540 -13 -176 2 -322 -1 -325 -5 -3 -5 32 -10 77 -11 52 -1
87 -7 98 -16 22 -18 497 -18 660 0 154 17 537 32 880 34 160 1 310 6 335 10
56 10 83 24 74 38 -5 8 -45 8 -138 2 -137 -9 -384 -9 -421 0 -12 3 -24 3 -27
1z"/>
<path d="M13582 5238 c5 -14 107 -28 114 -16 5 8 -60 28 -94 28 -15 0 -22 -5
-20 -12z"/>
<path d="M22040 4988 c-30 -11 -57 -21 -59 -23 -2 -2 12 -10 31 -18 l35 -15 1
-73 c0 -44 -6 -92 -15 -117 -12 -32 -13 -46 -5 -54 7 -7 12 -33 12 -58 0 -25
7 -55 14 -66 14 -18 15 -18 26 13 7 18 20 35 31 38 18 6 17 9 -12 35 -42 40
-36 65 16 65 l40 0 0 -46 c0 -37 5 -51 25 -68 23 -19 23 -22 8 -31 -9 -6 -24
-17 -33 -26 -9 -10 -29 -15 -53 -13 -21 2 -42 0 -47 -3 -6 -3 -34 -9 -62 -13
-44 -6 -53 -10 -53 -27 0 -15 4 -18 18 -13 9 3 58 11 107 16 50 6 94 15 100
20 12 12 52 12 60 -1 3 -6 -5 -14 -19 -20 -14 -5 -26 -14 -26 -19 0 -12 -22
-19 -97 -31 -59 -10 -93 -34 -73 -54 5 -5 64 -9 132 -8 116 1 123 3 147 27 19
18 22 28 14 36 -8 8 -19 5 -41 -11 -29 -21 -62 -22 -62 -2 0 5 18 22 41 38 57
39 82 73 68 90 -7 8 -21 11 -35 8 -45 -11 -49 3 -49 171 0 150 1 157 23 175
28 23 27 28 -7 69 -29 32 -29 33 -40 12 -15 -27 -55 -27 -81 -1 -11 11 -21 20
-22 19 -2 0 -28 -10 -58 -21z m131 -69 c27 -19 29 -24 29 -94 0 -82 -5 -88
-67 -78 -54 8 -63 19 -62 72 1 66 12 94 39 108 31 16 27 17 61 -8z"/>
<path d="M20725 4786 c-26 -19 -13 -51 15 -36 15 8 26 7 43 -1 30 -16 37 -28
37 -69 0 -37 -61 -144 -88 -155 -39 -15 -84 59 -69 115 5 20 -15 45 -26 33 -4
-3 -7 -29 -7 -56 0 -121 81 -174 152 -99 71 75 90 186 42 249 -27 36 -65 44
-99 19z"/>
<path d="M11676 4742 c-2 -4 -8 -37 -12 -72 -4 -36 -13 -82 -20 -103 -7 -20
-16 -71 -20 -112 -4 -42 -11 -78 -15 -81 -5 -3 -9 -18 -9 -33 0 -60 105 -66
173 -10 38 31 67 99 67 155 0 68 -45 124 -101 124 -24 0 -39 36 -39 96 0 40
-11 57 -24 36z m83 -213 c24 -22 22 -40 -8 -94 -28 -49 -46 -39 -49 28 -3 54
8 87 27 87 4 0 17 -9 30 -21z"/>
<path d="M16692 4598 c-1 -62 -6 -144 -11 -181 -5 -38 -7 -76 -4 -85 10 -28
45 -62 65 -62 44 0 135 66 177 127 28 42 29 111 1 141 -24 25 -96 31 -130 10
-28 -17 -40 2 -40 65 0 49 -22 97 -45 97 -9 0 -12 -31 -13 -112z m174 -114 c6
-22 -1 -33 -40 -72 -39 -38 -51 -44 -64 -35 -16 10 -18 32 -7 81 3 13 19 28
38 36 49 22 66 19 73 -10z"/>
<path d="M6610 4679 l-25 -21 2 -257 c3 -224 -5 -346 -23 -413 -9 -29 -34 -48
-65 -48 -25 0 -29 -4 -29 -28 0 -33 36 -72 66 -72 20 0 74 48 74 66 0 5 8 23
17 39 16 26 18 68 20 354 1 200 5 327 12 334 16 16 103 10 114 -8 13 -23 29
-8 16 16 -29 56 -132 77 -179 38z"/>
<path d="M13381 4666 c-11 -13 -25 -97 -40 -244 -4 -46 -12 -77 -22 -83 -15
-9 -112 -12 -354 -10 -162 2 -193 -5 -150 -33 14 -9 30 -14 35 -11 16 10 60
-7 71 -26 7 -14 5 -47 -5 -112 -8 -50 -20 -137 -26 -191 -11 -93 -11 -101 7
-113 12 -9 32 -12 58 -8 34 5 51 18 111 81 l70 75 110 -3 109 -3 3 -65 c3 -89
9 -107 35 -116 38 -13 61 -5 98 36 40 44 44 43 79 -23 20 -37 37 -43 65 -23
19 14 19 15 1 65 -15 42 -18 73 -15 164 l4 112 -25 0 c-16 0 -28 -8 -36 -25
-7 -14 -23 -48 -37 -77 -23 -49 -69 -113 -81 -113 -20 0 12 154 40 195 20 28
18 65 -3 65 -25 0 -36 -10 -60 -50 -30 -48 -48 -57 -144 -70 -46 -6 -87 -13
-90 -16 -19 -11 -58 17 -64 46 -8 37 -55 70 -101 70 -34 0 -44 13 -44 60 0 46
20 54 116 47 48 -3 159 -2 248 4 88 6 220 12 291 13 80 2 139 7 153 15 21 11
22 14 9 34 -14 21 -20 22 -133 17 -66 -3 -150 -5 -189 -5 l-70 0 1 60 c1 33 6
104 13 158 6 54 9 102 6 107 -9 14 -31 12 -44 -4z m-331 -581 c28 -34 -36
-156 -74 -142 -19 8 -22 83 -5 121 16 35 58 46 79 21z"/>
<path d="M11428 4643 c-39 -41 -56 -137 -62 -353 -5 -172 -12 -221 -47 -352
-5 -21 -25 -58 -44 -83 -37 -48 -44 -79 -20 -89 32 -12 70 25 113 109 34 68
62 256 63 427 1 201 11 277 38 299 13 11 34 19 47 19 l24 0 -22 25 c-28 32
-58 32 -90 -2z"/>
<path d="M16024 4660 c-67 -27 -130 -215 -110 -325 15 -79 78 -97 156 -45 56
37 66 37 84 1 17 -32 50 -45 66 -26 8 9 6 25 -6 56 -24 64 -28 129 -10 181 8
25 12 55 9 68 -5 20 -10 22 -49 16 -41 -5 -43 -4 -49 24 -4 19 -17 36 -35 45
-16 8 -30 15 -32 14 -2 0 -13 -4 -24 -9z m53 -82 c6 -13 16 -47 24 -76 12 -48
11 -56 -6 -85 -32 -56 -72 -90 -99 -83 -33 8 -39 51 -17 134 19 72 53 132 75
132 7 0 17 -10 23 -22z"/>
<path d="M22575 4646 c-11 -6 -25 -19 -32 -28 -23 -29 -56 -26 -77 7 l-19 30
-12 -30 c-25 -63 -26 -84 -5 -95 17 -9 23 -7 37 18 16 28 17 29 45 13 19 -11
26 -22 22 -33 -8 -26 14 -95 39 -122 50 -54 174 -74 236 -38 32 18 40 31 19
33 -7 1 -52 2 -100 3 -84 1 -89 2 -119 32 -34 35 -48 99 -31 144 8 22 15 25
62 25 50 0 54 2 61 28 6 23 4 27 -15 27 -12 0 -27 -5 -34 -12 -8 -8 -18 -9
-34 -1 -16 7 -29 7 -43 -1z"/>
<path d="M22739 4647 c8 -10 7 -22 -1 -45 -10 -25 -18 -32 -39 -32 -27 0 -54
-21 -42 -33 23 -23 120 20 144 64 17 33 -9 58 -60 59 -10 0 -11 -3 -2 -13z"/>
<path d="M7862 4601 c-17 -17 -32 -35 -32 -40 0 -6 -13 -11 -30 -11 -16 0 -30
-4 -30 -8 0 -5 27 -8 60 -7 48 1 65 6 81 24 l21 22 25 -23 c14 -13 36 -46 49
-74 20 -43 24 -66 24 -146 0 -146 -34 -208 -115 -208 -52 0 -63 98 -17 164 15
23 33 47 40 55 15 16 12 53 -4 58 -6 2 -25 -8 -42 -22 -16 -14 -33 -25 -36
-25 -3 0 -15 18 -26 40 -12 23 -32 46 -46 52 -19 9 -24 17 -20 34 15 60 -52
16 -117 -76 -32 -44 -32 -46 -31 -160 1 -120 9 -153 59 -224 36 -52 98 -106
121 -106 67 0 155 72 215 176 17 30 36 54 43 54 17 0 46 33 46 52 0 9 -6 18
-14 21 -10 4 -15 35 -18 119 -6 132 -27 191 -90 251 -48 45 -73 46 -116 8z
m-92 -240 c5 -11 10 -41 10 -67 0 -43 -4 -51 -49 -95 -74 -75 -91 -65 -91 59
0 93 24 129 49 75 l13 -28 19 38 c22 42 34 46 49 18z m58 -261 c13 -19 34 -39
48 -43 41 -14 32 -53 -18 -77 -58 -28 -70 -26 -117 21 -43 44 -47 72 -13 94 8
6 22 18 31 27 23 24 42 18 69 -22z"/>
<path d="M4457 4598 c-18 -13 -15 -48 4 -48 5 0 -1 -10 -12 -21 -21 -21 -22
-26 -15 -233 4 -116 10 -215 13 -220 6 -9 26 -7 195 18 108 16 118 19 118 46
0 40 -24 42 -194 14 -46 -8 -56 3 -56 64 l0 42 48 -1 c26 0 56 -4 67 -8 24
-10 45 4 45 30 0 29 -39 49 -95 49 -60 0 -75 12 -75 58 0 18 -5 53 -11 77 -18
72 -16 74 75 58 72 -12 81 -12 98 4 27 25 6 40 -77 57 -39 8 -79 17 -90 21
-11 3 -28 0 -38 -7z"/>
<path d="M8359 4590 c-25 -15 -47 -88 -53 -182 -8 -115 -9 -118 -60 -118 -31
0 -48 -6 -64 -23 -35 -37 -28 -47 31 -47 76 0 80 -5 68 -81 -6 -35 -12 -84
-13 -109 -3 -43 -5 -45 -35 -48 -20 -2 -37 -11 -43 -23 -15 -28 -2 -42 31 -35
24 5 30 2 35 -19 9 -35 -16 -78 -59 -98 -20 -9 -37 -20 -37 -23 0 -4 9 -22 21
-40 40 -65 94 -34 124 71 10 33 21 70 26 83 l9 22 272 0 c221 0 283 3 330 16
54 16 60 16 76 0 35 -31 59 -15 42 28 -5 15 -20 30 -32 35 -21 8 -20 9 17 20
22 6 50 11 63 11 30 0 36 19 19 59 -12 29 -12 38 -1 60 33 63 8 183 -57 270
-25 34 -27 35 -47 22 -11 -7 -7 -21 18 -69 26 -50 32 -73 32 -125 0 -37 -6
-79 -15 -98 -9 -19 -18 -44 -22 -57 -12 -40 -40 -47 -245 -54 -107 -4 -250
-10 -316 -14 -115 -6 -122 -5 -128 13 -8 24 9 152 22 165 5 5 41 11 81 14 77
5 75 7 86 -56 3 -19 17 -47 30 -63 21 -24 27 -26 44 -15 27 16 31 39 12 61
-12 14 -14 38 -12 103 1 47 6 98 11 114 6 21 4 32 -6 41 -21 18 -39 5 -52 -39
-16 -52 -32 -64 -105 -79 -88 -18 -91 -14 -82 117 3 58 11 111 17 117 16 19
52 16 82 -8 15 -11 33 -18 42 -15 41 16 -60 106 -117 106 -13 0 -31 -5 -40
-10z m511 -615 c26 -17 -52 -24 -265 -24 -196 -1 -235 5 -220 29 9 14 462 10
485 -5z"/>
<path d="M14271 4571 c-14 -19 -27 -58 -33 -100 -13 -87 -18 -95 -65 -94 -74
3 -97 -29 -139 -195 -29 -113 -30 -132 -3 -166 27 -34 90 -37 117 -5 46 55 81
54 135 -4 24 -25 33 -29 65 -23 20 3 49 15 65 27 l29 21 38 -21 c45 -25 108
-28 117 -6 6 17 -23 55 -43 55 -7 0 -21 15 -32 33 -24 39 -20 127 8 185 22 44
10 67 -28 57 -16 -4 -31 0 -43 11 -10 9 -35 17 -56 18 -52 1 -57 -26 -10 -54
40 -24 49 -52 38 -122 -14 -84 -73 -137 -130 -116 -23 8 -23 9 -18 156 5 132
11 184 32 302 4 23 2 41 -8 54 -13 18 -15 17 -36 -13z m-110 -308 c14 -38 3
-99 -27 -151 -48 -81 -70 -25 -34 86 12 37 23 73 25 80 7 21 25 13 36 -15z"/>
<path d="M16462 4576 c-8 -19 -23 -27 -69 -36 -76 -16 -92 -25 -86 -49 4 -16
14 -19 71 -17 l67 1 -2 -35 c0 -19 -4 -55 -8 -80 -6 -39 -4 -47 14 -58 40 -24
57 -2 64 83 6 87 15 103 60 107 28 3 32 7 32 33 0 27 -3 30 -37 33 -26 2 -39
9 -43 23 -9 28 -49 25 -63 -5z"/>
<path d="M4840 4533 c-21 -27 -22 -34 -17 -193 6 -189 23 -260 63 -260 26 0
40 30 26 57 -19 37 -35 222 -28 322 5 84 4 101 -8 101 -8 0 -24 -12 -36 -27z"/>
<path d="M5327 4553 c-12 -11 -8 -33 12 -61 44 -63 57 -190 41 -416 0 -11 5
-26 13 -34 13 -12 18 -10 40 14 68 73 37 335 -57 490 -4 7 -44 13 -49 7z"/>
<path d="M7031 4532 c-14 -20 -34 -33 -56 -38 -65 -12 -65 -48 0 -56 28 -3 30
-6 36 -53 4 -28 14 -66 24 -85 l18 -34 19 23 c11 14 16 32 13 42 -10 30 -9 79
1 88 5 5 30 12 57 15 40 6 48 5 54 -11 14 -37 47 -73 69 -73 12 0 38 17 59 38
40 42 74 46 98 11 8 -10 32 -21 54 -25 34 -5 45 -2 62 15 12 12 21 30 21 41 0
33 -44 94 -83 115 -32 17 -42 18 -81 7 -30 -8 -54 -8 -77 -2 -62 18 -79 13
-95 -26 l-15 -37 -57 7 c-54 6 -63 11 -88 52 -9 16 -12 14 -33 -14z m256 -74
c-3 -8 -6 -5 -6 6 -1 11 2 17 5 13 3 -3 4 -12 1 -19z"/>
<path d="M9637 4545 c-9 -9 -21 -34 -27 -55 -10 -39 -11 -39 -56 -38 -34 0
-51 -5 -70 -23 -58 -54 -85 -259 -44 -326 27 -44 60 -44 107 2 20 19 44 35 54
35 27 0 32 16 40 115 4 49 12 134 19 188 14 105 8 133 -23 102z m-73 -180 c8
-23 -3 -74 -31 -134 -19 -41 -27 -51 -36 -42 -18 18 -14 134 6 165 19 29 52
34 61 11z"/>
<path d="M21552 4548 c-5 -7 -12 -44 -15 -83 -3 -38 -8 -82 -12 -97 -5 -21 -4
-28 6 -28 36 1 44 19 48 111 3 90 -6 122 -27 97z"/>
<path d="M795 4538 c-34 -15 -113 -192 -101 -223 9 -24 54 -18 61 8 4 12 16
46 28 75 19 48 23 52 54 52 19 0 43 -5 54 -10 23 -13 26 -58 4 -66 -8 -3 -28
-28 -45 -55 -17 -28 -38 -53 -48 -56 -28 -10 -41 -24 -36 -38 6 -15 52 -7 103
20 19 9 60 20 92 22 52 5 58 4 69 -18 13 -23 33 -265 24 -281 -7 -11 -65 33
-74 57 -4 12 -2 28 7 42 11 17 12 26 3 43 -6 11 -8 25 -5 31 11 17 -4 59 -22
59 -26 0 -83 -20 -140 -49 -45 -22 -53 -30 -53 -53 0 -23 4 -28 24 -28 35 0
43 -20 16 -40 -32 -24 -20 -60 20 -60 16 0 32 -5 36 -11 4 -6 20 -8 39 -5 28
6 36 2 56 -25 65 -84 70 -89 104 -89 41 0 65 29 65 79 0 43 -18 232 -30 321
-10 72 -25 90 -75 90 -43 0 -53 14 -47 69 4 43 1 50 -23 69 -17 14 -42 22 -65
22 -31 0 -42 5 -57 29 -15 23 -22 27 -38 19z"/>
<path d="M3475 4538 c-11 -6 -29 -19 -40 -28 -11 -10 -38 -20 -59 -23 -57 -9
-91 -47 -112 -124 -17 -61 -17 -69 0 -158 30 -156 92 -242 181 -253 117 -13
245 128 245 269 0 79 -50 207 -104 267 -33 38 -88 62 -111 50z m63 -111 c12
-11 22 -25 22 -30 0 -6 6 -18 14 -26 17 -20 46 -119 46 -159 0 -31 -29 -105
-52 -132 -7 -9 -27 -25 -44 -37 -46 -33 -54 -17 -54 106 0 110 -9 163 -34 196
-11 15 -18 17 -26 9 -8 -8 -9 -46 -2 -140 9 -128 5 -154 -23 -154 -7 0 -23 28
-36 63 -19 50 -24 81 -24 162 0 90 2 103 23 130 21 26 32 31 85 35 70 6 73 5
105 -23z"/>
<path d="M1802 4496 c-26 -13 -41 -27 -40 -36 4 -21 59 -24 103 -6 29 12 36
20 33 38 -4 30 -40 32 -96 4z"/>
<path d="M2180 4488 c-43 -6 -72 -16 -87 -30 -29 -27 -29 -32 3 -47 22 -9 29
-8 51 9 18 14 41 20 74 20 43 0 49 -3 49 -20 0 -21 -26 -80 -36 -80 -3 0 -19
7 -36 16 -59 31 -86 34 -91 13 -4 -14 3 -23 21 -33 15 -8 37 -25 49 -38 22
-23 22 -23 3 -63 -10 -22 -33 -55 -50 -74 -42 -47 -39 -85 7 -89 17 -2 37 -10
43 -17 10 -12 7 -17 -16 -25 -113 -42 -134 -54 -134 -77 0 -28 29 -31 85 -7
29 12 44 13 61 5 22 -10 24 -16 26 -132 3 -102 6 -124 20 -133 9 -5 21 -7 25
-2 4 4 10 71 13 149 l5 140 30 17 c35 19 43 45 21 68 -8 10 -28 37 -45 62 -23
34 -27 48 -20 63 10 17 12 17 32 3 75 -55 98 -68 112 -62 25 9 31 38 10 50
-10 6 -40 31 -67 55 -41 37 -46 46 -37 63 17 32 48 131 49 155 0 12 -10 29
-22 37 -25 18 -50 18 -148 4z"/>
<path d="M5006 4484 c-8 -21 1 -58 31 -122 l25 -54 -21 -64 c-27 -82 -26 -92
3 -100 32 -8 43 0 51 36 9 42 40 39 79 -7 27 -30 36 -35 59 -29 15 3 27 13 27
20 0 8 -25 39 -55 69 -30 30 -56 61 -56 68 -4 48 19 100 63 141 33 31 30 48
-11 48 -27 0 -67 -33 -88 -72 -8 -16 -11 -17 -31 -2 -12 8 -29 31 -37 50 -15
37 -29 43 -39 18z"/>
<path d="M1335 4477 c-16 -7 -45 -18 -62 -26 -49 -19 -40 -31 22 -31 67 0 77
-15 43 -60 -17 -23 -29 -30 -46 -27 -39 8 -59 -21 -71 -103 -11 -83 -3 -100
36 -75 35 23 60 19 66 -11 4 -23 -1 -29 -48 -50 -65 -30 -81 -47 -61 -63 8 -7
27 -11 43 -10 66 5 63 11 63 -125 0 -98 3 -126 15 -136 13 -10 19 -10 35 5 18
16 20 31 20 144 0 69 4 131 8 137 4 5 22 16 40 23 23 10 32 20 32 37 0 13 -6
24 -13 24 -7 0 -22 7 -34 15 l-22 15 25 25 c13 13 24 30 24 38 0 20 -27 40
-45 33 -8 -3 -25 -2 -37 3 -14 5 -30 4 -40 -3 -22 -13 -41 3 -32 28 4 11 12
15 23 10 31 -12 38 -9 78 41 45 57 57 93 43 129 -8 21 -16 26 -42 25 -18 0
-46 -6 -63 -12z"/>
<path d="M5919 4470 c-44 -7 -89 -28 -89 -40 0 -4 6 -13 13 -22 10 -14 29 -15
131 -9 100 5 121 9 130 24 9 15 7 22 -13 38 -25 20 -85 24 -172 9z"/>
<path d="M10735 4454 c-11 -3 -30 -7 -42 -10 -18 -3 -23 -11 -23 -33 l0 -29
93 -4 c50 -2 102 -1 115 4 27 9 31 54 5 62 -30 8 -127 14 -148 10z"/>
<path d="M12136 4425 c-34 -37 -55 -102 -41 -125 9 -15 35 7 35 29 1 19 44 71
59 71 6 0 20 -18 32 -41 18 -35 19 -45 8 -70 -10 -25 -39 -69 -78 -115 -17
-20 -23 -55 -11 -68 20 -25 80 1 80 35 0 15 26 39 44 39 2 0 12 -22 21 -49 24
-73 64 -104 113 -87 50 17 46 71 -5 71 -23 0 -32 8 -51 47 -13 26 -26 65 -29
86 -4 33 -1 44 25 74 28 32 30 36 15 51 -13 12 -20 13 -35 4 -16 -10 -22 -8
-38 13 -10 14 -25 33 -32 42 -7 10 -28 21 -46 24 -28 6 -36 2 -66 -31z"/>
<path d="M8872 4419 c-12 -19 -20 -21 -62 -15 -27 4 -51 3 -54 -2 -3 -5 4 -23
15 -40 10 -18 19 -40 19 -49 0 -9 -21 -54 -46 -101 -43 -78 -45 -85 -30 -100
22 -23 44 -8 76 51 14 26 29 47 34 47 5 0 28 -20 50 -45 45 -49 71 -57 81 -25
5 15 -6 38 -39 82 -25 34 -46 69 -46 79 0 9 16 40 35 69 19 29 35 56 35 61 0
19 -55 9 -68 -12z"/>
<path d="M9770 4425 c0 -8 5 -15 10 -15 6 0 10 -8 10 -17 1 -10 16 -49 34 -88
32 -67 33 -71 19 -112 -8 -23 -21 -47 -29 -54 -8 -6 -14 -22 -14 -35 0 -30 33
-41 65 -20 32 21 31 21 44 -14 7 -23 16 -30 36 -30 37 0 40 22 16 94 -29 85
-27 108 14 177 39 67 45 99 18 99 -24 0 -34 -8 -67 -52 -16 -21 -33 -38 -38
-38 -12 0 -57 52 -58 67 0 13 -39 53 -52 53 -4 0 -8 -7 -8 -15z"/>
<path d="M1801 4350 c-35 -51 -41 -68 -41 -111 0 -49 -1 -50 -50 -81 -55 -34
-56 -36 -36 -63 13 -18 15 -18 76 8 34 15 66 25 71 21 14 -8 11 -40 -5 -53 -7
-6 -21 -32 -31 -57 -15 -39 -15 -48 -4 -55 22 -14 37 -10 54 14 13 19 17 20
25 7 5 -8 10 -33 10 -55 0 -57 12 -73 41 -54 20 14 22 23 20 82 -2 63 -1 67
23 79 37 16 35 52 -4 68 -18 8 -30 20 -30 31 0 25 35 59 60 59 24 0 43 39 28
58 -6 6 -23 12 -39 12 -37 0 -42 11 -18 46 28 42 24 54 -15 54 -22 0 -45 9
-64 25 l-29 25 -42 -60z m53 -45 c-4 -8 -8 -15 -10 -15 -2 0 -4 7 -4 15 0 8 4
15 10 15 5 0 7 -7 4 -15z"/>
<path d="M15245 4354 c-38 -8 -91 -16 -118 -20 -36 -4 -51 -11 -64 -30 -26
-41 -9 -46 118 -35 125 10 169 22 169 46 0 20 -18 55 -28 54 -4 -1 -38 -7 -77
-15z"/>
<path d="M6030 4304 c-8 -1 -50 -6 -92 -9 -66 -6 -79 -10 -92 -30 -13 -20 -14
-29 -4 -50 13 -29 25 -31 48 -10 13 12 44 16 116 18 l99 2 3 27 c3 21 -3 30
-27 42 -16 9 -31 15 -33 15 -2 -1 -10 -3 -18 -5z"/>
<path d="M10752 4293 c-109 -4 -113 -4 -124 -29 -19 -41 0 -49 106 -46 71 3
101 0 124 -12 29 -15 31 -15 47 11 16 24 16 30 4 52 -8 14 -21 26 -29 26 -8 1
-66 -1 -128 -2z"/>
<path d="M12482 4207 c-9 -10 -8 -18 1 -31 12 -17 14 -16 37 2 27 22 26 26 -6
36 -13 4 -26 1 -32 -7z"/>
<path d="M15285 4209 c-200 -34 -278 -60 -273 -93 4 -26 34 -26 168 0 52 10
116 18 142 18 58 1 76 16 61 49 -13 28 -41 35 -98 26z"/>
<path d="M656 4161 c-12 -19 -25 -203 -20 -263 8 -78 19 -102 41 -90 13 8 16
34 17 168 1 88 5 167 10 177 7 14 3 17 -17 17 -14 0 -28 -4 -31 -9z"/>
<path d="M16160 4160 c-25 -4 -111 -11 -192 -15 -160 -8 -179 -13 -153 -39 15
-15 42 -16 258 -11 133 3 268 8 299 10 68 6 300 -11 378 -27 75 -15 519 -27
548 -14 27 11 28 26 3 53 -19 20 -33 21 -298 26 -153 3 -298 10 -323 16 -52
12 -452 12 -520 1z"/>
<path d="M2527 4073 c-15 -14 -7 -43 12 -43 26 0 36 17 21 35 -14 16 -23 19
-33 8z"/>
<path d="M11542 4038 c-35 -38 -64 -127 -69 -215 -5 -77 -5 -82 20 -107 32
-32 44 -32 87 -1 l34 25 33 -34 c23 -24 39 -32 53 -29 32 8 33 20 8 71 -18 37
-23 63 -23 128 0 72 -3 83 -27 112 -15 18 -29 41 -33 52 -9 28 -56 26 -83 -2z
m56 -118 c6 -41 -16 -97 -40 -103 -12 -4 -23 -5 -24 -4 -4 4 23 115 31 127 11
17 30 6 33 -20z"/>
<path d="M7080 4025 c-6 -15 -10 -36 -10 -49 0 -12 -6 -28 -12 -34 -8 -8 -13
-40 -13 -83 0 -58 3 -73 19 -85 28 -20 35 -18 72 21 18 19 40 35 49 35 9 0 33
-13 53 -30 24 -19 54 -32 84 -36 41 -6 49 -4 73 20 25 25 27 32 21 79 -8 58
-44 122 -75 132 -12 3 -40 -3 -67 -14 -60 -27 -65 -27 -100 10 -16 17 -41 37
-57 45 -26 14 -28 13 -37 -11z m260 -114 c10 -20 -2 -71 -17 -71 -5 0 -21 10
-36 23 -32 25 -29 53 6 60 12 2 25 5 29 6 4 0 12 -8 18 -18z m-200 -17 c0 -17
-22 -14 -28 4 -2 7 3 12 12 12 9 0 16 -7 16 -16z"/>
<path d="M16297 4031 c-6 -23 17 -41 50 -41 10 0 24 -4 32 -9 21 -14 4 -31
-96 -97 -45 -31 -92 -67 -103 -81 -18 -23 -18 -27 -3 -49 15 -23 20 -24 135
-24 114 0 153 8 170 34 13 18 9 25 -19 39 -19 9 -39 11 -63 6 -35 -8 -71 -3
-69 9 0 4 14 18 31 32 82 67 119 111 116 138 -3 30 -35 44 -124 57 -47 6 -52
5 -57 -14z"/>
<path d="M6870 3949 c-14 -6 -47 -9 -74 -7 -36 2 -51 -1 -59 -13 -36 -58 88
-91 178 -48 39 19 47 63 13 73 -28 7 -27 7 -58 -5z"/>
<path d="M2496 3931 c-14 -22 23 -59 45 -45 5 3 9 16 9 30 0 19 -5 24 -24 24
-14 0 -27 -4 -30 -9z"/>
<path d="M12325 2808 c-3 -8 -1 -36 5 -62 6 -26 8 -52 5 -57 -9 -14 -46 -11
-64 5 -20 17 -117 31 -125 18 -7 -12 48 -24 70 -15 10 4 22 -1 30 -11 8 -12
31 -19 71 -23 53 -5 60 -3 82 20 l23 26 -33 8 c-30 8 -34 14 -41 52 -8 50 -15
61 -23 39z"/>
<path d="M12189 2581 c-18 -15 -21 -23 -13 -31 8 -8 15 -7 27 4 22 22 30 20
49 -14 l17 -29 -45 -39 c-36 -32 -41 -42 -30 -51 7 -6 28 -10 46 -9 25 2 37
-3 52 -24 l21 -26 -25 -26 c-15 -17 -40 -29 -68 -34 -60 -10 -57 -26 4 -30 45
-3 52 0 87 34 44 43 49 72 18 100 -12 10 -27 31 -35 46 -12 23 -12 29 1 42 28
28 11 58 -52 94 -29 15 -26 16 -54 -7z"/>
<path d="M11215 2153 c-4 -10 -9 -114 -12 -230 -5 -193 -4 -213 11 -219 9 -4
20 -3 24 0 3 4 9 48 12 99 3 51 9 98 13 105 5 6 26 12 48 12 37 0 41 -3 61
-45 19 -40 20 -48 9 -83 -14 -43 -64 -102 -86 -102 -7 0 -28 -12 -45 -27 l-32
-26 22 -17 c56 -42 177 42 200 139 16 66 5 125 -30 164 -25 28 -36 33 -92 37
l-63 5 -5 92 c-5 92 -20 133 -35 96z"/>
<path d="M11813 2119 c-66 -25 -151 -115 -191 -202 -46 -96 -62 -137 -62 -151
0 -7 -9 -42 -20 -76 -28 -86 -28 -221 0 -281 11 -24 20 -54 20 -67 0 -37 35
-95 84 -140 36 -33 54 -42 83 -43 89 -2 128 4 151 22 14 10 30 19 36 19 6 1
35 20 65 43 63 49 137 150 146 201 4 19 13 40 21 47 8 6 14 29 14 49 0 21 7
67 16 102 22 85 7 259 -27 318 -5 8 -15 29 -22 45 -23 49 -84 96 -151 116 -76
23 -98 23 -163 -2z m203 -61 c78 -58 109 -116 119 -221 9 -99 -3 -120 -46 -79
-30 28 -36 59 -18 93 8 16 5 28 -13 57 -42 69 -96 93 -118 53 -8 -16 -5 -23
19 -41 53 -37 50 -74 -13 -136 -66 -64 -67 -68 -50 -92 14 -20 17 -21 42 -8
38 19 190 27 196 10 15 -39 -27 -209 -73 -299 -21 -40 -97 -125 -112 -125 -16
0 -19 20 -10 59 7 32 6 43 -6 53 -13 10 -18 8 -33 -10 -10 -12 -29 -22 -43
-22 -23 0 -26 5 -37 71 -14 82 -5 115 43 155 26 22 28 28 19 50 -14 30 -45 31
-64 2 -15 -22 -16 -22 -41 -5 -15 10 -27 24 -27 33 0 9 -14 30 -31 47 l-31 31
-29 -32 c-29 -32 -36 -65 -20 -91 6 -10 13 -10 29 -2 28 15 40 -3 48 -72 6
-49 3 -61 -21 -104 -28 -49 -61 -82 -82 -83 -21 0 -46 142 -40 228 7 99 14
135 39 202 52 140 92 203 176 273 31 25 41 27 116 27 70 0 87 -3 112 -22z
m-248 -720 c5 -7 11 -22 14 -33 4 -26 43 -44 98 -46 l45 -1 -31 -13 c-17 -8
-34 -21 -37 -29 -10 -24 -70 -30 -111 -11 -36 17 -96 72 -96 87 0 5 10 12 23
17 13 5 29 16 36 25 16 19 45 21 59 4z"/>
<path d="M15671 2042 c-52 -25 -91 -116 -97 -229 -5 -73 -2 -94 13 -123 24
-45 66 -70 90 -52 52 36 65 35 101 -7 22 -27 42 -41 57 -41 35 0 36 37 3 73
-37 39 -49 87 -41 174 5 66 4 77 -15 103 -12 16 -22 37 -22 47 0 21 -7 31 -35
55 -19 16 -23 16 -54 0z m64 -116 c-3 -12 -9 -50 -12 -86 -6 -60 -34 -130 -53
-130 -5 0 -16 8 -25 17 -33 33 -2 215 43 249 15 11 20 10 35 -8 11 -14 16 -30
12 -42z"/>
<path d="M16767 2043 c-13 -12 -7 -44 8 -49 8 -4 15 -11 15 -16 0 -13 -121
-132 -148 -147 -18 -10 -22 -6 -34 31 -7 23 -19 43 -26 46 -10 3 -11 -22 -6
-120 5 -108 -7 -312 -20 -325 -2 -2 -19 3 -38 13 -29 15 -83 18 -468 25 -239
4 -458 10 -485 14 -41 6 -54 4 -65 -9 -7 -10 -9 -20 -4 -25 14 -12 135 -31
199 -31 54 0 57 -1 68 -31 9 -23 26 -37 65 -55 32 -14 52 -30 52 -40 0 -23
-74 -87 -136 -119 -52 -26 -75 -61 -51 -77 7 -4 68 -7 137 -6 l125 3 0 25 c0
22 -19 39 -59 53 -4 1 6 26 23 54 17 27 31 60 31 72 0 22 -34 64 -61 73 -11 4
-11 8 -2 18 9 10 73 11 295 6 156 -3 300 -6 321 -6 44 1 46 -11 21 -105 -30
-109 -34 -139 -20 -153 10 -11 17 -10 34 5 22 18 43 79 62 183 6 30 17 85 25
121 8 37 15 112 15 167 0 73 4 103 14 111 8 7 17 8 20 3 10 -16 73 -23 136
-16 52 6 61 10 66 30 9 36 -13 57 -54 51 -73 -12 -73 18 -2 80 45 39 54 72 29
110 -23 35 -65 53 -82 36z"/>
<path d="M8797 2029 c-18 -10 -17 -13 13 -44 18 -18 30 -39 28 -46 -2 -7 -26
-20 -53 -28 -54 -18 -77 -43 -57 -63 9 -9 42 -13 95 -13 137 0 162 17 112 71
-14 15 -25 37 -25 49 0 24 -44 70 -75 78 -11 4 -28 1 -38 -4z"/>
<path d="M16116 1994 c-3 -26 -6 -61 -6 -78 0 -17 -4 -37 -9 -45 -13 -21 -71
23 -71 54 0 29 -13 38 -40 30 -15 -5 -19 -12 -14 -30 7 -29 -7 -38 -67 -41
-59 -2 -69 -9 -69 -40 0 -26 3 -27 67 -24 65 2 80 -10 85 -75 5 -64 18 -84 40
-61 11 11 14 29 10 65 -4 50 -4 51 22 51 35 0 41 -19 22 -65 -22 -52 -20 -79
9 -113 14 -17 25 -35 25 -41 0 -6 11 -16 24 -22 21 -10 28 -7 56 21 40 41 60
87 60 140 0 56 -12 75 -61 94 l-42 17 6 57 c4 31 9 71 13 88 4 22 1 36 -11 47
-28 29 -42 20 -49 -29z m64 -318 c0 -8 -4 -18 -10 -21 -5 -3 -10 3 -10 14 0
12 5 21 10 21 6 0 10 -6 10 -14z"/>
<path d="M10864 1997 l-27 -23 13 -356 c11 -323 11 -358 -4 -387 -9 -17 -20
-31 -24 -31 -5 0 -16 -6 -26 -13 -14 -10 -15 -18 -7 -40 14 -35 52 -36 84 -1
43 46 48 103 37 394 -15 404 -15 403 -2 427 29 52 3 70 -44 30z"/>
<path d="M12947 2000 c-5 -20 19 -280 29 -312 8 -27 33 -22 45 9 12 32 -14
288 -32 309 -17 20 -36 17 -42 -6z"/>
<path d="M7247 1959 c-14 -8 -16 -14 -6 -25 6 -8 20 -14 29 -14 62 0 65 -34 7
-98 -45 -51 -87 -107 -87 -118 0 -11 -50 -74 -59 -74 -4 0 -18 25 -31 56 -28
68 -79 131 -91 113 -4 -7 -1 -25 6 -40 8 -15 19 -44 24 -65 5 -22 21 -69 35
-106 23 -62 24 -70 12 -105 -7 -21 -23 -54 -35 -73 -24 -40 -28 -85 -7 -93 14
-6 40 19 69 66 23 36 53 35 75 -2 15 -27 54 -46 67 -33 13 14 2 50 -35 104
-41 62 -45 94 -16 143 7 11 17 38 24 60 16 55 40 68 96 53 36 -9 48 -9 60 1
21 18 20 30 -5 57 -21 22 -21 24 -5 66 21 51 14 101 -17 123 -25 17 -83 19
-110 4z"/>
<path d="M6488 1954 c-39 -12 -5 -50 50 -59 20 -3 51 -10 69 -16 36 -11 73 2
73 25 0 28 -142 65 -192 50z"/>
<path d="M13843 1880 c-21 -9 -23 -16 -23 -94 0 -95 -4 -101 -65 -101 -81 -1
-126 -72 -133 -212 -5 -104 6 -144 44 -162 34 -15 88 8 108 48 20 38 55 50 73
25 7 -10 13 -24 13 -32 0 -21 39 -72 56 -72 22 0 40 46 25 64 -19 23 -41 183
-42 316 -1 142 -9 222 -24 226 -5 1 -20 -1 -32 -6z m-65 -312 c2 -21 -4 -52
-12 -70 -8 -18 -22 -50 -30 -72 -14 -34 -18 -37 -32 -25 -22 18 -16 144 9 183
27 41 61 33 65 -16z"/>
<path d="M4507 1855 c-31 -22 -36 -29 -26 -41 15 -18 39 -18 66 1 18 12 30 13
73 4 98 -21 150 -97 135 -198 -14 -96 -80 -201 -125 -201 -46 0 -50 13 -50
176 0 159 -6 180 -46 172 -15 -3 -17 -26 -20 -225 -3 -147 0 -224 7 -228 5 -4
37 -4 70 0 55 7 65 11 115 61 38 37 66 77 93 134 44 94 51 90 51 -30 0 -88 11
-108 51 -90 24 11 24 11 19 148 -3 75 -5 139 -4 140 11 17 94 -107 94 -141 0
-6 -11 -39 -25 -73 -20 -50 -23 -68 -15 -89 7 -19 15 -25 26 -21 9 3 17 6 20
6 2 0 10 14 19 30 20 39 35 38 63 -6 29 -45 56 -43 60 5 2 22 -3 43 -16 60
-10 14 -27 41 -36 60 -19 37 -17 49 35 156 21 44 23 54 10 73 -13 21 -53 -4
-76 -46 -27 -50 -51 -53 -70 -9 -35 83 -125 114 -154 52 -13 -27 -15 -28 -25
-11 -64 108 -122 149 -216 154 -57 3 -70 0 -103 -23z"/>
<path d="M6463 1818 c-17 -20 -27 -211 -21 -392 3 -105 3 -109 -19 -119 -27
-12 -29 -30 -6 -57 20 -23 60 -26 88 -6 11 7 51 16 88 20 119 12 128 15 125
45 -3 24 -6 26 -53 25 -27 -1 -72 -3 -100 -5 l-50 -4 0 105 0 105 68 3 c62 3
67 5 67 25 0 35 -19 47 -76 47 -29 0 -56 5 -62 13 -5 6 -12 51 -14 100 -5 89
-16 119 -35 95z"/>
<path d="M6864 1809 c-17 -19 -19 -39 -19 -238 0 -223 7 -272 43 -286 31 -12
35 11 22 133 -8 73 -11 177 -7 266 6 155 1 170 -39 125z"/>
<path d="M8409 1768 c-21 -29 -24 -45 -26 -128 -1 -52 -4 -143 -7 -202 -3 -60
-1 -119 4 -133 9 -25 10 -25 46 -10 20 8 51 15 69 15 66 0 95 11 95 36 0 31
-27 44 -78 37 -54 -7 -72 8 -72 61 0 55 24 90 51 76 11 -6 41 -10 67 -8 40 3
47 6 50 25 4 28 -17 39 -91 48 -65 8 -77 21 -77 83 0 53 19 68 59 48 41 -22
68 -20 81 5 16 29 0 45 -65 64 -72 21 -78 20 -106 -17z"/>
<path d="M5250 1783 c0 -3 13 -27 29 -52 38 -60 52 -136 41 -231 -22 -189 -4
-264 41 -173 22 44 24 61 24 193 0 131 -2 149 -22 187 -24 43 -70 83 -97 83
-9 0 -16 -3 -16 -7z"/>
<path d="M15299 1751 c-15 -21 -37 -68 -49 -105 -21 -60 -22 -79 -17 -189 6
-136 29 -221 79 -295 35 -50 54 -61 74 -40 13 12 12 19 -10 50 -49 73 -67 129
-76 238 -9 116 2 254 23 279 7 9 18 28 25 43 9 22 8 30 -4 43 -9 8 -16 15 -17
15 -1 -1 -14 -18 -28 -39z"/>
<path d="M3367 1767 c-107 -26 -176 -144 -177 -299 0 -127 58 -224 150 -248
140 -38 321 131 320 298 -1 93 -84 224 -159 250 -41 14 -70 14 -134 -1z m142
-102 c49 -44 89 -153 65 -177 -7 -7 -74 8 -86 20 -5 5 -2 20 7 38 8 16 15 36
15 45 0 19 -35 51 -75 68 -29 12 -29 13 -10 27 28 21 41 18 84 -21z m-149 -21
c7 -22 21 -39 36 -44 34 -13 30 -40 -11 -80 -68 -66 -38 -104 82 -102 40 1 75
-3 78 -7 2 -5 -16 -31 -43 -59 -62 -66 -117 -84 -169 -57 -54 29 -83 96 -83
190 0 110 37 189 92 194 3 1 12 -15 18 -35z"/>
<path d="M8886 1762 c-3 -5 -13 -31 -23 -58 -25 -73 -26 -368 0 -407 18 -28
32 -33 56 -18 11 7 11 15 0 47 -20 58 -16 343 5 386 9 17 16 37 16 45 0 14
-45 18 -54 5z"/>
<path d="M7465 1751 c-3 -6 0 -29 6 -53 7 -24 14 -92 16 -153 3 -99 1 -117
-22 -180 -14 -38 -30 -84 -36 -102 -8 -27 -16 -33 -57 -42 -56 -13 -1000 -20
-1049 -8 -27 7 -33 6 -33 -7 0 -37 41 -40 546 -44 342 -2 505 0 533 8 105 28
191 182 191 340 0 126 -64 290 -95 241z"/>
<path d="M9340 1717 c0 -13 6 -29 13 -35 8 -9 13 -62 15 -174 4 -173 -11 -278
-49 -350 -27 -52 -25 -68 9 -68 41 0 67 42 93 151 19 83 21 110 15 230 -7 151
-25 230 -59 254 -29 21 -37 19 -37 -8z"/>
<path d="M5765 1690 c-20 -22 -20 -22 4 -41 13 -10 28 -16 34 -12 14 8 90 5
119 -6 17 -6 30 -3 51 11 15 11 27 23 27 28 0 20 -59 37 -135 39 -72 2 -83 0
-100 -19z"/>
<path d="M9036 1684 c-3 -8 3 -36 15 -60 31 -69 28 -128 -10 -197 -36 -66 -39
-92 -12 -106 15 -9 24 -3 50 29 18 22 36 40 42 40 5 0 16 -15 25 -33 22 -45
46 -60 70 -42 18 13 17 17 -19 87 -50 98 -48 145 11 210 17 18 22 32 17 47 -9
30 -34 26 -71 -10 l-31 -30 -22 27 c-12 15 -30 34 -40 41 -16 11 -20 10 -25
-3z"/>
<path d="M10174 1640 c-83 -7 -130 -31 -115 -58 8 -14 24 -16 118 -14 136 4
143 6 143 42 0 28 -22 42 -60 38 -8 0 -47 -4 -86 -8z"/>
<path d="M14075 1610 c-4 -6 -1 -43 5 -83 l12 -72 -42 -77 c-48 -90 -51 -131
-10 -136 21 -2 29 4 42 31 15 31 52 54 62 39 2 -4 9 -26 15 -48 8 -29 18 -43
33 -47 45 -12 49 29 12 130 -31 84 -28 101 21 166 42 55 48 103 13 91 -13 -4
-36 -18 -52 -31 -37 -31 -58 -26 -68 15 -8 31 -30 42 -43 22z"/>
<path d="M6006 1601 c-3 -4 -36 -11 -73 -14 -37 -3 -86 -12 -108 -19 -32 -11
-40 -18 -40 -38 l0 -25 105 3 c125 4 180 22 180 59 0 16 -8 27 -26 33 -31 12
-32 12 -38 1z"/>
<path d="M12482 1589 c4 -27 56 -58 103 -59 116 -5 768 -4 803 1 57 8 78 28
62 59 l-12 23 -192 -8 c-233 -10 -630 -10 -709 0 -57 7 -59 6 -55 -16z"/>
<path d="M7735 1510 c-3 -11 -4 -24 -1 -29 6 -8 56 -18 151 -27 60 -6 102 12
97 42 -6 30 -20 34 -134 34 -98 0 -107 -2 -113 -20z"/>
<path d="M14665 1500 c-4 -12 -2 -27 3 -32 18 -18 135 -37 230 -38 89 0 93 1
104 25 6 14 8 28 4 33 -4 4 -62 10 -129 14 -67 3 -141 10 -163 13 -38 7 -43 5
-49 -15z"/>
<path d="M12545 1500 c-19 -7 -20 -18 -25 -211 l-5 -204 -28 -3 c-15 -2 -57 6
-93 18 -82 27 -107 15 -47 -23 41 -26 29 -25 343 -43 74 -4 236 -7 360 -7 385
2 367 1 374 20 10 25 -12 33 -101 33 -45 0 -85 4 -88 10 -3 5 17 33 45 62 l51
53 20 -27 c22 -30 59 -37 77 -15 7 8 2 28 -15 65 -17 38 -25 76 -28 129 -2 41
-7 79 -12 83 -4 4 -26 10 -48 14 -22 3 -56 8 -76 12 -20 3 -46 1 -57 -5 -44
-23 -86 -243 -63 -326 6 -24 7 -43 1 -49 -10 -10 -395 -12 -428 -2 -28 9 -28
15 4 62 49 72 26 137 -77 211 -47 33 -49 37 -49 81 0 57 -9 72 -35 62z m735
-114 c16 -31 8 -73 -27 -143 -18 -35 -33 -53 -43 -50 -12 2 -15 19 -13 90 1
47 7 96 13 107 15 28 54 26 70 -4z m-642 -116 c28 -38 28 -56 -4 -97 -34 -44
-54 -31 -54 36 0 94 19 114 58 61z"/>
<path d="M10063 1490 c-21 -8 -28 -26 -20 -47 1 -5 36 -8 77 -9 52 -1 92 -8
129 -23 62 -25 91 -21 91 15 0 20 -9 29 -47 46 -54 23 -193 34 -230 18z"/>
<path d="M12174 1474 c3 -9 6 -20 6 -25 0 -16 48 -10 54 7 11 29 6 34 -30 34
-29 0 -35 -3 -30 -16z"/>
<path d="M11122 1460 c-42 -26 -63 -88 -69 -206 -5 -94 -4 -103 16 -123 30
-30 71 -27 117 10 l38 30 34 -40 c37 -45 56 -51 72 -22 7 15 4 32 -14 73 -13
29 -26 76 -30 103 -4 30 -19 66 -36 91 -17 23 -34 53 -39 67 -12 32 -52 39
-89 17z m86 -87 c2 -12 -6 -41 -16 -65 -11 -24 -23 -53 -26 -64 -7 -21 -56
-40 -56 -22 0 27 23 155 31 170 13 23 63 9 67 -19z"/>
<path d="M12995 1425 c-5 -2 -45 -9 -88 -16 -89 -15 -106 -27 -89 -64 12 -26
48 -33 80 -16 12 7 34 1 77 -21 47 -23 64 -27 82 -19 24 11 37 56 31 107 -3
26 -7 29 -43 31 -22 1 -44 0 -50 -2z"/>
<path d="M6246 1101 c-3 -5 6 -12 22 -16 15 -3 34 -12 42 -19 8 -8 44 -16 80
-19 36 -3 96 -14 133 -23 60 -15 84 -16 190 -6 67 6 174 14 237 17 202 9 314
35 294 66 -8 13 -88 11 -121 -2 -28 -12 -347 -32 -498 -32 -131 0 -279 15
-300 29 -22 16 -71 19 -79 5z"/>
<path d="M15323 1082 c-29 -2 -43 -8 -43 -18 0 -8 10 -14 23 -14 12 0 58 -9
102 -20 92 -23 296 -27 402 -9 44 8 81 8 121 1 36 -6 76 -7 107 -1 26 5 165
10 307 11 193 1 264 5 276 15 15 11 15 14 2 23 -19 13 -530 13 -585 0 -26 -6
-63 -5 -105 1 -49 8 -79 8 -120 -2 -97 -21 -296 -23 -376 -2 -38 10 -88 17
-111 15z"/>
</g>
</svg>
