<?xml version="1.0" standalone="no"?>
<!DOCTYPE svg PUBLIC "-//W3C//DTD SVG 20010904//EN"
 "http://www.w3.org/TR/2001/REC-SVG-20010904/DTD/svg10.dtd">
<svg version="1.0" xmlns="http://www.w3.org/2000/svg"
 width="2220.000000pt" height="346.000000pt" viewBox="0 0 2220.000000 346.000000"
 preserveAspectRatio="xMidYMid meet">

<g transform="translate(0.000000,346.000000) scale(0.100000,-0.100000)"
fill="#000000" stroke="none">
<path d="M3747 3104 c-14 -14 -5 -27 76 -113 45 -48 103 -113 129 -143 71 -83
158 -115 166 -60 3 17 -5 26 -30 40 -18 9 -71 55 -118 102 -90 91 -185 173
-204 178 -7 1 -15 0 -19 -4z"/>
<path d="M4392 3078 c-7 -7 -12 -30 -12 -53 0 -39 -2 -41 -42 -55 -35 -12 -43
-20 -43 -40 0 -18 6 -26 23 -28 12 -2 22 -7 22 -11 0 -16 -30 -80 -40 -86 -5
-3 -10 -15 -10 -27 0 -21 -39 -100 -52 -106 -16 -7 -7 -52 12 -62 16 -8 20
-21 20 -60 0 -54 9 -65 45 -56 23 6 24 10 27 102 l3 96 72 1 c50 2 74 -2 78
-10 2 -7 0 -63 -6 -125 -6 -62 -9 -147 -7 -188 l3 -75 31 -3 c42 -4 54 26 54
142 l0 93 49 -5 c40 -4 55 0 92 24 73 46 149 130 149 162 0 56 -51 76 -195 77
l-90 0 -3 38 c-3 35 -6 38 -30 35 -24 -3 -27 -8 -30 -44 l-3 -41 -57 -6 c-31
-3 -61 -2 -66 3 -5 5 2 34 15 68 l23 61 76 6 c41 4 82 9 92 11 22 6 30 31 17
56 -10 19 -18 20 -85 15 l-74 -5 0 32 c0 30 -23 76 -39 76 -4 0 -12 -5 -19
-12z m371 -374 c15 -15 -111 -106 -165 -119 -28 -7 -28 -7 -28 47 0 30 5 59
12 66 13 13 169 17 181 6z"/>
<path d="M1815 2994 c-70 -33 -91 -52 -116 -104 -30 -62 -44 -161 -32 -230 7
-38 13 -48 44 -63 71 -35 148 12 220 133 34 59 41 79 42 128 1 41 -4 67 -16
85 -34 53 -94 74 -142 51z m75 -93 c14 -27 13 -76 -2 -104 -33 -58 -85 -119
-115 -136 -19 -10 -24 -8 -34 10 -22 43 13 221 41 204 14 -9 60 14 60 30 0 22
37 19 50 -4z"/>
<path d="M486 2977 c-18 -13 -18 -15 -2 -40 14 -21 15 -32 7 -64 -6 -21 -11
-54 -11 -73 0 -20 -4 -40 -8 -45 -16 -18 -55 -163 -49 -179 4 -10 18 -16 36
-16 32 0 31 -2 61 105 47 163 53 267 20 303 -24 26 -30 27 -54 9z"/>
<path d="M2692 2938 c-16 -76 -23 -333 -9 -347 18 -18 45 -13 59 12 12 22 14
359 2 378 -3 5 -13 9 -23 9 -13 0 -21 -13 -29 -52z"/>
<path d="M2944 2958 c21 -113 26 -205 16 -281 -11 -87 -26 -151 -41 -179 -15
-29 -11 -78 7 -85 28 -10 48 11 70 77 35 101 49 243 34 358 -14 111 -29 142
-66 142 -24 0 -26 -3 -20 -32z"/>
<path d="M1454 2950 c-22 -20 -34 -46 -43 -87 -7 -32 -17 -75 -23 -95 -6 -20
-8 -56 -5 -80 20 -140 46 -201 90 -206 35 -4 44 19 24 61 -39 83 -48 188 -26
284 15 63 24 79 41 75 9 -1 21 5 28 13 11 13 9 20 -10 40 -30 32 -40 31 -76
-5z"/>
<path d="M3531 2923 c-17 -26 -35 -53 -41 -60 -5 -7 -10 -16 -10 -22 0 -5 -13
-22 -30 -38 -40 -37 -41 -73 -2 -73 32 0 59 25 91 83 12 20 30 53 42 73 45 80
-2 115 -50 37z"/>
<path d="M2415 2890 c-3 -5 -19 -10 -35 -10 -16 0 -32 -4 -35 -10 -4 -6 -55
-10 -121 -10 l-114 0 0 -25 c0 -33 29 -40 155 -39 161 2 255 41 215 89 -14 17
-56 20 -65 5z"/>
<path d="M3677 2853 c-4 -3 -7 -15 -7 -25 0 -20 25 -34 83 -43 l37 -6 -30 -44
c-16 -24 -30 -48 -30 -53 0 -6 -4 -12 -9 -14 -5 -1 -20 -27 -35 -56 -30 -59
-27 -89 7 -94 18 -2 21 -8 19 -36 -10 -95 87 -77 169 31 64 86 79 122 79 196
0 90 -16 106 -140 137 -59 14 -132 18 -143 7z m207 -109 c10 -27 7 -47 -18
-100 -32 -68 -82 -124 -112 -124 -13 0 -24 2 -24 4 0 3 105 210 116 227 9 14
31 10 38 -7z"/>
<path d="M632 2678 c-21 -21 -14 -48 12 -48 30 0 40 13 31 40 -7 23 -25 26
-43 8z"/>
<path d="M9425 1840 c-8 -12 -16 -130 -35 -475 -6 -110 -14 -231 -18 -270 l-7
-70 -33 -3 c-33 -3 -35 -2 -47 52 -4 17 -35 59 -76 101 -38 39 -69 77 -69 84
0 7 29 55 66 107 36 52 62 99 59 104 -16 26 -48 6 -107 -69 -35 -44 -67 -79
-73 -77 -5 1 -31 38 -57 82 -26 43 -56 85 -66 92 -33 22 -69 -6 -43 -33 14
-15 111 -206 111 -219 0 -6 -25 -38 -55 -71 -30 -33 -57 -68 -61 -78 -7 -23
12 -47 39 -47 21 0 77 56 102 103 9 15 22 27 29 27 21 0 134 -135 136 -162 0
-7 -107 -14 -335 -23 -60 -2 -113 -4 -117 -5 -5 0 -8 -8 -8 -19 0 -37 48 -45
238 -38 97 4 221 10 275 13 l99 7 -7 -64 c-3 -35 -8 -180 -11 -322 -4 -218 -3
-260 10 -272 20 -21 32 -19 50 7 13 19 16 63 17 263 1 132 4 271 8 310 l6 69
35 8 c32 7 215 13 1085 39 480 14 1209 21 1235 11 50 -19 95 45 55 78 -26 22
-151 23 -690 9 -286 -8 -578 -13 -648 -11 -71 1 -156 -3 -190 -9 -34 -6 -233
-15 -442 -19 -209 -5 -393 -12 -409 -16 l-29 -7 8 254 c5 140 9 324 9 409 1
136 -1 155 -16 158 -9 2 -19 -2 -23 -8z"/>
<path d="M11256 1624 c-9 -8 -16 -32 -16 -52 0 -20 -5 -62 -12 -94 -10 -47 -9
-71 3 -129 15 -78 35 -103 67 -83 15 10 17 30 17 175 0 126 -3 168 -14 182
-17 21 -25 21 -45 1z"/>
<path d="M9961 1563 c-45 -9 -86 -40 -128 -99 -23 -32 -42 -67 -43 -76 0 -9
-4 -20 -10 -23 -5 -3 -10 -26 -10 -51 0 -73 52 -133 140 -164 31 -11 41 -10
80 9 81 39 179 185 180 267 0 38 -35 92 -75 115 -33 18 -96 29 -134 22z m83
-97 c18 -8 35 -23 38 -34 8 -30 -33 -111 -80 -162 -37 -38 -45 -42 -74 -36
-44 9 -78 43 -78 78 0 16 13 57 29 92 26 57 31 63 54 59 14 -3 33 0 44 6 24
14 28 14 67 -3z"/>
<path d="M1250 1478 c0 -13 4 -28 10 -34 5 -5 13 -30 16 -55 6 -41 4 -47 -20
-62 -22 -15 -25 -21 -16 -37 6 -11 21 -20 35 -20 27 0 39 -25 30 -63 -5 -20
-16 -26 -63 -36 -72 -16 -106 -34 -110 -59 -3 -22 26 -37 56 -28 9 2 27 7 40
11 18 5 22 2 22 -14 0 -11 -9 -36 -19 -54 -11 -19 -25 -45 -33 -58 -7 -13 -28
-41 -45 -62 -36 -41 -40 -58 -18 -77 12 -10 20 -9 40 4 31 20 35 20 35 -1 0
-10 5 -35 11 -55 8 -30 15 -38 33 -38 15 0 26 7 29 20 5 21 30 24 202 22 96
-2 117 9 146 71 52 115 19 177 -94 177 -56 0 -155 -12 -214 -25 -18 -4 -23 -1
-23 14 0 11 5 23 10 26 6 3 10 14 10 24 0 32 33 51 86 51 29 0 59 7 72 16 23
16 29 48 12 59 -5 3 -10 21 -10 38 0 25 7 37 35 55 43 27 44 45 6 73 -19 14
-32 34 -36 58 -9 52 -32 83 -58 79 -16 -2 -21 -9 -18 -23 2 -11 4 -42 5 -70
l1 -50 -35 0 c-27 0 -35 4 -38 20 -3 20 -14 49 -36 95 -6 14 -22 26 -34 28
-17 3 -22 -2 -22 -20z m164 -207 c3 -4 -3 -16 -14 -26 -19 -18 -20 -17 -20 8
0 26 22 38 34 18z m156 -338 c0 -10 -8 -28 -18 -40 -14 -18 -34 -23 -132 -33
-63 -6 -123 -14 -132 -16 -16 -5 -18 2 -18 45 0 60 -6 58 173 60 115 1 127 -1
127 -16z"/>
<path d="M7548 1430 c-8 -12 -24 -20 -43 -21 -16 0 -57 -6 -90 -13 -53 -11
-60 -15 -60 -37 0 -23 3 -24 73 -27 l72 -3 -32 -62 c-18 -34 -36 -63 -40 -65
-5 -2 -8 -8 -8 -14 0 -5 -23 -44 -52 -85 -55 -79 -57 -104 -9 -111 21 -3 22
-8 20 -70 -3 -73 3 -92 30 -92 31 0 43 27 50 107 l6 78 64 3 63 3 -5 -88 c-5
-84 -11 -124 -40 -291 -15 -80 -5 -112 34 -112 24 0 39 35 50 115 10 76 28
185 35 208 3 9 13 17 22 17 45 0 163 102 179 154 9 30 8 37 -11 55 -19 18 -35
21 -102 21 -78 0 -80 1 -98 31 -25 43 -59 37 -66 -11 l-5 -35 -64 -3 c-34 -2
-61 1 -59 5 1 4 30 60 62 125 l59 116 84 13 c89 13 111 29 98 69 -5 16 -15 20
-50 20 -24 0 -55 -4 -68 -9 -20 -8 -29 -6 -43 10 -22 24 -41 24 -56 -1z m215
-406 c4 -4 -15 -22 -41 -41 l-47 -33 -3 26 c-6 43 4 54 46 54 21 0 42 -3 45
-6z"/>
<path d="M3282 1410 c-39 -24 -49 -45 -32 -65 9 -11 17 -12 30 -5 29 15 117
13 123 -4 3 -7 -12 -30 -33 -51 -37 -36 -60 -40 -60 -9 0 8 -8 14 -18 14 -17
0 -20 -12 -25 -127 -4 -71 -10 -185 -13 -254 -7 -133 -4 -147 35 -134 12 3 21
17 23 33 2 21 10 28 36 33 18 4 44 17 58 30 22 21 28 22 57 11 19 -7 39 -12
46 -12 7 0 37 -12 67 -26 64 -30 88 -28 92 7 5 39 -30 60 -138 83 -52 12 -57
20 -36 73 29 75 30 95 6 126 -19 24 -28 27 -82 27 l-62 0 53 53 c29 28 60 67
68 86 20 46 10 99 -20 105 -12 3 -35 8 -52 11 -76 16 -91 15 -123 -5z m158
-330 c0 -24 -31 -90 -42 -90 -5 0 -22 7 -38 15 -23 12 -30 23 -30 44 0 32 26
49 78 50 25 1 32 -3 32 -19z m-85 -130 c8 -13 -14 -42 -25 -35 -10 6 -1 45 11
45 4 0 11 -5 14 -10z"/>
<path d="M6742 1421 c-8 -5 -12 -17 -10 -27 2 -15 14 -20 48 -22 37 -3 54 -12
109 -61 79 -70 158 -131 170 -131 4 0 16 -9 26 -20 25 -27 81 -27 90 0 10 31
-9 54 -72 85 -32 17 -90 56 -131 88 -40 32 -88 66 -108 77 -36 21 -99 26 -122
11z"/>
<path d="M15636 1338 c-8 -18 -22 -58 -30 -88 -9 -30 -22 -66 -30 -80 -7 -14
-27 -50 -43 -80 -17 -30 -28 -61 -26 -67 6 -18 33 -16 55 4 26 23 30 14 18
-43 -17 -80 -49 -437 -50 -553 0 -31 17 -51 45 -51 34 0 43 34 49 185 9 231
14 253 50 272 43 22 166 130 203 178 53 71 73 120 73 180 0 54 -2 58 -49 105
-52 52 -78 60 -159 49 -29 -4 -46 -2 -53 8 -19 22 -39 15 -53 -19z m205 -89
c16 -17 29 -41 29 -54 0 -35 -77 -142 -143 -198 -31 -28 -60 -47 -63 -44 -4 4
1 55 10 114 10 60 20 128 23 153 6 53 14 60 71 60 36 0 49 -5 73 -31z"/>
<path d="M2955 1352 c-29 -7 -66 -54 -53 -68 4 -3 27 -2 50 4 52 13 98 5 105
-17 2 -9 9 -24 14 -33 21 -41 12 -56 -38 -60 -27 -3 -55 -8 -64 -12 -12 -5
-19 1 -29 26 -27 69 -88 102 -119 64 -9 -11 -5 -19 21 -41 l33 -28 -1 -121
c-1 -85 -7 -137 -19 -174 -17 -50 -17 -54 0 -72 10 -11 23 -20 30 -20 21 0 42
34 50 80 3 25 9 60 12 78 4 26 8 30 19 21 13 -10 60 -1 105 22 9 4 20 5 23 2
10 -11 7 -98 -5 -110 -6 -6 -9 -23 -7 -39 2 -24 8 -29 34 -32 30 -3 33 0 49
42 18 47 18 50 0 261 -4 39 -10 81 -15 95 -4 14 -13 44 -20 66 -8 26 -21 46
-35 52 -32 15 -105 22 -140 14z m140 -261 c-13 -11 -104 -41 -127 -41 -13 0
-18 7 -18 25 0 25 2 25 77 25 44 0 73 -4 68 -9z"/>
<path d="M6047 1338 c-2 -7 6 -26 19 -41 13 -15 26 -44 29 -65 4 -20 11 -46
16 -57 13 -28 6 -246 -10 -309 -12 -45 -12 -50 8 -70 30 -29 51 -13 74 55 32
96 23 341 -15 384 -4 5 -8 18 -8 30 0 46 -100 110 -113 73z"/>
<path d="M6664 1328 c-11 -13 -40 -63 -64 -111 -24 -48 -61 -108 -82 -132 -21
-24 -38 -49 -38 -57 0 -21 21 -38 46 -38 36 0 108 104 148 215 10 28 27 65 37
84 15 26 17 36 8 47 -16 20 -33 17 -55 -8z"/>
<path d="M2047 1318 c-2 -7 6 -26 18 -43 13 -16 40 -61 60 -100 21 -38 42 -74
46 -80 20 -21 6 -58 -79 -212 -19 -34 -7 -63 27 -63 22 0 34 9 55 40 14 22 26
46 26 53 0 14 19 37 32 37 4 0 8 -7 8 -15 0 -8 4 -23 9 -33 5 -9 16 -32 23
-49 10 -26 19 -33 40 -33 57 0 52 45 -19 198 -21 44 -19 76 6 135 12 27 21 55
21 62 0 7 7 26 15 41 8 16 15 39 15 52 0 18 -5 23 -22 20 -21 -3 -63 -70 -87
-139 -11 -33 -28 -38 -38 -11 -10 27 -65 105 -92 130 -26 24 -57 29 -64 10z"/>
<path d="M4852 1318 c-6 -8 -20 -36 -32 -63 -18 -42 -22 -71 -23 -175 0 -122
0 -127 33 -194 37 -76 80 -112 112 -95 25 14 22 49 -8 90 -58 77 -78 160 -63
269 6 47 15 94 21 106 22 46 -11 97 -40 62z"/>
<path d="M3869 1262 c-21 -47 -45 -127 -58 -192 -4 -19 -15 -52 -25 -72 -23
-48 -18 -82 13 -86 29 -5 43 9 56 55 6 20 15 38 20 40 6 2 27 -12 47 -31 55
-52 78 -62 137 -62 l54 1 28 50 c16 28 30 55 32 60 2 6 21 -10 43 -33 70 -81
178 -138 209 -112 8 7 15 23 15 35 0 18 -13 29 -62 53 -35 16 -87 51 -116 78
-49 43 -53 50 -47 78 22 106 15 146 -25 146 -14 0 -21 -13 -30 -52 -6 -29 -15
-62 -19 -73 -17 -42 -64 -133 -80 -153 -16 -21 -16 -21 -94 36 l-77 57 6 50
c4 27 11 60 15 73 14 38 11 89 -6 96 -12 4 -21 -7 -36 -42z"/>
<path d="M13882 1298 c-17 -17 -15 -43 4 -59 46 -38 176 -54 188 -23 16 41
-12 63 -79 64 -16 0 -39 7 -49 15 -24 18 -48 19 -64 3z"/>
<path d="M14305 1278 c-11 -18 -23 -46 -27 -63 -3 -16 -14 -59 -22 -95 -9 -36
-21 -84 -26 -108 -6 -23 -10 -100 -10 -171 0 -109 3 -132 18 -151 22 -28 54
-21 70 16 15 31 16 101 2 109 -21 13 -4 259 21 307 5 10 9 29 9 42 0 29 17 73
38 98 20 24 8 48 -26 48 -21 0 -33 -8 -47 -32z"/>
<path d="M19066 1290 c-44 -14 -67 -39 -55 -61 8 -16 17 -18 69 -12 98 10 137
-37 96 -115 -21 -40 -126 -132 -151 -132 -3 0 -5 47 -5 104 0 97 -2 105 -20
111 -39 12 -48 -10 -53 -123 -6 -124 -21 -273 -37 -352 -6 -30 -14 -68 -17
-83 -8 -41 14 -77 48 -77 15 0 31 5 34 10 4 6 11 52 17 103 21 188 22 190 86
233 131 87 193 170 194 262 0 69 -25 103 -93 125 -56 19 -70 19 -113 7z"/>
<path d="M5863 1278 c-32 -41 -43 -322 -15 -375 15 -27 39 -36 64 -22 19 10
20 16 13 88 -5 42 -9 126 -9 186 -1 111 -6 135 -30 135 -8 0 -18 -6 -23 -12z"/>
<path d="M12895 1278 c-7 -25 -16 -314 -10 -331 7 -16 54 -25 56 -9 0 4 6 72
12 152 l12 145 79 -2 c44 -2 81 -5 83 -7 4 -4 -9 -84 -31 -181 -9 -38 -16 -82
-16 -97 0 -32 -12 -42 -41 -33 -19 6 -21 12 -14 49 4 22 8 66 9 96 1 52 0 55
-24 55 -23 0 -25 -4 -28 -55 -1 -30 -6 -64 -11 -75 -5 -11 -12 -31 -14 -45 -3
-14 -20 -66 -38 -117 -31 -85 -33 -94 -18 -109 15 -15 18 -14 36 5 11 11 26
44 33 71 18 66 26 72 86 61 61 -12 100 -4 119 22 16 23 5 47 -22 47 -18 0 -12
60 18 180 46 190 46 190 -111 180 -65 -5 -119 -4 -124 1 -14 13 -36 11 -41 -3z"/>
<path d="M14877 1276 c-3 -8 8 -29 24 -47 16 -18 29 -41 29 -50 0 -10 5 -21
10 -24 6 -4 10 -55 10 -120 0 -65 -4 -116 -10 -120 -5 -3 -10 -17 -10 -30 0
-12 -13 -54 -29 -91 -32 -74 -31 -91 6 -100 32 -8 57 15 73 69 7 23 16 51 21
62 52 122 27 365 -44 436 -30 31 -71 38 -80 15z"/>
<path d="M5054 1270 c-28 -11 -51 -50 -75 -122 -33 -106 -22 -185 36 -238 37
-35 116 -35 166 0 77 54 119 127 119 206 0 62 -18 104 -54 128 -34 21 -58 20
-90 -5 -50 -39 -21 -118 38 -103 22 5 26 3 26 -15 0 -49 -67 -135 -116 -147
-40 -10 -54 11 -54 79 0 73 17 135 42 148 23 12 24 64 2 73 -9 3 -16 6 -17 5
-1 0 -11 -4 -23 -9z"/>
<path d="M20323 1268 c-13 -6 -23 -14 -23 -18 0 -4 -12 -20 -27 -35 -18 -17
-28 -39 -29 -59 -1 -17 -7 -56 -14 -86 -7 -30 -16 -74 -21 -97 -5 -24 -14 -64
-19 -90 -10 -46 -26 -176 -37 -293 -4 -52 -3 -57 21 -70 19 -10 29 -11 37 -3
18 18 39 123 39 199 0 78 4 86 68 129 158 105 234 337 135 414 -28 23 -92 27
-130 9z m81 -74 c22 -21 20 -59 -6 -113 -23 -50 -94 -141 -109 -141 -12 0 -12
35 0 74 6 17 14 60 20 95 15 90 55 126 95 85z"/>
<path d="M20610 1256 c0 -14 5 -28 11 -32 22 -13 40 -77 40 -142 0 -91 -26
-173 -84 -260 -30 -45 -30 -64 0 -81 30 -15 78 14 101 62 58 119 62 133 62
242 0 89 -4 113 -24 159 -24 55 -48 76 -85 76 -16 0 -21 -6 -21 -24z"/>
<path d="M13405 1260 c-3 -5 4 -28 15 -51 16 -31 21 -53 17 -88 -3 -25 -10
-95 -15 -156 -21 -219 -27 -237 -73 -204 -68 48 -107 -7 -48 -67 26 -27 41
-34 72 -34 85 0 102 31 111 205 3 72 9 167 12 212 7 89 -3 129 -39 171 -22 23
-42 28 -52 12z"/>
<path d="M19487 1244 c-64 -63 -127 -230 -127 -334 0 -50 32 -90 71 -90 26 0
29 3 29 34 0 19 -4 38 -10 41 -13 8 -13 60 1 104 43 133 84 210 102 192 13
-13 47 14 47 39 0 46 -72 55 -113 14z"/>
<path d="M18013 1238 c-33 -16 -28 -32 12 -47 28 -10 37 -20 46 -54 19 -73 -2
-191 -53 -290 -37 -73 -36 -121 3 -125 31 -4 53 22 89 108 62 148 64 313 5
385 -23 29 -70 39 -102 23z"/>
<path d="M6806 1225 c-40 -16 -66 -33 -66 -44 0 -4 6 -15 13 -25 13 -17 18
-18 65 -6 40 11 54 11 66 1 13 -11 10 -22 -22 -84 -20 -40 -40 -73 -44 -75 -5
-2 -8 -8 -8 -14 0 -6 -16 -33 -35 -59 -38 -53 -42 -68 -23 -87 37 -37 86 17
144 156 32 76 40 88 42 66 2 -15 -1 -37 -6 -48 -15 -34 -32 -91 -32 -108 0 -9
-11 -30 -25 -46 -14 -17 -25 -39 -25 -49 0 -21 39 -63 57 -63 16 0 53 54 53
77 0 11 3 23 7 27 11 11 44 132 70 259 7 34 -21 91 -51 106 -19 9 -33 12 -113
26 -16 2 -46 -2 -67 -10z"/>
<path d="M14443 1224 c-3 -9 1 -31 10 -48 8 -17 18 -42 22 -56 3 -14 11 -41
16 -60 31 -110 32 -99 -17 -172 -47 -69 -51 -99 -17 -112 27 -11 47 2 73 44
l25 41 20 -25 c11 -13 28 -36 38 -50 19 -28 55 -34 75 -14 17 17 15 43 -4 59
-18 15 -64 102 -64 121 0 7 23 51 50 97 57 96 64 131 25 131 -20 0 -34 -14
-67 -65 -42 -64 -58 -78 -58 -52 0 7 -9 32 -20 55 -11 22 -20 45 -20 51 0 16
-51 71 -66 71 -8 0 -17 -7 -21 -16z"/>
<path d="M17033 1233 c-15 -6 -17 -37 -3 -62 10 -19 -12 -330 -29 -411 -17
-81 20 -101 107 -59 92 45 272 289 272 369 0 47 -44 105 -88 113 -15 3 -45 11
-67 17 -22 7 -65 15 -95 17 -30 3 -59 9 -64 14 -11 10 -15 10 -33 2z m172
-104 c5 -5 20 -9 35 -9 31 -1 60 -22 60 -43 0 -17 -28 -71 -63 -122 -35 -52
-128 -155 -139 -155 -10 0 -6 148 8 294 l6 58 41 -6 c23 -4 46 -11 52 -17z"/>
<path d="M17494 1212 c-21 -13 -71 -116 -83 -172 -7 -30 -17 -71 -22 -91 -5
-20 -9 -68 -9 -106 0 -55 4 -73 18 -86 45 -41 58 -15 66 141 4 81 13 144 27
186 21 68 23 141 3 128z"/>
<path d="M13867 1193 c-4 -3 -7 -83 -7 -177 0 -159 -1 -173 -20 -189 -21 -18
-27 -47 -10 -47 6 0 10 -15 10 -33 0 -70 71 -89 78 -21 5 42 16 48 94 54 78 6
104 23 82 58 -9 14 -26 17 -85 17 l-74 0 -3 38 -3 37 74 0 c77 0 107 15 107
52 0 31 -27 40 -107 36 l-78 -3 -3 80 c-2 43 -8 85 -14 92 -11 14 -31 17 -41
6z"/>
<path d="M17630 1184 c0 -8 5 -25 11 -36 6 -11 20 -57 30 -101 l20 -81 -41
-41 c-42 -42 -51 -78 -24 -89 25 -9 31 -8 63 19 29 25 30 25 40 6 6 -11 11
-28 11 -39 0 -24 33 -55 56 -50 33 6 38 31 19 94 -10 32 -22 64 -27 71 -6 7 9
37 42 85 53 80 62 113 31 121 -25 6 -31 1 -70 -56 -18 -27 -37 -45 -41 -40 -4
4 -15 30 -25 56 -10 27 -27 59 -37 73 -22 27 -58 32 -58 8z"/>
<path d="M19741 1158 c-57 -197 -65 -281 -26 -286 33 -4 48 14 56 65 4 26 13
77 19 113 7 36 13 83 14 105 1 36 -2 40 -25 43 -22 3 -27 -2 -38 -40z"/>
<path d="M5595 1180 c-185 -8 -232 -23 -200 -66 12 -18 26 -19 202 -15 107 2
193 7 201 13 6 6 12 23 12 38 0 28 -17 42 -48 38 -9 -1 -84 -4 -167 -8z"/>
<path d="M15138 1149 c-27 -11 -44 -41 -33 -59 3 -5 27 -10 53 -10 26 0 62 -4
80 -10 40 -11 89 -3 96 15 9 26 -6 54 -33 59 -64 12 -138 14 -163 5z"/>
<path d="M18422 1149 c-46 -4 -90 -13 -98 -20 -17 -14 -18 -45 -2 -55 6 -4 72
-8 147 -9 106 -1 140 2 154 14 20 17 21 39 3 64 -15 19 -58 20 -204 6z"/>
<path d="M13257 1103 c-4 -3 -7 -17 -7 -29 0 -13 -4 -25 -9 -28 -4 -3 -11 -30
-15 -61 -7 -66 5 -98 37 -93 18 2 23 12 29 48 3 25 9 63 13 86 10 58 -20 106
-48 77z"/>
<path d="M19912 1086 c-101 -13 -130 -28 -98 -52 29 -21 298 -20 316 1 10 12
10 21 2 40 -11 23 -17 25 -69 24 -32 -1 -100 -7 -151 -13z"/>
<path d="M15216 1033 c-55 -2 -106 -9 -113 -15 -20 -16 -15 -44 10 -55 34 -15
235 -17 253 -3 32 27 4 85 -38 78 -7 -1 -58 -4 -112 -5z"/>
<path d="M18480 991 c-131 -6 -170 -18 -170 -51 0 -26 45 -56 63 -41 8 6 69
12 146 13 125 3 135 4 148 25 13 19 12 24 -6 42 -12 12 -29 20 -38 19 -10 -1
-74 -4 -143 -7z"/>
<path d="M8217 878 c-3 -29 -8 -63 -12 -75 -11 -33 25 -48 54 -22 16 15 21 31
21 72 0 55 -12 77 -41 77 -13 0 -18 -12 -22 -52z"/>
<path d="M11153 912 c-27 -21 -31 -40 -14 -71 8 -14 11 -37 7 -60 -4 -20 -10
-63 -14 -97 -4 -33 -15 -72 -25 -87 -14 -21 -15 -32 -7 -47 6 -11 7 -26 3 -33
-4 -6 -11 -39 -15 -72 -4 -33 -10 -74 -13 -90 -5 -24 -2 -35 15 -50 42 -38 56
-10 87 170 8 48 11 52 83 102 42 28 97 74 123 102 41 44 47 55 47 94 0 53 -24
87 -89 128 -37 24 -56 29 -105 29 -42 0 -68 -6 -83 -18z m150 -79 c20 -16 39
-34 42 -42 7 -17 -110 -134 -128 -128 -7 2 -11 17 -10 33 7 107 11 159 12 162
5 11 55 -3 84 -25z"/>
<path d="M10184 852 c-7 -4 -12 -44 -12 -97 -2 -85 -9 -166 -34 -350 -13 -102
-9 -129 19 -133 30 -4 53 42 54 110 1 77 8 92 64 133 109 81 185 173 185 222
0 42 -29 84 -73 104 -43 19 -180 27 -203 11z m164 -75 c44 -21 39 -43 -27
-107 -65 -64 -98 -77 -87 -37 3 13 8 50 12 82 8 86 10 88 45 81 17 -3 43 -12
57 -19z"/>
<path d="M9775 838 c-2 -7 -6 -33 -8 -58 -3 -25 -11 -79 -17 -120 -19 -110
-18 -151 2 -164 33 -21 52 15 60 112 4 48 10 115 14 150 4 43 3 66 -6 77 -15
18 -39 20 -45 3z"/>
<path d="M12556 790 c8 -49 -22 -104 -90 -169 -51 -47 -54 -64 -13 -69 22 -3
38 8 82 53 30 31 62 72 70 92 29 69 14 133 -30 133 -24 0 -25 -2 -19 -40z"/>
<path d="M16429 784 c-10 -12 -10 -20 -1 -35 20 -32 13 -64 -24 -107 -62 -73
-25 -126 43 -60 35 34 73 96 73 121 0 24 -31 77 -50 87 -24 13 -25 13 -41 -6z"/>
<path d="M9950 721 c-87 -6 -95 -8 -98 -27 -4 -31 46 -48 140 -49 89 0 115 15
104 59 -5 19 -12 25 -29 24 -12 -1 -65 -4 -117 -7z"/>
<path d="M17085 540 c-3 -5 -16 -10 -28 -10 -24 -1 -57 -22 -57 -37 0 -22 42
-45 107 -58 151 -30 489 -35 2153 -34 1263 0 1673 3 1699 12 36 13 51 32 29
38 -7 3 -733 1 -1613 -4 -1765 -10 -2327 -1 -2325 36 0 4 0 12 0 17 0 6 11 10
24 10 14 0 28 5 31 11 4 6 26 9 49 8 22 -2 42 1 44 7 3 13 -105 17 -113 4z"/>
<path d="M13560 312 c0 -15 22 -29 60 -36 77 -15 571 -27 1245 -32 792 -5 931
2 923 44 -3 15 -17 17 -108 14 -58 -2 -121 -8 -140 -14 -23 -6 -132 -7 -305
-3 -149 4 -360 6 -470 5 -428 -5 -1031 8 -1157 25 -29 4 -48 3 -48 -3z"/>
</g>
</svg>
